<?xml version="1.0" encoding="UTF-8"?>
<svg id="Layer_1" data-name="Layer 1" xmlns="http://www.w3.org/2000/svg" viewBox="0 0 548.71384158 289.72875034">
  <defs>
    <style>
      .cls-1 {
        fill: #025589;
      }

      .cls-2 {
        fill: #086d08;
      }

      .cls-3 {
        fill: #7526a8;
      }
    </style>
  </defs>
  <path class="cls-3" d="M373.38519499,208.21986803c16.87213986-3.20024663,33.69033272-6.390278,50.67077669-9.61106699,5.0004513,22.70439759,24.84921747,32.3722485,46.74064914,26.27172144,15.45931439-3.98325764,21.01991953-24.426376,20.01118139-39.05074888-.92567392-13.41988579-10.47589675-25.57520459-37.5455862-26.39067302-1.47334599-13.03616116-2.949339-26.09603365-4.4344661-39.23671479,22.53733329-6.15782446,35.78061498-16.46118099,33.65793755-40.07155557-.90878805-9.59559061-9.30289713-16.8353382-18.20135664-17.0961069-20.15168523-.59054633-27.97966767,5.56284206-32.45137845,25.77658313-16.77826387-2.83115517-33.57397571-5.66525562-50.36182105-8.49803256,4.84121234-40.49731125,26.04876011-73.24557531,71.8207984-76.92155846,38.09847408-5.25036388,84.82503223,13.03633356,87.16963739,56.47754427,3.61314739,26.36326225-5.846254,53.50500306-27.05075317,70.27152874,40.86240963,24.80905803,41.97543422,80.1244292,24.89497108,119.98622098-16.53001086,37.24511129-62.29250174,43.79737475-98.36901638,37.49807876-37.22862748-8.06557981-57.05860966-45.59990761-66.55157366-79.40522014Z"/>
  <path class="cls-1" d="M264.71515589,219.22547005c24.36799591,1.4743526,48.39620398,2.92816285,72.6634081,4.39643849,2.94918987,21.14927606,5.90039298,42.31316666,8.89077942,63.75775317-53.28938738-1.59973185-106.3138864-3.19152265-159.53972667-4.78935312.83551212-16.44324066-1.54327283-33.84095998.53734837-49.99664407,16.50899304-21.48656299,33.43907261-42.89844717,48.62229383-65.43236193,10.63607992-17.36072291,63.6849415-88.15616507,38.45647377-102.43536971-22.20432617-7.77167434-37.33598554,9.67438837-33.24873919,31.34510739-17.6119259-1.23979312-35.03848587-2.46653755-52.60981171-3.7034786C169.66815603,17.19867536,245.35133652-6.08058898,305.35654394,6.84121804c104.22655183,22.16943972-6.44719795,167.05863751-40.64138805,212.38425202Z"/>
  <path class="cls-2" d="M131.38349394,286.0395045c-20.02084418.74351424-39.77931652,1.4772606-59.71780483,2.21768043,2.43042997-66.78530974,4.85392549-133.37981037,7.3080295-200.81542943-5.3108253,15.80186784-10.3643025,30.83802003-15.46032775,46.00078178-21.10932378-1.35657888-42.12480419-2.70711807-63.51339086-4.08164822C22.78964759,86.73649256,45.39872697,44.44985202,67.9866768,2.2027024c21.76353373-.73518172,43.36038911-1.46472454,65.206782-2.2027024-.60332473,95.34778773-1.20579197,190.55925395-1.80996486,286.0395045Z"/>
</svg>