<?xml version="1.0" encoding="UTF-8"?>
<svg id="Layer_1" data-name="Layer 1" xmlns="http://www.w3.org/2000/svg" viewBox="0 0 488.98516557 558.16482195">
  <defs>
    <style>
      .cls-1 {
        fill: #ff1733;
      }

      .cls-2 {
        fill: #025589;
      }

      .cls-3 {
        fill: #ddced1;
      }

      .cls-4 {
        fill: #ff9605;
      }
    </style>
  </defs>
  <path class="cls-4" d="M397.45123711,503.48552388l.01000977.01000977c6.20001221,13.64001465,23.70996094,40.63000488,6.77996826,52.19000244-15.35998535,11.01000977-35.28997803-17.64001465-44.77996826-27.4699707-72.97003174,38.2699585-159.04998779,37.47998047-231.65002441-1.05004883v.01000977h-.01000977c-7.88000488,9.0300293-15.50994873,18.29003906-25.02996826,25.70001221-7.51000977,5.85003662-14.5300293,6.76000977-20.42999268,2.98999023-17.38000488-11.83996582.77996826-39.75,7.51000977-54.07995605C-33.78875313,400.14555806-28.95873604,210.01555317,98.97125664,114.77556294c1.07000732-.79003906,2.13995361-1.57000732,3.20996094-2.34002686-2.89996338-5.02996826-5.79998779-10.05999756-8.70001221-15.08996582v-.01000977c-25.35998535,16.44000244-47.22998047,36.63000488-65.42999268,60.78997803-17.38995361-26.28997803-21.98999023-54.22998047-12.84997559-84.19000244C29.37122002,27.45555562,68.56122246,3.98552388,110.54126396.53557271c37.2199707-3.07000732,75.08996582,19.87994385,89.75994873,52.61999512-26.90997314,6.09997559-53.75994873,13.82000732-77.92999268,27.36999512v.01000977c2.7800293,4.80999756,5.55999756,9.59997559,8.34002686,14.40997314,32.70996094-16.91998291,68.88000488-26.54998779,105.69000244-28v-18.63000488c-6.4800415,0-12.7300415-.01000977-18.98999023,0-8.32000732.0300293-10.96002197-2.5-11.04003906-10.70001221-.07000732-6.28997803-.20996094-12.57995605-.09997559-18.85998535.08996582-5.35998535,3.08996582-8.34997559,8.39001465-8.38000488,19-.11999512,38.00994873-.09997559,57.0199585-.01000977,5.19000244.02001953,8.30999756,2.88000488,8.42004395,8.11999512.15997314,7.45001221.10998535,14.92004395-.20001221,22.36004639-.25,5.92999268-4.7300415,7.27996826-9.57000732,7.41998291-6.63000488.20001221-13.27001953.04998779-20.29998779.04998779v18.60998535c37.45996094.92004395,72.84997559,10.07000732,106.33996582,26.7800293,2.5300293-4.40002441,5.07000732-8.79998779,7.60998535-13.19000244-24.63995361-13.30999756-50.70996094-21.91003418-78.37994385-27.10998535,17.05999756-28,39.17999268-48.94000244,72.69000244-52.82000732,36.94995117-4.2800293,85.20996094,15,105.12994385,54.64996338,17.69000244,35.21002197,16.4800415,69.26000977-4.82995605,102.74005127-18.54998779-23.11004639-39.41003418-43.91003418-64.42004395-59.77001953-.44000244-.29003906-.88995361-.57000732-1.32995605-.85003662h-.01000977c-2.58001709,4.55999756-5.16003418,9.13000488-7.75,13.70001221h.01000977c1.04998779.7300415,10.69997559,7.46667887,13.01998291,9.29669596,120.58996582,95.52996826,121.95999756,286.27331136-.65999756,383.13329671Z"/>
  <path class="cls-2" d="M457.85256814,312.18238656c-.05999756,117.96002197-95.77996826,213.57000732-213.73999023,213.5-283.51000977-11.76000977-283.04998779-415.95996094.27001953-427.29998779,118.04998779.19000244,213.53997803,95.82000732,213.4699707,213.79998779Z"/>
  <path class="cls-3" d="M244.38259743,98.38239877c-283.32000732,11.34002686-283.7800293,415.53997803-.27001953,427.29998779,117.96002197.07000732,213.67999268-95.53997803,213.73999023-213.5.07000732-117.97998047-95.41998291-213.60998535-213.4699707-213.79998779ZM395.25259255,217.60236947c6.91998291-.06994629,12.77996826,5.76000977,12.75,12.68005371-.0300293,6.86999512-5.72998047,12.59997559-12.55999756,12.63995361-6.96002197.04003906-12.77001953-5.72998047-12.76000977-12.65997314.02001953-6.82000732,5.75-12.60003662,12.57000732-12.66003418ZM243.35256814,131.45240609c16.45001221.70001221,16.15002441,24.08001709-.20001221,24.65997314-6.84997559-.02996826-12.37994385-5.60998535-12.34997559-12.47998047.0300293-6.86999512,5.5300293-12.20001221,12.54998779-12.17999268ZM91.09255837,217.60236947c6.92004395.0300293,12.67004395,5.87005615,12.61999512,12.82000732-.05999756,6.83001709-5.79998779,12.5-12.68994141,12.5-6.9800415,0-12.60003662-5.72998047-12.56005859-12.79998779.0300293-6.89996338,5.74005127-12.55999756,12.63000488-12.52001953ZM70.48257302,324.43238656c-6.76000977,0-12.33996582-5.70001221-12.28997803-12.57000732.04998779-6.72998047,5.61999512-12.19000244,12.39996338-12.15997314,6.86004639.02001953,12.30004883,5.57000732,12.2800293,12.51000977-.02001953,6.67999268-5.63000488,12.20996094-12.39001465,12.2199707ZM94.53256081,406.20240609c-15.86999512-.65002441-16.2199707-23.47003174-.04998779-24.14001465,6.86999512-.02001953,12.15002441,5.19000244,12.15002441,12.01000977.01000977,6.80999756-5.26000977,12.08996582-12.10003662,12.13000488ZM152.00259255,156.96241586c6.77001953-.0300293,12.30999756,5.52996826,12.23999023,12.27996826-.07000732,6.54003906-5.54998779,11.89001465-12.16998291,11.89001465-6.69000244,0-12.16003418-5.47998047-12.11999512-12.15002441.02996826-6.55999756,5.4699707-11.98999023,12.04998779-12.0199585ZM152.76260232,467.69239633c-6.89001465-.04998779-12.65002441-5.90002441-12.65002441-12.85998535,0-6.91003418,5.79998779-12.66003418,12.79998779-12.67004395,7.16003418-.0199585,12.80999756,5.64001465,12.80999756,12.82000732,0,7.05004883-5.82000732,12.76000977-12.95996094,12.71002197ZM243.25259255,488.39240853c-6.79003906.0199585-12.41003418-5.47003174-12.42999268-12.15002441.61999512-16.20001221,24-16.23999023,24.75-.10998535.03997803,6.69000244-5.54003906,12.23999023-12.32000732,12.26000977ZM244.49258278,356.55238168c-1.77001953,0-3.52001953-.14001465-5.21002197-.41998291l-40.13995361,63.45001221c-2.83001709,4.47998047-8.76000977,5.82000732-13.24005127,2.97998047h-.00994873c-4.4800415-2.83996582-5.80999756-8.77001953-2.9800415-13.25l39.17004395-61.90997314c-5.92004395-5.82000732-9.59002686-13.90002441-9.59002686-22.85003662,0-13.95996094,8.94000244-25.82995605,21.40002441-30.20001221v-106c0-5.30999756,4.29998779-9.59997559,9.59997559-9.59997559,2.65002441,0,5.04998779,1.07000732,6.78997803,2.80999756,1.7300415,1.73999023,2.80999756,4.14001465,2.80999756,6.78997803v105.37005615c13.49005127,3.75994873,23.40002441,16.13995361,23.40002441,30.82995605,0,17.67004395-14.33001709,32-32,32ZM333.48257302,467.69239633c-7.17999268-.0300293-12.78997803-5.69000244-12.75-12.86999512.04003906-7.17999268,5.72003174-12.75,12.91998291-12.66003418,16.89001465.91003418,16.58001709,24.83001709-.16998291,25.5300293ZM334.40255593,181.14240853c-6.69000244.02996826-12.2699585-5.45001221-12.25994873-12.04998779,0-6.64001465,5.5199585-12.11999512,12.17999268-12.13000488,6.57995605,0,12.02996826,5.34997559,12.15997314,11.94000244.13000488,6.57995605-5.40997314,12.19995117-12.08001709,12.23999023ZM391.99258278,406.20240609c-6.77001953.03997803-12.25-5.29998779-12.29998779-11.98999023-.04003906-6.73999023,5.33001709-12.14001465,12.08996582-12.15002441,6.77001953-.02001953,12.26000977,5.40002441,12.22003174,12.0300293-.04998779,6.57995605-5.48999023,12.06994629-12.01000977,12.10998535ZM415.88259743,324.43238656c-6.79998779,0-12.42999268-5.69000244-12.35998535-12.47998047.06994629-6.85998535,5.67999268-12.33001709,12.54998779-12.25,6.70996094.08001709,12.29998779,5.76000977,12.19000244,12.40997314-.10003662,6.70001221-5.73999023,12.30999756-12.38000488,12.32000732Z"/>
  <path class="cls-1" d="M458.59125176,157.97557515c-18.54998779-23.11004639-39.41003418-43.91003418-64.42004395-59.77001953-.44000244-.29003906-.88995361-.57000732-1.32995605-.85003662h-.01000977c-9.22998047-6.28997803-18.78997803-11.97998047-28.85003662-16.83996582-24.63995361-13.30999756-50.70996094-21.91003418-78.37994385-27.10998535,17.05999756-28,39.17999268-48.94000244,72.69000244-52.82000732,36.94995117-4.2800293,85.20996094,15,105.12994385,54.64996338,17.69000244,35.21002197,16.4800415,69.26000977-4.82995605,102.74005127ZM110.54126396.53557271C68.56122246,3.98552388,29.37122002,27.45555562,15.20123711,73.93553608c-9.14001465,29.96002197-4.53997803,57.90002441,12.84997559,84.19000244,18.20001221-24.15997314,40.07000732-44.34997559,65.42999268-60.78997803v.01000977c9.29003906-6.20001221,18.81005859-11.9800415,28.89001465-16.80999756v-.01000977c24.17004395-13.54998779,51.02001953-21.27001953,77.92999268-27.36999512C185.63122978,20.41551655,147.76123467-2.53443462,110.54126396.53557271ZM397.45123711,503.48552388l.01000977.01000977c-12.11999512,9.08001709-24.60003662,17.60003662-38,24.72003174-72.97003174,38.2699585-159.04998779,37.47998047-231.65002441-1.05004883v.01000977h-.01000977c-13.29998779-7.5-25.86999512-16.07000732-37.94995117-25.38995361C-33.78875313,400.14555806-28.95873604,210.01555317,98.97125664,114.77556294c1.07000732-.79003906,2.13995361-1.57000732,3.20996094-2.34002686,9.51000977-5.83001709,19.02001953-11.65997314,28.5300293-17.48999023,32.70996094-16.91998291,68.88000488-26.54998779,105.69000244-28h.01000977c4.50994873-.51000977,9.07995605-.01000977,13.61999512-.02001953,37.45996094.92004395,72.84997559,10.07000732,106.33996582,26.7800293,9.57000732,5.77996826,19.14001465,11.57000732,28.71002197,17.34997559h.01000977c1.04998779.7300415,10.69997559,7.46667887,13.01998291,9.29669596,120.58996582,95.52996826,121.95999756,286.27331136-.65999756,383.13329671ZM457.85126152,312.18553608c.06994629-117.97998047-95.42004395-213.60998535-213.47003174-213.79998779-283.32000732,11.34002686-283.77996826,415.53997803-.27001953,427.29998779,117.96002197.07000732,213.68005371-95.53997803,213.74005127-213.5Z"/>
</svg>