<?xml version="1.0" encoding="UTF-8"?>
<svg id="Layer_1" data-name="Layer 1" xmlns="http://www.w3.org/2000/svg" viewBox="0 0 506.29432115 557.7316772">
  <defs>
    <style>
      .cls-1 {
        fill: #ff1733;
      }

      .cls-2 {
        fill: #086d08;
      }

      .cls-3 {
        fill: #7a2a1a;
      }
    </style>
  </defs>
  <path class="cls-1" d="M473.58996582,437.24168697c-19.97998047,46.61004639-53.04998779,91.46002197-101.05999756,111.32000732-14.75,5.90002441-49.51998291,14.84002686-84.40997314,4.16998291-12.97142353-3.96691596-25.95001221-7.91998291-39.77001953-6.79998779-8.80999756.71002197-17.32000732,2.94000244-25.76000977,5.54003906-10.88995361,3.34997559-22,5.82995605-33.44995117,6.25994873-3.28499193,0-9.38234967-.02002615-13.44123601-.03218931-3.09328453-.00926957-6.18352987-.19890715-9.24850947-.61651357C52.67029198,541.58034305,1.98015334,391.36031042,0,291.12169185c0,0,.17999268-18.04998779.20001221-18.22998047,1.30999756-52.91998291,16.2699585-110.15002441,57.67999268-145.73999023,2.98999023-3.55999756,6.94995117-5.91003418,10.69995117-8.51000977,19.68005371-13.77001953,43.96002197-18.25,67.66003418-16.27001953,35.88000488,3.14001465,68.80999756,19,104.36999512,23.73999023,1.45001221-4.38000488,3.15002441-42.67999268-2.44000244-63.05999756-1.20001221-4.35998535-2.02001953-8.84997559-2.64001465-13.32995605-.88000488-6.30999756,5.55999756-13.36999512,11.88000488-14.32000732,8.92999268-1.34002686,12.60003662,2.76000977,15.52001953,10.11999512,5.44000244,13.13000488,6.90997314,27.16998291,9.77996826,40.92999268C322.70996094,17.13170162,393.57995605-2.72828374,475.32995605.2917358c-13.48999023,42.89996338-40.37994385,77.28997803-76.84997559,102.91998291,44,6.89996338,75.84997559,43.9699707,91.13000488,83.83001709,29.85998535,73.82995605,16.65002441,178.93994141-16.02001953,250.19995117Z"/>
  <path class="cls-2" d="M398.48205928,103.2136299c-3.81044976-.33143244-7.62085996-.66286489-11.43091423-.99421823-.00039549-.0000791-12.89455217-.00281788-12.89455217-.00281788-34.13065071,1.30566475-65.3750105,17.08506578-98.79366259,22.01921232.19713334-12.66766744-1.27313244-25.21615373-2.65699644-37.78691724C322.70889666,17.13641446,393.58475711-2.72897887,475.32866712.29390974c-13.49056872,42.89972702-40.37502504,77.283875-76.84660784,102.91972015Z"/>
  <path class="cls-3" d="M272.70593386,86.44888886c1.38386784,12.57077445,2.85412913,25.11928708,2.65699644,37.78691724-4.62441248,1.42517631-9.36144139,2.32842142-14.16505144,2.80478202-6.89918537.68418192-13.79924083.96262828-20.59105004-.92794361,1.44945954-4.3815802,3.15005602-42.67708564-2.43872423-63.06051713-1.19531798-4.35957061-2.01811816-8.85108823-2.64044508-13.33383537-.87500696-6.30269398,5.55909923-13.36698751,11.88001552-14.3174198,8.93239156-1.34310177,12.60151214,2.75743665,15.52168894,10.12001542,5.44103685,13.13075671,6.9063871,27.17376859,9.7765699,40.92800121Z"/>
</svg>