<?xml version="1.0" encoding="UTF-8"?>
<svg id="Layer_1" data-name="Layer 1" xmlns="http://www.w3.org/2000/svg" viewBox="0 0 356.73761384 553.58253356">
  <defs>
    <style>
      .cls-1 {
        fill: #ba5cff;
      }

      .cls-2 {
        fill: #7526a8;
      }

      .cls-3 {
        fill: #ffc70e;
      }

      .cls-4 {
        fill: #fc298d;
      }
    </style>
  </defs>
  <path class="cls-2" d="M356.69763581,281.32234148c-.39001465-5.86004639-4.79003906-10.18005371-10.61004639-10.44000244l-27.77996826-.05999756c-2.48999023-30.7300415-7.66998291-61.41003418-16.01000977-91.27001953-7.11999512-24.97003174-16.60998535-49.11999512-29.58001709-71.59002686-13.91998291-24.27996826-31.72998047-45.95996094-53.35998535-63.70996094-22.33996582-18.30004883-48.23999023-31.92004395-76.22998047-39.10003662C121.7976114-.22770735,99.62762849-1.69767805,78.00763337,2.19233659c-16.67999268,3.06994629-32.63000488,9.38000488-45.95001221,19.59997559C10.50763337,37.92231706-1.26238616,63.04231218.10760896,89.97230486c.05999756,10.94000244,2.45001221,21.59002686,5.66998291,32.11999512,3.60003662,11.26000977,8.2800293,21.79003906,13.39001465,32.45001221l17.35003662,36.15997314c6.27996826,14.42004395,11.31994629,29.14001465,13.88995361,44.66003418,2.11004639,11.91998291,2.64001465,23.64996338,1.15002441,35.46002197l-26.61999512.05999756c-6.26000977-.07000732-11.10003662,4.70996094-11.20001221,11.0199585l-.05999756,102.60003662.08001709,132.41998291c-.29003906,12.95001221,6.16998291,24.67999268,17.35998535,31.13000488,7.17999268,4.32000732,15.42999268,5.54998779,23.84997559,5.52996826h260.5c8.42004395.02001953,16.68005371-1.19000244,23.86004639-5.53997803,9.02996826-5.11999512,14.94995117-13.77001953,16.80999756-23.82000732.40997314-2.20001221.54998779-4.44000244.54998779-6.67999268l.04998779-134.27001953-.03997803-101.94995117ZM152.06763093,270.83229021l.0199585-14.17999268h66.05004883l.15997314,14.17999268h-66.22998047ZM254.11761872,270.9123073l-14.82000732-.08001709-.09997559-23.66998291c.29998779-6.9699707-5.04003906-11.89001465-12.04003906-11.51000977h-83.88000488c-6.45996094-.39001465-11.80999756,3.63000488-12.19995117,10.11999512l.00994873,25.05999756-15.10998535.09002686-34.58996582-.07000732c2.10998535-20.96002197-.80999756-42.04998779-6.7300415-62.42999268-5.05999756-17.42999268-12.48999023-33.88000488-20.5199585-50.13000488-5.82000732-11.9699707-11.86004639-23.58001709-16.70001221-35.92999268-4.13000488-10.70001221-7.29998779-21.60003662-7.73999023-32.94000244-.97003174-19.17999268,7.84997559-36.35998535,24.07995605-46.54998779,10.51000977-6.94000244,22.82000732-10.70001221,35.4800415-12.34002686,18.73999023-2.15997314,37.52996826.22998047,55.51000977,6.04003906,23.94000244,7.7199707,45.63995361,20.87994385,64.11999512,37.93994141,15.89996338,14.68005371,29.0199585,32.04003906,39.57995605,50.94000244,11.33001709,20.2800293,19.63000488,41.99005127,25.85003662,64.41003418,7.16998291,26.53997803,11.94000244,53.76000977,14.15997314,80.98999023l-34.35998535.05999756Z"/>
  <path class="cls-1" d="M75.41728399,411.94142194l-.06636484,23.08411266c.05369443,1.5714973.23671026,3.17920229,1.36952269,4.00313708,1.15626737.89424553,2.73683511.83618155,4.38223002,1.0765867l-.19393418,16.46763252c.19778172,2.78024085,2.17588956,4.5650563,4.94013457,3.98127434l25.71383286-.72743657c2.59408948.19223575,4.13490247-1.70357624,4.30617991-4.22034041l.09368741-15.52676323c1.56312154-.4470381,3.37431064-.16945917,4.6172414-1.22607491,1.36286891-1.00654705,1.64124744-2.88430047,1.64794653-4.70946831l-.05038102-22.21042207,125.95268473.0054516-.05111577,23.31432617c.10495754,1.4926253.24391216,2.99259428,1.35654344,3.78052311,1.14840949.8552116,2.72696652.8708757,4.37376849,1.05342663l-.19028505,16.24613693c.04429864,1.37429054.60531565,2.65411297,1.37811051,3.45274743,1.01858253.69060371,2.24986392,1.09035841,3.57472591.75986607l25.99889852-.72363789c2.460023.01534765,3.8750361-1.80637786,3.98428169-4.19879176l.13278024-15.5409781c1.56157319-.43044537,3.34280357-.19927216,4.57263021-1.25317837,1.44660766-.93468471,1.64656109-2.87238279,1.71965839-4.68775317l-.06739081-22.20192887,31.69896491-.78712451-.01613597,82.80826153c-.00018361.94229364-.01507889,1.88653835-.11799783,2.82319465-.97281043,8.85346235-6.23351468,16.32350608-14.09556498,20.56691674-6.01152199,3.4082982-12.76306702,4.35665288-19.73388979,4.31967688l-215.1502308-.00244954c-7.33688292.06900814-14.48862621-1.08834059-20.67332932-4.92511703-6.57588035-3.85267395-11.00422506-9.96309699-12.62764795-17.24153202-.44147781-1.97931641-.59381208-4.01219407-.59443629-6.04014765l-.02533695-82.3157715c10.52027922,1.23420411,21.22749098.60866476,31.84021914.7956449Z"/>
  <path class="cls-4" d="M318.31252919,270.81812347l27.77108551.06886171c5.82585974.25780358,10.22787134,4.57418814,10.61218477,10.430651l.03968467,101.95230059c-1.71294528,8.78386917-6.44935577,16.55059047-14.19629621,21.62744733-4.86564146,3.30023547-10.28332413,5.19491905-15.9275532,6.25536089l-31.69896491.78712451-.16671608-26.9549274c-.5870526-3.27163105-3.4634409-3.39657902-6.30657253-3.76744279l.28023395-110.3287397,29.59291403-.07063614ZM24.9360096,270.88285704c-6.25702513-.06778259-11.09884097,4.71263962-11.1953704,11.01864012l-.06389007,102.6027398c2.10208282,8.27606499,6.57639579,15.51238779,13.97255362,20.34558783,4.81767245,3.36222022,10.28059219,5.22659229,15.9277621,6.29595225,10.52027922,1.23420411,21.22749098.60866476,31.84021914.7956449l.09647844-24.47811759c.16849761-3.47680287,2.67358075-5.46661878,5.86138117-5.72649493l.00969374-110.87987488-29.82850622-.03182507-26.62032151.05774758ZM115.97343952,270.92679445l-.2530662,110.28449508c2.93593879.36875391,5.87089865.56895694,6.31783929,3.9530582l.13916673,26.76931199,125.95268473.0054516.08553849-24.45292285c.16198183-3.49077132,2.68449739-5.46770203,5.87620222-5.78042792l.02328664-110.79604298-14.82051987-.07839835h-20.99494522l-66.22736482.00077622-20.98952973.00388111-15.10929225.09081789Z"/>
  <path class="cls-3" d="M288.71759431,270.89228777l-.23999023-.03997803-34.35998535.05999756-.0300293,110.78997803,34.35003662-.47998047.27996826-110.33001709ZM253.61761872,456.33229021c.04998779,1.38000488.60998535,2.66003418,1.38000488,3.45001221,1.02001953.69000244,2.25,1.09002686,3.57000732.76000977l26-.7199707c2.45996094.0199585,3.88000488-1.81005859,3.98999023-4.20001221l.13000488-15.54003906-34.88000488.01000977-.19000244,16.23999023ZM263.57764069,423.19233659l14.66998291-.07000732-.02001953-24.32000732-14.64001465-.0300293-.00994873,24.42004395ZM105.36761872,398.77229265l-14.65997314.02001953v24.38000488l14.66998291-.02001953-.01000977-24.38000488ZM81.10760896,440.10230974l-.20001221,16.47003174c.20001221,2.77996826,2.17999268,4.56994629,4.94000244,3.97998047l25.72003174-.72998047c2.58996582.19995117,4.13000488-1.70001221,4.29998779-4.22003174l.09002686-15.52001953-34.85003662.02001953ZM81.38763825,270.85230974l-.01000977,110.88000488,34.33996582-.52001953.26000977-110.28997803-34.58996582-.07000732Z"/>
</svg>