<?xml version="1.0" encoding="UTF-8"?>
<svg id="Layer_1" data-name="Layer 1" xmlns="http://www.w3.org/2000/svg" viewBox="0 0 551.41047188 426.86290032">
  <defs>
    <style>
      .cls-1 {
        fill: #ff1833;
      }

      .cls-2 {
        fill: #025589;
      }

      .cls-3 {
        fill: #ff9605;
      }
    </style>
  </defs>
  <path class="cls-2" d="M477.19312513,360.89127567c-2.33941313,22.84440443-7.74842548,52.62991315-32.1112129,61.99653502-19.47239243,7.48645478-44.01198416.79960651-53.68470305-18.34211327-6.1493383-12.16916542-7.33219204-27.41660762-6.71183435-40.82430026.63776082-13.78423969,3.63713385-28.73565778,10.43256379-40.88783552,10.46596207-18.71622667,31.85025465-24.40513098,51.8300351-19.06695414,25.73071922,6.87468188,32.90735387,33.19364376,30.24515141,57.12466816ZM414.88900321,362.33052737c-.9443121,11.25772157-4.26193341,32.22850054,8.08795841,38.82317491,12.19276514,6.51078261,20.09339065-9.46847476,23.03984562-18.55414004,3.93783281-12.14253733,6.37376718-26.99992941,3.47917529-39.60579967-1.20210302-5.23529309-3.32579533-10.84863819-8.23766619-13.64573135-4.20226758-2.39305542-10.03343821-2.58214033-14.26968757-.17771986-10.50980986,5.96517312-10.90510432,22.74336591-12.09962555,33.160216ZM372.55832311,358.41656822c-.27611868,22.34479803-3.60448801,51.79326082-26.3216794,62.86955895-18.48709181,9.01378813-43.35132799,5.23837686-54.79341579-12.71312195-7.03658529-11.03968827-9.81543983-25.49695345-10.76687143-38.36616934-1.05857723-14.31797006.91157783-29.06529501,6.15117115-42.46419536,8.32152191-21.28017708,30.7496962-29.66012803,52.16148342-24.76205296,26.24201047,6.00301321,33.80256474,31.22299838,33.56931204,55.43598065ZM310.58732772,364.71991359c-.04502858,10.65899205-1.02125294,32.99340184,12.11017915,37.19577369,13.57036425,4.34286412,18.33775602-12.03877448,20.83676524-21.8297498,3.41985537-13.39874587,3.05591936-27.51493689-1.16170659-40.69491181-1.4955978-4.67378174-3.82329759-8.99088766-8.57844745-10.95051931-4.28412615-1.76549898-9.99958975-1.55097601-13.92078396,1.00831591-10.37677173,6.77274713-9.26044128,24.65214614-9.28600639,35.27109133ZM5.82895601,407.38690469c4.85045349,9.15147504,13.27836154,15.2721393,23.30937471,17.75304828,16.32699783,4.0381103,38.29011451,1.56984,48.00844053-13.77124667,9.26186961-14.620502,6.04009933-33.10003149-5.31092074-45.55378271-7.17749257-7.87476837-16.64932271-12.32316922-26.28835643-16.43183032-7.69138165-3.27847584-17.69123959-7.67618427-15.43081209-18.03405351,1.8244908-8.36032118,11.43396528-10.79018762,18.84730525-9.48014666,9.77590646,1.72759127,11.37887656,10.70006018,10.52277883,19.28227786,7.90034908.77010442,15.59293332,1.51995649,23.45967028,2.2867845.99961966-10.8435202-.08527324-22.08842867-6.72506536-31.11023984-5.37914219-7.30893769-14.23901423-11.16312469-22.88813933-13.03211709-16.0662129-3.47176448-35.69745897-.64779719-43.80309503,15.41174704-6.94229818,13.75466878-7.79073472,32.35458582,3.40353103,44.06495565,6.74853808,7.05965045,15.98130918,10.53163988,24.93145341,13.87356727,8.1910832,3.05852702,19.73945345,7.38655752,18.5605601,18.29051509-.93339738,8.63334989-10.15383399,12.2989266-17.86145014,11.22552187-9.62061311-1.33980857-11.44710478-9.1543591-11.63269626-17.57225312-8.7548199-1.27066222-17.49075309-2.53859099-26.2013435-3.80284659-2.25396148,8.63747966,1.06664735,18.99258888,5.09876475,26.60009893ZM243.94876113,417.74755595c8.85614658.06580746,17.57545494.13058952,26.35719165.19583975-3.93782219-37.5917507-7.85614511-74.99741153-11.78540517-112.50737268-8.01515127.66627764-15.91730983,1.32316251-24.03835328,1.99824268,1.19628006,14.39094605,2.38568509,28.69918729,3.57846205,43.04799199l-19.78700241,1.64483949c-1.24737407-15.00559409-2.48148436-29.85162831-3.72747959-44.84063526-8.05678203,1.16796242-15.79285273,2.28938561-23.52723647,3.41059107,1.51945665,37.29176862,3.02934664,74.34864772,4.54456244,111.53625689,9.71720466-1.23681793,19.20230585-2.44407267,28.69308046-3.65207028-1.28138769-15.41476934-2.54946682-30.66944002-3.84114625-46.20801643,6.61760425-.00251023,13.06422461-.00495122,19.7608602-.00748216,1.26653073,15.23604381,2.51397198,30.24244609,3.77246638,45.38181494ZM139.37588488,300.24979313c-19.94431298.76981116-33.29333818,16.07041616-38.64941304,34.10532984-6.74139897,22.69958158-4.13503172,49.98725156,6.21306615,71.32663003,7.96879478,16.43288468,28.0469867,21.98997587,44.8545625,17.05420964,20.05938495-5.89071207,28.89012378-30.04638523,25.05881296-49.18094639h-23.14160317c0,6.08565572.57123742,12.3368668-2.91154598,17.70036597-2.64172203,4.06829016-7.3153493,6.62480158-12.20992944,6.38336186-12.69385157-.62611359-14.92025635-19.38735456-15.68879311-28.83686956-.57793764-7.10582736-.76892294-14.39138287.56376483-21.42623035,1.12949918-5.96234846,3.3340848-13.58044355,8.46896543-17.35824913,4.28277452-3.15088102,10.81203518-2.87402859,15.03545383.27055769,5.20582189,3.87604977,6.16339375,11.04312527,6.07793212,17.06027267h23.21352919c-.41311603-22.49540822-10.56978448-48.11416283-36.88480227-47.09843227ZM519.5248659,307.45730167c-8.89963333-.57625776-17.7047298-1.14641387-26.79745312-1.73514524.73242894,38.17632326,1.45948997,76.07166198,2.20103276,114.72229148h56.48202634c-.31991149-7.04338205-.6694816-14.73902208-1.0012102-22.04253497h-30.88439578v-90.94461127Z"/>
  <path class="cls-3" d="M363.50817668,202.45376816c1.45286848,16.51226216,1.68712458,29.80531198-1.94784583,42.86530776-5.51067011,19.79908584-18.9470246,30.57054303-40.0526891,32.19609988-18.54845598,1.42862465-32.75200231-7.16491398-40.69996301-25.75246637-8.65460188-20.24021837-11.25996147-41.49396627-7.03149508-63.15279413,4.35634961-22.31407459,19.6026495-34.46178246,43.08202184-35.457383,21.27777573-.90223032,36.07690688,9.91182384,42.84414474,31.25883301,2.19285989,6.91731108,3.48453039,13.99668433,3.80582644,18.04240285ZM302.8670748,218.85790182c1.09707293,10.41269862,2.39096918,32.65798566,16.0545174,34.8152166,12.73919355,2.01127153,16.81911614-13.26823425,17.81293739-22.93008085,1.40998558-13.70784349.94238211-29.10369811-5.23710853-41.66967807-4.26028605-8.66326049-15.18299191-14.00707956-23.40918039-6.60487756-9.32309911,8.38921337-6.11420995,25.48465669-5.22116588,36.38941988ZM186.91247516,160.86660854v22.9485518h23.81616304c.53731151,29.99257106,1.07871652,60.21281451,1.62180141,90.52744036,9.75129533.54080643,19.36366242,1.07392789,28.4269009,1.57661836v-94.57356379h23.11501468c.70375507-7.86071266,1.39687089-15.60275221,2.10860058-23.55263383-26.39905055,1.02594503-52.64505798,2.04592357-79.08848062,3.0735871Z"/>
  <path class="cls-1" d="M206.70381768,8.60955155c9.94835331-.42207851,19.73319065-.83721953,29.60414589-1.25601427,12.56182379,37.34297456,25.11223454,74.65199374,37.73116124,112.16472422-9.03524912,2.33870301-17.9652804,4.65019481-27.01247712,6.99199446-3.17666602-10.26949734-6.29836696-20.36132088-9.48979075-30.67846936-9.22775255.3915056-18.38069211.77983711-27.77649416,1.17847254-2.34969591,10.34224108-4.7571737,20.93875627-7.20492295,31.71257944-8.8125847-1.86244022-17.48680801-3.69563469-26.25225735-5.54809237,10.15458475-38.26766574,20.266062-76.37293908,30.4006352-114.56519466ZM223.03370508,47.84433628c-2.84833114,9.49371004-5.53025622,18.43273764-8.26121432,27.53524973,5.56181941-.23597116,10.86117601-.46080681,16.35198287-.69376512-2.67149068-8.86276968-5.30897473-17.61275365-8.09076856-26.84148461ZM102.09690774.47812977c18.3209765-1.41090853,42.05922773-.64880166,54.11010895,15.74323483,4.30538536,5.8563324,5.84178307,13.29068306,3.81868274,20.31342379-2.71882286,9.43787167-10.25093498,14.71750221-17.9154296,20.02391432,10.31459675,3.4812966,20.00979945,7.40339833,25.3923566,17.55863792,4.2117174,7.9462129,4.14714811,17.41499828.30434844,25.48457638-11.0910309,23.29032108-38.95534481,25.06273268-61.31376534,25.06273268-1.47366278-41.62805779-2.92953231-82.75324167-4.39630178-124.18651993ZM127.3389824,98.24038159c6.04020234-.49292012,18.63839713-1.78258745,18.40012408-10.29246864-.24026187-8.58099624-12.26553936-9.19641264-18.40012408-9.06319986v19.3556685ZM126.3999858,21.66233147v20.88303925c7.04376823-.10372794,11.96617264-4.01627172,11.96020616-9.42729034-.00702848-6.37705748-5.23451506-11.43451867-11.96020616-11.45574892ZM318.4229184,3.55312642c-20.51859156,1.07697871-34.28532833,16.84404084-39.28010286,35.8027646-3.28081127,12.45298146-2.88997783,25.44568805-1.39407108,38.13173878,1.3363758,11.33306919,3.08339607,23.10997503,9.19278255,32.99427075,10.2943223,16.6550154,33.49404556,22.47337666,50.73759924,13.05707314,14.96849022-8.17396254,23.73705407-30.86912236,18.66407809-47.07574419h-23.49449443c0,6.09224009.68763206,12.55888166-2.83602849,17.92898452-2.61069247,3.97875433-7.34788496,6.52489682-12.14814065,6.28610244-12.82364665-.63791139-14.76883518-20.66450966-15.42928017-29.98785966-.79089658-11.16535123-1.2529223-29.82047961,9.13342669-37.27378205,4.23728252-3.04067491,10.5395852-2.7949679,14.67109303.3293729,5.18407996,3.92034461,6.05703979,11.0105703,6.01193397,17.04026854h23.69824299c-.63947542-22.99049095-10.64072574-48.64440724-37.52703887-47.23318977ZM365.65838755,118.99675489c8.61404741,1.19668193,16.99725213,2.36129469,25.42054352,3.53147638.93330902-13.35228382,1.85866612-26.59063567,2.78402057-39.82896841.43289164.02920057.86578593.05838201,1.29863931.08757726,6.46435287,14.40731405,12.92870308,28.81464723,19.42253351,43.2876198,9.0180212-1.2750989,17.89478251-2.53024822,26.93272983-3.80817384-10.22453319-19.92314662-20.32618278-39.60682948-30.45700846-59.34739546,12.76224536-14.26655489,25.46138438-28.46250506,38.25371829-42.76266019-7.50795657-4.37658911-14.81000117-8.63314359-22.15976463-12.91750798-9.91533236,12.38460715-19.72825218,24.64131751-29.45111925,36.78556911,1.77402782-12.76994278,3.54045946-25.48520626,5.35750831-38.56482634-7.42227177-1.0311179-15.33373116-2.13019479-23.43112698-3.25510237-4.64890051,38.86410906-9.31107289,77.83918865-13.97067405,116.79239204Z"/>
</svg>