<?xml version="1.0" encoding="UTF-8"?>
<svg id="Layer_1" data-name="Layer 1" xmlns="http://www.w3.org/2000/svg" viewBox="0 0 528.34652614 551.51623368">
  <defs>
    <style>
      .cls-1 {
        fill: #f94e03;
      }

      .cls-2 {
        fill: #025589;
      }

      .cls-3 {
        fill: #ff9605;
      }

      .cls-4 {
        fill: #0995cc;
      }
    </style>
  </defs>
  <path class="cls-4" d="M455.71517389,109.90840656c-14.57000732-26.5-32.38000488-43.09002686-60.53997803-54.60003662-3.09997559-24.83001709-23.84997559-45.01000977-46.83001709-51.7199707-37.9699707-12.04003906-70.08996582,7.27996826-84.57995605,42.07000732-34.76000977,6.61999512-69.14001465,19.2199707-96.77001953,41.88000488h.03997803s-.01000977,0-.01000977.00994873c-.19995117.11999512-.39996338.25-.59997559.36999512-26.7800293,21.38000488-44.46002197,49.08001709-56.2800293,80.88000488-39.59997559,5.36999512-134.13995361,26.52001953-104.47998047,83.7300415,5.47003174,10.40997314,12.96002197,19.42999268,20.11999512,28.66998291,16.29998779,21.03997803,32.04998779,42.38000488,39.02001953,68.7199707-10.16003418,4.91003418-25.66003418,8.92004395-28.13000488,21.69000244-2.07000732,10.72003174,5.46002197,20.09002686,15.94000244,21.75v.05999756c1.16998291,23.30004883,3.94000244,46.19000244,17.75,66.09002686v.02001953c-6.14001465,51.82000732,32.59002686,75.14996338,78.59997559,80.79998779,28.89001465,4.52996826,57.97003174,7.52996826,87.11004639,10.11999512,33.16998291,2.9699707,65.47998047.09002686,96.57995605-13.02001953,21.82000732-9.19000244,42.52001953-19.77996826,57.94000244-38.4699707.75-.92999268,1.76000977-.7800293,2.73999023-.85998535,37.38000488-4.34002686,91.54003906-2.63000488,101.01000977-49.0300293,2.76000977-12.64001465,3.85003662-25.42999268,3.79003906-38.28997803,12.57000732-21.32000732,20.4699707-44.10003662,24.72998047-68.47003174,15.52996826-84.15997314-.45001221-173.95001221-67.15002441-232.39996338ZM294.22518365,41.92836505c9.82000732-15.77996826,20.35998535-21.15997314,42.10998535-18.32000732,14.17004395,1.85003662,24.69000244,9.55999756,29.47003174,22.80004883-23.53997803-4.68005371-47.63000488-6-71.58001709-4.4800415Z"/>
  <path class="cls-2" d="M397.58516901,313.77840167c-3.2199707-36.65002441-7.29998779-73.41003418-13.98999023-109.61004639-5.54998779-30.06994629-13.04998779-62.25-33.70996094-85.86999512-43.39001465-47.86999512-125.02001953-45.57995605-182.89001465-30.75994873l.02996826.00994873c-.19995117.11999512-.39996338.25-.59997559.36999512-26.7800293,21.38000488-44.46002197,49.08001709-56.2800293,80.88000488,0,0,45.36004639-3.79998779,54.80004883-3.9699707,47.33996582-.48999023,97.95996094,1.63000488,139.7199707,26.36999512,73.70001221,44.95001221,82.97998047,166.9699707,96.52001953,245.27001953,4.45001221-40.57000732-.0300293-82.21002197-3.60003662-122.69000244ZM455.71517389,109.90840656c.0300293.07995605.39665934,1.28333333.42668864,1.38330892,3.84997559,12.11999512,41.28333333,142.4566569,41.99335531,299.4866862,12.57000732-21.32000732,20.4699707-44.10003662,24.72998047-68.47003174,15.52996826-84.15997314-.45001221-173.95001221-67.15002441-232.39996338Z"/>
  <path class="cls-3" d="M308.84517877,337.33839923c-30.79998779-8.13000488-62.03997803-13.27001953-93.94000244-14.16003418-51.67999268-1.59997559-101.79998779,8.94000244-150.09997559,26.73999023-10.16003418,4.91003418-25.66003418,8.92004395-28.13000488,21.69000244-2.07000732,10.72003174,5.46002197,20.09002686,15.94000244,21.75v.05999756c1.16998291,23.30004883,3.94000244,46.19000244,17.75,66.09002686,21.75,28.42999268,59.90002441,35.35998535,93.60998535,36.90997314,84.22003174,4.63000488,158.26000977-24.78997803,139.92999268-122.97998047h.01000977c10.79003906-.86999512,17.83001709-7.13000488,18.75-16.69000244.85998535-8.85998535-4.77001953-17.02001953-13.82000732-19.40997314ZM348.34517877,3.58839923c-37.9699707-12.04003906-70.08996582,7.27996826-84.57995605,42.07000732,10.09997559-1.64001465,20.25-2.96002197,30.45996094-3.7300415,9.82000732-15.77996826,20.35998535-21.15997314,42.10998535-18.32000732,14.17004395,1.85003662,24.69000244,9.55999756,29.47003174,22.80004883,9.96002197,2.41998291,19.80999756,5.15997314,29.36999512,8.89996338-3.09997559-24.83001709-23.84997559-45.01000977-46.83001709-51.7199707ZM257.09517877,228.67836505c-36.76000977-11.57000732-74.20001221-14.30999756-112.22998047-8.55999756-22.40997314,3.39001465-44.33001709,8.45001221-63.86999512,20.75-9.14001465,5.75-12.05999756,16.63000488-6.80999756,25.40002441,5.33001709,8.88000488,13.58805744,11.28972493,23.18805744,6.48972493,3.66101789-1.83050894,9.58196209-4.75974446,13.39195965-6.15970784,43.72998047-16.65002441,91.5199585-15.80004883,135.85998535-3.09002686,4.59997559,1.30999756,9.55999756,1.19000244,13.88000488-.83001709,5.61999512-2.60998535,9.2699585-7.57995605,10.20996094-13.77996826,1.35003662-8.92999268-4.33996582-17.29998779-13.61999512-20.22003174Z"/>
  <path class="cls-1" d="M163.97518365,496.41835529c-33.70996094-1.54998779-71.85998535-8.47998047-93.60998535-36.90997314-13.80999756-19.90002441-16.58001709-42.78997803-17.75-66.09002686v-.05999756c3.11999512.09002686,6.28997803,0,9.08001709-1.44000244,21.05999756-10.85998535,43.58996582-17.4699707,66.47998047-23.0199585,42-10.34002686,85.84002686-11.7300415,128.57000732-5.17999268,15.90997314,2.35998535,31.40997314,6.57000732,47.15997314,9.7199707,18.33001709,98.19000244-55.70996094,127.60998535-139.92999268,122.97998047Z"/>
</svg>