<?xml version="1.0" encoding="UTF-8"?>
<svg id="Layer_1" data-name="Layer 1" xmlns="http://www.w3.org/2000/svg" viewBox="0 0 438 557.31888547">
  <defs>
    <style>
      .cls-1 {
        fill: #086d08;
      }

      .cls-2 {
        fill: #a89a9f;
      }

      .cls-3 {
        fill: #1aa419;
      }
    </style>
  </defs>
  <path class="cls-1" d="M416.40002441,514.1189343h-10.20001221v-179.71002197c0-15.34002686-12.54998779-27.89001465-27.89001465-27.89001465h-99.13000488c-6.07000732-29.53997803-12.11999512-61.25-15.64001465-93.51000977-4.88000488-32.88000488,0-69.64996338,27.66003418-93.85998535,3.53997803-3.09997559,7.07000732-6.20996094,10.41998291-9.51000977,7.75-7.63995361,14.97003174-15.80999756,19.22998047-25.80999756,3.05004883-7.15997314,3.92004395-15.05999756,2.93005371-22.78997803C314.73999023-9.77108035,182.07000732-14.71108279,136.04998779,24.37888303c-24.65997314,20.93005371-29.4699707,41.5300293-13.4699707,66.81005859,8.5199585,13.4699707,21.15997314,23.31994629,31.82995605,34.62994385,10.05004883,10.66003418,16.95001221,23.96002197,19.95001221,38.30999756,8.69000244,41.66003418-6.97998047,88.25-12.7699585,129.41003418-.80004883,4.30999756-1.61004639,8.63000488-2.42004395,12.97998047H59.69000244c-15.34002686,0-27.89001465,12.54998779-27.89001465,27.89001465v179.71002197h-10.20001221c-5.94000244,0-11.33996582,2.42999268-15.25994873,6.33996582-3.91003418,3.91998291-6.34002686,9.32000732-6.34002686,15.26000977,0,11.88000488,9.7199707,21.59997559,21.59997559,21.59997559h394.80004883c5.94000244,0,11.33996582-2.42999268,15.25994873-6.33996582,3.91003418-3.91998291,6.34002686-9.32000732,6.34002686-15.26000977,0-11.88000488-9.7199707-21.59997559-21.59997559-21.59997559ZM144.05999756,63.66892209c10.54998779-49.85003662,141.17999268-49.63000488,149.97998047.08001709.72003174,5.16998291.21002197,12.87994385-6.44000244,20.2699585-8.54998779,9.4800415-18.04998779,17.65002441-26.80999756,26.98999023-43.30999756,45.54003906-25.42999268,108.2300415-17.38995361,158.11999512,2.41998291,12.38000488,4.73999023,24.85003662,7.0199585,37.39001465h-61.38000488c5.55004883-31.04998779,10.66003418-62.27996826,15.26000977-93.9699707,13.92999268-107.85003662-62.03997803-106.83001709-60.23999023-148.88000488Z"/>
  <path class="cls-3" d="M21.59997559,514.11781245h94.60003662c-.51000977,2.07000732-1.02001953,4.15002441-1.54003906,6.23999023-3.64996338,14.29003906-7.27996826,25.40002441-13.08996582,36.96002197H21.59997559c-11.88000488,0-21.59997559-9.72003174-21.59997559-21.60003662,0-5.94000244,2.42999268-11.33996582,6.34002686-15.25994873,3.91998291-3.91003418,9.31994629-6.34002686,15.25994873-6.34002686ZM292.89001465,514.11781245h-146.70001221c-2.22998047,9.42999268-4.73999023,18.79998779-7.61999512,28.05999756-1.58001709,5.08001709-3.26000977,10.13000488-5.16003418,15.14001465h172.65002441c-4.79998779-14.23999023-9.15997314-28.66003418-13.16998291-43.20001221ZM416.40002441,514.11781245h-94.36004639c.57000732,2.20001221,1.14001465,4.40002441,1.7300415,6.59997559,3.28997803,12.9800415,7.03997803,25,12.70996094,36.60003662h79.92004395c5.94000244,0,11.33996582-2.42999268,15.25994873-6.34002686,3.91003418-3.91998291,6.34002686-9.32000732,6.34002686-15.26000977,0-11.88000488-9.7199707-21.59997559-21.59997559-21.59997559Z"/>
  <path class="cls-2" d="M336.47998047,557.31782465h-30.41998291c-4.79998779-14.23999023-9.15997314-28.66003418-13.16998291-43.20001221-18.7800293-68.03997803-29.9800415-138.80999756-42.47003174-207.59997559-2.27996826-12.54003906-4.59997559-25.01000977-7.0199585-37.39001465-8.04003906-49.89001465-25.92004395-112.58001709,17.38995361-158.11999512,8.76000977-9.34002686,18.26000977-17.51000977,26.80999756-26.98999023,6.65002441-7.39001465,7.16003418-15.10003662,6.44000244-20.27001953-8.79998779-49.71002197-139.42999268-49.92999268-149.97998047-.08001709-1.79998779,42.04998779,74.16998291,41.0300293,60.23999023,148.88000488-4.59997559,31.69000244-9.70996094,62.91998291-15.26000977,93.97003174-11.94000244,66.75994873-25.91998291,132.75994873-41.32995605,201.07995605-.49005127,2.17999268-.99005127,4.35003662-1.52001953,6.52001953-2.22998047,9.42999268-4.73999023,18.79998779-7.61999512,28.05999756-1.58001709,5.08001709-3.26000977,10.13000488-5.16003418,15.14001465h-31.83996582c5.80999756-11.55999756,9.44000244-22.66998291,13.08996582-36.96002197.52001953-2.08996582,1.0300293-4.16998291,1.54003906-6.23999023,18.01000977-73.58001709,30.86999512-142.61999512,42.9699707-207.59997559.80999756-4.35003662,1.61999512-8.67004395,2.42004395-12.9800415,5.78997803-41.15997314,21.45996094-87.75,12.7699585-129.40997314-3-14.35003662-9.89996338-27.65002441-19.95001221-38.30999756-10.66998291-11.30999756-23.30999756-21.16003418-31.82995605-34.63000488-16-25.2800293-11.19000244-45.88000488,13.4699707-66.80999756,46.02001953-39.09002686,178.69000244-34.15002441,187.7300415,36.65997314.98999023,7.7300415.11999512,15.63000488-2.93005371,22.79003906-4.25994873,10-11.47998047,18.16998291-19.22998047,25.80999756-3.34997559,3.29998779-6.88000488,6.40997314-10.41998291,9.51000977-27.66003418,24.20996094-32.54003906,60.97998047-27.66003418,93.85998535,3.52001953,32.26000977,9.57000732,63.9699707,15.64001465,93.51000977.13000488.59997559.25,1.19995117.36999512,1.78997803,12.85003662,68.42999268,24.73999023,137.69000244,42.48999023,205.80999756.57000732,2.20001221,1.14001465,4.40002441,1.7300415,6.59997559,3.28997803,12.9800415,7.03997803,25,12.70996094,36.60003662Z"/>
</svg>