<?xml version="1.0" encoding="UTF-8"?>
<svg id="Layer_1" data-name="Layer 1" xmlns="http://www.w3.org/2000/svg" viewBox="0 0 558.20237132 420.3364917">
  <defs>
    <style>
      .cls-1 {
        fill: #ff1733;
      }

      .cls-2 {
        fill: #025589;
      }

      .cls-3 {
        fill: #fff;
      }

      .cls-4 {
        fill: #ddced1;
      }

      .cls-5 {
        fill: #086d08;
      }
    </style>
  </defs>
  <path class="cls-4" d="M557.66477599,288.52831544c-.83359248,2.96383551-2.59342674,4.69282855-5.73225951,5.2896785-5.87628992,1.12177892-11.70119874,2.4905389-17.54664743,3.75634823-3.10799155,8.26387817-4.55903667,16.85714818-4.52819545,25.64589251.01030135,4.72373259.71010195,9.43710101,1.11147758,14.1608336,11.93794126,2.37728691,19.98567961,11.54680417,18.03037102,20.71638425-1.21436541,5.67051425-4.69282855,9.46800505-10.42508806,10.69267181-68.57091151,14.72684233-137.13152168,29.54627115-205.76417846,43.9746885-16.47637524,3.46816179-32.746912,8.74760176-50.01567434,7.33769921-25.27542092-2.07886193-143.76942028-37.04866627-177.23673558-52.23862949-28.3216672-12.87442158-35.73135021-38.46887017-34.79486989-62.27264327.50426346-12.7406297,3.67400028-24.6888095,11.5983109-35.02124826-17.50550486-9.33421318-34.76402867-19.19329251-52.60910108-27.84824497-16.85714818-8.17129168-25.49156075-21.61172199-28.47606177-39.34366803-4.00326648-23.74202784,1.17322284-44.82888367,18.92570876-61.96385414,5.57786495-5.38239062,13.17284656-5.09420417,20.04742487-6.31887093,12.98767357-2.31554164,26.08847352-3.92098133,39.13782955-5.81460747h.02060269c.13379188-.02053988.27782228-.04114257.41161416-.06174526h.01030135c-8.72699907-15.61187873-11.00139814-32.36607625-8.0581025-49.77899463,4.29151573-25.45035537,15.63248142-35.64906506,40.97994895-39.37450926C163.05531252,32.69695591,338.94389081,5.68230342,376.66145364.03239187c1.39960121-.20583849,3.0050409.61745265,4.46645018,1.11147758,56.39629054,19.27557766,112.78227973,38.5923607,169.17863308,57.83703432,5.10444271,1.74953291,8.23303695,4.6105434,7.7802174,10.4559921-.42197832,5.57786495-3.97248807,7.27595394-8.84025106,8.03749981-4.84722312.75124452-9.63263815,1.98621263-14.4387187,3.0050409v.01030135c-5.55726225,12.88472293-5.7321967,26.28394785-3.85923607,39.87877272.04120539.01030135.08234796.02060269.12355334.03084123,5.07360148,1.04973231,9.29300779,3.70490431,13.10079994,7.0804168,4.37380088,3.86953742,6.1953804,8.71676053,4.67222586,14.41811601-1.50248904,5.57786495-5.26913862,8.96374159-10.9704941,10.178107-21.27209163,4.52819545-64.46469438,13.89324985-65.34973078,14.15053226.03084123.02060269.06174526.04114257.10288784.05144392,9.7561915,4.93980961,19.50201884,9.88992056,29.24784617,14.84003151,2.72721861,1.38936267,5.20745617,3.11829289,4.67228867,6.6378986-.54546885,3.59165232-3.40641653,4.97071365-6.53501077,5.57792776-7.27589113,1.39960121-14.58274911,2.62426796-21.8690044,3.92098133-2.92269294,4.93980961-2.14054438,10.43532659-2.01705385,15.72506791.13379188,5.59846764,1.25550798,11.13519001,3.36521114,16.39402729,10.22955092.26758375,21.2412504,8.82994972,22.87759413,17.74218457.81298979,4.45614884-1.03943096,7.8934694-4.00332929,10.94995422,17.12473193,5.88665408,34.24946386,11.80414939,51.39473567,17.67013796,7.12155937,2.43903217,9.66354219,6.49380538,7.90370793,12.79213643Z"/>
  <path class="cls-3" d="M297.1611906,127.99433347c-.18523579-.10288784-126.99455725-45.47724036-190.16253826-68.20037711-5.26913862-1.89362614-8.78880714-.63805534-11.68065886,3.80772934-8.60350854,13.26549586-8.45941531,28.12613006-7.81105863,43.05881088.67919791,15.42664293,8.81964837,24.2462913,23.23770156,29.75210964,45.69338019,17.4437596,92.49817515,31.11063108,139.9513896,42.65743525,13.21398913,3.21087938,26.57207148,6.30856959,40.40357606,5.2176947-.42191551-4.38410223-1.15262015-8.7579031-1.21436541-13.15224386-.21607702-14.79888894,2.60372809-29.13465699,7.27595394-43.14115884ZM191.57251686,246.14870247c-50.28325809-27.4159653-100.57688034-54.81139072-150.83953574-82.26862422-5.53672237-3.02564359-10.25015361-1.79067549-14.37697343,2.35674703-14.4900998,14.53130519-9.41649832,47.19586923,8.70645919,56.7359209,41.70035225,21.98219358,138.20179387,73.84005013,145.63214238,75.96005464.01030135,0,.03084123,0,.07204661-.01030135.05144392-.01030135.10288784-.02060269.14409322-.03090404.01023853.01030135.02053988.01030135.02053988,0,.51456481-.09258649.86449652-.22637837.83359248-1.09087488-.76154587-17.97886429,2.3978896-35.2167854,9.80763542-51.65201807ZM290.25577106,401.36203909c-18.24651085.56600873-35.70050898-4.08561444-53.09282466-8.59320719-42.50304069-11.01169948-84.50181791-23.59793462-125.68760535-39.02457755-17.35111029-6.48356685-24.35948048-17.81423119-24.28743387-35.29919617.04114257-11.79378523.41161416-23.46414274,5.94833653-34.2390997,1.06003366-2.05825924,2.655172-3.82839484,4.01363064-5.73225951,24.87404529,13.22429047,49.86134258,26.26340797,74.59129466,39.75528219,10.72351304,5.85575004,21.36474093,3.82833203,32.25294988,1.53339308,5.00155487-1.06003366,10.04431513-1.96567275,15.07671122-2.93299429.01030135-.01030135.02060269-.01030135.03090404-.01030135,26.00606275,9.34445171,52.01218831,18.69926758,78.01831387,28.04378211-12.05111788,24.13651496-6.86427697,56.49917837-6.86427697,56.49917837Z"/>
  <path class="cls-2" d="M548.99952218,358.09745253c-1.21436541,5.67051425-4.69282855,9.46800505-10.42508806,10.69267181-68.57091151,14.72684233-137.13152168,29.54627115-205.76417846,43.9746885-16.47637524,3.46816179-32.746912,8.74760176-50.01567434,7.33769921-25.27542092-2.07886193-143.76942028-37.04866627-177.23673558-52.23862949-28.3216672-12.87442158-35.73135021-38.46887017-34.79486989-62.27264327.50426346-12.7406297,3.67400028-24.6888095,11.5983109-35.02124826,4.92950826,2.63456931,14.78858759,7.90370793,14.78858759,7.90370793-1.35845863,1.90386467-2.95359698,3.67400028-4.01363064,5.73225951-5.53672237,10.77495696-5.90719396,22.44531447-5.94833653,34.2390997-.07204661,17.48496498,6.93632358,28.81562932,24.28743387,35.29919617,41.18578744,15.42664293,83.18456466,28.01287807,125.68760535,39.02457755,17.39231568,4.50759275,34.84631381,9.15921592,53.09282466,8.59320719,16.42486851-1.22466676,173.77881232-36.77078117,236.50427514-50.68463372,3.6121922-.80268844,5.19709201-2.4698734,4.72366977-6.17477771-.30872632-2.35668421-.36017024-4.74427247-.51456481-7.12155937,11.93794126,2.37728691,19.98567961,11.54680417,18.03037102,20.71638425ZM549.76106805,275.736179c-17.14527181-5.86598858-34.27000374-11.77324535-51.39473567-17.67013796-1.93476871,1.59513835-3.95188537,2.99480237-6.50410673,3.50936717-24.77115746,4.95011095-272.7604915,55.24367039-272.78109419,55.12017986,0,0,0,.04114257-.01030135.13379188.02060269-.01030135.03090404-.01030135.03090404-.01030135,26.00606275,9.34445171,52.01218831,18.69926758,78.01831387,28.04378211,1.13201746-.07204661,221.74652877-44.22173237,237.26582101-47.28851854,5.8454487-1.26580933,11.67035751-2.63456931,17.54664743-3.75634823,3.13883277-.59684995,4.89866703-2.32584299,5.73225951-5.2896785,1.75983426-6.29833105-.78214856-10.35310426-7.90370793-12.79213643Z"/>
  <path class="cls-1" d="M506.54792542,187.75589796c-.54546885,3.59165232-3.40641653,4.97071365-6.53501077,5.57792776-7.27589113,1.39960121-14.58274911,2.62426796-21.8690044,3.92098133-28.20841521,4.96034949-277.06224577,50.32440066-286.5713934,48.89389542-50.28325809-27.4159653-100.57688034-54.81139072-150.83953574-82.26862422-5.53672237-3.02564359-10.25015361-1.79067549-14.37697343,2.35674703-14.4900998,14.53130519-9.41649832,47.19586923,8.70645919,56.7359209,41.70035225,21.98219358,138.20179387,73.84005013,145.63214238,75.96005464.01030135,0,.03084123,0,.07204661-.01030135.03084123,0,.08234796-.01030135.14409322-.03090404.01023853.01030135.02053988.01030135.02053988,0,8.88139363-1.4921877,270.05393839-50.82866412,298.59168262-56.33454527,3.55050975-.67919791,4.4252448-2.58312539,2.85070914-5.87628992-1.12177892-2.35674703-1.93476871-4.86782581-2.88161318-7.30685798,10.22955092.26758375,21.2412504,8.82994972,22.87759413,17.74218457.81298979,4.45614884-1.03943096,7.8934694-4.00332929,10.94995422-1.93476871,1.59513835-3.95188537,2.99480237-6.50410673,3.50936717-24.77115746,4.95011095-272.7604915,55.24367039-272.78109419,55.12017986,0,0,0,.04114257-.01030135.13379188-5.0323961.96732154-10.07515635,1.87296063-15.07671122,2.93299429-10.88820895,2.29493895-21.52943685,4.32235696-32.25294988-1.53339308-24.72995207-13.49187422-49.71724936-26.53099172-74.59129466-39.75528219,0,0-9.85907933-5.26913862-14.78858759-7.90370793-17.50550486-9.33421318-34.76402867-19.19329251-52.60910108-27.84824497-16.85714818-8.17129168-25.49156075-21.61172199-28.47606177-39.34366803-4.00326648-23.74202784,1.17322284-44.82888367,18.92570876-61.96385414,5.57786495-5.38239062,13.17284656-5.09420417,20.04742487-6.31887093,12.98767357-2.31554164,26.08847352-3.92098133,39.13782955-5.81460747h.02060269c.14403041-.02053988.28812363-.03084123.42191551-.05144392,10.13690162,16.9085921,27.63210513,23.09367115,44.45841209,29.82415625,41.64884551,16.67191238,84.55326183,29.33019413,128.18838278,39.76558354,26.05756948,6.22622163,51.26094379,3.95188537,77.04062817-2.0273552,47.06207736-10.91905018,142.57565756-30.53432101,142.99757307-30.56516224h.01030135c.03084123.02060269.06174526.04114257.10288784.05144392,9.7561915,4.93980961,19.50201884,9.88992056,29.24784617,14.84003151,2.72721861,1.38936267,5.20745617,3.11829289,4.67228867,6.6378986Z"/>
  <path class="cls-5" d="M558.0867543,69.43689586c-.42197832,5.57786495-3.97248807,7.27595394-8.84025106,8.03749981-4.84722312.75124452-9.63263815,1.98621263-14.4387187,3.0050409v.01030135c-.42191551.03084123-224.06207041,44.89062894-237.64659394,47.50459556-.18523579-.10288784-126.99455725-45.47724036-190.16253826-68.20037711-5.26913862-1.89362614-8.78880714-.63805534-11.68065886,3.80772934-8.60350854,13.26549586-8.45941531,28.12613006-7.81105863,43.05881088.67919791,15.42664293,8.81964837,24.2462913,23.23770156,29.75210964,45.69338019,17.4437596,92.49817515,31.11063108,139.9513896,42.65743525,13.21398913,3.21087938,26.57207148,6.30856959,40.40357606,5.2176947,2.41849229-.21607702,213.43120668-45.94036125,235.49574821-50.56114319,3.70490431-.77184721,5.36178793-2.42873082,4.87806434-6.23652298-.29842498-2.35668421-.36017024-4.74427247-.52486616-7.11125803.04120539.01030135.08234796.02053988.12355334.02053988,5.07360148,1.04973231,9.29300779,3.70490431,13.10079994,7.0804168,4.37380088,3.86953742,6.1953804,8.71676053,4.67222586,14.41811601-1.50248904,5.57786495-5.26913862,8.96374159-10.9704941,10.178107-21.27209163,4.52819545-64.46469438,13.89324985-65.34973078,14.15053226h-.01030135c-.42191551.03084123-95.93549571,19.64611206-142.99757307,30.56516224-25.77968438,5.97924057-50.98305869,8.25357683-77.04062817,2.0273552-43.63512095-10.43538941-86.53953727-23.09367115-128.18838278-39.76558354-16.82630695-6.73048509-34.32151047-12.91556415-44.45841209-29.82415625v-.01030135c-8.72699907-15.61187873-11.00139814-32.36607625-8.0581025-49.77899463,4.29151573-25.45035537,15.63248142-35.64906506,40.97994895-39.37450926C163.05531252,32.69695591,338.94389081,5.68230342,376.66145364.03239187c1.39960121-.20583849,3.0050409.61745265,4.46645018,1.11147758,56.39629054,19.27557766,112.78227973,38.5923607,169.17863308,57.83703432,5.10444271,1.74953291,8.23303695,4.6105434,7.7802174,10.4559921Z"/>
</svg>