<?xml version="1.0" encoding="UTF-8"?>
<svg id="Layer_1" data-name="Layer 1" xmlns="http://www.w3.org/2000/svg" viewBox="0 0 533.71368322 503.63579849">
  <defs>
    <style>
      .cls-1 {
        fill: #ddced1;
      }

      .cls-2 {
        fill: #a89a9f;
      }

      .cls-3 {
        fill: #69238e;
      }

      .cls-4 {
        fill: #0995cc;
      }
    </style>
  </defs>
  <path class="cls-4" d="M513.25952988,400.70580581c-4.16003418,28.00994873-.68005371,55.0199585,10.70996094,80.9699707,3.44000244,0,6.2300415,2.78997803,6.2300415,6.22998047v9.5c0,3.44000244-2.79003906,6.2300415-6.2300415,6.2300415H102.36951523s-39.08001709-.26000977-54.64001465-.61999512c-1.33996582-.0300293-2.77001953-.32000732-3.97998047-.87005615-22.33001709-10.17999268-34.2800293-28.64996338-40.10998535-51.52996826-7.04003906-27.71002197-3.43005371-54.70001221,7.06994629-80.94000244,3.20001221-7.98999023,2.97003174-16.44000244,3.92004395-24.71002197C20.38953477,294.72576431,48.1494835,43.2757521,49.79950791,30.11577896c1.03997803-8.22998047,6.16998291-13.97003174,12.83001709-18.34997559C75.21949082,3.5057936,89.49952012,1.08574966,104.16950303.21575454c8.40002441-.5,16.7800293-.08996582,25.11999512.9800415,1.16003418.14996338,2.25.79998779,3.38000488,1.2199707,18.32000732-.14001465,304.09002686-1.80999756,319.71002197-1.95001221,2.05999756-.0199585,2.95996094.80999756,3.38995361,2.71002197,22.96002197,101.95001221,68.43005371,305.36999512,77.79003906,347.27001953.88000488,3.91998291-2.11999512,7.61999512-6.13000488,7.57995605h-.91998291c-6.38000488,13.61999512-11.04003906,27.77001953-13.25,42.68005371Z"/>
  <path class="cls-3" d="M23.97332926,393.1115628c-7.01000977,29.52996826-3.59997559,57.34997559,15.30999756,82.16998291,4.0300293,5.29003906,8.90002441,7.76000977,15.92999268,7.5300293,0,0,31.44000244-.15002441,47.16003418-.14001465v20.96002197s-39.08001709-.26000977-54.64001465-.62005615c-1.34002686-.02996826-2.77001953-.31994629-3.97998047-.86999512-22.33001709-10.17999268-34.2800293-28.64996338-40.11004639-51.52996826-7.03997803-27.71002197-3.42999268-54.70001221,7.07000732-80.94000244,3.20001221-7.98999023,2.97003174-16.44000244,3.92004395-24.71002197C20.39331217,294.72154815,48.15332194,43.27153594,49.80334635,30.1115628c1.03997803-8.22998047,6.16998291-13.97003174,12.83001709-18.35003662C75.22332926,3.50157744,89.50335856,1.0815335,104.17334147.21153838c8.39996338-.5,16.77996826-.08996582,25.11999512.9800415,1.15997314.14996338,2.25.79998779,3.38000488,1.2199707.94000244,4.71002197-21.63000488,345.64001465-22.26000977,355.15002441-19.53997803,0-39.09002686.02996826-58.63000488-.02001953-1.84997559-.01000977-3.41998291.42999268-4.95001221,1.38000488-12.83996582,7.90997314-19.52996826,20.16998291-22.85998535,34.19000244Z"/>
  <path class="cls-1" d="M523.97332926,481.67156035c.05999756.14001465-371.2199707.97998047-421.59997559,1-15.72003174-.01000977-47.16003418.14001465-47.16003418.14001465-7.02996826.22998047-11.89996338-2.23999023-15.92999268-7.5300293-18.90997314-24.82000732-22.32000732-52.64001465-15.30999756-82.16998291,3.33001709-14.02001953,10.02001953-26.2800293,22.85998535-34.19000244,1.5300293-.95001221,3.10003662-1.39001465,4.95001221-1.38000488,19.53997803.04998779,39.09002686.02001953,58.63000488.02001953,30.65002441.02996826,415.57000732.42999268,416.09997559.45996094-6.37994385,13.61999512-11.03997803,27.77001953-13.25,42.67999268-4.15997314,28.01000977-.67999268,55.02001953,10.71002197,80.97003174Z"/>
  <path class="cls-2" d="M485.32614772,389.21576675c0,1.76000977-.7199707,3.35998535-1.88000488,4.52001953-1.15997314,1.15997314-2.75994873,1.88000488-4.5199585,1.88000488H70.92618434c-3.52001953,0-6.40002441-2.88000488-6.40002441-6.40002441,0-1.76000977.72003174-3.35998535,1.88000488-4.52001953,1.16003418-1.15997314,2.76000977-1.87994385,4.52001953-1.87994385h408c3.5199585,0,6.39996338,2.87994385,6.39996338,6.39996338ZM478.92618434,414.41580337H70.92618434c-1.76000977,0-3.35998535.7199707-4.52001953,1.87994385-1.15997314,1.16003418-1.88000488,2.76000977-1.88000488,4.52001953,0,3.52001953,2.88000488,6.40002441,6.40002441,6.40002441h408c1.76000977,0,3.35998535-.72003174,4.5199585-1.88000488,1.16003418-1.16003418,1.88000488-2.76000977,1.88000488-4.52001953,0-3.52001953-2.88000488-6.39996338-6.39996338-6.39996338ZM478.92618434,446.01580337H70.92618434c-1.76000977,0-3.35998535.7199707-4.52001953,1.87994385-1.15997314,1.16003418-1.88000488,2.76000977-1.88000488,4.52001953,0,3.52001953,2.88000488,6.40002441,6.40002441,6.40002441h408c1.76000977,0,3.35998535-.72003174,4.5199585-1.88000488,1.16003418-1.16003418,1.88000488-2.76000977,1.88000488-4.52001953,0-3.52001953-2.88000488-6.39996338-6.39996338-6.39996338Z"/>
</svg>