<?xml version="1.0" encoding="UTF-8"?>
<svg id="Layer_1" data-name="Layer 1" xmlns="http://www.w3.org/2000/svg" viewBox="0 0 552.87356137 392.95591409">
  <defs>
    <style>
      .cls-1 {
        fill: #ff1733;
      }

      .cls-2 {
        fill: #ddced1;
      }

      .cls-3 {
        fill: #a89a9f;
      }

      .cls-4 {
        fill: #756a6e;
      }

      .cls-5 {
        fill: #ff9605;
      }
    </style>
  </defs>
  <path class="cls-1" d="M552.87356137,378.95209328c-78.52765274,1.47801139-162.41682181-1.97746315-239.84354053,1.33529311-21.56862634,17.0530922-52.31097703,16.86962394-73.74708815-.42809262-79.36343188-2.02841618-159.65447035.12231218-239.28293269-.90720049C0,265.06464963.27523351,152.09454732.27523351,38.30900975c2.62983623.13251523,6.84973077-.07129693,7.59386909.16312438v-.01020305c.01020305-6.91088685-.67277919-10.73329792,5.19845416-12.72096412,0,0,.06115609-12.52735501.08156219-18.63300967C98.39398723-7.31523647,198.48000105-1.25039401,275.77420455,38.86967981,333.51811926,10.86921227,394.53397802.24802348,457.84328343.09510215c11.22260884-.13251523,22.43501463.16312438,33.60667044,1.34549616,16.04392342.66257614,31.87383164,3.03758497,48.45795681,5.77946811.0204061,6.17707601.0408122,12.34388675.07135914,18.52090054v.01020305c4.13839456,1.89590096,5.0762042,7.63461908,5.10675114,12.64960498.69312307-.19367132,5.00478285.05095304,7.58366604.05095304,0,113.51030406.20387437,226.62312466.20387437,340.50036525Z"/>
  <path class="cls-4" d="M545.37145751,362.6839516c.03054694,1.34549616-.17332743,2.10997837-.591217,2.48711796-.08156219.07135914-.16312438.12231218-.26503045.17326522-.31598349.15292133-.71352917.15292133-1.20277788.07135914-.0204061-.01020305-.03060915-.01020305-.05095304-.01020305-.10196829-.0204061-.21407742-.05095304-.33638959-.07135914-.09176524-.03054694-.18346827-.05095304-.27523351-.07135914-.70332612.98876268-1.67162049,1.19263705-2.84385144,1.19263705-65.07275335-.07135914-237.12200127-.34659264-258.07900452-.43835788-.8052322.0204061-1.61052662.03060915-2.41575882.0408122-1.9672601-.01020305-3.93452019-.01020305-5.90178029-.0204061h-2.07943144c-18.01118352.0408122-189.80560404.30578044-257.70186494.41795178-1.3760431,0-2.61963318-.08156219-3.57778671-1.19263705-2.96616361.90720049-2.50746184-1.30468396-2.50746184-2.87446059.01020305-38.91723373.32618654-318.4424902.32618654-323.91617787.01020305-6.92108991-.67277919-10.74350097,5.19845416-12.73116717.03060915-6.20762294.06115609-12.42538672.08156219-18.63300967C98.39398723-7.31523647,198.48000105-1.25039401,275.77420455,38.86967981,333.51811926,10.86921227,394.53397802.24802348,457.84328343.09510215c-.01014084,8.06277391-.03054694,16.11528256-.04074999,24.17805648.09176524,23.72949554.28543656,73.56355767.28543656,75.19442817,5.94253028-6.02409246,11.55893622-11.7016545,17.38941958-17.61363784,5.38192243,5.67756203,10.56003271,11.1512497,16.01331427,16.91037393V27.78978925c-.01020305-8.78644392-.02034389-17.57295006-.04074999-26.34919094,16.04392342.66257614,31.87383164,3.03758497,48.45795681,5.77946811.0204061,6.17707601.0408122,12.3540898.07135914,18.53110359,4.13839456,1.89590096,5.0762042,7.63461908,5.10675114,12.64960498,0,19.17321141.27523351,314.98707788.28543656,324.28317661Z"/>
  <path class="cls-2" d="M545.08602096,38.40077499c-.03054694-5.0149859-.96835658-10.75370402-5.10675114-12.64960498v-.01020305c-.03054694-6.17701379-.05095304-12.34382454-.07135914-18.52090054-16.58412517-2.74188315-32.41403339-5.11689197-48.45795681-5.77946811.0204061,8.77624087.03054694,17.56274701.04074999,26.34919094,6.95169906,1.3760431,13.89319506,2.74194536,20.75319109,4.09758236v88.09892277c-73.58396377-14.55570899-144.33427915-9.70378525-210.83402864,27.674281V59.16410692c48.29489465-28.54066929,101.21743257-36.68494318,156.39266713-34.8909483.01020305-8.06277391.03060915-16.11528256.04074999-24.17805648-63.30930541.15292133-124.32516417,10.77411012-182.06907888,38.77457766C198.48000105-1.25039401,98.39398723-7.31523647,13.14911895,7.10795729c-.0204061,6.10565465-.08156219,18.63300967-.08156219,18.63300967-5.87123335,1.9876662-5.18825111,5.81007726-5.19845416,12.72096412v.01020305c0,5.47368767-.31598349,284.99894414-.32618654,323.91617787,0,1.56977663-.45870177,3.78166108,2.50746184,2.87446059,75.30659951-25.68655259,187.80779701-32.46498643,261.27965165.77468526h2.07943144c1.9672601.01020305,3.93452019.01020305,5.90178029.0204061.8052322-.01020305,1.61052662-.0204061,2.41575882-.0408122,71.40262626-32.69940773,185.82013081-26.61415918,259.14926718-1.355637,2.95602278,1.06005961,4.57669023,1.6512766,4.49519025-1.97746315-.01020305-9.29609873-.28543656-305.1099652-.28543656-324.28317661ZM508.11564123,263.39296693c-1.10080959,3.43506843-3.852958,3.02738191-6.57449726,1.97746315-54.49231454-16.68609346-134.93621213-13.23061893-186.83950264,10.67220405-2.49725879,1.12121569-4.81111153,1.6308705-6.20756073-1.23338703-1.37610531-2.80310145.27517129-4.58689328,2.72153926-5.77946811,37.23541019-17.25690436,75.89781651-21.25264285,117.29196514-21.87440679,24.40227473.35679569,50.31310778,2.52793016,75.42891169,10.49887662,2.83364839.89699744,5.28001635,2.31385274,4.17914455,5.73871812ZM311.27677594,234.7809385c36.76650537-17.63404394,78.22181009-22.60827985,118.59671131-23.04657552,25.24825692.11210913,50.23154559,2.16093141,74.49110205,9.76500355,2.69099232.8460444,4.54614329,2.41575882,3.58798976,5.44314073-.93774743,2.91521057-3.23119407,3.17003798-5.91198334,2.30358748-53.45259883-16.4006569-136.97483136-11.82396668-187.41031354,12.50694891-2.40555577,1.23338703-4.73975239,1.86535402-6.22796683-1.00910657-1.55951136-3.01717886.34659264-4.68886157,2.87446059-5.96299859ZM311.38888507,169.45341996c39.01920202-19.35667968,83.28781124-25.16675694,126.41479866-25.63566176,22.33304634.07135914,44.46228053,1.83480708,66.05125077,8.04236781,2.85405449.81543525,5.11695419,2.2220875,4.08744152,5.56545291-1.00910657,3.29235016-3.65928669,3.0681319-6.4114351,2.2424936-53.68708234-15.106176-136.84231614-8.34814826-186.77828434,16.6962343-2.36480578,1.26399619-4.81117375,2.23229055-6.37068511-.8256383-1.55957358-3.07827274.45863956-4.77036154,3.0069136-6.08524855ZM310.00263892,201.50051682c34.03476306-18.03158962,82.97182774-24.78961736,117.91372908-25.13621,29.14208934,0,52.29057093,1.91630706,74.87850689,8.42971044,2.99677276.60142005,6.48279424,2.43616492,5.15770418,6.01395163-.83584135,2.44630575-2.8133045,3.10888189-5.17811028,2.41575882-56.14359115-15.96242345-136.64864482-10.62118879-189.19404316,14.96345772-2.12018142.98870047-4.02628543.8256383-5.18831333-1.38624615-1.14162179-2.17113446-.54020175-4.13839456,1.61052662-5.30042245ZM49.1511421,41.23448559c20.87544106-5.96299859,42.27073997-7.57352521,69.19074181-7.65502518,38.33621978.61156088,85.13269694,7.01285514,124.36591416,26.05355133,2.32405579,1.10080959,3.86322327,2.91521057,2.54827404,5.54504681-1.355637,2.67058622-3.62873975,2.51766489-6.0750455,1.29448091-51.15915219-24.7997582-133.14221725-32.65865774-187.98106222-17.87866829-2.5992893.74407611-4.93348592.51985786-5.67756203-2.44636797-.68298224-2.7928984,1.06005961-4.17914455,3.62873975-4.91301761ZM239.86394663,100.74172382c-51.22030827-25.0545856-133.61112207-33.04600038-188.60282616-18.20485484-2.56868014.75427916-4.94368897.60142005-5.71837424-2.37494661-.74407611-2.88466364,1.09066876-4.24036285,3.72050499-4.99464201,20.82448802-5.94259249,42.14842779-7.532713,69.01747659-7.62441603,38.59104718.66251392,86.00928828,6.97204294,125.25270855,26.57334698,4.8213768,2.27310275.85624745,9.29616095-3.66948974,6.62551251ZM48.15217637,109.63013603c55.73584241-15.9318143,142.46892513-7.42060388,194.40276258,18.10294876,1.6512766.85618524,2.84385144,1.946854,3.01711665,4.09758236-.72367001,3.01717886-2.68072706,4.59709633-5.77946811,3.088538-32.82178212-16.03372037-68.00830781-22.18018723-104.01033096-24.67750823-28.89746498-1.99780703-57.64194642-1.18237178-85.79527308,6.7070747-2.32405579.65237309-4.03648848-.43829567-4.64804937-2.72153926-.65237309-2.37500883.62176394-3.90397325,2.81324228-4.59709633Z"/>
  <path class="cls-3" d="M545.08602096,38.40077499c-.03054694-5.0149859-.96835658-10.75370402-5.10675114-12.64960498v-.01020305c-.03054694-.01020305-.05095304-.0204061-.07135914-.03060915.60142005,107.80219509,1.19263705,215.60439018,1.79399488,323.38617917-1.47801139.39754568-75.63278605-20.59006671-113.5816632-22.11903114-43.34106484-1.74297963-119.12671001,4.33206587-148.80900109,39.08035811.8052322-.01020305,1.61052662-.0204061,2.41575882-.0408122,71.40262626-32.69940773,185.82013081-26.61415918,259.14926718-1.355637,2.95602278,1.06005961,4.57669023,1.6512766,4.49519025-1.97746315-.01020305-9.29609873-.28543656-305.1099652-.28543656-324.28317661ZM281.36006356,63.85296849c0-1.95711926-.41795178-3.82241107-2.50752406-4.72961156-3.36370929-1.46780834-6.1158577,1.04985655-6.1158577,5.62654678,0,47.23483504-.0204061,236.41867515-.03054694,283.76561932,0,2.85405449,1.28427786,4.89267372,4.15873845,4.92328287,2.85405449.03054694,4.18940981-1.86535402,4.2097537-4.80097069.0408122-10.38676749.29563961-200.24338678.28543656-284.78486672ZM228.29480736,339.20922125c-42.83141003-13.74027373-88.41490626-14.40284987-132.98935813-10.00962791-29.24399541,2.89486669-84.24590255,19.80524061-84.24590255,19.80524061.70332612-108.34245905,2.00801008-323.263867,2.00801008-323.263867-5.87123335,1.9876662-5.18825111,5.81007726-5.19845416,12.72096412v.01020305c0,5.47368767-.31598349,284.99894414-.32618654,323.91617787,0,1.56977663-.45870177,3.78166108,2.50746184,2.87446059,75.30659951-25.68655259,187.80779701-32.46498643,261.27965165.77468526h2.07943144c-.3772018-.56060785-28.78535586-21.456455-45.11465362-26.8282366Z"/>
  <path class="cls-5" d="M491.49070386,98.76432288c-5.45328157-5.75912422-10.63139184-11.23281189-16.01331427-16.91037393-5.83048336,5.90178029-11.44688931,11.58954537-17.38941958,17.61363784,0-1.6308705-.19367132-51.46493263-.28543656-75.19442817.01020305-8.06277391.03060915-16.12548561.04074999-24.17805648,11.22260884-.13251523,22.43501463.16312438,33.60667044,1.34549616.01932955,8.8050714.03117724,17.58172179.03817811,26.34919767.01884433,23.59953088.00257188,47.13258945.00257188,70.9745269Z"/>
</svg>