<?xml version="1.0" encoding="UTF-8"?>
<svg id="Layer_1" data-name="Layer 1" xmlns="http://www.w3.org/2000/svg" viewBox="0 0 550.21448182 437.22126053">
  <defs>
    <style>
      .cls-1 {
        fill: #f94e03;
      }

      .cls-2 {
        fill: #025589;
      }

      .cls-3 {
        fill: #086d08;
      }
    </style>
  </defs>
  <path class="cls-3" d="M342.69804298,126.38860371c14.10352011,1.43906095,27.66743732,2.82306775,41.37126407,4.22134169-1.30360873,38.27334407,46.8921719,29.54497998,43.06481907,3.75760436-2.40460326-14.22673149-18.91947106-18.55566149-30.64831265-22.10898062-12.16511881-3.68549982-24.77001783-8.40605908-34.51980241-16.83615365-20.50348364-17.7281568-20.26979102-52.25168946-6.43959514-74.14891055C368.68512755.43936518,396.08749853-1.956528,418.41649275,1.07336128c34.32236367,4.34533753,49.82871535,32.84238242,46.55641955,65.3507139-12.05479472-.65659485-24.06720966-1.31088139-36.22779018-1.97323813.62448658-11.40202659-1.07323331-24.65567252-14.07688332-27.90669908-18.62324333-4.50618754-38.96989228,10.70689092-25.10939836,29.3840167,4.4093264,5.40357604,10.52945362,7.40891659,16.89868935,9.554665,14.23835851,4.7967699,28.20610118,11.02384339,39.79006587,20.77361774,20.03639049,16.86386773,27.37934363,44.84379616,16.14737876,68.8573087-12.38450201,26.4775573-47.52233664,32.719552-73.66688144,26.92414458-34.15814632-7.61180794-44.86178967-33.39670082-46.03005-65.64928696ZM132.10042483,263.38469373c.57507345,12.04534185,1.13750077,23.82580117,1.66919095,34.96244822,11.83050587-.56481666,23.71365679-1.13214673,35.68628178-1.7037485,2.93675843,44.74383184,5.90790366,90.01162165,8.8855403,135.37843846,14.86824338.11052474,29.54689395.21968344,44.27994661.32919789-2.90405017-47.29788432-5.79038391-94.3075859-8.68574625-141.46430325,11.9320926-.56966666,23.63891433-1.12857835,35.50835667-1.69525393.49575714-12.05381088.98622308-23.9783378,1.48535108-36.11360018-39.70836248,3.44418935-79.10916121,6.86167766-118.82892115,10.3068213Z"/>
  <path class="cls-2" d="M41.94037641,375.58997638c.34502014,11.58588423,4.98706553,23.31941623,17.91231861,24.4944532,10.91645073.99240275,24.14248903-4.50759948,25.9856383-16.47796603,2.28046974-14.81053768-12.56368198-22.33000412-24.51277603-25.40373239-14.30516977-3.67980514-29.24867853-7.02338797-41.47440218-15.78860172-21.85219215-15.66688654-24.42728658-48.18319369-13.73867286-71.39060409,11.98931414-26.03152217,46.7407807-30.40935631,71.84853135-25.19119171,28.61876866,5.94782069,42.84544423,33.06400498,41.26230703,60.90220489h-35.92294958c.26530714-11.85700879-2.94941163-25.22150784-16.55950209-27.3359353-11.12452593-1.72830642-25.84191319,3.64092675-27.74190521,15.95366078-.93768008,6.07650039,1.22417779,11.65938037,5.55353683,15.92592561,5.29965969,5.22281444,11.89996348,6.73304953,18.8332224,8.63796792,13.14608974,3.61192158,26.29163665,8.72350858,37.32501958,16.87207578,21.01156979,15.5178049,31.83807582,43.01425184,21.62194828,68.03387062-11.17303174,27.36305595-44.51467516,35.15319631-71.31466013,31.58961667-34.46447562-5.04276803-47.35476188-30.79301569-50.22936888-62.75792101,2.56054576.13720099,32.04970325,1.52239355,41.15171459,1.93617678ZM461.71711491,430.45278737c2.04636424-21.8371899,4.09272465-43.674339,6.13908889-65.5115289,20.4304496.56046527,41.48525393.74521207,59.11820542-11.20423929,24.11148656-16.33976165,30.86901577-53.51452794,13.58129091-77.18550741-17.1762394-22.49491161-47.78020769-28.65237598-74.5921869-29.53339696-10.25732823-.28956844-20.99294408-.343868-30.91188856,2.62693257-6.23622182,59.9385632-9.41633978,119.04576264-15.07373337,178.89903225,9.79550417.43170033,37.42800904,1.6989597,41.73922361,1.90870774ZM507.65608101,307.16471764c-1.40802317,19.35826553-22.88181918,22.63695464-38.31178827,22.0911895,1.46529157-15.63643937,2.90196144-30.96745038,4.36816655-46.61363833,17.81479117-2.7581538,35.38004083,3.65695413,33.94362173,24.52244883ZM279.24812061,111.2924846c.04993969,7.52249806,1.1141589,16.90741046-3.65272546,23.33039559-8.76119891,11.80500024-28.62959439,7.33840948-32.96752594-6.15960347-2.71708353-8.45453483-1.73510707-19.11063551-1.94413405-27.90081943-.72944872-29.87902513-1.6050573-59.75180403-1.59984252-89.64119308h-38.03046373c0,34.39379763.62983817,68.79125163,1.07863986,103.18236588.17284293,13.244525-.81499191,27.06102122,4.78514672,39.4290072,14.90474846,32.56857243,62.32602665,41.99213241,90.43611014,21.21145473,22.93845713-17.31141392,19.42469428-47.16807432,19.98611631-72.70740996.66380044-30.19847482,1.43542799-60.37021818,1.43542799-90.57649736h-39.41851252c.034585,33.27731936-.13888496,66.55549176-.10823679,99.8322999Z"/>
  <path class="cls-1" d="M264.44813212,343.73451999c-.04879259-32.13235741,5.33123559-71.92724063,37.6115685-87.80257108,30.0717206-14.78913203,72.32274328-7.42089804,89.55271331,22.87483422,15.92205325,29.59131306,14.3464164,81.09397081,2.8567724,112.19382154-10.79506623,32.56674637-36.88744152,47.74265698-70.59076636,44.62952515-45.93187342-3.66817804-60.39563283-52.50756902-59.43028786-91.89560983ZM310.11637715,344.14702425c-.02998839,12.04402657.04354872,24.30174091,3.43367091,35.96382516,2.27821652,7.8369665,6.10472717,16.57354379,14.60426507,19.14271326,19.49020171,5.89132616,27.80956344-19.06135131,30.47111519-33.40792924,3.65633062-19.70884658,5.3716093-42.70293792-2.40726493-61.67170211-5.28696993-12.8921409-20.68039675-21.31937073-33.20128791-12.01325979-14.64687153,10.88631895-12.8048796,36.00278549-12.90049833,51.98635272ZM91.12289851,187.99919248c-6.92645483-61.70904009-13.81387428-123.07029293-20.72611176-184.65275181,26.112508-6.09477488,62.45321529-5.1052855,82.14141131,15.85910875,8.2809607,8.81772789,11.43074786,21.55413138,8.62653159,33.30636219-3.2205932,13.49711885-13.69524667,22.17323954-24.29515154,30.0728281,24.01838655,3.55975562,46.43142045,19.51479073,46.53229534,45.81323015.09702347,25.29570492-21.71779805,43.95408437-43.737521,52.13249515-15.53350971,5.76932436-32.06067458,7.55487495-48.54145393,7.46872746ZM119.69533231,146.34546671c8.57625601-1.56913386,27.54152856-4.90123319,26.00001504-17.29049375-1.57444477-12.65393262-19.12061631-11.93963525-28.19081538-11.33564628.73846154,9.64912368,1.4502255,18.9494029,2.19080034,28.62614003ZM111.8196786,63.24700946c11.0594738-1.39264639,17.64044386-8.03941011,16.41460575-16.47944806-1.25448784-8.63722268-10.38176553-15.63087347-18.77273097-14.33304606.78570515,10.26643337,1.5717198,20.53691073,2.35812522,30.81249412Z"/>
</svg>