<?xml version="1.0" encoding="UTF-8"?>
<svg id="Layer_1" data-name="Layer 1" xmlns="http://www.w3.org/2000/svg" viewBox="0 0 272.85916503 558.24532466">
  <defs>
    <style>
      .cls-1 {
        fill: #025589;
      }

      .cls-2 {
        fill: #43e4ff;
      }

      .cls-3 {
        fill: #0995cc;
      }
    </style>
  </defs>
  <path class="cls-1" d="M266.2199707,489.00533442c4.79003906-1.34002686,7.61004639-6.2800293,6.33001709-11.09002686l-88.36999512-330.69000244c10.23999023-15.22998047,13.52001953-33.55999756,7.44000244-51.9699707-4.7800293-14.90002441-16.58001709-27.92999268-31.86999512-34.73999023l.02996826-46.47003174c0-.95996094-.05999756-1.94000244-.28997803-2.88000488-.94000244-3.88000488-3.64001465-6.73999023-7.51000977-8.22998047-9.76000977-3.88000488-20.91998291-3.90002441-30.72998047-.14001465-4.54998779,1.72003174-7.66998291,5.26000977-8.09002686,10.11999512l-.07000732,47.57000732c-15.05999756,6.91003418-27,19.72003174-31.75,34.7300415-6.15997314,18.54998779-2.81994629,36.75994873,7.57000732,52.33996582L.30999756,477.97530513c-.21002197.7800293-.30999756,1.57000732-.30999756,2.35003662,0,3.9699707,2.61999512,7.60998535,6.63000488,8.7199707l-5.85003662,67.16003418c-.07995605.88995361.49005127,1.7199707,1.36004639,1.9699707.16998291.04998779.34997559.07000732.5199585.07000732.72003174,0,1.40002441-.40997314,1.71002197-1.08996582l28.33001709-60.95001221.26000977.05999756c4.7699585,1.14001465,9.57995605-1.7300415,10.84997559-6.47003174l52.19000244-194.63995361,27.85998535.02996826.03997803,11.82000732c0,.91998291.06005859,1.84997559.25,2.75,1.2800293,5.92999268,6.44000244,10.08996582,12.52001953,10.02996826,6.57000732-.16998291,11.98999023-5.22998047,12.36999512-12.0199585l.08001709-12.59002686,27.71002197-.02996826,52.25994873,194.48999023c1.29003906,4.78997803,6.18005371,7.65997314,10.99005127,6.45001221l.23999023-.07000732,28.19000244,61.09997559c.38000488.85003662,1.32000732,1.29003906,2.2199707,1.05999756.85998535-.2199707,1.45001221-.98999023,1.45001221-1.85998535,0-.05999756-.01000977-.10998535-.01000977-.16998291l-5.95001221-67.14001465ZM149.11999512,280.05532222l-.09002686-12.41998291c-.2199707-6.85998535-5.65997314-12.22998047-12.35998535-12.32000732-6.70001221-.08001709-12.32000732,5.02001953-12.77001953,11.92999268l-.02996826,12.7800293-23.79998779.07995605,28.89996338-108.69000244c4.89001465.30999756,9.75.44000244,14.90002441-.04998779l28.85998535,108.75-23.60998535-.05999756Z"/>
  <path class="cls-3" d="M266.2162976,489.00754728l-12.97089951,3.23462145-87.88042774-327.93629448c7.31220277-4.47784388,13.55510449-9.98749164,18.81114437-17.07842939l88.37296313,330.6872485c1.28493703,4.8081707-1.53908487,9.75489188-6.3327716,11.09285151l-.00000865.00000241ZM107.46516739,164.30047197L19.75529744,492.23674851l12.94311634,3.96473731.25675251.06129086c4.77179133,1.13910158,9.5833079-1.72708218,10.85386661-6.46556564l52.19024642-194.64084469,4.06894215-15.0485709,28.9039731-108.69517299c-7.59118941-1.20983176-14.6570635-3.64706268-21.50702718-7.11215048ZM159.77908618,14.04841675c.00063484-.96676366-.06374153-1.9384309-.29030238-2.87827267-.935655-3.88137526-3.63846179-6.74367052-7.51083963-8.23422854-9.75404135-3.88271756-20.91524801-3.89594431-30.72709068-.14069163-4.55023387,1.72037415-7.67419989,5.26381853-8.08793548,10.11765758l-.07054596,47.56944066c15.12674987-6.31217896,31.69573822-6.08296237,46.6561982.03704423l.03051592-46.47094963Z"/>
  <path class="cls-2" d="M107.46516739,164.30047197L19.75529744,492.23674851l-13.12295313-3.18752647-.00000864-.00000241c-4.78739347-1.33302252-7.60729588-6.27382787-6.32021913-11.07377774L88.91259675,147.55391506c5.22397472,6.728771,11.32738515,12.23978885,18.55257064,16.74655691ZM143.86951949,171.36786068l28.86463156,108.74302179c1.69794148,4.87893715,2.95547119,9.98602526,4.09981234,15.03855603l52.25875976,194.48118846c1.28711256,4.78999467,6.17898859,7.66158411,10.98877971,6.45054445l.24238804-.06102999,12.9215072-3.77797267-87.88042774-327.93629448c-6.99582278,3.56055757-13.96700303,5.99573026-21.49545086,7.06198642ZM164.96960062,113.8785247c-.00443391-15.30169625-11.9087743-28.04126724-27.37545579-28.8402207-16.14381591-.49537077-29.33050383,12.34298677-29.61590675,28.27577475-.24257588,15.97327356,12.59169652,29.33470899,29.0110795,29.25485788,15.81369237-.51728148,27.84942284-13.3418215,27.98028303-28.69041193Z"/>
</svg>