<?xml version="1.0" encoding="UTF-8"?>
<svg id="Layer_1" data-name="Layer 1" xmlns="http://www.w3.org/2000/svg" viewBox="0 0 383.7199707 559.30236282">
  <defs>
    <style>
      .cls-1 {
        fill: #66c602;
      }

      .cls-2 {
        fill: #ff1833;
      }

      .cls-3 {
        fill: #025589;
      }

      .cls-4 {
        fill: #43e4ff;
      }

      .cls-5 {
        fill: #ddced1;
      }

      .cls-6 {
        fill: #086d08;
      }

      .cls-7 {
        fill: #3d363c;
      }

      .cls-8 {
        fill: #7526a8;
      }

      .cls-9 {
        fill: #fc86b7;
      }

      .cls-10 {
        fill: #ff9605;
      }

      .cls-11 {
        fill: #bb5cff;
      }
    </style>
  </defs>
  <path class="cls-10" d="M383.57000732,427.03080062c0-9.69000244,0-19.36999512-.01000977-29.05999756v-22.98999023c.22998047-80.05999756-.0300293-160.11004639.08996582-240.17999268.01000977-6.55004883-3.91998291-6.22003174-19-6.14001465v-12.35998535h-.00994873v-8.25c.0199585-2.04003906.02996826-4.07000732.03997803-6.11004639,0-5.10998535.01000977-10.2199707.01000977-15.32995605,0-4.55999756.01000977-9.11999512.01000977-13.67999268v-11.38000488c-1.71002197-.11004639-3.37005615-.21002197-5.0300293-.30999756C351.34997559,40.76078108,343.08996582,20.40079573,334.80999756.00077132h-9.0300293c-8.29998779,20.36004639-16.57000732,40.66003418-24.89996338,61.10003662h-4.92999268v12.15997314c-.01000977,4.63000488-.01000977,9.26000977-.02001953,13.90002441.01000977,4.08001709.02001953,8.15997314.03997803,12.25-.01000977,1.95996094-.0199585,3.92999268-.0199585,5.89001465,0,3.69995117.00994873,7.38995361.00994873,11.08996582-.00994873.15002441,0,25.72003174.02001953,59.20001221,0,0-6.52001953,7.65997314-23.83001709,18.34997559.02001953-39.08996582.0300293-72.25.0300293-76.32995605v-8.26000977c.01000977-2.0300293.02996826-4.07000732.03997803-6.10998535,0-5.11004639,0-10.22003174.01000977-15.33001709,0-4.55999756.01000977-9.11999512.01000977-13.67999268v-11.38000488c-1.71002197-.10998535-3.38000488-.21002197-5.03997803-.30999756-8.30999756-20.4800415-16.57000732-40.84002686-24.85003662-61.23999023h-9.02996826c-8.30004883,20.35998535-16.57000732,40.65997314-24.90002441,61.09997559h-4.92999268v12.15997314c-.01000977,4.63000488-.02001953,9.27001953-.02001953,13.90002441.01000977,4.08001709.02001953,8.16998291.04003906,12.25-.01000977,1.96002197-.02001953,3.92999268-.02001953,5.89001465,0,3.70001221,0,7.39001465.01000977,11.08996582-.01000977.21002197.01000977,43.96002197.03997803,91.80004883-6.72998047.10998535-13.41998291-.11004639-19.95001221-.62005615.0300293-45.23999023.04003906-86.66998291.04003906-91.25994873v-8.26000977c.01000977-2.0300293.0199585-4.07000732.02996826-6.10998535.01000977-5.11004639.01000977-10.22003174.01000977-15.33001709.01000977-4.55999756.01000977-9.11999512.02001953-13.67999268v-11.38000488c-1.71002197-.10998535-3.38000488-.21002197-5.04003906-.30999756-8.30999756-20.4800415-16.57995605-40.84002686-24.85998535-61.23999023h-9.02996826c-8.29003906,20.35998535-16.55999756,40.65997314-24.89001465,61.09997559h-4.92999268v12.15997314c-.01000977,4.63000488-.02001953,9.27001953-.0300293,13.90002441.01000977,4.08001709.0300293,8.16998291.04003906,12.25-.01000977,1.96002197-.01000977,3.92999268-.02001953,5.89001465.01000977,3.70001221.01000977,7.39001465.01000977,11.08996582-.01000977.19000244.01000977,34.91003418.03997803,76.45001221-7.75-3.60998535-14.94000244-8.02001953-21.23999023-13.38000488,0,0,.02996826-59.53997803.02996826-63.14996338v-8.26000977c.01000977-2.0300293.02001953-4.07000732.04003906-6.10998535v-15.33001709c.01000977-4.55999756.01000977-9.11999512.0199585-13.67999268v-11.38000488c-1.70996094-.10998535-3.37994385-.21002197-5.03997803-.30999756-8.30999756-20.4800415-16.58001709-40.84002686-24.84997559-61.23999023h-9.04003906c-8.28997803,20.35998535-16.55999756,40.65997314-24.88995361,61.09997559h-4.93005371v12.15997314c-.00994873,4.63000488-.0199585,9.27001953-.02996826,13.90002441.02001953,4.08001709.02996826,8.16998291.03997803,12.25,0,1.96002197-.01000977,3.92999268-.0199585,5.89001465.00994873,3.70001221.00994873,7.39001465.0199585,11.08996582v11.0300293c-6.05999756.01000977-12.11999512.03997803-18.17999268.08996582-3.39996338.02001953-6.90997314.25-6.90997314,5.35003662.13000488,80.26000977-.08001709,160.53997803.10998535,240.80999756,0,7.65997314.01000977,15.29998779.01000977,22.95001221,0,9.69000244,0,19.38995361-.01000977,29.07995605-.17999268,41.24005127,0,82.4800415-.05999756,123.71002197,0,8.11999512.42999268,8.54998779,8.39001465,8.54998779,41.28997803-.07995605,82.58996582.17004395,123.85998535-.07995605h.01000977c9.69000244,0,19.39001465-.01000977,29.08001709-.01000977h22.39996338l15.57000732.11999512c7.45001221-.04003906,15.5-.08001709,22.96002197-.13000488h.00994873c9.69000244.01000977,19.38000488.02001953,29.07000732.02996826,42.11004639.2300415,84.29003906.02001953,126.40002441.05999756,3.71002197.40002441,5.91998291-1.53997803,5.91998291-5.33996582-.05999756-42.29003906.0300293-84.59002686-.14996338-126.88000488Z"/>
  <path class="cls-5" d="M195.56699119,390.45198316c-4.3028925-.05554378-8.60263782.00520257-12.90577911.03592615-32.82054883.23433219-69.94738604-6.33817055-98.16679246-22.13071557-18.13392219-9.91802093-34.80970903-30.07828567-21.97949581-50.83628499,14.14580898-22.74604928,44.42702008-31.81824114,69.01986385-37.97931242,50.38815509-11.13949638,104.44538414-10.02659171,153.03779526,8.28082872,27.95119868,9.7435814,58.78273659,37.88716849,31.82135422,66.30507226-26.87760593,27.41040427-82.08552717,36.8245785-120.82694594,36.32448586Z"/>
  <path class="cls-1" d="M364.70001221,61.55082015v11.38000488c0,4.55999756-.01000977,9.11999512-.01000977,13.67999268,0,5.10998535-.01000977,10.2199707-.01000977,15.32995605-.01000977,2.04003906-.02001953,4.07000732-.03997803,6.11004639v8.25h.00994873v12.35998535s-27.54998779-.01000977-40.44995117,0c-8.11004639,0-8.43005371.47998047-9.80004883,8.44000244-2.52996826,14.66998291-8.53997803,27.58001709-18.41998291,38.48999023-.02001953-33.47998047-.02996826-59.04998779-.02001953-59.20001221,0-3.70001221-.00994873-7.39001465-.00994873-11.08996582,0-1.96002197.00994873-3.93005371.0199585-5.89001465-.0199585-4.09002686-.02996826-8.16998291-.03997803-12.25.01000977-4.64001465.01000977-9.27001953.02001953-13.90002441v-12.15997314h4.92999268C309.20996094,40.6608055,317.47998047,20.36081771,325.77996826.00077132h9.0300293c8.27996826,20.40002441,16.53997803,40.76000977,24.85998535,61.24005127,1.65997314.09997559,3.32000732.19995117,5.0300293.30999756Z"/>
  <path class="cls-6" d="M132.30999756,559.18082503h-.01000977c-41.27001953.25-82.57000732,0-123.85998535.07995605-7.96002197,0-8.39001465-.42999268-8.39001465-8.54998779.05999756-41.22998047-.11999512-82.4699707.05999756-123.71002197,44.22998047,43.89001465,88.15002441,88.11004639,132.20001221,132.18005371ZM.10998535,374.97080306c0,7.65997314.01000977,15.29998779.01000977,22.95001221,53.90997314,53.58996582,107.51000977,107.51000977,161.27001953,161.25h22.39996338C122.58996582,496.11081771,62.10998535,437.33078841.10998535,374.97080306ZM383.55999756,397.97080306v-22.98999023c-61.45001221,61.13000488-184.20001221,184.30999756-184.20001221,184.30999756,7.45001221-.04003906,15.5-.08001709,22.96002197-.13000488h.00994873c53.65002441-53.82000732,107.45001221-107.5,161.2300415-161.19000244ZM383.57000732,427.03080062c-44.09002686,44.01000977-88.2300415,87.98999023-132.17004395,132.15997314,42.11004639.2300415,84.29003906.02001953,126.40002441.05999756,3.71002197.40002441,5.91998291-1.53997803,5.91998291-5.33996582-.05999756-42.29003906.0300293-84.59002686-.14996338-126.88000488ZM364.70370924,72.92780174v-11.3803471c-1.70924907-.1044271-3.37846192-.20640669-5.03781902-.30778398-8.31349647-20.48254412-16.57703526-40.8420201-24.85608043-61.23967066h-9.03077572c-8.29411351,20.35614693-16.56682909,40.65974083-24.89610571,61.10221039h-4.93028189v12.15862794c10.26148455-.01438939,56.095541-.23639005,68.75106277-.33303659Z"/>
  <path class="cls-9" d="M272.23999023,62.85080794v11.38000488c0,4.55999756-.01000977,9.11999512-.01000977,13.67999268-.01000977,5.10998535-.01000977,10.2199707-.01000977,15.33001709-.01000977,2.03997803-.02996826,4.07995605-.03997803,6.10998535v8.26000977c0,4.07995605-.01000977,37.22991943-.0300293,76.32995605,0,0-23.88997803,12.51002197-68.61938979,15.55472785-.02996826-47.90002441-.04058335-91.59470588-.03057359-91.80472785-.01000977-3.69995117-.01000977-7.38995361-.01000977-11.08996582,0-1.96002197.01000977-3.92999268.02001953-5.89001465-.02001953-4.08001709-.0300293-8.16998291-.04003906-12.25,0-4.63000488.01000977-9.27001953.02001953-13.90002441v-12.15997314h4.92999268c8.33001709-20.44000244,16.59997559-40.73999023,24.90002441-61.09997559h9.02996826c8.2800293,20.39996338,16.54003906,40.75994873,24.85003662,61.23999023,1.65997314.09997559,3.32995605.20001221,5.03997803.30999756Z"/>
  <path class="cls-2" d="M203.4903976,74.56213784v-12.15862794h4.93028189c8.32927661-20.44246957,16.6019922-40.74606347,24.89610571-61.10221039h9.03077572c8.27904517,20.39765056,16.54258396,40.75712654,24.85608043,61.23967066,1.6593571.10137729,3.32856995.20335688,5.03781902.30778398v11.3803471c-12.65552177.09664653-58.48957822.3186472-68.75106277.33303659Z"/>
  <path class="cls-4" d="M183.69000244,62.85080794v11.38000488c-.01000977,4.55999756-.01000977,9.11999512-.02001953,13.67999268,0,5.10998535,0,10.2199707-.01000977,15.33001709-.01000977,2.03997803-.0199585,4.07995605-.02996826,6.10998535v8.26000977c0,4.58996582-.01000977,46.0199585-.04003906,91.25994873-23.45996094-1.18994141-48.10998535-5.21002197-68.60998535-14.72998047-.02996826-41.56005859-.04998779-76.26000977-.03997803-76.45001221,0-3.69995117,0-7.38995361-.01000977-11.08996582.01000977-1.96002197.01000977-3.92999268.02001953-5.89001465-.01000977-4.08001709-.0300293-8.16998291-.04003906-12.25.01000977-4.63000488.02001953-9.27001953.0300293-13.90002441v-12.15997314h4.92999268c8.33001709-20.44000244,16.59997559-40.73999023,24.89001465-61.09997559h9.02996826c8.2800293,20.39996338,16.54998779,40.75994873,24.85998535,61.23999023,1.66003418.09997559,3.33001709.20001221,5.04003906.30999756Z"/>
  <path class="cls-3" d="M114.93574073,74.56311823v-12.15862794h4.93028189c8.32927661-20.44246957,16.6019922-40.74606347,24.89610571-61.10221039h9.03077572c8.27904517,20.39765056,16.54258396,40.75712654,24.85608043,61.23967066,1.6593571.10137729,3.32856995.20335688,5.03781902.30778398v11.3803471c-12.65552177.09664653-58.48957822.3186472-68.75106277.33303659Z"/>
  <path class="cls-11" d="M93.82995605,62.85080794v11.38000488c-.00994873,4.55999756-.00994873,9.11999512-.0199585,13.67999268v15.33001709c-.02001953,2.03997803-.0300293,4.07995605-.04003906,6.10998535v8.26000977c0,3.60998535-.02996826,63.14996338-.02996826,63.14996338-12.88000488-10.97998047-22.02001953-25.88000488-24.90002441-46.10998535-.51000977-3.47998047-1.84997559-5.91998291-5.66998291-5.92999268-12.70001221-.02001953-25.39001465-.0300293-38.08001709,0v-11.0300293c-.01000977-3.69995117-.01000977-7.38995361-.0199585-11.08996582.00994873-1.96002197.0199585-3.92999268.0199585-5.89001465-.01000977-4.08001709-.0199585-8.16998291-.03997803-12.25.01000977-4.63000488.02001953-9.27001953.02996826-13.90002441v-12.15997314h4.93005371C38.33996582,41.96079329,46.60998535,21.6608055,54.89996338,1.30082015h9.04003906c8.2699585,20.39996338,16.53997803,40.75994873,24.84997559,61.23999023,1.66003418.09997559,3.33001709.20001221,5.03997803.30999756Z"/>
  <path class="cls-8" d="M25.07842782,74.56311823v-12.15862794h4.93028189C38.33798632,41.96202072,46.61070191,21.65842682,54.90481541,1.3022799h9.03077572c8.27904517,20.39765056,16.54258396,40.75712654,24.85608043,61.23967066,1.6593571.10137729,3.32856995.20335688,5.03781902.30778398v11.3803471c-12.65552177.09664653-58.48957822.3186472-68.75106277.33303659Z"/>
  <path class="cls-7" d="M364.64468427,116.3067044c-22.89483089.02642435-45.78966179.0528487-68.68437223.07968918-.00393135-3.69449187-.0079941-7.38939988-.01210067-11.08418743,8.67800574,4.23476194,17.2412468,2.67988669,25.72428399-.60306211,8.32289228-3.22098901,16.55682003-6.65889203,25.8275065-4.23572561,6.1428014,1.60559949,11.63098418,4.60423193,17.14358731,7.58826692.00035043,2.75168032.00070085,5.50333873.00109508,8.25501905ZM295.96796668,99.40690442c7.21781135,3.98497354,14.89417768,4.08865599,22.01999113.72091492,16.03961242-7.58063419,31.48415683-8.04794984,46.69135299,1.81391709.00275961-5.10909796.00589155-10.21869967.00906729-15.32823566-22.91995209.18133476-45.83994799.36259287-68.75993294.54385098.01317385,4.08318057.02633674,8.16637209.03952154,12.24955267ZM272.18171648,109.35396525c-5.51260313-2.98403499-11.00078592-5.98266743-17.14358731-7.58826692-9.27068647-2.42316642-17.50461422,1.0147366-25.8275065,4.23572561-8.48303719,3.2829488-17.04627825,4.83782405-25.72428399.60306211.00410656,3.69478755.00816932,7.38969555.01210067,11.08418743,22.89471044-.02684048,45.78954133-.05326483,68.68437223-.07968918-.00039423-2.75168032-.00074466-5.50333873-.00109508-8.25501905ZM203.50609396,100.70918432c7.21781135,3.98497354,14.89417768,4.08865599,22.01999113.72091492,16.03961242-7.58063419,31.48415683-8.04794984,46.69135299,1.81391709.00275961-5.10909796.00589155-10.21869967.00906729-15.32823566-22.91995209.18133476-45.83994799.36259287-68.75993294.54385098.01317385,4.08318057.02633674,8.16637209.03952154,12.24955267ZM183.62668346,109.35396525c-5.51260313-2.98403499-11.00078592-5.98266743-17.14358731-7.58826692-9.27068647-2.42316642-17.50461422,1.0147366-25.8275065,4.23572561-8.48303719,3.2829488-17.04627825,4.83782405-25.72428399.60306211.00410656,3.69478755.00816932,7.38969555.01210067,11.08418743,22.89471044-.02684048,45.78954133-.05326483,68.68437223-.07968918-.00039423-2.75168032-.00074466-5.50333873-.00109508-8.25501905ZM114.95106094,100.70918432c7.21781135,3.98497354,14.89417768,4.08865599,22.01999113.72091492,16.03961242-7.58063419,31.48415683-8.04794984,46.69135299,1.81391709.00275961-5.10909796.00589155-10.21869967.00906729-15.32823566-22.91995209.18133476-45.83994799.36259287-68.75993294.54385098.01317385,4.08318057.02633674,8.16637209.03952154,12.24955267ZM93.76937054,109.35396525c-5.51260313-2.98403499-11.00078592-5.98266743-17.14358731-7.58826692-9.27068647-2.42316642-17.50461422,1.0147366-25.8275065,4.23572561-8.48303719,3.2829488-17.04627825,4.83782405-25.72428399.60306211.00410656,3.69478755.00816932,7.38969555.01210067,11.08418743,22.89471044-.02684048,45.78954133-.05326483,68.68437223-.07968918-.00039423-2.75168032-.00074466-5.50333873-.00109508-8.25501905ZM25.09374802,100.70918432c7.21781135,3.98497354,14.89417768,4.08865599,22.01999113.72091492,16.03961242-7.58063419,31.48415683-8.04794984,46.69135299,1.81391709.00275961-5.10909796.00589155-10.21869967.00906729-15.32823566-22.91995209.18133476-45.83994799.36259287-68.75993294.54385098.01317385,4.08318057.02633674,8.16637209.03952154,12.24955267Z"/>
</svg>