<?xml version="1.0" encoding="UTF-8"?>
<svg id="Layer_1" data-name="Layer 1" xmlns="http://www.w3.org/2000/svg" viewBox="0 0 551.43123868 524.92004395">
  <defs>
    <style>
      .cls-1 {
        fill: #ff1733;
      }

      .cls-2 {
        fill: #a53d1e;
      }

      .cls-3 {
        fill: #a89a9f;
      }

      .cls-4 {
        fill: #f48431;
      }
    </style>
  </defs>
  <path class="cls-3" d="M537.64722617,161.08001709l-124.47998047-.27996826-.35998535-23.76000977.27996826-103.52001953c0-1.76000977-.08996582-3.51000977-.35998535-5.25-1.30999756-8.48999023-5.35998535-16.34997559-12.34002686-21.40002441-5.14996338-3.90997314-11.15997314-5.48999023-17.48999023-6.45996094-1.88000488-.2800293-3.77001953-.41003418-5.65997314-.41003418h-202.95001221c-1.84002686,0-3.69000244.11999512-5.52001953.39001465-6.5.97003174-12.67999268,2.63000488-17.89996338,6.66003418-4.5,3.2699585-7.64001465,7.66998291-9.72003174,12.66998291-1.84997559,4.4699707-2.64996338,9.29998779-2.65997314,14.13000488l.05999756,103.19000244-.30999756,23.77996826-121.58001709.22003174c-8.58001709-.69000244-15.85998535,5.26000977-16.60998535,13.60998535-.66003418,8.34997559,5.66998291,15.57000732,14.27996826,16.05999756l15.69000244.13000488.01000977,62.41998291,18.64001465.05999756.04998779,259.89001465c0,6.46002197,5.23999023,11.69000244,11.69000244,11.69000244h.03997803c6.45001221-.02001953,11.67004395-5.25,11.67004395-11.69000244l.02996826-259.90002441h66.07000732l.01000977,26.61004639c-8.57000732,1.19995117-16.96002197,3.92999268-24.15002441,8.85998535-12.5,8.33996582-18.89996338,22.77996826-15.98999023,37.57000732,1.39001465,4.88000488,5.59997559,7.85998535,10.75,8.28997803l29.39001465.13000488.02001953,143.08001709c0,6.42999268,5.20996094,11.65997314,11.63995361,11.67999268h.04003906c6.44995117,0,11.69000244-5.22998047,11.69000244-11.67999268l.00994873-143.08001709,228.30004883.01000977.0199585,143.14996338c0,6.42004395,5.20001221,11.62005615,11.61999512,11.61004639,3.21002197,0,6.10003662-1.29998779,8.20001221-3.40002441,2.09002686-2.09997559,3.39001465-5,3.39001465-8.21002197v-143.15997314l29.57000732-.14001465c6.65997314-.55999756,11.22998047-5.47998047,11.22998047-12.05999756,1.16998291-13.04998779-4.73999023-25.28997803-15.38000488-32.9699707-7.39996338-5.42999268-16.11999512-8.38000488-25.42999268-9.71002197l.01000977-26.58001709,66.27996826.01000977v259.92004395c0,6.43994141,5.2300415,11.66998291,11.67004395,11.67999268h.0199585c6.38000488,0,11.58001709-5.11999512,11.68005371-11.5l.07995605-260.10003662,18.41003418-.05999756.01000977-62.39996338,15.94995117-.17004395c7.99005127-.5,14.09002686-6.79998779,14.17004395-14.58996582.17999268-7.79998779-5.76000977-14.34002686-13.7800293-15.02001953ZM389.9372042,279.13000488l-228.29998779.01000977-.01000977-25.82000732h228.30004883l.00994873,25.80999756ZM161.61725791,137.30999756l228.34997559-.00994873-.03997803,23.50994873-228.30004883.01000977-.00994873-23.51000977Z"/>
  <path class="cls-1" d="M412.80307263,137.03921849l-22.83919861.26451207-228.3505424.00624137-23.0682684-.27344398-.05312798-103.18932516c.00263103-4.83203493.80486583-9.6611815,2.6570467-14.12413955,2.07546934-5.00098707,5.2136859-9.4003845,9.72238921-12.67270308,5.21956931-4.03130779,11.39823841-5.69287184,17.90018348-6.65836488,1.82570257-.27110397,3.67149398-.3902542,5.51721532-.39026665L377.23294027.00036017c1.89409255-.00001277,3.78803726.1255919,5.66039108.41173479,6.33562904.96824391,12.34271532,2.55244936,17.49004054,6.45658707,6.97913762,5.05014442,11.03763074,12.91113961,12.34810248,21.4016302.26781853,1.73518485.35449442,3.4937389.35518255,5.24947031l-.2835843,103.51943595ZM138.22626819,279.9214835c-8.57368494,1.19547661-16.95643794,3.93002909-24.14607684,8.86317954-12.50780913,8.34033346-18.89939951,22.77840467-15.99582104,37.56216655,1.39625992,4.88455657,5.60559242,7.86438785,10.75028399,8.29630783l29.38927337.12539366,23.40188668.00624137,228.30449416.00076203,23.22790851-.00856374,29.57146916-.1416454c6.65829194-.55978193,11.2312309-5.47604937,11.23128826-12.05588898,1.16934503-13.04994495-4.74289131-25.29125316-15.38074289-32.97417945-7.40392232-5.42444919-16.12533881-8.37086902-25.43141288-9.70654059-7.60072067-1.07375731-15.23987782-.63469428-23.21538949-.76228164l-228.29981313.00936205c-7.76782657.13595549-15.5369083-.37305497-23.40734788.78568677Z"/>
  <path class="cls-2" d="M551.42725547,176.10003662c-.08001709,7.78997803-6.17999268,14.08996582-14.17004395,14.58996582l-15.94995117.17004395-.01000977,62.39996338-18.41003418.05999756h-23.45001221l-66.27996826-.01000977-23.22998047.01000977h-228.30004883l-23.40997314-.01000977h-66.07000732l-23.47998047.01000977-18.64001465-.05999756-.01000977-62.41998291-15.69000244-.13000488c-8.60998535-.48999023-14.94000244-7.71002197-14.27996826-16.05999756.75-8.34997559,8.02996826-14.29998779,16.60998535-13.60998535l121.58001709-.22003174h23.38995361l228.30004883-.01000977,23.23999023-.00994873,124.47998047.27996826c8.02001953.67999268,13.96002197,7.22003174,13.7800293,15.02001953Z"/>
  <path class="cls-4" d="M138.23719059,160.82264291l23.38706343-.00312068,228.30681653-.0054612,23.23571022-.01014222,124.48195394.27336178c8.02075935.6858086,13.95425021,7.22148255,13.77802589,15.02727515-.08044295,7.78334465-6.17982386,14.08918699-14.17014007,14.5822223l-15.95151475.17350631-491.29049417-.02340513-15.68622146-.13092566c-8.61589115-.48333534-14.94105598-7.7087761-14.27661972-16.05191678.74258222-8.35326693,8.02786121-14.30344326,16.60451371-13.6099362l121.58090643-.22145765Z"/>
</svg>