<?xml version="1.0" encoding="UTF-8"?>
<svg id="Layer_1" data-name="Layer 1" xmlns="http://www.w3.org/2000/svg" viewBox="0 0 90.66066717 564.58764297">
  <defs>
    <style>
      .cls-1 {
        fill: #ff1833;
      }

      .cls-2 {
        fill: #ddced1;
      }

      .cls-3 {
        fill: #fc86b7;
      }
    </style>
  </defs>
  <path class="cls-2" d="M90.66035068,555.53749084c.01000977,1.83001709-.21002197,3.29003906-1.72003174,4.13000488-5.5,3.13000488-24.70996094,4.94000244-43.60998535,4.91998291-18.90002441.02001953-38.10998535-1.78997803-43.60998535-4.91998291-1.51000977-.83996582-1.7300415-2.29998779-1.72003174-4.13000488C.72034823,446.22749329.0003165,149.66749573.0003165,149.66749573.0003165,134.19752502,5.83033359,133.33747864,5.83033359,133.33747864c-.29998779-5.22998047-4.39001465-85.95996094-5.30999756-104.89996338-.21002197-4.46002197,2.39001465-8.57000732,6.51000977-10.29998779,1.0199585-.43005371,2.05999756-.80999756,3.08996582-1.22003174,6.46002197-2.52001953,13.30999756-3.42999268,20.2800293-4.29998779-.77001953-9.77001953-.95001221-11.08001709,8.23999023-12.36999512,2.2800293-.33001709,11.09997559-.33001709,13.38000488,0,9.19000244,1.28997803,9.01000977,2.59997559,8.23999023,12.36999512,6.97003174.86999512,13.82000732,1.77996826,20.2800293,4.29998779,1.02996826.41003418,2.07000732.78997803,3.08996582,1.22003174,4.11999512,1.72998047,6.72003174,5.83996582,6.51000977,10.29998779-.91998291,18.94000244-5.01000977,99.66998291-5.30999756,104.89996338,0,0,5.83001709.86004639,5.83001709,16.33001709,0,0-.72003174,296.55999756,0,405.86999512Z"/>
  <path class="cls-1" d="M90.14030067,28.44116436c-.91998291,18.94000244-5.00994873,99.66998291-5.30999756,104.90002441-9.84997559-2.98999023-22.02996826-4.82000732-39.5-4.71002197-17.4699707-.10998535-29.64996338,1.72003174-39.5,4.71002197-.29998779-5.2300415-4.38995361-85.96002197-5.30999756-104.90002441-.20996094-4.45996094,2.39001465-8.57000732,6.51000977-10.29998779,1.02001953-.42999268,2.05999756-.80999756,3.09002686-1.22003174,6.45996094-2.5199585,13.30999756-3.42999268,20.27996826-4.29998779-.7699585-9.7699585-.95001221-11.07995605,8.23999023-12.36999512,2.2800293-.33001709,11.10003662-.33001709,13.38000488,0,9.19000244,1.29003906,9.01000977,2.60003662,8.24005127,12.36999512,6.9699707.86999512,13.81994629,1.7800293,20.27996826,4.29998779,1.0300293.41003418,2.07000732.79003906,3.09002686,1.22003174,4.11999512,1.72998047,6.7199707,5.84002686,6.50994873,10.29998779ZM64.53034579,175.53749084H26.13032138c-6.59997559,0-12,5.40002441-12,12v308.26000977c0,6.59997559,5.40002441,12,12,12h38.40002441c6.59997559,0,12-5.40002441,12-12V187.53749084c0-6.59997559-5.40002441-12-12-12Z"/>
  <path class="cls-3" d="M50.35232791,34.0061908v75.51595459c0,2.76212952-2.25989319,5.02202271-5.02196594,5.02202271-2.76212952,0-5.02202271-2.25989319-5.02202271-5.02202271V34.0061908c0-2.76212952,2.25989319-5.02202271,5.02202271-5.02202271,1.37638184,0,2.64116821.56728638,3.54329773,1.47872498.91138184.90207275,1.47866821,2.16685913,1.47866821,3.54329773ZM73.92047946,30.65658167c-.86154609-.94989279-2.10040467-1.57176724-3.47547849-1.63175844-2.75950459-.12039062-5.1157502,2.03885487-5.23614081,4.79835946l-3.29145039,75.44418965c-.12039062,2.75950459,2.03885487,5.1157502,4.79835946,5.23614081,2.75944788.12038814,5.11569349-2.03885734,5.23608411-4.79836193l3.29145039-75.44418965c.05999367-1.37513053-.45162642-2.66344078-1.32282426-3.6043799ZM15.41736346,34.26096157l3.29145039,75.44418965c.12039062,2.75950459,2.47663623,4.91875007,5.23608411,4.79836193,2.75950459-.12039062,4.91875007-2.47663623,4.79835946-5.23614081l-3.29145039-75.44418965c-.12039062-2.75950459-2.47663623-4.91875007-5.23614081-4.79835946-1.37507382.0599912-2.6139324.68186565-3.47547849,1.63175844-.87119784.94093912-1.38281793,2.22924937-1.32282426,3.6043799Z"/>
</svg>