<?xml version="1.0" encoding="UTF-8"?>
<svg id="Layer_1" data-name="Layer 1" xmlns="http://www.w3.org/2000/svg" viewBox="0 0 537.26197881 537.39997802">
  <defs>
    <style>
      .cls-1 {
        fill: #ba5cff;
      }

      .cls-2 {
        fill: #7526a8;
      }
    </style>
  </defs>
  <path class="cls-1" d="M533.51988074,393.13150708c-9.07000732,21.39001465-22.97998047,39.58001709-38.44000244,56.57000732-30.41328646,32.59127478-67.2832825,72.30489997-110.41933848,86.83100884-5.61069082,1.66899116-10.86069082.93894965-15.78067373-2.27101128-3.82000732-2.5-7.34997559-5.32000732-10.58996582-8.54998779-40.16003418-40.20001221-121.20001221-121.38000488-121.52001953-121.79003906-14.01217965,4.71565669-24.87640411,4.23447444-34.04984097-8.30030257C136.78990027,310.89151684,70.84989783,226.19150464,4.91984412,141.4714729c-7.0199585-9.0199585-6.53997803-16.59997559,1.52001953-24.67999268C35.98985145,87.14151684,110.12986609,12.56149975,118.0798783,5.40152661c8.02996826-7.2300415,14.82000732-7.05004883,23.42999268-.36999512,12.65002441,9.83996582,181.69000244,141.42999268,253.57000732,197.36999512,12.39864646,9.13622372,13.90168808,19.9692971,8.89001465,34.19995117,39.19780656,39.42808093,122.10810893,122.11024421,123.03989537,123.13008527,11.4400851,11.56992694,12.84010951,18.44993182,6.51009242,33.39994403Z"/>
  <path class="cls-2" d="M392.76762917,270.99654619c-32.72451757,48.76336429-76.29735242,91.51166546-122.31987255,122.18006925-5.45573391,4.0854941-13.05822798.75513597-12.57008107-7.3200839-.01000977-2.82000732,2.05999756-5.42004395,6.32995605-7.88000488,13.97003174-8.07000732,26.45001221-18.72003174,38.5300293-29.02001953l.10998535-.09997559c11.16003418-9.51000977,19.35003662-17.16003418,26.58001709-24.79003906,18.34997559-19.38000488,35.9699707-38.67999268,49.66998291-61.63995361l.05999756-.08001709c6.03060672-9.38980361,21.1224369-2.74018035,13.60998535,8.65002441Z"/>
</svg>