<?xml version="1.0" encoding="UTF-8"?>
<svg id="Layer_1" data-name="Layer 1" xmlns="http://www.w3.org/2000/svg" viewBox="0 0 565.41292117 437.37934144">
  <defs>
    <style>
      .cls-1 {
        fill: #025589;
      }

      .cls-2 {
        fill: #0995cc;
      }
    </style>
  </defs>
  <path class="cls-1" d="M560.82541714,436.31309459c-5.51000977,1.98999023-389.70001221.59002686-550.14001465.55999756C2.00540982,436.87309215.00540982,434.89311168.00540982,426.18308971c.02001953-110.32000732-.04998779-220.64996338.04998779-330.9699707-.00994873-27.20001221-.0199585-54.41003418-.0199585-81.61004639C.02542935.65312145.49540005.03312633,13.51541958.02311656,100.87540493-.0169225,188.23545132.00309703,275.59543667.02311656c5.01000977,0,7.77996826,2.67999268,7.79998779,7.63995361.07000732,11.97003174.03997803,23.88000488.04998779,35.87005615,90.79998779.00994873,181.59002686.02996826,272.38000488.03997803,6.95001221,0,9.41998291,2.36999512,9.48999023,9.32000732.04998779,5.39996338-.03997803,9.58996582-.04998779,14.98999023.11999512,117.69000244.05999756,236.59002686.05999756,354.28997803,0,4.71002197,1.09997559,12.11999512-4.5,14.14001465Z"/>
  <path class="cls-2" d="M565.32541714,422.17307994c0-117.69995117.05999756-236.59997559-.05999756-354.28997803.01000977,0-183.14001465-.01000977-271.90997314,0-6,0-8.57000732,2.55999756-8.57000732,8.54998779v18.7800293H.05539761C-.04457798,205.53312633.02542935,315.86308238.00540982,426.18308971c0,8.71002197,2,10.69000244,10.67999268,10.69000244,160.44000244.0300293,544.63000488,1.42999268,550.14001465-.55999756,5.59997559-2.02001953,4.5-9.42999268,4.5-14.14001465ZM542.06540737,418.37309215c-115.70996094-.01000977-463.14001465-.19000244-521.14001465-.22998047-3.09997559,0-5.48999023-.90002441-5.48999023-4.21002197-.01000977-3.30999756,2.41003418-4.27996826,5.4800415-4.27996826,86.90997314.02996826,434.35998535.02996826,521.16998291.00994873,3.05999756,0,5.76000977.62005615,5.78997803,4.24005127.02001953,3.65997314-2.67999268,4.4699707-5.80999756,4.4699707ZM542.0854269,386.86308238c-115.72003174-.01000977-463.47003174-.17999268-521.61999512-.22998047-3.01000977,0-5.02001953-1.19000244-5.04998779-4.17999268-.0300293-3.16003418,2.17999268-4.29003906,5.15997314-4.29003906,87.01000977.01000977,434.67999268.01000977,521.48999023-.00994873,3.05999756,0,5.77001953.60998535,5.80999756,4.22998047.0300293,3.65002441-2.65997314,4.47998047-5.78997803,4.47998047ZM542.06540737,353.54307506c-115.7199707.01000977-463.45001221-.16998291-521.59997559-.22998047-2.91003418,0-4.97998047-1.14001465-5-4.08996582-.01000977-3.04003906,2.02001953-4.38000488,5.08996582-4.38000488,87.05999756.0199585,434.80999756.0199585,521.61999512,0,3.11004639-.01000977,5.69000244.65997314,5.71002197,4.27996826.02001953,3.75-2.76000977,4.41998291-5.82000732,4.41998291Z"/>
</svg>