<?xml version="1.0" encoding="UTF-8"?>
<svg id="Layer_1" data-name="Layer 1" xmlns="http://www.w3.org/2000/svg" viewBox="0 0 267.81769048 554.3902492">
  <defs>
    <style>
      .cls-1 {
        fill: #f94e03;
      }

      .cls-2 {
        fill: #ddced1;
      }

      .cls-3 {
        fill: #7526a8;
      }

      .cls-4 {
        fill: #0995cc;
      }
    </style>
  </defs>
  <path class="cls-1" d="M152.40916504,27.74022479c-3.97998047-11.60998535-10.9699707-20.0199585-22.61999512-24.58001709-25.05999756-8.89996338-51.29998779,2.99005127-74.97003174,11.14001465C33.7191626,21.87022967,9.37913574,32.58025164,1.39915527,55.33025164c-3.85998535,12.2199707,1.05999756,23.36999512,5.16998291,34.78997803,9.69000244,26.90002441,19.49005127,53.75,29.10003662,80.67999268,49.61999512-17.67999268,99.02001953-35.27996826,148.66998291-52.9699707-10.67999268-30.0300293-21.58996582-59.95001221-31.92999268-90.09002686ZM267.76915039,508.18022723c-.28997803-10.73999023-.25-21.47998047-.35998535-32.22998047,0-4.40002441-.01000977-8.80999756-.01000977-13.21002197,0-30.51000977.01000977-61.01000977.01000977-91.51000977-.01000977-23.16998291-.02001953-46.34997559-.03997803-69.5199585v-36.67004395c0-1.56994629-.64001465-2.98999023-1.66003418-4.0199585-1.02996826-1.0300293-2.45001221-1.66003418-4.0199585-1.66003418v-6.7199707c-1.81005859-.08001709-3.29003906-.15002441-4.93005371-.22003174v-75.70996094h-4.82995605v-.01000977c.23999023-32.52001953-43.7800293-30.75-66.90002441-31.11999512-20.84997559.15997314-61.35998535,1.26000977-59.90002441,31.09997559v.01000977h-5.0199585v75.94000244h-4.52001953v6.72998047h-.09997559c-3.14001465,0-5.67999268,2.54003906-5.67999268,5.67999268v78.82000732c.00994873,23.11004639.0199585,46.2300415.0199585,69.35003662v49.59997559c-.01000977,4.34002686-.0199585,8.69000244-.0199585,13.03997803-.13000488,10.80004883-.51000977,32.38000488-.51000977,32.38000488.07995605,40.0300293,17.54998779,45.72003174,45.67999268,46.16003418l65.59997559-.27001953c21.86004639-.26000977,48.5300293,4,47.19000244-45.94000244Z"/>
  <path class="cls-2" d="M256.75914063,252.42021746v-75.70996094h-4.82995605v-.01000977c-42.27001953-.01000977-84.54003906-.01000977-126.80004883-.02001953.08001709,0,.16003418,0,.24005127.01000977h-5.26000977v75.94000244h-4.52001953v6.72998047h146.10003662v-6.7199707c-1.81005859-.08001709-3.29003906-.15002441-4.93005371-.22003174ZM267.40916504,371.23021502c-.01000977-23.16998291-.02001953-46.34997559-.03997803-69.5199585-52.52001953,14.02996826-104.97003174,28.39996338-157.55999756,42.14996338.00994873,23.11004639.0199585,46.2300415.0199585,69.35003662v49.59997559c-.01000977,4.34002686-.0199585,8.69000244-.0199585,13.03997803,52.5199585.01000977,105.08996582-.27996826,157.59997559.10003662,0-4.40002441-.01000977-8.80999756-.01000977-13.21002197,0-30.51000977.01000977-61.01000977.01000977-91.51000977Z"/>
  <path class="cls-4" d="M109.82745426,462.80254435c.00182026-16.53353894.0036591-33.06711503.00546078-49.60061682,52.53585989-13.95791784,104.94802069-28.39019515,157.58026178-41.98026277-.00553508,30.50366796-.01103301,61.00733592-.01638235,91.51074384-52.51156043.24265701-105.04920488-.00709262-157.56934022.07013576Z"/>
  <path class="cls-3" d="M251.92918457,176.70024676c-42.27001953-.01000977-84.54003906-.01000977-126.80004883-.02001953-1.45996094-29.83996582,39.05004883-30.94000244,59.90002441-31.09997559,23.11999512.36999512,67.14001465-1.40002441,66.90002441,31.11999512Z"/>
</svg>