<?xml version="1.0" encoding="UTF-8"?>
<svg id="Layer_1" data-name="Layer 1" xmlns="http://www.w3.org/2000/svg" viewBox="0 0 291.88807749 567.09677086">
  <defs>
    <style>
      .cls-1 {
        fill: #ff1833;
      }

      .cls-2 {
        fill: #43e4ff;
      }

      .cls-3 {
        fill: #756a6e;
      }

      .cls-4 {
        fill: #0995cc;
      }
    </style>
  </defs>
  <path class="cls-2" d="M291.88807749,261.79121077c-.08001709,85.86999512-.05999756,171.73999023-.21002197,257.61999512-.0199585,10.36999512-.11999512,21-5.19995117,30.47003174-7.0300293,13.11999512-19.42004395,16.94000244-33.07000732,16.9699707-55.80999756.13000488-201.22003174.64001465-218.0300293-.35998535-22.59997559-1.35998535-33.75-13.47003174-34.41998291-36.26000977C-.65190054,439.65119612.23805307,349.02119124.3080604,258.42121565c.17999268-12.70001221,5.83001709-24.13000488,12.72003174-34.64001465,17.95001221-27.29998779,42.4699707-47.88000488,74.67999268-56.09997559v-7.91003418c0-.75994873-.05999756-37.92999268.35998535-56.36999512.07000732-2.82995605,1.14001465-3.75,3.85998535-3.70996094,4.70001221-.01000977,19-.05999756,19-.05999756l.21002197-9.65002441c.03997803-2.02996826,1.71002197-3.65997314,3.73999023-3.65997314h15.84002686l.2199707-27.72003174c-6.59997559-2.59997559-10.59997559-13.79998779-3.94000244-13.73999023-1-3.88000488-2.0199585-7.84997559-3.07000732-11.90997314-16.95996094.19995117-32.41998291-7.52001953-49.07000732-8.36999512-13.87994385-.86004639-27.23999023,1.11999512-40.38995361,5.42999268-1.30999756.42999268-2.73999023-.11999512-3.40002441-1.33001709-2.11999512-3.91998291-4.73999023-7.47003174-7.41998291-10.97998047-.88000488-1.17004395.5-2.09002686,1.53997803-2.69000244C55.79805063-3.17875994,91.20808481,1.94123518,124.7580726,5.60120833c14.36999512,1.19000244,28.63000488,1.42999268,42.30999756-4.44000244,6.96002197-2.98999023,10.70001221-.14001465,10.84997559,7.79003906.01000977,1.0199585-.7199707,1.90997314-1.7199707,2.09997559-2.79998779.5300293-5.59997559,1.03997803-8.40997314,1.54998779-1.2800293,11.04998779-3.90002441,21.65002441-6.7300415,32.16998291,9.46002197.08001709,3.4800415,9.83001709.4800415,13.0300293.05999756,8.66998291-.19000244,19.26000977-.19000244,28.26000977,5.2699585,0,10.7199707.05999756,16.16998291-.0300293,2.76000977-.04998779,3.91998291.64001465,3.84997559,3.86004639,0,0-.04998779,6.52996826-.04998779,9.78997803h.0300293c.69000244,0,12.42999268.07000732,19.88000488.10998535,1.41998291.01000977,2.58996582.33001709,2.66998291,2.08001709l.52996826,57.89996338v7.86004639c38.7800293,8.33996582,86.45001221,52.82000732,87.46002197,94.15997314Z"/>
  <path class="cls-4" d="M271.36208449,293.79404128c-.11999512-23.29998779-8.92999268-45.7699585-24.87994385-62.75994873-.13000488-.13000488-.25-.26000977-.37005615-.39001465-31.90997314-33.64001465-82.2699585-43.0300293-126.69995117-36.22003174-33.72003174,5.36004639-62.57000732,19.59002686-83.25,47.7300415-8.0300293,10.91998291-15.16003418,22.58996582-15.29003906,36.57995605-.35998535,37.76000977-1.17999268,195.83001709.72003174,237.07000732.61999512,13.42999268,7.90997314,22.72003174,20.63000488,26.40002441,2.91998291.84997559,6.03997803,1.44000244,9.07000732,1.45001221,63.07995605.07995605,126.16998291.15997314,189.25994873-.01000977,15.47003174-.04003906,25.97003174-8.54998779,28.97003174-22.40002441,1.54998779-7.13000488,1.83996582-14.39996338,1.84997559-21.64001465-.08996582-68.58996582.33001709-137.22998047-.01000977-205.80999756ZM217.30208693,227.27408278c11.05999756-.04003906,11.10003662,17.05999756-.0199585,16.98999023-10.79998779-.05999756-10.7300415-16.96002197.0199585-16.98999023ZM31.16213332,484.73404372c.08996582-11.14996338,17.03997803-10.95996094,17.02996826.14001465-.01000977,11.0300293-17.13000488,10.95001221-17.02996826-.14001465ZM50.07210647,525.85403884c-13.23999023.05004883-13.40997314-20.63995361.02001953-20.63995361,13.34997559.00994873,13.20001221,20.58996582-.02001953,20.63995361ZM234.57210647,517.22403395c.0300293-13.40997314,20.97998047-13.43994141,20.98999023.07000732,0,13.51000977-21.0199585,13.30999756-20.98999023-.07000732ZM248.82210647,288.60403884c-14.19000244-.04998779-14.17999268-22.16998291-.02001953-22.11999512,14.2300415.05999756,14.26000977,22.16003418.02001953,22.11999512Z"/>
  <path class="cls-1" d="M148.41400945,261.85838299c-135.69995117,1.30999756-134.56994629,193.63000488-2.93994141,196.15997314,55.47998047.01000977,99.42999268-43.37994385,99.42999268-98.15997314,0-53.54998779-43.61999512-96.96002197-96.49005127-98ZM190.13404119,299.90837078c-34.86999512,34.83001709-69.76000977,69.67999268-104.60998535,104.48999023-49.63000488-68.33996582,35.7699585-157.20996094,104.60998535-104.48999023ZM107.68402898,424.91838055c34.04003906-34.04998779,68.13000488-68.14001465,102.25-102.27001953,37.71002197,63.63000488-35.35998535,143.08001709-102.25,102.27001953Z"/>
  <path class="cls-3" d="M204.42805552,159.77119124l-116.70996094.01000977h-.01000977v-.01000977c0-.75994873-.05999756-37.92999268.35998535-56.36999512.07000732-2.82995605,1.14001465-3.75,3.85998535-3.70996094,4.70001221-.01000977,19-.05999756,19-.05999756l.21002197-9.65002441c.03997803-2.02996826,1.71002197-3.65997314,3.73999023-3.65997314h15.84002686l.2199707-27.72003174c-6.59997559-2.59997559-10.59997559-13.79998779-3.94000244-13.73999023-1-3.88000488-2.0199585-7.84997559-3.07000732-11.90997314-16.95996094.19995117-32.41998291-7.52001953-49.07000732-8.36999512-13.87994385-.86004639-27.23999023,1.11999512-40.38995361,5.42999268-1.30999756.42999268-2.73999023-.11999512-3.40002441-1.33001709-2.11999512-3.91998291-4.73999023-7.47003174-7.41998291-10.97998047-.88000488-1.17004395.5-2.09002686,1.53997803-2.69000244C55.79805063-3.17875994,91.20808481,1.94123518,124.7580726,5.60120833c14.36999512,1.19000244,28.63000488,1.42999268,42.30999756-4.44000244,6.96002197-2.98999023,10.70001221-.14001465,10.84997559,7.79003906.01000977,1.0199585-.7199707,1.90997314-1.7199707,2.09997559-2.79998779.5300293-5.59997559,1.03997803-8.40997314,1.54998779-1.2800293,11.04998779-3.90002441,21.65002441-6.7300415,32.16998291,9.46002197.08001709,3.4800415,9.83001709.4800415,13.0300293.05999756,8.66998291-.19000244,19.26000977-.19000244,28.26000977,5.2699585,0,10.7199707.05999756,16.16998291-.0300293,2.76000977-.04998779,3.91998291.64001465,3.84997559,3.86004639,0,0-.04998779,6.52996826-.04998779,9.78997803h.0300293c.69000244,0,12.42999268.07000732,19.88000488.10998535,1.41998291.01000977,2.58996582.33001709,2.66998291,2.08001709l.52996826,57.89996338Z"/>
</svg>