<?xml version="1.0" encoding="UTF-8"?>
<svg id="Layer_1" data-name="Layer 1" xmlns="http://www.w3.org/2000/svg" viewBox="0 0 559.6587798 519.7494594">
  <defs>
    <style>
      .cls-1 {
        fill: #ff1833;
      }

      .cls-2 {
        fill: #0995cc;
      }
    </style>
  </defs>
  <path class="cls-2" d="M449.23909152,506.09293134c-6.2199707,17.73999023-30.94995117,18.42004395-34.13995361.7300415-.29003906-1.62005615-.32000732-3.27001953-.20001221-4.91003418,1.34997559-19.94000244,13.94000244-205.67999268,15.21002197-224.86999512.7699585-11.55999756,5.25-18.29998779,14.12994385-20.29998779,10.57000732-2.38000488,21.25,5.77996826,21.16003418,16.15997314h.01000977c8.84997559.13000488,17.51000977,1.46002197,25.95001221,4.19000244v-.01000977c-2.18005371-19.97998047-4.36004639-39.94000244-6.5300293-59.91998291-7.28997803,1.29998779-16.07000732,5.95001221-18.40002441-4.34997559-2.88000488-12.17004395-5.54998779-24.39001465-8.7199707-36.48999023-2.19000244-7.92004395,3.75-9.0300293,9.44000244-11.36004639.05999756-.02996826.13000488-.04998779.19000244-.07995605-30.73999023-72.33001709-100.39001465-110.05999756-176.89001465-111.83001709-80.9699707-5.40002441-166.35998535,33.70001221-197.77996826,111.84997559v.01000977q11.0199585,4.76000977,8.30999756,16.42999268c-2.47003174,10.58001709-5,21.13000488-7.5,31.69000244-1.24005127,5.17999268-4.5,7.22003174-9.7300415,6.07000732-3.5-.76000977-7.69000244-1.7199707-8.5-1.90997314-.02996826-.01000977-.05999756-.02001953-.08996582-.02001953-.0300293-.01000977-.04998779-.01000977-.04998779-.01000977-2.19000244,19.97998047-4.36004639,39.95001221-6.54003906,59.92999268,8.41003418-2.54998779,16.94000244-4.26000977,25.77001953-4.19000244,1.58001709-11.15997314,8.66998291-16.95996094,20.03997803-16.38995361,8.05999756.38995361,14.69000244,8.31994629,15.29003906,18.0199585,1.07995605,17.46002197,14.19995117,204.54003906,15.65997314,223.45001221.97998047,12.5-6.66998291,21.58001709-18.35998535,21.41998291-7.05999756-.09997559-13.14001465-5.08996582-16.19000244-13.30999756h-.01000977c-39.07000732,5.54003906-74.16998291-17.64001465-93.25-50.72998047-30.78997803-53.39001465-21.2800293-131.55999756,30.78997803-168.22003174h.01000977c1.47998047-25.10998535,2.72003174-50.25994873,4.51000977-75.34997559-.0300293-.01000977-.04998779-.01000977-.08001709-.02001953-3.5-.88995361-6.97998047-1.83996582-10.48999023-2.65997314-4.08001709-.95001221-6.07000732-3.60998535-5.36999512-7.55999756,2.42999268-13.89001465,5.09997559-27.72998047,7.76000977-41.55999756.83001709-4.36999512,4.4699707-6.55999756,8.80999756-5.54998779,2.70001221.63000488,5.40002441,1.32000732,8.09997559,1.9699707C88.00911105,30.56296308,204.81910861-11.87703936,321.74910128,2.76297529c89.97003174,9.75,156.91003418,64.2199707,176.71002197,153.61999512.02001953,0,.02996826-.01000977.04998779-.01000977q.01000977,0,.02001953-.01000977c2.67999268-.64001465,5.33996582-1.30999756,8.03997803-1.92999268,4.26000977-.98999023,7.86999512,1.15997314,8.71002197,5.45996094,2.65997314,13.72003174,5.29998779,27.46002197,7.7699585,41.2300415.77001953,4.36999512-1.2199707,7.16998291-5.7699585,8.07995605-5.91003418,1.45001221-9.21002197,2.32000732-10.04003906,2.54003906-.13995361.03997803-.20996094.05999756-.20996094.05999756,1.60998535,25.08001709,3.34997559,50.14996338,4.40997314,75.25,86.40002441,56.54998779,51.27001953,230.86999512-62.20001221,219.03997803Z"/>
  <path class="cls-1" d="M94.34913791,272.9029289h-.01000977c-8.83001709-.07000732-17.35998535,1.64001465-25.77001953,4.19000244-10.8066569,3.37334798-20.26000977,10.04998779-20.25,10.04998779h-.01000977c-52.07000732,36.66003418-61.57995605,114.83001709-30.78997803,168.22003174,19.08001709,33.08996582,54.17999268,56.27001953,93.25,50.72998047h.01000977v-.01000977c-5.91003418-77.69000244-11.21002197-155.44000244-16.42999268-233.17999268ZM511.43910373,287.05295331c-6.30999756-4.10003662-13.04998779-7.33001709-20.07995605-9.97003174v.01000977c-8.44000244-2.72998047-17.10003662-4.05999756-25.95001221-4.19000244h-.01000977c-5.35003662,77.7300415-16.16003418,233.19000244-16.16003418,233.19000244,113.47003174,11.83001709,148.60003662-162.48999023,62.20001221-219.03997803ZM92.66914523,164.91293866v-.01000977c-10.37005615-2.82995605-20.74005127-5.65997314-31.11004639-8.48999023-2.69995117-.64996338-5.39996338-1.33996582-8.09997559-1.9699707-4.34002686-1.01000977-7.97998047,1.17999268-8.80999756,5.54998779-2.66003418,13.83001709-5.33001709,27.66998291-7.76000977,41.55999756-.70001221,3.95001221,1.28997803,6.60998535,5.36999512,7.55999756,3.51000977.82000732,6.98999023,1.77001953,10.48999023,2.65997314.0300293,0,.05999756,0,.08001709.01000977,7.42999268,1.7800293,14.84002686,3.63000488,22.2800293,5.36999512.0199585,0,.02996826.01000977.04998779.02001953.02996826,0,.05999756.01000977.08996582.02001953.80999756.19000244,5,1.14996338,8.5,1.90997314,5.2300415,1.15002441,8.48999023-.89001465,9.7300415-6.07000732,2.5-10.55999756,5.02996826-21.10998535,7.5-31.69000244q2.72998047-11.65997314-8.30999756-16.42999268ZM523.04908908,201.12296064c-2.4699707-13.77001953-5.10998535-27.51000977-7.7699585-41.2300415-.84002686-4.29998779-4.45001221-6.44995117-8.71002197-5.45996094-2.70001221.61999512-5.35998535,1.28997803-8.03997803,1.92999268q-.01000977.01000977-.02001953.01000977c-.02001953.01000977-.02996826.0199585-.04998779.0199585-10.36999512,2.83001709-20.73999023,5.67004395-31.10998535,8.5-.05999756.02001953-.11999512.05004883-.20001221.07000732-5.69000244,2.33001709-11.63000488,3.44000244-9.44000244,11.36004639,3.16998291,12.09997559,5.83996582,24.31994629,8.7199707,36.48999023,2.33001709,10.29998779,11.11004639,5.64996338,18.40002441,4.34997559,7.40997314-1.73999023,14.79998779-3.58001709,22.19000244-5.41998291.04998779-.01000977.11999512-.01000977.2199707,0,.83001709-.22003174,4.13000488-1.09002686,10.04003906-2.54003906,4.54998779-.90997314,6.53997803-3.70996094,5.7699585-8.07995605Z"/>
</svg>