<?xml version="1.0" encoding="UTF-8"?>
<svg id="Layer_1" data-name="Layer 1" xmlns="http://www.w3.org/2000/svg" viewBox="0 0 552 118.09564545">
  <defs>
    <style>
      .cls-1 {
        fill: #f94e03;
      }

      .cls-2 {
        fill: #a53d1e;
      }

      .cls-3 {
        fill: #ff9605;
      }
    </style>
  </defs>
  <path class="cls-1" d="M435.49457607,68.03394856c9.96120781,14.91803871,19.79328871,29.64278326,29.72770755,44.52068505-10.90069663.6799518-21.56865174,1.3453859-32.30631232,2.01516802-7.11154934-13.38905397-14.17004441-26.67828978-21.91667436-41.26306214.89539142,14.35453253,1.69465106,27.16792142,2.51380279,40.30021187-8.18908131.95980453-16.47147498,1.93058219-24.53102053,2.87522187-2.21094507-35.4449263-4.41981501-70.85658494-6.63984217-106.4471115,20.58393404-5.09727451,51.75696655-11.46699084,66.42597503,9.24613756,5.45714563,7.70566794,7.21544208,18.91575109,5.13645974,28.05946595-2.25166425,9.9030321-9.73366812,16.24908454-18.41009573,20.69328331ZM409.64102601,52.55981984c8.16240651-1.11351387,21.59964696-3.34968662,21.24676154-14.15577966-.40738671-12.47429117-13.97647642-10.83219741-22.76181759-10.13295137.51025576,8.18020221,1.00968151,16.18678235,1.51505605,24.28873103ZM158.93910519,117.87270089c13.96987062,1.18151056,31.98599707-2.11243319,39.65411252-15.20483011,8.71510563-14.88001491,4.11356328-33.08543412-8.48344319-43.98512048-6.5018247-5.62575008-14.43771416-9.11637907-22.59537792-11.6022552-6.90909153-2.10539994-16.00168611-3.58487834-17.53175854-12.16147429-1.47236952-8.25321766,6.71199034-12.96307585,13.9061176-13.09593245,9.7870525-.18074699,12.85727458,8.20852248,12.725628,16.69869642h22.29623787c.37622511-19.41122077-8.64065989-35.85175182-29.28097466-38.15404484-15.8498473-1.66291013-35.3114581,1.91899987-41.06556501,18.91772496-4.98402264,14.72371414-3.29226106,32.33493707,10.37616291,41.68477471,7.33876267,5.0200586,16.39730649,6.83442941,24.82297114,9.17177538,6.69684616,1.85776143,15.62829989,6.16167625,14.329058,14.61681628-1.06504597,6.93115552-7.71290516,10.37071781-14.23632118,10.42445034-9.00881949.07418946-11.18729339-7.58392441-12.3144286-14.98498429-8.25905979-.39635773-16.60669696-.79698835-24.93124918-1.19648458,0,19.44739305,11.90578158,37.14362001,32.32883025,38.87088816Z"/>
  <path class="cls-3" d="M287.07750992,60.93770136c-.06863092-21.31882394,4.2286855-47.45255108,27.30485798-55.34779139,18.06717424-6.18145255,40.4732972-1.44669438,50.10885121,16.05456784,6.15746008,11.18390911,7.18117625,24.29462651,6.85549135,36.81453192-.32118513,12.34664542-1.70465588,24.95976031-6.99937049,36.27002216-8.56994084,18.30672072-28.73775055,26.15091323-48.01740434,20.99758209-23.03438892-6.15696851-29.87997322-33.86128491-29.25242571-54.78891262ZM346.07786523,58.48313454c-.00847015-10.94271775-1.16044862-32.06483754-16.78179088-31.26841639-15.32915984.78152276-14.34072336,23.60502759-14.43835699,34.11661839-.0929826,10.00686051-.30488765,35.99791853,15.87552244,33.75053011,7.13882549-.99153715,10.40232963-8.99923385,12.29684547-15.0220412,2.19622719-6.98201424,2.69978528-14.31075642,3.04777996-21.57669091ZM86.68648785,113.45040247c8.7011774-1.04320021,17.13677063-2.05455365,25.39457957-3.04458549-1.24025395-33.02059367-2.47242519-65.82599304-3.70614982-98.67274976-8.02849534.30155039-15.79683985.59332952-23.70806468.89047523.67496814,33.69643615,1.3461721,67.20500642,2.01963493,100.82686002Z"/>
  <path class="cls-2" d="M4.27021383,8.82545126c7.41713048-.44857773,14.60845957-.8835049,22.08444154-1.33563707v41.10933376h17.82627593V9.11005215h22.43674219c.73623203,34.59951158,1.470148,69.08989433,2.20767513,103.75013388-8.25799157-.75225536-16.30995804-1.48575539-24.50528845-2.23230096v-41.5384188c-5.87991136-.49544716-11.61755536-.97890755-17.4985633-1.47443034v42.85902513H0C1.40997542,76.91081962,2.83699512,42.9418995,4.27021383,8.82545126ZM260.39209438,30.08072031l21.01765373,1.40480101c1.13205825-7.2343355,2.23721734-14.29670866,3.35859274-21.46278466-24.19615086-.67037864-48.17246848-1.33464762-72.35850036-2.00474784-.48068505,7.19167473-.9542587,14.27695368-1.40714751,21.05276056,7.14998419.47789849,14.36633367.96023278,22.43049142,1.4992338-1.82667077,27.3293751-3.66353453,54.81125079-5.50790057,82.40537025,9.57150828,1.17922258,18.31290243,2.2561955,26.70628896,3.29027697,1.92458613-28.79431653,3.8365117-57.39921463,5.76052161-86.18491009ZM523.84884528,112.72859617c0-7.06713171-.98217861-46.78734354-.98217861-46.78734354.26666667.8,22.3946847-41.57672167,29.13333333-54.43361812-8.27454429-1.99621438-16.38199215-3.95211992-24.62242895-5.94010994-5.2083115,11.34043676-10.39208226,22.62736787-15.73497086,34.26081895-4.30918976-11.54746391-8.44878742-22.64054576-12.61765247-33.81197652-8.39792869,1.24327838-16.62959284,2.46194039-25.01890012,3.70393313,7.95126523,18.61765552,16.59095109,39.23011871,24.59395241,57.82095251,0,0,1.12634435,30.2400968,1.61655439,45.18734354h23.63229089Z"/>
</svg>