<?xml version="1.0" encoding="UTF-8"?>
<svg id="Layer_1" data-name="Layer 1" xmlns="http://www.w3.org/2000/svg" viewBox="0 0 286.52922765 552.83426357">
  <defs>
    <style>
      .cls-1 {
        fill: #086d08;
      }

      .cls-2 {
        fill: #a89a9f;
      }

      .cls-3 {
        fill: #756a6e;
      }
    </style>
  </defs>
  <path class="cls-2" d="M276.25376273,519.19555348c-7.77001953,14.56994629-20.98999023,25.95996094-36,32.48999023-1.20996094.5199585-2.47998047.85998535-3.78997803,1.01000977-2.57000732.30999756-4.92999268.07995605-7.04998779-1.64001465-1.10003662-.83001709-1.91003418-1.98999023-2.51000977-3.34002686-.98999023-2.2199707-1.21002197-4.70996094-.89001465-7.11999512,5.19000244-39.89001465,2.39001465-80.79998779-4.90997314-120.33996582-9.04003906-51.40002441-35.35003662-97.52001953-63.25-140.76000977l-13.9800415-19.26000977-16.67999268,16.97998047c-25.45001221,41.22003174-49.58001709,85.79003906-59.94000244,133.72003174-8.95001221,42.59997559-12.36999512,86.90997314-6.77996826,130.11999512.28997803,2.22998047.05999756,4.5199585-.88000488,6.54998779-2.0300293,4.40997314-6.17004395,6.14001465-11.51000977,4.77001953-.57000732-.14001465-1.13000488-.35003662-1.66998291-.59002686C9.20377494,535.57549733-.75624703,502.50555104.0438018,464.33550709c.75-54.13000488,19.64996338-108.97998047,40.27996826-158.59997559,10.23999023-25.21002197,20.84002686-50.5300293,34.02001953-74.07000732,2.47998047-5.40002441,7-9.57000732,12.69000244-11.69000244,3.54998779-1.15002441,5.17999268-3.88000488,5.90997314-7.34997559.22003174-1.01000977.30999756-2.04003906.35003662-3.07000732.29998779-6.66003418.80999756-13.17999268,1.86999512-19.72003174-1.44000244-1.82000732-3.84002686-5.5-5.27001953-8.72998047-3.21002197-8.22003174-4.16003418-16.84002686-4.57000732-25.75V13.23553151C85.32377006,5.92553395,91.24375297.00555104,98.55375053.00555104c7.30004883,0,13.2300415,5.91998291,13.2300415,13.2199707v.02001953l-.05004883,87.66998291c.14001465,7.61999512,2.82000732,15.34002686,8.0300293,20.65997314l.10998535-90.80999756c.01000977-4.91998291.85998535-9.83996582,2.79998779-14.35998535,2.74005127-6.35998535,7.25-11.86999512,13.08001709-15.61999512,2.59002686-1.41998291,5.38000488-.90002441,6.85003662,1.44000244,1.44995117,2.29998779.41998291,5.29998779-2.22003174,6.59002686-5.17999268,3.52996826-8.73999023,8.75994873-10.41998291,14.75-.70001221,2.50994873-.97003174,5.11999512-.97003174,7.72998047l-.19995117,97.82000732c1.36999512.75,4.23999023,2.02996826,4.44995117,2.15997314h.01000977c11.04998779-6.85998535,20.35003662-7.36999512,27.01000977-12.14001465,9.19000244-6.58996582,14.78997803-18.45996094,14.41998291-29.18994141l-.02996826-34.02001953-25.17004395,3.29998779c-2.94995117.66998291-5.7199707-.83001709-6.22998047-3.86999512v-26.10998535c.5-2.96002197,3.29003906-4.4800415,6.21002197-3.85003662l25.17999268,3.30004883.03997803-15.5300293c.01000977-7.27001953,5.92004395-13.15997314,13.19000244-13.15002441,3.63000488,0,6.92999268,1.4800415,9.30999756,3.86999512,2.38000488,2.38000488,3.85003662,5.67004395,3.85003662,9.30004883l.05999756,124.89996338c.22998047,40.19000244-5.69000244,48.17004395-8.97003174,57.94000244l1.35003662,16.22003174c.47998047,3.83996582,2.48999023,6.63000488,6.09997559,7.80999756,5.67999268,2.11999512,10.0300293,6.33996582,12.59997559,11.66998291,19.41003418,34.84997559,35.71002197,78.73999023,50.55004883,116.15002441,16.44995117,48.38000488,36.29998779,123.16998291,13.52996826,171.32000732Z"/>
  <path class="cls-1" d="M67.25376273,410.93554372c-8.95001221,42.59997559-12.36999512,86.90997314-6.77996826,130.11999512.28997803,2.22998047.05999756,4.5199585-.88000488,6.54998779-2.0300293,4.40997314-6.17004395,6.14001465-11.51000977,4.77001953-.57000732-.14001465-1.13000488-.35003662-1.66998291-.59002686C9.20377494,535.57549733-.75624703,502.50555104.0438018,464.33550709c.75-54.13000488,19.64996338-108.97998047,40.27996826-158.59997559,10.23999023-25.21002197,20.84002686-50.5300293,34.02001953-74.07000732l52.84997559,45.54998779c-25.45001221,41.22003174-49.58001709,85.79003906-59.94000244,133.72003174ZM262.72379447,347.87554616c-14.84002686-37.41003418-31.14001465-81.30004883-50.55004883-116.15002441l-54.31994629,47.77001953c27.89996338,43.23999023,54.20996094,89.35998535,63.25,140.76000977,7.29998779,39.53997803,10.09997559,80.44995117,4.90997314,120.33996582-.32000732,2.41003418-.09997559,4.90002441.89001465,7.11999512.59997559,1.35003662,1.40997314,2.51000977,2.51000977,3.34002686,2.11999512,1.7199707,4.47998047,1.95001221,7.04998779,1.64001465,1.30999756-.15002441,2.58001709-.49005127,3.78997803-1.01000977,15.01000977-6.5300293,28.22998047-17.92004395,36-32.48999023,22.77001953-48.15002441,2.91998291-122.94000244-13.52996826-171.32000732Z"/>
  <path class="cls-3" d="M133.2508646,131.27223383c-6.08001709,4.38000488-11.53997803,9.57000732-16.2199707,15.42004395-10.12005615,12.66998291-18.19000244,27.5199585-21.87005615,43.13995361-1.43994141-1.82000732-3.83996582-5.5-5.2699585-8.72998047-3.21002197-8.22003174-4.16003418-16.84002686-4.57000732-25.75V13.2322558C85.32087193,5.92225824,91.24085484.00227533,98.55085239.00227533c7.29998779,0,13.2300415,5.91998291,13.2300415,13.2199707v.02001953l-.05004883,87.66998291c.14001465,7.61999512,2.82000732,15.34002686,8.0300293,20.65997314,0,0,4.38000488,5.09002686,9.02996826,7.54003906,1.42004395.77996826,4.46002197,2.13000488,4.46002197,2.15997314ZM199.57541986,220.05768384c-3.61184058-1.17775861-5.62060309-3.97711773-6.09915048-7.80717958l-1.35073068-16.22364511c-8.85838413,17.87357921-16.8993057,31.75994442-30.53467166,46.58538934l-17.71946626,17.62299687,13.97782592,19.26182915,54.32334154-47.77350737c-2.5651209-5.32412132-6.91834639-9.54638025-12.59714838-11.66588328ZM165.06485989,182.30337194c-.63580046-11.78663067-9.87493303-21.47899438-22.0857538-21.28922812-12.56678394.02308519-22.00003167,10.8318177-21.58340917,23.00233239.59715848,10.79587992,8.16361047,19.46079983,18.58212027,21.13238708,3.17368358.50919845,6.44634081.25133115,9.51278879-.71222857,9.61474061-3.02120787,15.70760184-11.8621499,15.5742539-22.13326279Z"/>
</svg>