<?xml version="1.0" encoding="UTF-8"?>
<svg id="Layer_1" data-name="Layer 1" xmlns="http://www.w3.org/2000/svg" viewBox="0 0 558.52001953 335.07995605">
  <defs>
    <style>
      .cls-1 {
        fill: #ff1733;
      }

      .cls-2 {
        fill: #ddced1;
      }

      .cls-3 {
        fill: #0995cc;
      }
    </style>
  </defs>
  <polygon class="cls-2" points="558.52001953 .00994873 558.41003418 335.07995605 0 335.04998779 .02001953 0 558.52001953 .00994873"/>
  <path class="cls-3" d="M546.7228423,264.15236796l-535.02732073.00115808-.01066503-9.39946538,535.15030645.00291468-.11232069,9.39539261ZM546.81983354,217.9252948l-534.98000582-.00123282c-.36195268,2.94657219-.08878567,6.06951309-.13811106,9.32596328l535.16939976.00056951-.05128288-9.32529998ZM546.84977803,70.9034237l-535.08872396.00109813c-.077535,3.17113953-.18033131,6.30761086.05292561,9.25010894l535.02068102-.00209164.01511733-9.24911543ZM546.85029605,107.65809667l-535.08839246.00102605c-.08260407,3.1658068-.17780051,6.30218198.04884942,9.24564964l535.02567479-.00206123.01386825-9.24461446ZM546.83509175,144.40823825l-535.10856498.00056352c.03285241,3.18451988-.22114965,6.3344772.12828562,9.27929307l534.99730464-.0019139-.01702528-9.27794268ZM546.83838027,181.19156073l-535.11175739.00100471c.03354574,3.11790473-.22318151,6.28398037.128008,9.22803064l534.99809544-.00199538-.01434606-9.22703997ZM546.84706643,291.65699194l-535.08462139.00148401c-.06239097,3.15300975-.23517383,6.31141918.08818656,9.25007454l535.00915675-.00246285-.01272192-9.24909571Z"/>
  <path class="cls-1" d="M546.85169056,43.39828316l-535.01207864.00167465c-.31800565-2.94895217-.09155458-6.10752245-.1132384-9.22798025l535.10345491-.000572.02186214,9.2268776Z"/>
</svg>