<?xml version="1.0" encoding="UTF-8"?>
<svg id="Layer_1" data-name="Layer 1" xmlns="http://www.w3.org/2000/svg" viewBox="0 0 559.1869014 445.80004883">
  <defs>
    <style>
      .cls-1 {
        fill: #43e4ff;
      }

      .cls-2 {
        fill: #ddced1;
      }

      .cls-3 {
        fill: #3d363c;
      }

      .cls-4 {
        fill: #756a6e;
      }

      .cls-5 {
        fill: #0995cc;
      }
    </style>
  </defs>
  <path class="cls-4" d="M548.61426929,439.15002441c-3.75,2.5-7.95001221,4-12.34002686,5.02001953-4.98999023,1.15997314-10.11999512,1.63000488-15.23999023,1.63000488H38.31422046c-4.89996338,0-9.78997803-.41003418-14.57995605-1.44000244-4.22003174-.91003418-8.27001953-2.26000977-11.94000244-4.49005127-9.11999512-4.95996094-13.30999756-14.44995117-11.29998779-24.34997559.28997803-2.21002197,1.34997559-3.83996582,2.02996826-5.91998291l63.20001221-122.55999756.01000977-280.17999268c.63000488-3.83001709,3.66998291-6.13000488,7.48999023-6.86004639h413.14001465c3.82995605.9800415,6.76000977,3.29003906,7.13000488,7.20001221l.00994873,279.85998535,63.92004395,124.02001953c.33996582,1.92999268,1.69000244,3.26000977,1.36999512,5.02001953,1.67999268,9.41998291-2.09002686,18.07000732-10.17999268,23.04998779Z"/>
  <path class="cls-2" d="M557.42506591,411.08001709l-63.92004395-124.02001953-.00994873-279.85998535c-.36999512-3.90997314-3.30004883-6.2199707-7.13000488-7.20001221H73.22505371c-3.82000732.7300415-6.85998535,3.0300293-7.48999023,6.86004639l-.01000977,280.17999268L2.5250415,409.60003662c-.67999268,2.08001709-1.73999023,3.70996094-2.02996826,5.91998291.73999023,3.03997803,2.67999268,5.72998047,6.19995117,5.94000244h545.95001221c3.33001709-.27996826,4.91003418-2.67999268,6.15002441-5.35998535.32000732-1.76000977-1.0300293-3.09002686-1.36999512-5.02001953ZM75.71504394,19.07000732c0-5,4.04998779-9.04998779,9.03997803-9.04998779h390.39001465c4.86999512,0,8.82000732,3.95001221,8.82000732,8.82000732l.05999756,268.2199707-408.33001709-.0199585.02001953-267.97003174ZM89.15504638,314.40002441c1.7800293-3.65997314,3.36999512-6.84002686,5.28997803-9.96002197,1.61004639-2.58996582,3.86999512-4.00994873,6.99005127-4.35998535l28.5199585.02001953-6.32000732,14.32000732-34.47998047-.02001953ZM120.61506835,320.92004395l-5.94000244,13.48999023-35.83001709.04998779,6.90002441-13.59997559,34.86999512.05999756ZM127.72505371,320.86999512l28.30999756.06005859-5.7800293,13.52996826-28.55999756-.02001953,6.0300293-13.57000732ZM130.61506835,314.44000244l6.38995361-14.38995361,27.88000488-.01000977-6.03997803,14.38000488-28.22998047.0199585ZM163.00502197,320.86999512l26.62005615.06005859-4.38000488,13.48999023-27.95001221.03997803,5.70996094-13.59002686ZM224.11506835,320.86004639l-2.23999023,13.52996826-29.87005615.08001709,4.34002686-13.58001709,27.77001953-.02996826ZM198.53505126,314.40002441l4.66998291-14.32000732h24.61999512l-2.44000244,14.29998779-26.84997559.02001953ZM191.8050708,314.41003418l-26.01000977.02996826,6.05999756-14.38995361h24.66998291l-4.7199707,14.35998535ZM189.84504882,340.82000732l179.52001953-.01000977,7.47998047,22.76000977h-194.40997314l7.40997314-22.75ZM258.60505859,320.94000244l-.69000244,13.45001221-29.5.0300293,2.30999756-13.55004883,27.88000488.07000732ZM231.93507568,314.46002197l2.40997314-14.40002441,25.34997559-.02996826-.66998291,14.34997559-27.08996582.08001709ZM294.08503906,320.88000488l.67999268,13.47003174-30.36999512.08001709.67999268-13.54003906,29.01000977-.01000977ZM265.40504638,314.41003418l.69000244-14.33001709,27-.05999756.75,14.33001709-28.44000244.05999756ZM300.26503173,314.40002441l-.63000488-14.36999512,25.20001221.01000977,2.5,14.33996582-27.07000732.02001953ZM328.47505371,320.88000488l2.36999512,13.47003174-29.63000488.07000732-.65997314-13.5300293,27.91998291-.01000977ZM362.74507324,320.86004639l4.53997803,13.54998779-29.88000488.05999756-2.44000244-13.59002686,27.7800293-.0199585ZM362.71504394,300.05999756l24.57000732-.0199585,6.11999512,14.32000732-25.92999268.08996582-4.76000977-14.39001465ZM333.90504638,314.47003174l-2.55999756-14.36999512,24.61999512-.05999756,4.67999268,14.29998779-26.73999023.13000488ZM369.56501953,320.93005371l26.65002441-.06005859,5.65002441,13.49005127-27.84002686.10998535-4.46002197-13.53997803ZM400.44502441,314.44000244l-6.08996582-14.33996582,27.85998535-.05999756,6.34997559,14.38000488-28.11999512.0199585ZM431.46504394,320.85003662l6.11999512,13.59997559-28.67999268-.02996826-5.69000244-13.4800415,28.25-.08996582ZM435.61506835,314.43005371l-6.40002441-14.39001465,28.66003418.05999756c2.94995117.39001465,5.12994385,1.58996582,6.77996826,4.11999512,1.97003174,3.22998047,3.60998535,6.39001465,5.38000488,10.15997314l-34.41998291.05004883ZM473.47505371,320.85003662l6.83996582,13.53997803-35.72998047.07000732-6-13.52996826,34.89001465-.08001709ZM71.88502685,363.59002686c-1.80999756-.25-3.07000732-1.61999512-3.88995361-2.84997559-1.04003906-1.7300415-.80004883-3.47003174.02996826-5.27001953l7.46002197-14.63000488,36.22998047.07000732-10.07000732,22.64001465-29.76000977.03997803ZM108.67506591,363.52001953l10.07995605-22.66998291,28.7800293.04998779-9.58001709,22.64001465-29.27996826-.02001953ZM144.89503662,363.58001709l9.64001465-22.7199707,28.51000977-.01000977-7.41003418,22.66998291-30.73999023.05999756ZM378.33503906,411.45001221h-196.94000244c-2.48999023-.57000732-4.2699585-2.09997559-3.91998291-4.59997559l14.73999023-31.40002441c1.09002686-1.48999023,2.59002686-1.82000732,4.45001221-2.20996094l166.57000732.00994873c2.20996094.44000244,3.88000488,1.10003662,4.7199707,3.14001465l14.27001953,30.41998291c.32000732,2.46002197-1.41003418,4.16003418-3.89001465,4.64001465ZM383.56501953,363.55999756l-7.39996338-22.69000244,28.51000977-.0199585,9.67999268,22.7199707-30.79003906-.01000977ZM421.31501953,363.59002686l-9.61999512-22.72998047h28.75l10.07000732,22.63000488-29.20001221.09997559ZM491.28505126,360.61999512c-.72998047,1.24005127-2.04998779,2.61004639-3.85998535,2.96002197h-29.80999756l-10.11004639-22.7199707,36.2300415-.0300293,7.36999512,14.44000244c.77996826,1.89001465,1.17999268,3.59997559.17999268,5.34997559Z"/>
  <path class="cls-3" d="M483.96424488,18.84002686c0-4.86999512-3.95001221-8.82000732-8.82000732-8.82000732H84.75422291c-4.98999023,0-9.03997803,4.04998779-9.03997803,9.04998779l-.02001953,267.97003174,408.33001709.0199585-.05999756-268.2199707ZM280.12427906,28.5300293c-3.87005615.22998047-7.15002441-2.83001709-7.49005127-6.64001465-.19995117-3.91998291,2.51000977-7.39996338,6.75-7.64996338,4.09002686-.12005615,7.42999268,3.02996826,7.42004395,6.7699585.33996582,4.0300293-2.7800293,7.30999756-6.67999268,7.52001953Z"/>
  <path class="cls-5" d="M460.99507324,40.75v216.70001221c0,3.88000488-3.17004395,7.04998779-7.05004883,7.04998779H105.24507324c-3.88000488,0-7.05004883-3.16998291-7.05004883-7.04998779V40.75c0-3.88000488,3.17004395-7.04998779,7.05004883-7.04998779h348.69995117c2.2800293,0,4.30999756,1.09002686,5.59002686,2.7800293.91998291,1.19000244,1.46002197,2.66998291,1.46002197,4.2699585Z"/>
  <path class="cls-1" d="M453.94502441,33.70001221h-94.13995361L98.19502441,184.70001221v60.16998291L459.53505126,36.4800415c-1.2800293-1.69000244-3.30999756-2.7800293-5.59002686-2.7800293ZM163.62507812,264.5h70.27996826l227.09002686-131.08996582v-40.69000244l-297.36999512,171.77996826Z"/>
</svg>