<?xml version="1.0" encoding="UTF-8"?>
<svg id="Layer_1" data-name="Layer 1" xmlns="http://www.w3.org/2000/svg" viewBox="0 0 484.81001459 557.23999023">
  <defs>
    <style>
      .cls-1 {
        fill: #025589;
      }

      .cls-2 {
        fill: #ddced1;
      }

      .cls-3 {
        fill: #a89a9f;
      }

      .cls-4 {
        fill: #0995cc;
      }
    </style>
  </defs>
  <path class="cls-2" d="M484.81001459,75.44000244v472.05999756c0,5.38000488-4.36999512,9.73999023-9.73999023,9.73999023l-465.32995605-.02001953C4.34004389,557.2199707-.0099317,552.84997559.00001703,547.46002197L.65004145,74.91998291,56.73005854,5.45001221c2.77996826-3.45001221,6.9699707-5.45001221,11.39996338-5.45001221h348.83001709c4.42999268,0,8.61999512,2,11.40002441,5.45001221l56.44000244,69.98999023h.00994873Z"/>
  <path class="cls-3" d="M484.80109675,75.44236908L.6520678,74.91693219,56.73498963,5.44709726C59.51473137,2.00383514,63.70259877.00244907,68.12786918.00242859L416.95752964.00081375c4.42788711-.0000205,8.61795831,2.00368354,11.39761848,5.45037377l56.44594863,69.99118155Z"/>
  <path class="cls-4" d="M464.49505127,95.92917892l-.02001953,441.80999756-144.53997803-.05999756.20996094-441.95001221,144.35003662.20001221ZM172.66503418,95.72916672l.02001953,441.95001221h138.95001221l1.39996338-441.95001221h-140.36999512ZM20.53502929,95.6091716l-.01000977,442.11999512,144.22003174-.04998779.0199585-441.95001221-144.22998047-.11999512Z"/>
  <path class="cls-1" d="M332.83501709,276.21915695v65.40002441h17.60003662v-65.40002441h-17.60003662ZM341.63506591,349.21915695c-5.74005127,0-10.40002441,4.66003418-10.40002441,10.40002441s4.65997314,10.40002441,10.40002441,10.40002441c5.73999023,0,10.39996338-4.66003418,10.39996338-10.40002441s-4.65997314-10.40002441-10.39996338-10.40002441ZM425.88506591,186.21915695h-70.20001221c-8.42004395,0-15.29998779,6.88000488-15.29998779,15.30004883,0,4.20996094,1.7199707,8.03997803,4.48999023,10.80999756,2.77996826,2.7699585,6.59997559,4.48999023,10.80999756,4.48999023h70.20001221c8.41998291,0,15.29998779-6.88000488,15.29998779-15.29998779,0-8.42004395-6.88000488-15.30004883-15.29998779-15.30004883ZM434.9850415,117.01920578h-88.40002441c-1.20996094,0-2.30999756.5-3.10998535,1.28997803-.78997803.79998779-1.28997803,1.90002441-1.28997803,3.10998535,0,2.41998291,1.97998047,4.40002441,4.39996338,4.40002441h88.40002441c1.21002197,0,2.30999756-.5,3.10998535-1.29003906.79003906-.79998779,1.29003906-1.89996338,1.29003906-3.10998535,0-2.41998291-1.9800415-4.39996338-4.40002441-4.39996338ZM434.9850415,135.91916916h-88.40002441c-1.20996094,0-2.30999756.5-3.10998535,1.29003906-.78997803.79998779-1.28997803,1.89996338-1.28997803,3.10998535,0,2.41998291,1.97998047,4.39996338,4.39996338,4.39996338h88.40002441c1.21002197,0,2.30999756-.5,3.10998535-1.28997803.79003906-.79998779,1.29003906-1.90002441,1.29003906-3.10998535,0-2.41998291-1.9800415-4.40002441-4.40002441-4.40002441ZM434.9850415,154.81919357h-88.40002441c-1.20996094,0-2.30999756.5-3.10998535,1.28997803-.78997803.79998779-1.28997803,1.90002441-1.28997803,3.10998535,0,2.42004395,1.97998047,4.40002441,4.39996338,4.40002441h88.40002441c1.21002197,0,2.30999756-.5,3.10998535-1.28997803.79003906-.80004883,1.29003906-1.90002441,1.29003906-3.11004639,0-2.41998291-1.9800415-4.39996338-4.40002441-4.39996338ZM184.57500732,276.21915695v65.40002441h17.60003662v-65.40002441h-17.60003662ZM193.37505615,349.21915695c-5.73999023,0-10.40002441,4.66003418-10.40002441,10.40002441s4.66003418,10.40002441,10.40002441,10.40002441,10.39996338-4.66003418,10.39996338-10.40002441-4.65997314-10.40002441-10.39996338-10.40002441ZM277.62505615,186.21915695h-70.20001221c-8.41998291,0-15.29998779,6.88000488-15.29998779,15.30004883,0,4.20996094,1.7199707,8.03997803,4.48999023,10.80999756,2.77996826,2.7699585,6.59997559,4.48999023,10.80999756,4.48999023h70.20001221c8.41998291,0,15.29998779-6.88000488,15.29998779-15.29998779,0-8.42004395-6.88000488-15.30004883-15.29998779-15.30004883ZM286.72503174,117.01920578h-88.40002441c-1.20996094,0-2.30999756.5-3.10998535,1.28997803-.78997803.79998779-1.28997803,1.90002441-1.28997803,3.10998535,0,2.41998291,1.97998047,4.40002441,4.39996338,4.40002441h88.40002441c1.21002197,0,2.30999756-.5,3.10998535-1.29003906.79003906-.79998779,1.29003906-1.89996338,1.29003906-3.10998535,0-2.41998291-1.9800415-4.39996338-4.40002441-4.39996338ZM286.72503174,135.91916916h-88.40002441c-1.20996094,0-2.30999756.5-3.10998535,1.29003906-.78997803.79998779-1.28997803,1.89996338-1.28997803,3.10998535,0,2.41998291,1.97998047,4.39996338,4.39996338,4.39996338h88.40002441c1.21002197,0,2.30999756-.5,3.10998535-1.28997803.79003906-.79998779,1.29003906-1.90002441,1.29003906-3.10998535,0-2.41998291-1.9800415-4.40002441-4.40002441-4.40002441ZM286.72503174,154.81919357h-88.40002441c-1.20996094,0-2.30999756.5-3.10998535,1.28997803-.78997803.79998779-1.28997803,1.90002441-1.28997803,3.10998535,0,2.42004395,1.97998047,4.40002441,4.39996338,4.40002441h88.40002441c1.21002197,0,2.30999756-.5,3.10998535-1.28997803.79003906-.80004883,1.29003906-1.90002441,1.29003906-3.11004639,0-2.41998291-1.9800415-4.39996338-4.40002441-4.39996338ZM36.30504882,276.21915695v65.40002441h17.59997559v-65.40002441h-17.59997559ZM45.10503662,349.21915695c-5.73999023,0-10.40002441,4.66003418-10.40002441,10.40002441s4.66003418,10.40002441,10.40002441,10.40002441,10.40002441-4.66003418,10.40002441-10.40002441-4.66003418-10.40002441-10.40002441-10.40002441ZM129.35503662,186.21915695H59.15502441c-8.41998291,0-15.29998779,6.88000488-15.29998779,15.30004883,0,4.20996094,1.7199707,8.03997803,4.48999023,10.80999756,2.7800293,2.7699585,6.60003662,4.48999023,10.80999756,4.48999023h70.20001221c8.41998291,0,15.29998779-6.88000488,15.29998779-15.29998779,0-8.42004395-6.88000488-15.30004883-15.29998779-15.30004883ZM138.4550122,117.01920578H50.05504882c-1.21002197,0-2.30999756.5-3.10998535,1.28997803-.79003906.79998779-1.29003906,1.90002441-1.29003906,3.10998535,0,2.41998291,1.9800415,4.40002441,4.40002441,4.40002441h88.39996338c1.21002197,0,2.30999756-.5,3.11004639-1.29003906.78997803-.79998779,1.28997803-1.89996338,1.28997803-3.10998535,0-2.41998291-1.97998047-4.39996338-4.40002441-4.39996338ZM138.4550122,135.91916916H50.05504882c-1.21002197,0-2.30999756.5-3.10998535,1.29003906-.79003906.79998779-1.29003906,1.89996338-1.29003906,3.10998535,0,2.41998291,1.9800415,4.39996338,4.40002441,4.39996338h88.39996338c1.21002197,0,2.30999756-.5,3.11004639-1.28997803.78997803-.79998779,1.28997803-1.90002441,1.28997803-3.10998535,0-2.41998291-1.97998047-4.40002441-4.40002441-4.40002441ZM138.4550122,154.81919357H50.05504882c-1.21002197,0-2.30999756.5-3.10998535,1.28997803-.79003906.79998779-1.29003906,1.90002441-1.29003906,3.10998535,0,2.42004395,1.9800415,4.40002441,4.40002441,4.40002441h88.39996338c1.21002197,0,2.30999756-.5,3.11004639-1.28997803.78997803-.80004883,1.28997803-1.90002441,1.28997803-3.11004639,0-2.41998291-1.97998047-4.39996338-4.40002441-4.39996338Z"/>
</svg>