<?xml version="1.0" encoding="UTF-8"?>
<svg id="Layer_1" data-name="Layer 1" xmlns="http://www.w3.org/2000/svg" viewBox="0 0 546.2 369.40506053">
  <defs>
    <style>
      .cls-1 {
        fill: #ff1733;
      }

      .cls-2 {
        fill: #025589;
      }

      .cls-3 {
        fill: #086d08;
      }

      .cls-4 {
        fill: #7526a8;
      }

      .cls-5 {
        fill: #ff9605;
      }
    </style>
  </defs>
  <path class="cls-4" d="M546.2,156.01033738c-10.92289947-1.00318073-22.06506191-2.02653271-33.42344525-3.06972835v-58.15785244c-8.41108656-.7459855-16.6000553-1.47229116-25.00356009-2.21762144-.80217017,17.04925187-1.59109565,59.17736674-1.59109565,59.17736674,0,0-27.4228941,1.61767865-35.88443221,1.61767865,1.91149571-47.94031515,3.81428642-95.66110993,5.7202128-143.46198133,10.4961206-.6446144,20.55558731-1.2624118,31.11488935-1.91088729v57.99608458h25.31998206V10.29083671h32.29947099c0,25.76414752,1.44797801,122.96374871,1.44797801,145.71950067ZM394.76169056,364.03309442h71.26813988v-31.21242276h-40.24193854v-29.62137391c9.53557564-.57981834,18.90734757-1.14971485,28.49473199-1.73266886-.49796328-9.27554895-.98497512-18.34709208-1.46702604-27.32685833h-27.21617382v-31.12429636c13.65364774.75878559,27.38039874,1.52164287,40.87028957,2.27130226v-28.97533208h-74.69786198c.99700299,49.25975405,1.98843665,98.24478587,2.98983894,147.72165003Z"/>
  <path class="cls-2" d="M288.6605979,280.75978055v83.24139555c-10.33355712,1.00912446-20.24045237,1.97659598-30.31992654,2.96091588-.97425767-49.86091367-1.94587109-99.58675947-2.92022236-149.45310206h28.74003974c8.81802178,10.33128727,17.63674558,20.66346376,26.66218967,31.23774213,7.39952845-9.62023876,14.87997593-19.18431625,22.14935062-28.90363285l32.36929817-.34585984c2.08128995,46.62527556,4.15935064,93.1789923,6.25276206,140.07519919-10.42465538.51747932-20.68681749,1.02690887-31.45817513,1.56161098-1.23821565-28.30387726-2.47708652-56.62343288-3.75976318-85.94336116-8.15925006,13.364698-15.82006883,25.91295149-23.62657929,38.6998904-7.9491133-10.9328213-15.74490632-21.65475702-24.08897377-33.13079822ZM432.6205191,61.27017871c-.65624447-24.76033498-9.37097631-56.10438572-37.83364957-60.61083642-24.53428586-3.88446461-46.28156857,9.74674203-56.51162515,31.61252502-6.3114974,13.49024184-8.61219072,28.37714432-8.17989518,43.18600365,1.35883253,27.07472026,3.06996244,60.59728443,27.37567768,77.57390653,11.51502649,7.63437617,26.37431635,9.19069863,39.7069777,6.30928471,27.88094795-5.64810454,42.19230698-39.28878677,35.89077507-65.20514307h-30.85827914c1.17016691,7.98610954.81316842,17.575483-4.38788021,24.21332419-3.75456826,4.79172656-10.88761147,8.439214-17.04096809,6.63367589-15.68130368-4.60124625-16.69066215-29.99332534-17.34283493-43.00977664-.66911476-13.35421456.02831464-36.69380975,13.86097644-43.8819378,5.55987237-2.88919326,12.22864906-2.11753738,17.02004801,1.89878922,6.3161775,5.29451035,7.1721689,13.58365676,7.41843607,21.28018473h30.88224128Z"/>
  <path class="cls-3" d="M313.88351456,155.04969881h-29.97027582c-11.06061159-21.59929776-21.84088483-42.65116352-33.40264218-65.22916505.8560616,23.08705667,1.650533,44.51328411,2.45679826,66.25691634h-31.70250006c-1.23880067-49.24164204-2.48242184-98.67512162-3.73306318-148.38753552h27.24841975c12.31986432,25.04315379,24.78097425,50.37347888,37.97208711,77.18763159V13.92128856h31.13117612v141.12841026ZM235.5452321,223.68832112h-33.46287515c-.82051619,47.42767974-1.63843492,94.70667251-2.45647065,141.9911878,12.22956168-1.00027906,24.12470638-1.97317951,35.9193458-2.93784296v-139.05334484Z"/>
  <path class="cls-5" d="M100.43389202,107.68008267c2.38370965,33.14796669,34.86855386,56.2533659,66.62484953,46.45502659,5.49032263-1.69402769,10.62443378-4.27047572,15.05957009-7.75708531,10.37078736-8.19753333,15.04920856-20.0784037,15.53439515-33.01735245,1.32606124-35.3630216,1.8848893-70.83038616,1.8848893-106.21631687h-33.68260613c-.00898652,27.52956893-.06155449,55.05916957-.11885129,82.58868456-.01963304,7.95596965,1.28127263,16.98483021-3.77743983,23.79394077-6.72487692,6.74608426-16.88416925,6.09843965-24.20379093-.27811619-5.6244327-4.89977634-5.09031733-21.08067181-5.08860909-30.59624.0045397-25.31050484-1.41173058-50.63533081-1.41173058-75.96228623h-33.12195282c1.44821867,15.78132045-.00437359,68.92727673,2.3012766,100.98974513Z"/>
  <path class="cls-1" d="M83.31556353,220.71364572v30.22833686h30.78959858c.68198505,38.52499484,1.37000744,77.39243303,2.0613293,116.44562463,12.59446954.6840911,25.10909648,1.3638765,37.14136829,2.01745331v-121.78066471h29.68214509c.91968764-10.30414265,1.82493715-20.44668125,2.75644205-30.8831305-34.28238511,1.32947772-68.2235437,2.64575754-102.43088331,3.9723804ZM75.7005396,126.15182249h-40.22514866V9.14376612c-11.87560526-.77348112-23.7109148-1.54434139-35.47539094-2.31059175.93537769,49.47925102,1.86371182,98.58563799,2.79487742,147.84169475,24.68733703.65540205,49.06235887,1.30252031,72.90566218,1.93555145v-30.45859808Z"/>
</svg>