<?xml version="1.0" encoding="UTF-8"?>
<svg id="Layer_1" data-name="Layer 1" xmlns="http://www.w3.org/2000/svg" viewBox="0 0 76.71910257 557.6533499">
  <defs>
    <style>
      .cls-1 {
        fill: #ddced1;
      }

      .cls-2 {
        fill: #19a519;
      }

      .cls-3 {
        fill: #086d08;
      }
    </style>
  </defs>
  <path class="cls-2" d="M76.62456593,525.21002197c.2699585,4.95001221-.16003418,9.59997559-4.51000977,12.96002197-.33001709.25-.42999268,1.07995605-.33001709,1.59997559,1.60998535,9.03997803-3.97998047,13.70001221-11.54998779,15.47998047-7.26000977,1.71002197-14.55999756,2.46002197-21.86999512,2.40002441h-.01000977c-7.30999756.05999756-14.60998535-.69000244-21.86999512-2.40002441-7.57000732-1.77996826-13.15997314-6.44000244-11.54998779-15.47998047.09997559-.52001953,0-1.34997559-.33001709-1.59997559-4.34997559-3.36004639-4.77996826-8.01000977-4.51000977-12.96002197.07000732-2.48999023.10003662-4.98999023.10003662-7.47998047.02996826-5.60003662-.05004883-11.20001221-.0300293-16.80004883C.01458058,408.29003906.33452687,218.42004395.37456593,217.73999023c-.04003906-5.44000244-.07000732-10.87994385-.10003662-16.31994629-.03997803-7.74005127-.07000732-15.49005127-.08996582-23.24005127v-.00994873c-.15002441-54.86004639.13000488-109.72003174.01000977-164.59002686,0-.01000977-.01000977-.02001953-.01000977-.0300293C-2.31543651,4.17004395,21.11455617,0,38.20452199,0h.31005859c17.08996582,0,40.5199585,4.17004395,38.0199585,13.54998779,0,.01000977-.01000977.02001953-.01000977.0300293-.11999512,54.86999512.16003418,109.72998047.01000977,164.59002686v.00994873c-.0199585,7.75-.04998779,15.5-.08996582,23.24005127-.0300293,5.44000244-.05999756,10.87994385-.10003662,16.31994629.04003906.68005371.35998535,190.55004883.21002197,283.19000244.02001953,5.60003662-.05999756,11.20001221-.0300293,16.80004883,0,2.48999023.0300293,4.98999023.10003662,7.47998047Z"/>
  <path class="cls-1" d="M76.62456593,525.21002197c-.07000732-2.48999023-.10003662-4.98999023-.10003662-7.47998047-12.60998535,4.5-25.38000488,6.66998291-38.15997314,6.64996338h-.01000977c-12.77996826.02001953-25.54998779-2.14996338-38.15997314-6.64996338,0,2.48999023-.0300293,4.98999023-.10003662,7.47998047-.2699585,4.95001221.16003418,9.59997559,4.51000977,12.96002197.33001709.25.42999268,1.07995605.33001709,1.59997559-1.60998535,9.03997803,3.97998047,13.70001221,11.54998779,15.47998047,7.26000977,1.71002197,14.55999756,2.46002197,21.86999512,2.40002441h.01000977c7.30999756.05999756,14.60998535-.69000244,21.86999512-2.40002441,7.57000732-1.77996826,13.15997314-6.44000244,11.54998779-15.47998047-.09997559-.52001953,0-1.34997559.33001709-1.59997559,4.34997559-3.36004639,4.77996826-8.01000977,4.51000977-12.96002197ZM38.36455617,184.80999756h-.01000977c-12.98999023.02001953-25.96002197-2.14996338-38.16998291-6.63995361v.00994873c.0199585,7.75.04998779,15.5.08996582,23.24005127,12.5300293,3.70996094,25.30999756,5.72998047,38.08001709,5.7699585h.01000977c12.77001953-.03997803,25.54998779-2.05999756,38.08001709-5.7699585.03997803-7.74005127.07000732-15.49005127.08996582-23.24005127v-.00994873c-12.20996094,4.48999023-25.17999268,6.65997314-38.16998291,6.63995361ZM76.34453664,217.73999023c-12.66998291,4.24005127-25.32000732,6.39001465-37.97998047,6.39001465h-.01000977c-12.65997314,0-25.30999756-2.14996338-37.97998047-6.39001465-.04003906.68005371-.35998535,190.55004883-.21002197,283.19000244,12.52001953,3.84002686,25.35003662,5.88000488,38.19000244,5.92004395h.01000977c12.83996582-.04003906,25.66998291-2.08001709,38.19000244-5.92004395.14996338-92.63995361-.16998291-282.50994873-.21002197-283.19000244ZM45.31456837,481.26000977c-3.51000977,4.47998047-10.39001465,4.47998047-13.90002441.01000977-23.47998047-29.92999268-23.42999268-200.45001221,0-230.39001465,3.5-4.47998047,10.40002441-4.47998047,13.90002441,0,23.42999268,29.94000244,23.4699707,200.45001221,0,230.38000488Z"/>
  <path class="cls-3" d="M76.53453908,13.54998779c-.01000977.01000977-.0199585.02001953-.0199585.0300293-2.62005615,6.76000977-20.40002441,10.34997559-38.15002441,10.40002441h-.01000977c-17.75-.05004883-35.52996826-3.64001465-38.15002441-10.40002441,0-.01000977-.00994873-.02001953-.0199585-.0300293C-2.31543651,4.17004395,21.11455617,0,38.20452199,0h.31005859c17.08996582,0,40.5199585,4.17004395,38.0199585,13.54998779Z"/>
</svg>