<?xml version="1.0" encoding="UTF-8"?>
<svg id="Layer_1" data-name="Layer 1" xmlns="http://www.w3.org/2000/svg" viewBox="0 0 436.8181931 558.10948425">
  <defs>
    <style>
      .cls-1 {
        fill: #ff1733;
      }

      .cls-2 {
        fill: #ddced1;
      }

      .cls-3 {
        fill: #0995cc;
      }
    </style>
  </defs>
  <path class="cls-3" d="M0,0v558.10948425h436.8181931V0H0ZM36.84328206,492.16264701c-1.32529792.41350848-2.72482028.63618183-4.18795436.63618183s-2.86265644-.22267335-4.18795436-.63618183c-5.68286193-1.78119263-9.80720458-7.09299703-9.80720458-13.35897711,0-4.12434265,1.78119263-7.83517681,4.63323634-10.39032272,2.48098617-2.23715206,5.76769912-3.60483622,9.3619226-3.60483622s6.88093643,1.36768415,9.3619226,3.60483622c2.85197899,2.55514591,4.63323634,6.26598007,4.63323634,10.39032272,0,6.26598007-4.12434265,11.57778447-9.80720458,13.35897711ZM47.02154417,309.37759727c-1.57974476,5.97969502-7.03999806,10.39032272-13.51803874,10.39032272s-11.93829398-4.4106277-13.51803874-10.39032272c-.31805856-1.15568826-.47712019-2.36437549-.47712019-3.60483622,0-1.39952236.20144787-2.75659378.59373088-4.02889272,1.72819366-5.76769912,7.07183627-9.96626621,13.40142806-9.96626621s11.6732344,4.19856709,13.40142806,9.96626621c.39228301,1.27229894.59373088,2.62937036.59373088,4.02889272,0,1.24046073-.15906163,2.44914796-.47712019,3.60483622ZM40.17238125,143.34423553c-1.98264051,1.08146381-4.25150136,1.69642016-6.66887582,1.69642016s-4.68623531-.61495635-6.66887582-1.69642016c-4.36817675-2.36431077-7.32628312-6.98693437-7.32628312-12.29873878,0-5.1633555,2.78843199-9.66936842,6.95516087-12.08674288,2.06747769-1.21923526,4.47423941-1.90841606,7.03999806-1.90841606s4.97252037.6891808,7.03999806,1.90841606c4.16672888,2.41737446,6.95516087,6.92338737,6.95516087,12.08674288,0,5.3118044-2.95810636,9.934428-7.32628312,12.29873878Z"/>
  <path class="cls-2" d="M0,0v558.10948425h436.8181931V0H0ZM47.49866437,131.04549676c0,5.3118044-2.95810636,9.934428-7.32628312,12.29873878h386.67954564v7.63372894H10.39032272v-7.63372894h16.44430689c-4.36817675-2.36431077-7.32628312-6.98693437-7.32628312-12.29873878,0-5.1633555,2.78843199-9.66936842,6.95516087-12.08674288H10.39032272v-7.63372894h416.46160416v7.63372894H40.54350349c4.16672888,2.41737446,6.95516087,6.92338737,6.95516087,12.08674288ZM47.02154417,309.37759727c-1.57974476,5.97969502-7.03999806,10.39032272-13.51803874,10.39032272s-11.93829398-4.4106277-13.51803874-10.39032272h-9.59514397v-7.63372894h9.71175465c1.72819366-5.76769912,7.07183627-9.96626621,13.40142806-9.96626621s11.6732344,4.19856709,13.40142806,9.96626621h379.9469934v7.63372894H47.02154417ZM426.85192688,333.97507482v7.63372894H10.39032272v-7.63372894h416.46160416ZM10.39032272,277.99450379v-7.63372894h416.46160416v7.63372894H10.39032272ZM10.39032272,245.55123669v-7.63372894h416.46160416v7.63372894H10.39032272ZM10.39032272,214.38020383v-7.63372894h416.46160416v7.63372894H10.39032272ZM10.17826211,80.15405678h416.46160416v7.63372894H10.17826211v-7.63372894ZM10.17826211,174.72732901h416.46160416v7.63366423H10.17826211v-7.63366423ZM10.17826211,365.14610769h416.46160416v7.63372894H10.17826211v-7.63372894ZM426.63986627,531.81558654H10.17826211v-7.63372894h416.46160416v7.63372894ZM426.63986627,468.41334718H42.0172503c2.85197899,2.55514591,4.63323634,6.26598007,4.63323634,10.39032272,0,6.26598007-4.12434265,11.57778447-9.80720458,13.35897711h389.79658421v7.63372894H10.17826211v-7.63372894h18.28911124c-5.68286193-1.78119263-9.80720458-7.09299703-9.80720458-13.35897711,0-4.12434265,1.78119263-7.83517681,4.63323634-10.39032272h-13.115143v-7.63372894h416.46160416v7.63372894ZM426.85192688,436.6061972H10.39032272v-7.63372894h416.46160416v7.63372894ZM427.06398749,405.22310372H10.60238333v-7.63372894h416.46160416v7.63372894Z"/>
  <rect class="cls-1" x="59.15817112" y="8.4800293" width="8.05999756" height="538.59997559"/>
</svg>