<?xml version="1.0" encoding="UTF-8"?>
<svg id="Layer_1" data-name="Layer 1" xmlns="http://www.w3.org/2000/svg" viewBox="0 0 552.59910803 520.88616292">
  <defs>
    <style>
      .cls-1 {
        fill: #ff1833;
      }

      .cls-2 {
        fill: #f94e03;
      }

      .cls-3 {
        fill: #086d08;
      }

      .cls-4 {
        fill: #ffb176;
      }

      .cls-5 {
        fill: #7526a8;
      }

      .cls-6 {
        fill: #0995cc;
      }
    </style>
  </defs>
  <path class="cls-4" d="M552.33744057,353.64208646c-2.90002441-26.72003174-18.10998535-53.57000732-43.97998047-63.69000244-13.67004395-5.71002197-28.38000488-7.38000488-42.58001709-11.19000244-24.5-6.58001709-49.85003662-20.69000244-60.54998779-44.88000488-11.79003906-27.11999512-1.85003662-49.34002686,13.44000244-72.23999023,12.35154193-19.6986772,24.85741316-39.44427968,29.10485515-62.09968555,1.92302754-10.25722531,1.36747217-20.88482515-2.01334194-30.75796052C424.91067189,7.90026536,331.97742979-4.14521938,275.9074479,1.10204739,85.75742348,12.97204251-69.99257652,173.09203763,32.56742104,361.75207181c26.05999756,48.89996338,65.47003174,89.10998535,114.19000244,115.63000488,105.47998047,55.13000488,248.80999756,64.94000244,345.98999023-12.21002197,31.61004639-25.97998047,63.05004883-68.7199707,59.59002686-111.52996826ZM484.14743813,410.8020596c-28.52001953,22.17999268-68.64001465,24.85998535-99.34997559,5.97998047-11.84286935-7.27857317-20.2214642-16.92957664-24.26841358-29.29924701-3.57168219-10.91699628-3.20121241-22.80180005.78423044-33.57463471,16.0386758-43.35327564,82.08198039-56.88867879,119.48418313-31.39607678,33.31994629,22.00994873,34.89996338,63.75,3.34997559,88.28997803Z"/>
  <path class="cls-1" d="M232.19955669,476.2116652c-60.26062713-2.06993422-93.85136212-67.53223837-37.3927592-104.48335742,36.04940823-22.68463972,94.75710618-14.90527396,113.56328329,26.55084787,5.1608774,12.42451519,4.192757,26.89560946-1.2197916,39.0859761-12.69757683,28.59807322-46.07664719,38.96708992-74.95073248,38.84653346Z"/>
  <path class="cls-2" d="M107.40823128,369.4003331c-48.34099764-4.86412629-75.83860676-55.29186531-34.6129652-91.62240087,25.56346047-21.72026618,63.92033193-25.02216721,92.75009392-7.98363833,29.18854212,17.25057904,32.36952572,56.15850666,6.60029248,79.09939644-18.72290293,16.66796972-40.67694326,22.56537618-64.73742121,20.50664276Z"/>
  <path class="cls-3" d="M43.46289481,198.79140891c-5.66554939-13.99429926-3.42863181-30.0844442,5.57064966-42.20681174,22.42281145-30.20436274,77.86562-33.07570174,103.37038977-4.35032079,14.70769399,16.45494342,15.5639184,40.45623318,1.17113875,57.40892385-27.45444953,33.71742354-94.24629553,28.33803736-110.11217818-10.85179132Z"/>
  <path class="cls-6" d="M225.46880964,133.13239972c-14.0176309,4.22603004-28.99451625,4.68036663-42.96896861.31367599-13.68776602-4.27710784-25.83950646-12.70320879-32.04111634-26.36930912-9.09298404-20.03767007.04065549-40.76541247,17.32807314-52.52176189,20.69556692-14.07406583,45.23035059-15.64917355,67.99312011-5.59667794,19.28839221,8.5181538,32.36208118,26.76224532,27.52679383,48.54686489-4.2822442,19.29297391-20.19414587,30.30797513-37.83790212,35.62720806Z"/>
  <path class="cls-5" d="M354.29802187,104.37329629c-12.16779666,3.66834271-25.16825991,4.06272285-37.29857608.27228179-11.88146233-3.71268004-22.42960045-11.02683203-27.81281595-22.88948779-7.89302997-17.3934024.0352904-35.38581184,15.04137696-45.59073664,17.96448-12.21678416,39.26153517-13.58403307,59.02041974-4.8581133,16.74300286,7.3940571,28.09142471,23.23057023,23.89422523,42.14038624-3.71713858,16.74697993-17.52922889,26.30838842-32.8446299,30.92566969Z"/>
</svg>