<?xml version="1.0" encoding="UTF-8"?>
<svg id="Layer_1" data-name="Layer 1" xmlns="http://www.w3.org/2000/svg" viewBox="0 0 81.33464813 555.59997559">
  <defs>
    <style>
      .cls-1 {
        fill: #ff1833;
      }

      .cls-2 {
        fill: #a53d1e;
      }

      .cls-3 {
        fill: #a89a9f;
      }

      .cls-4 {
        fill: #756a6e;
      }
    </style>
  </defs>
  <path class="cls-1" d="M78.52913429,122.07000732c-2.14001465,6.4699707-5.60998535,12.45996094-10.69000244,17.77996826-3.02001953,3.16003418-6.52001953,5.7800293-10.34002686,7.73999023l.36999512,21.14001465.19000244,10.94000244.17004395,9.85998535.19000244,10.94000244.42999268,25.05999756,5.33001709,306.67004395c0,12.86999512-10.5300293,23.39996338-23.40002441,23.39996338s-23.40002441-10.52996826-23.40002441-23.39996338l5.2300415-306.67004395.42999268-25.05999756.17999268-10.94000244.16998291-9.85998535.19000244-10.94000244.35003662-20.53997803c-3.38000488-1.51000977-6.55004883-3.52001953-9.36004639-6.02001953-6.23999023-5.53997803-10.2199707-12.39001465-12.40997314-20.09997559C-8.45084618,84.79998779,22.55910255,27.38000488,40.45912697,0c18.47998047,30.90997314,50.53997803,84.5,38.07000732,122.07000732Z"/>
  <path class="cls-2" d="M78.52913429,122.07000732c-2.14001465,6.4699707-5.60998535,12.45996094-10.69000244,17.77996826-3.02001953,3.16003418-6.52001953,5.7800293-10.34002686,7.73999023-5.35998535,2.77001953-11.34997559,4.24005127-17.47998047,4.11004639-.59997559-.02001953-1.20001221-.04003906-1.79998779-.08001709-4.97003174-.2800293-9.82000732-1.42999268-14.28997803-3.42999268-3.38000488-1.51000977-6.55004883-3.52001953-9.36004639-6.02001953-6.23999023-5.53997803-10.2199707-12.39001465-12.40997314-20.09997559C-8.45084618,84.79998779,22.55910255,27.38000488,40.45912697,0c18.47998047,30.90997314,50.53997803,84.5,38.07000732,122.07000732Z"/>
  <path class="cls-3" d="M58.84914162,225.52996826H22.60915138l.42999268-25.05999756.17999268-10.94000244.16998291-9.85998535.19000244-10.94000244.35003662-20.53997803c4.4699707,2,9.31994629,3.14996338,14.28997803,3.42999268.59997559.03997803,1.20001221.05999756,1.79998779.08001709,6.13000488.13000488,12.11999512-1.34002686,17.47998047-4.11004639l.36999512,21.14001465.19000244,10.94000244.17004395,9.85998535.19000244,10.94000244.42999268,25.05999756Z"/>
  <path class="cls-4" d="M58.05910255,179.66998291H23.38911964l.19000244-10.94000244h34.28997803l.19000244,10.94000244ZM58.2291465,189.52996826H23.21913673l-.17999268,10.94000244h35.38000488l-.19000244-10.94000244Z"/>
</svg>