<?xml version="1.0" encoding="UTF-8"?>
<svg id="Layer_1" data-name="Layer 1" xmlns="http://www.w3.org/2000/svg" viewBox="0 0 545.39996338 463.11999512">
  <defs>
    <style>
      .cls-1 {
        fill: #ddced1;
      }

      .cls-2 {
        fill: #a89a9f;
      }

      .cls-3 {
        fill: #756a6e;
      }
    </style>
  </defs>
  <path class="cls-1" d="M545.39996338,0c-59.30999756,155.89001465-117.60998535,309.13000488-176.19000244,463.11999512-10.22998047-7.63000488-119.48999023-88.55999756-120.34997559-88.94995117-22.59002686,26.63995361-47.17999268,51.11999512-76.70001221,71.20996094-.4699707-1.33001709-.70996094-2.03997803-.95996094-2.76000977-5.83001709-21.9699707-32.66003418-124.34997559-40.24005127-153.57000732-30.56994629-11.06994629-57.60998535-28.28997803-83.10998535-48.05999756C31.51000977,228.34002686,1.39001465,195.25,0,193.16003418,181.40997314,128.91003418,362.28997803,64.85003662,545.39996338,0Z"/>
  <path class="cls-3" d="M171.20236022,442.62427992c.88449577-10.06846076,9.51196095-119.20806231,9.69782532-119.70540571,21.95370676,16.32041519,67.25768023,50.49072197,67.95685828,51.25522588-22.59009702,26.64045666-47.17620564,51.11379715-76.70138677,71.20636112-.46153717-1.33447499-.70737795-2.0452891-.95329683-2.75618129Z"/>
  <path class="cls-2" d="M130.95764635,289.04540378c9.68150362-4.10537706,382.39908847-264.67458313,391.48215565-269.8026633-5.95054957,5.35256217-340.90221097,302.51748801-341.53961646,303.67617278-.18586438.49730435-8.81332955,109.6369059-9.69782532,119.70536666-5.83489195-21.97135607-32.66464913-124.35728651-40.24471387-153.57887614Z"/>
</svg>