<?xml version="1.0" encoding="UTF-8"?>
<svg id="Layer_1" data-name="Layer 1" xmlns="http://www.w3.org/2000/svg" viewBox="0 0 184.40823437 537.6">
  <defs>
    <style>
      .cls-1 {
        fill: #0995cc;
      }
    </style>
  </defs>
  <path class="cls-1" d="M24.54456506,451.02114484c-.19023377,27.03643371,24.34996758,54.48754728,52.67180666,60.03825025,33.6872624,6.60222055,76.47011185-19.19506106,80.82040705-58.92057406,1.74895996-15.97141723-.34625524-290.09282138-.28151844-298.70152727.05944944-7.90590951,5.53764009-13.66824006,12.79918073-13.67501587,7.25998554-.00677581,12.78411843,5.72138685,12.83001624,13.64924556.12774077,22.07946983,1.69972978,282.72424508.6836686,298.35202853-1.36658185,21.01991014-10.00701189,39.08934176-24.82196417,54.39233042-16.38325347,16.92291934-35.79767319,27.55730502-59.14621979,30.71830034-38.57211383,5.22204263-91.37279427-17.58161739-99.00133969-73.358169-3.19225292-23.34030455,1.60191367-392.91940838,1.46348711-399.76285904-.46839763-23.15228124,10.60210615-39.90940417,29.47357207-51.76111495,27.60218091-17.3347889,63.80862456-15.65942984,87.3320094,3.62024004,13.2926822,10.89463251,20.04441498,25.00366708,20.07080734,42.35653963.05585049,36.69308044,1.30517742,275.21339889,1.52626892,294.19625476.22064719,18.94024599-6.97371292,33.68828432-23.88819026,43.01633737-29.87570001,16.47580443-68.60563478-1.36062802-73.26199686-34.49373985-1.8312028-13.03026933-.2060292-166.21293391-.07544481-196.05531024.03545639-8.10558499,5.38581741-13.90921469,12.74124196-13.92229978,7.45352946-.01326282,12.80822255,5.78970039,12.78065276,14.00656426-.09150682,27.29469222-.520427,186.55204129-.54628618,190.30468741-.07069063,10.2531628,8.97382234,19.14289839,20.88430498,20.51623384,12.26171422,1.41390148,23.56257348-5.20298149,25.12207722-15.56135825.94745884-6.29284351-.60431381-275.73538099-1.15068885-304.53734764-.26116878-13.76852211-9.39003509-21.39668987-21.12978942-26.22894543-21.04339223-8.66175719-48.34670417-.85171991-59.66797974,16.80913008-3.20389399,4.99799643-4.61228596,10.46085818-4.65609549,16.37524468-.26901095,36.33054103-3.37915433,361.21801508-3.57198735,388.62687423Z"/>
</svg>