<?xml version="1.0" encoding="UTF-8"?>
<svg id="Layer_1" data-name="Layer 1" xmlns="http://www.w3.org/2000/svg" viewBox="0 0 38.2545877 565.34994185">
  <defs>
    <style>
      .cls-1 {
        fill: #595256;
      }

      .cls-2 {
        fill: #ffb176;
      }

      .cls-3 {
        fill: #ff9605;
      }

      .cls-4 {
        fill: #ff5ab5;
      }
    </style>
  </defs>
  <path class="cls-3" d="M35.67500757,563.10998535c-10.73999023,2.60003662-22.52996826,3.29998779-33.14996338.13000488-.01000977,0-.0300293,0-.0300293-.01000977-1.47998047-.45996094-2.41998291-1.90997314-2.41998291-3.44995117-.0300293-7.92004395-.04998779-15.62005615-.07000732-23.34002686v-.01000977c-.01000977-3.95001221.14001465-46.19000244.22998047-46.89996338-.08996582-.65002441-.33996582-419.61004639.36999512-420.74005127,1.7800293-6.98999023,10.16003418-38.94995117,12.55999756-47.94000244,1.55004883-5.94995117,4.44000244-16.97998047,5.24005127-20.03997803.12994385-.47998047.55999756-.80999756,1.04998779-.80999756.5,0,.92999268.34002686,1.05999756.82000732,1.72998047,6.71002197,3.4699707,13.36999512,5.19000244,20.08996582,3.57000732,13.30004883,11.85998535,44.9800415,12.44000244,47.52001953,0,0,.0199585,414.85003662,0,420.95001221.05999756,4.4699707.10998535,46.65002441,0,47,.04998779,7.27996826-.35003662,14.57000732,0,21.83001709.16998291,3.59997559.52996826,4.17999268-2.47003174,4.89996338Z"/>
  <path class="cls-4" d="M35.67045943,563.11008012c-10.73999023,2.60003662-22.52996826,3.29998779-33.14996338.13000488-.01000977,0-.0300293,0-.0300293-.01000977-1.47998047-.45996094-2.41998291-1.90997314-2.41998291-3.44995117-.0300293-7.92004395-.04998779-15.62005615-.07000732-23.34002686v-.01000977c12.95001221-.01000977,25.19000244-.02996826,38.14001465-.04998779.04998779,7.27996826-.35003662,14.57000732,0,21.83001709.16998291,3.59997559.52996826,4.17999268-2.47003174,4.89996338Z"/>
  <path class="cls-2" d="M38.14049117,68.43008745c-5.51000977.30999756-36.40002441.25-37.54003906.35998535,1.7800293-6.98999023,10.16003418-38.94995117,12.55999756-47.94000244,4.17004395,1.70001221,8.35003662,1.71002197,12.54003906.05999756,3.57000732,13.30004883,11.85998535,44.9800415,12.44000244,47.52001953Z"/>
  <path class="cls-1" d="M38.14049117,536.38009966c-12.95001221.02001953-25.19000244.03997803-38.14001465.04998779-.01000977-3.95001221.14001465-46.19000244.22998047-46.89996338,11.47003174-.04003906,36.51000977-.14001465,37.91003418-.15002441.05999756,4.4699707.10998535,46.65002441,0,47ZM19.45905909.00009477h-.00000168c-.49403476,0-.92482519.32932011-1.04997852.80723954-.80221748,3.06340488-3.69151816,14.09669083-5.24862922,20.04273604,4.17004395,1.70001221,8.35003662,1.71002197,12.54003906.05999756-1.72034407-6.71783565-3.45912272-13.38025479-5.18973362-20.09377517C20.38710642.33662513,19.95440748.00009477,19.45905909.00009477Z"/>
</svg>