<?xml version="1.0" encoding="UTF-8"?>
<svg id="Layer_1" data-name="Layer 1" xmlns="http://www.w3.org/2000/svg" viewBox="0 0 543.88210835 262.98823385">
  <defs>
    <style>
      .cls-1 {
        fill: #ff1833;
      }

      .cls-2 {
        fill: #ffc70e;
      }

      .cls-3 {
        fill: #fc86b7;
      }
    </style>
  </defs>
  <path class="cls-1" d="M543.80156454,82.960707c0-5.94995117,0-11.88995361.01000977-17.83996582-.01000977-3.16998291-.01000977-6.34002686-.01000977-9.51000977v-18.98999023c.02001953-6.04998779.04998779-12.09002686.05999756-18.14001465.01000977-13.2199707-5.26000977-18.4699707-18.5-18.47998047C364.52159628.02076559,203.67155965-.02928324,42.83159383.03071432,34.16154989.03071432,27.60155233,5.63075094,27.25157674,13.76075582c-.33001709,7.60998535-.05999756,15.25-.04998779,22.88000488-.01000977,4.13995361-.0300293,8.2699585-.04003906,12.39996338-3.20996094,2.23999023-5.94995117,4.90002441-7,8.79998779C13.53160604,82.4407485,6.89159139,107.04072409.39159139,131.68073873c-3.39001465,15.21002197,16.04998779,24.10998535,26.70001221,13.47998047.00994873,33.70001221.0199585,67.39001465.03997803,101.09002686,0,10.79998779,5.83001709,16.72998047,16.58001709,16.72998047,161.17999268.01000977,322.35998535.01000977,483.53997803,0,10.72998047,0,16.60998535-5.97998047,16.60998535-16.72998047-.04998779-54.42999268.11004639-108.85998535-.05999756-163.29003906ZM5.5615743,133.47071676c-.01000977-13.53997803,21.10998535-12.92999268,20.48999023.5-.59997559,12.92004395-20.47998047,12.45001221-20.48999023-.5Z"/>
  <path class="cls-3" d="M27.20092404,36.6413838c172.20026909-.0079178,344.40077638-.01659195,516.60099097-.02489062-.00077344,6.33114844-.00140625,12.661875-.00196875,18.99275977-165.05066075-.0075058-330.10142107-.02580789-495.15209912.01504688-5.52095068-7.97642578-11.96639209-9.95241797-21.48549829-6.58689258.0128584-4.13200195.0257168-8.26402148.0385752-12.39602344ZM543.80813766,65.11724318c-164.58853405.01704676-329.17706068.01250563-493.76559814.00613477-1.55075098,5.93423438-3.10150195,11.86848633-4.6521167,17.80258008,166.13745192.02213051,332.27466253.02830623,498.41205469.03366211.00189844-5.94745312.00376172-11.89492383.00566016-17.84237695Z"/>
  <path class="cls-2" d="M48.65160116,55.62074118c-5.52001953-7.97003174-11.97003174-9.95001221-21.49005127-6.58001709-3.20996094,2.23999023-5.94995117,4.90002441-7,8.79998779C13.53160604,82.4407485,6.89159139,107.04072409.39159139,131.68073873c-3.39001465,15.21002197,16.04998779,24.10998535,26.70001221,13.47998047,3.82995605-5.13995361,4.48999023-11.42999268,6.13000488-17.33996582,5.75994873-20.86004639,11.36999512-41.75,16.81994629-62.70001221.52001953-3.30999756-.16998291-6.44000244-1.38995361-9.5ZM5.5615743,133.47071676c-.01000977-13.53997803,21.10998535-12.92999268,20.48999023.5-.59997559,12.92004395-20.47998047,12.45001221-20.48999023-.5Z"/>
</svg>