<?xml version="1.0" encoding="UTF-8"?>
<svg id="Layer_1" data-name="Layer 1" xmlns="http://www.w3.org/2000/svg" viewBox="0 0 68.69995117 566.40314364">
  <defs>
    <style>
      .cls-1 {
        fill: #ff1733;
      }

      .cls-2 {
        fill: #fc86b7;
      }
    </style>
  </defs>
  <path class="cls-1" d="M68.69995117,21.2131412c0,.98999023-.63000488,179.85998535-.7699585,215.55999756v.00994873c-.05999756,11.63000488-.92004395,241.09002686-.92999268,244.43005371h.00994873v.00994873c-.15997314,4.55999756-11,45.01000977-15.09997559,60.9800415-1.80999756,7.22998047-3.58001709,14.4699707-5.46002197,21.69000244-.44000244,1.70001221-1.88995361,2.51000977-3.63000488,2.51000977-1.72998047,0-3.16998291-.7800293-3.62994385-2.49005127-1.85003662-7.10998535-3.60003662-14.25994873-5.39001465-21.38995361-3.66003418-14.2300415-13.85998535-54.69000244-15.29998779-60.70001221-.01000977-7.60003662-.79003906-260.47003174-.7800293-263.72003174v-.00994873c-.07000732-.7300415-.72998047-159.16003418-.88000488-196.87005615h-4.48999023v142.74005127H0V12.30310702h26.9699707C27.31994629,7.45313143,25.06994629-.27691007,32.29998779.01312899c6.95001221.15997314,13.89996338.15997314,20.85998535-.01000977,3.91998291-.09002686,5.45001221,1.77001953,5.46002197,5.40997314,0,5.27001953.02996826,10.54003906.05999756,15.80004883h10.0199585Z"/>
  <path class="cls-2" d="M68.69000244,21.2131412h-10.01000977c-13.95001221.00994873-27.90002441.00994873-41.84002686.00994873.15002441,37.71002197.80999756,196.14001465.88000488,196.87005615v.00994873c.02001953.02001953.0300293.04003906.04998779.07000732,11.30999756,15.15002441,31.27001953,23.58001709,49.89001465,18.67999268.09002686-.0199585.17999268-.04998779.27001953-.07000732v-.00994873c.13995361-35.70001221.7699585-214.57000732.7699585-215.55999756h-.00994873ZM67,481.2131412c-6.92004395.09997559-43.33001709.50994873-48.5.60998535,1.44000244,6.01000977,11.63995361,46.4699707,15.29998779,60.70001221,6-1.9800415,12.03997803-2,18.10998535-.32000732,4.09997559-15.97003174,14.94000244-56.42004395,15.09997559-60.9800415v-.00994873h-.00994873Z"/>
</svg>