<?xml version="1.0" encoding="UTF-8"?>
<svg id="Layer_1" data-name="Layer 1" xmlns="http://www.w3.org/2000/svg" viewBox="0 0 554.89917273 494.24130597">
  <defs>
    <style>
      .cls-1 {
        fill: #3d363c;
      }

      .cls-2 {
        fill: #ffc70e;
      }
    </style>
  </defs>
  <path class="cls-2" d="M552.58172019,62.24987486c-17.21002197-20.07000732-34.34997559-40.21002197-51.66998291-60.20001221-3.32000732-3.82000732-6.80999756-1.60003662-9.82000732.98999023-21.41003418,18.47998047-67.75,58.66998291-70.30999756,60.95001221-.02001953.02001953-.04003906.03997803-.04998779.04998779-1.70001221,1.45001221-3.41003418,2.90002441-5.10003662,4.35998535-5.77996826,4.9800415-11.54998779,9.97003174-17.32000732,14.96002197-.01000977.01000977-.01000977.02001953-.02996826.02001953-1.29998779,1.09997559-2.58001709,2.16998291-3.88000488,3.27996826-5.2300415,4.54998779-10.47003174,9.10998535-15.71002197,13.66003418l-3.83001709,3.31994629c-5.66998291,4.88000488-11.32995605,9.76000977-16.98999023,14.65002441-1.2699585,1.04998779-2.5199585,2.09997559-3.78997803,3.17999268-5.59002686,4.84002686-11.17999268,9.70001221-16.77001953,14.54003906h-.01000977c-1.7699585,1.53997803-3.54998779,3.06994629-5.32995605,4.60998535-5.34002686,4.58996582-10.67004395,9.17999268-16.01000977,13.7699585-1.33001709,1.15002441-2.64001465,2.29003906-3.97998047,3.46002197-5.52001953,4.76000977-11.04003906,9.52001953-16.55004883,14.2800293-1.38995361,1.19000244-2.7699585,2.38000488-4.15997314,3.57995605-5.21002197,4.52001953-10.44000244,9.04003906-15.65002441,13.58001709h-.01000977c-1.23999023,1.03997803-2.4699707,2.09002686-3.7199707,3.14001465-5.33001709,4.61999512-10.65997314,9.22998047-15.97998047,13.84997559h-.01000977c-1.84002686,1.58001709-3.66003418,3.15002441-5.5,4.73999023-5.90002441,5.08001709-11.79003906,10.17004395-17.69000244,15.25-1.33001709,1.15002441-2.66998291,2.30999756-4,3.47003174-5.30999756,4.55999756-10.63000488,9.14001465-15.94000244,13.70001221-.01000977.0199585-.0300293.03997803-.05999756.05999756-1.33001709,1.13995361-2.66003418,2.27996826-3.98999023,3.41998291-5.55999756,4.80999756-11.11999512,9.60998535-16.69000244,14.42999268,0,.01000977-.01000977.01000977-.01000977.01000977-1.30999756,1.13000488-2.60998535,2.27001953-3.92999268,3.41998291-4.92999268,4.22003174-9.85003662,8.44000244-14.77001953,12.66998291h-.01000977c-1.9699707,1.75-3.95001221,3.49005127-5.91998291,5.24005127-5.51000977,4.73999023-11.02001953,9.4699707-16.52001953,14.19995117-1.28997803,1.11004639-2.57000732,2.2300415-3.84997559,3.35003662-5.66998291,4.88000488-11.35003662,9.77996826-17.02001953,14.65997314-1.29998779,1.13000488-2.59997559,2.27001953-3.89001465,3.39001465l-17.39996338,14.96002197c-1.39001465,1.19995117-2.76000977,2.36999512-4.15002441,3.57000732-4.89996338,4.25994873-9.80999756,8.50994873-14.7199707,12.7699585-2.13000488,1.83001709-4.27001953,3.66003418-6.41003418,5.4800415-4.88995361,4.25-9.7699585,8.48999023-14.65997314,12.73999023-1.47003174,1.23999023-2.95001221,2.48999023-4.44000244,3.72998047-.0300293.02001953-.04998779.04998779-.08001709.07000732-5.69000244,4.91998291-11.38000488,9.82000732-17.08996582,14.75h-.01000977c-1.41998291,1.25-2.85003662,2.51000977-4.27001953,3.76000977-5.36999512,4.64001465-10.73999023,9.27996826-16.10998535,13.90997314-1.47998047,1.26000977-2.96002197,2.51000977-4.46002197,3.79998779-.02996826.02001953-13.89996338,11.7300415-20.64001465,17.76000977-2.64996338,2.36999512-1.83996582,5.22003174.2800293,7.65002441,14.22998047,16.33001709,47.94000244,54.39996338,50.09997559,57.44000244,3.44000244,4.84997559,6.80004883,4.35998535,10.89001465.84997559,42.48999023-36.44000244,444.52001953-380.27996826,488.32000732-417.75,4.04998779-3.45996094,5.03997803-7.19000244,1.32000732-11.52996826ZM504.12169822,72.84985044c-8.80999756,2.16003418-17.45001221-3.05999756-19.64996338-11.88000488-2.17999268-8.73999023,3.08996582-17.4699707,11.86999512-19.64996338,8.70996094-2.17004395,17.5199585,3.16998291,19.67999268,11.89996338,2.16998291,8.80999756-3.08001709,17.47003174-11.90002441,19.63000488Z"/>
  <path class="cls-1" d="M449.82171043,99.96984556c-9.67999268-11.98999023-19.39001465-23.95001221-29.08996582-35.92999268-1.70001221,1.45001221-3.41003418,2.90002441-5.10003662,4.35998535,9.64001465,12.02001953,19.25,24.05999756,28.94000244,36.04003906,1.26000977,1.55999756,3.09002686,2.13000488,4.85998535.75,1.92999268-1.51000977,1.84002686-3.41003418.39001465-5.22003174ZM398.2817324,83.38982847v-.00994873c-1.29998779,1.09997559-2.58001709,2.16998291-3.88000488,3.27996826,5.97998047,6.91998291,11.95001221,13.85998535,17.9699707,20.73999023,1.25,1.42999268,2.63000488,3.66003418,4.86004639,1.79003906,2.28997803-1.92999268.25-3.55004883-1.01000977-5-5.96002197-6.96002197-11.95001221-13.86999512-17.94000244-20.80004883ZM378.69170554,100.31988218l-3.83001709,3.31994629c5.76000977,6.89001465,11.52001953,13.7800293,17.29003906,20.66003418,1.14001465,1.34997559,2.5,2.55999756,4.2199707,1.05999756,1.70001221-1.47003174.76000977-3-.38000488-4.36999512-5.75994873-6.89001465-11.5199585-13.7800293-17.29998779-20.66998291ZM357.87169822,118.28985288c-1.2699585,1.04998779-2.5199585,2.09997559-3.78997803,3.17999268,6.04998779,6.72998047,12.08996582,13.47998047,18.15002441,20.21002197,1.22998047,1.38000488,2.64996338,2.67999268,4.43994141,1.08996582,1.68005371-1.5199585.61004639-3.07000732-.54998779-4.35998535-6.07000732-6.72998047-12.16998291-13.41998291-18.25-20.11999512ZM337.31170066,136.00988462h-.01000977c-1.7699585,1.53997803-3.54998779,3.06994629-5.32995605,4.60998535,9.88000488,11,19.73999023,22.01000977,29.64996338,32.97998047,1.58001709,1.73999023,3.5,3.15002441,5.72003174,1.0300293,2.14001465-2.02001953,1.10998535-4.0300293-.52001953-5.84002686-9.83001709-10.91998291-19.66998291-21.84997559-29.51000977-32.77996826ZM315.96172507,154.38982847c-1.33001709,1.15002441-2.64001465,2.29003906-3.97998047,3.46002197,5.83996582,6.70001221,11.67999268,13.40002441,17.52996826,20.09997559,1.26000977,1.43005371,2.84002686,2.40002441,4.5300293.90002441,1.63995361-1.47998047,1.0199585-3.09997559-.30999756-4.58996582-5.94000244-6.61004639-11.85003662-13.24005127-17.77001953-19.87005615ZM295.43169578,172.12987974c-1.38995361,1.19000244-2.7699585,2.38000488-4.15997314,3.57995605,5.53997803,6.46002197,11.05999756,12.92999268,16.59997559,19.38000488,1.22003174,1.42004395,2.67999268,2.58001709,4.47003174,1.01000977,1.72998047-1.52996826.95996094-3.10998535-.29998779-4.58996582-5.55004883-6.46002197-11.08001709-12.92004395-16.61004639-19.38000488ZM275.62169822,189.28985288h-.01000977c-1.23999023,1.03997803-2.4699707,2.09002686-3.7199707,3.14001465,5.57000732,6.84997559,11.15002441,13.70001221,16.76000977,20.5199585,1.02996826,1.26000977,2.35998535,2.17004395,3.90997314.92004395,1.45001221-1.19000244,1.19000244-2.65002441.09002686-3.98999023-5.66998291-6.86999512-11.35998535-13.7300415-17.0300293-20.59002686ZM255.91173728,206.27984312h-.01000977c-1.84002686,1.58001709-3.66003418,3.15002441-5.5,4.73999023,9.4699707,11.17999268,18.95001221,22.35003662,28.42999268,33.51000977,1.57000732,1.85003662,3.52001953,2.76000977,5.59997559.96002197,2.36004639-2.04003906,1.19000244-4.20001221-.38000488-6.07000732-9.34997559-11.07000732-18.75994873-22.09997559-28.13995361-33.14001465ZM232.71172507,226.26983335c-1.33001709,1.15002441-2.66998291,2.30999756-4,3.47003174,6.2199707,6.79998779,12.45001221,13.58001709,18.64001465,20.39001465,1.27996826,1.38995361,2.65997314,2.63000488,4.44000244,1.04998779,1.72998047-1.54003906.87994385-3.10998535-.43005371-4.54003906-6.22998047-6.77996826-12.42999268-13.57995605-18.64996338-20.36999512ZM212.71172507,243.50988462v-.01000977c-1.33001709,1.13995361-2.66003418,2.27996826-3.98999023,3.41998291,5.9699707,6.80999756,11.9699707,13.61999512,17.89996338,20.4699707,1.30999756,1.5,2.72003174,2.55004883,4.46002197,1.10003662,1.78997803-1.5.79998779-3.16998291-.42999268-4.55999756-5.97003174-6.82000732-11.96002197-13.63000488-17.94000244-20.41998291ZM192.02172263,261.36986997v-.01000977c-1.30999756,1.13000488-2.60998535,2.27001953-3.92999268,3.41998291,5.78997803,6.9800415,11.57000732,13.97003174,17.39996338,20.92999268,1.11004639,1.33001709,2.5300293,2.22003174,4.13000488.89001465,1.64001465-1.35998535,1.16003418-2.92999268-.07000732-4.39001465-5.84997559-6.94995117-11.67999268-13.89996338-17.52996826-20.83996582ZM173.32171043,277.44982603h-.01000977c-1.9699707,1.75-3.95001221,3.49005127-5.91998291,5.24005127,9.65002441,11.39996338,19.29998779,22.79998779,28.96002197,34.20996094,1.69995117,2.01000977,3.73999023,3.32000732,6.13995361,1.36004639,2.46002197-1.99005127,1.80999756-4.26000977-.03997803-6.42004395-9.72998047-11.45996094-19.42999268-22.92999268-29.13000488-34.39001465ZM150.87169822,296.88982847c-1.28997803,1.11004639-2.57000732,2.2300415-3.84997559,3.35003662,6.20001221,7.33996582,12.39996338,14.70001221,18.64996338,22.02001953,1.10003662,1.28997803,2.57000732,1.77996826,3.95001221.42999268,1.44000244-1.42004395.85003662-2.89001465-.28997803-4.22003174-6.15002441-7.20001221-12.29998779-14.39001465-18.46002197-21.58001709ZM130.0017031,314.89983823c-1.29998779,1.13000488-2.59997559,2.27001953-3.89001465,3.39001465,6.40002441,7.19000244,12.80999756,14.38000488,19.22003174,21.55999756,1.21002197,1.34997559,2.70001221,2.28997803,4.32000732.77001953,1.52996826-1.41003418.75-2.88000488-.40002441-4.17004395-6.41998291-7.18994141-12.83001709-14.36999512-19.25-21.54998779ZM108.71172507,333.24987486c-1.39001465,1.19995117-2.76000977,2.36999512-4.15002441,3.57000732,6.47003174,7.10998535,12.95001221,14.19995117,19.39001465,21.31994629,1.27001953,1.41003418,2.69000244,2.60003662,4.46002197,1.16003418,1.88000488-1.5300293,1.07995605-3.26000977-.29003906-4.75-6.45996094-7.10998535-12.95001221-14.21002197-19.40997314-21.29998779ZM89.84172996,349.58984068c-2.13000488,1.83001709-4.27001953,3.66003418-6.41003418,5.4800415,9.67999268,10.55999756,19.34002686,21.13995361,29.05999756,31.64996338,1.84002686,2.01000977,4.17999268,2.55999756,6.2800293.41003418,2.32000732-2.40002441,1.14996338-4.68005371-.72998047-6.74005127-9.39001465-10.2699585-18.79003906-20.52996826-28.20001221-30.79998779ZM68.77172263,367.80987241c-1.47003174,1.23999023-2.95001221,2.48999023-4.44000244,3.72998047-.0300293.02001953-.04998779.04998779-.08001709.07000732.04003906-.02001953.07000732-.03997803.09002686-.05999756,5.94000244,6.83001709,11.84997559,13.69000244,17.82995605,20.48999023,1.22003174,1.39001465,2.85003662,1.98999023,4.39001465.53997803,1.5-1.40997314,1.16003418-3-.10998535-4.44995117-5.89001465-6.77001953-11.7800293-13.54003906-17.67999268-20.32000732ZM47.16173728,386.35986021h-.01000977c-1.41998291,1.25-2.85003662,2.51000977-4.27001953,3.76000977,5.96002197,6.84997559,11.92999268,13.67999268,17.89001465,20.53997803,1.27996826,1.47003174,2.77996826,2.01000977,4.36999512.72998047,1.76000977-1.41998291,1.28997803-3.07995605-.01000977-4.57995605-5.97998047-6.82000732-11.97998047-13.63000488-17.9699707-20.45001221ZM26.77172263,404.02984312c-1.47998047,1.26000977-2.96002197,2.51000977-4.46002197,3.79998779,6.10998535,6.93005371,12.22003174,13.85003662,18.30999756,20.79003906,1.38000488,1.54998779,2.98999023,2.42999268,4.73999023.84997559,1.76000977-1.61999512.90002441-3.29998779-.42999268-4.80999756-6.04998779-6.88000488-12.09997559-13.75-18.15997314-20.63000488Z"/>
</svg>