<?xml version="1.0" encoding="UTF-8"?>
<svg id="Layer_1" data-name="Layer 1" xmlns="http://www.w3.org/2000/svg" viewBox="0 0 560 133.01064264">
  <defs>
    <style>
      .cls-1 {
        fill: #086d08;
      }

      .cls-2 {
        fill: #ff9605;
      }

      .cls-3 {
        fill: #0995cc;
      }
    </style>
  </defs>
  <path class="cls-2" d="M461.20307978,77.35176469h24.67627959c4.39197838,20.64876437-5.80359173,47.40705148-28.17527625,52.19664995-16.44610382,3.52098851-35.14375914-2.13561499-43.79614076-17.09063408-5.64438581-9.75584598-7.92646274-21.43020796-9.17796793-32.49400487-1.43774042-12.71049746-2.08035343-26.03727411.79475148-38.59704284,4.67520328-20.42350772,19.30752492-38.12568427,41.37083488-39.15110578,10.86276888-.50487263,21.24337125,3.71596408,28.02817524,12.33624135,8.22194292,10.44620197,9.35427863,23.95066146,10.66807526,36.66339569h-24.92931739c.15758943-5.72970289-.75509097-12.66331837-5.23560062-16.77366955-3.66895416-3.36582381-9.83242271-4.26478281-14.26898627-1.96199219-10.49434726,5.8872537-11.76169452,26.70417311-10.86024024,37.46988761.64602405,9.7490678,2.00034583,29.80463501,14.50630032,32.10874138,13.98057355,2.57579025,17.79689187-14.52367816,16.3991127-24.70646669ZM225.72020236,13.73796337h-26.67853378c-.66509357,37.88683779-1.32810073,75.65506999-1.99341985,113.55514048,9.78552557-.79696946,19.2928073-1.5712328,28.67195363-2.33508292V13.73796337Z"/>
  <path class="cls-3" d="M313.39697392,8.41133155h21.82820398c9.94835921,20.27601198,19.94119082,40.64271682,30.22720945,61.606942V13.18397562h24.92597163v112.85029242h-23.97092403c-8.94068156-17.37987384-17.63637019-34.28352084-26.57036021-51.65042513.67043176,17.73614174,1.32240541,34.98274876,1.98655915,52.55216599h-25.44467844c-.98831731-39.28305685-1.98212319-78.783739-2.98198152-118.52467736ZM142.62136246,102.17217545c-4.81612026.70140831-9.96822706-2.48462747-12.41969759-8.96466583-6.38789816-16.88520768-7.55943387-34.16871212-1.37093784-51.33994537,3.89547017-10.80880428,14.23118661-14.08885989,21.52552475-7.33634821,4.83501069,4.47588573,5.27294917,10.5948067,5.29770409,16.63119246h24.71881596c-.37846882-20.54679215-8.1420078-46.78469488-32.04995949-48.58540991-51.17009428-3.87243687-56.37807093,59.15256457-44.91847481,96.07027869,5.74141308,22.38916521,18.80381767,31.74280476,41.74891133,31.68584913,25.58395914.52340085,40.86871265-28.64510405,35.67631428-52.95859923h-24.63513416c1.47455663,11.01549379-1.4334594,23.38912451-13.57306652,24.79764826Z"/>
  <path class="cls-1" d="M29.13287889,90.34473519c.01836198,29.18869466,39.12658552,15.61197328,27.90420237-2.99884214-5.00937038-8.14222698-17.4611676-9.0569186-25.75284535-11.48160419-8.87631781-2.59565809-17.79690597-6.49133502-23.80522863-13.80467637C-2.57449456,49.82246602-2.08554487,27.62882147,6.51036986,14.69996566,12.09879864,6.29458819,21.89849203,2.19421792,31.59762442.86690664c30.81902451-4.82968455,51.46359813,10.6752513,50.49105073,42.65203847h-24.9356236c.58381772-8.89521294-2.67466897-18.34121825-12.80074861-18.82723804-7.99197306-.38359794-18.05757983,4.174823-17.32057104,13.53737207.86424665,10.97900613,13.27959286,12.85739171,21.660784,15.52301019,9.22727102,2.93470845,18.04952555,7.10248278,25.25679853,13.68999924,12.2603037,11.20602964,16.89374127,30.33995056,9.50761067,45.61841894-8.77335556,18.14797195-33.97399031,22.61122647-51.85155653,18.57585433C9.91336533,126.96678334,2.20270821,109.39067861.70807508,89.00165369c9.6440071.45570112,19.00594998.89805676,28.42480382,1.3430815ZM300.06923865,126.39192688v-25.57121614h-31.98432034v-23.31740907c7.7016572-.4552688,15.22132718-.89978604,22.73590332-1.34402132-.4023192-7.55260136-.79245831-14.87592362-1.17981554-22.14740528h-21.74835666v-24.39213366c10.9187823.53579279,21.96906457,1.07803277,32.57883324,1.59865682V7.66998078h-60.28748763c.83146094,39.52376418,1.65842953,78.83450821,2.49754063,118.7219461h57.38770299ZM502.22956371,126.37125078h57.38142497v-25.51836053h-31.93279927v-23.35285918c7.6243662-.45113358,15.08633108-.89266218,22.68945729-1.3425364-.39893584-7.55842826-.78572918-14.88701353-1.16883841-22.14561962h-21.70681651v-24.39134421c10.88603889.53549205,21.87801457,1.07620951,32.50800822,1.59910794V7.59614833h-60.26667997c.8322316,39.59784099,1.65927537,78.9510274,2.49624367,118.77510246Z"/>
</svg>