<?xml version="1.0" encoding="UTF-8"?>
<svg id="Layer_1" data-name="Layer 1" xmlns="http://www.w3.org/2000/svg" viewBox="0 0 350.39647736 546.20216328">
  <defs>
    <style>
      .cls-1 {
        fill: #f94e03;
      }

      .cls-2 {
        fill: #a89a9f;
      }

      .cls-3 {
        fill: #756a6e;
      }
    </style>
  </defs>
  <path class="cls-1" d="M344.91818048,42.89273341c-15.63995361-39.02996826-59.63995361-54.61999512-94.29998779-33.30999756-21.45996094,13.20001221-31.13000488,33.79998779-35.07995605,57.63000488-4.41003418,26.65002441-8.22003174,53.39001465-12.99005127,79.98999023-1.72998047,15.77001953-19.90997314,28.67999268-27.84997559,33.86999512-.38000488-.04998779-.77001953-.05999756-1.14001465-.15997314-13-3.89001465-20.88000488-12.46002197-24.0199585-25.69000244-5.71002197-24.16998291-8.55004883-48.82000732-12.57000732-73.2800293-2.46002197-15-4.55999756-29.98999023-11.60003662-43.7199707C108.52822687,5.39273341,70.7381878-8.2772495,39.07821466,6.98276026,11.20821954,20.43271143-4.10177802,51.68271143.95821954,84.79275782c5.64996338,37,37.28997803,62.84997559,74.42999268,59.83996582,15.32000732-1.23999023,28.17999268,1.96002197,37.84997559,14.2800293,13.5300293,17.2199707,22.88000488,36.67999268,30.27001953,57.15997314-4.95001221,12.96002197-7.90997314,26.42004395-9.88000488,40.11999512v.01000977c-4.71002197,26.92999268-46.13000488,257.16998291-46.03997803,268.38000488.08996582,11.10998535,6.82000732,19.29998779,16.54998779,20.83001709,1.63000488.25,2.44000244-.29003906,2.91998291-1.85998535,15.82000732-52.5,67.92999268-224.94000244,67.94000244-224.97003174.51000977,1.66003418,45.9800415,151.83001709,68.04998779,225.15002441.61999512,2.07995605,1.63000488,2.78997803,3.57000732,2.33996582,1.58001709-.34997559,3.21002197-.65997314,4.66003418-1.32995605,8.70001221-3.99005127,13.19000244-15.60003662,11.08996582-27.26000977-5.07995605-28.14001465-42.26000977-240.94000244-45.9699707-262.26000977-.01000977-.04003906-.01000977-.09002686-.02001953-.13000488-.95001221-7.26000977-2.42999268-14.41998291-4.33001709-21.47998047-1.63000488-6.11004639-3.61999512-12.11004639-5.45996094-18.16003418.2199707-.5,16.78997803-39.33001709,29.30999756-55.89001465,9.2699585-12.2699585,21.53997803-17.63000488,36.91998291-15.69995117,10.65002441,1.31994629,21.04998779-.02001953,31.10998535-3.60003662,37.65002441-13.40997314,56.58001709-58.45996094,40.98999023-97.36999512ZM70.54818536,123.65274317c-25.09997559-.40002441-45.63000488-22.21002197-45.16998291-47.97998047.46002197-24.84002686,19.83001709-44.55999756,43.44000244-44.20001221,26.19000244.39996338,46.2800293,21.86999512,45.89001465,49.05999756-.34002686,24.07000732-20.23999023,43.5-44.16003418,43.11999512ZM278.75820734,122.9427212c-24.20001221-.02996826-43.23999023-20-43.17999268-45.32000732.05999756-25.77996826,21.02001953-46.92999268,46.45001221-46.85998535,23.77996826.05999756,42.92999268,20.09002686,42.88995361,44.86999512-.04998779,26.04998779-20.81994629,47.34002686-46.15997314,47.30999756Z"/>
  <path class="cls-2" d="M175.21822931,202.83273585c-9.66003418-.09997559-18.20001221,8.26000977-18.2300415,17.83001709-.02996826,10.53997803,7.94000244,18.72998047,18.2800293,18.77996826,10,.05004883,18.26000977-8.13000488,18.33996582-18.14996338.07000732-10.05999756-8.17999268-18.35003662-18.38995361-18.46002197ZM251.27822687,544.74277003c-1.45001221.66998291-3.08001709.97998047-4.66003418,1.32995605-1.94000244.45001221-2.95001221-.26000977-3.57000732-2.33996582-22.06994629-73.32000732-67.53997803-223.48999023-68.04998779-225.15002441-.01000977.0300293-52.11999512,172.47003174-67.94000244,224.97003174-.47998047,1.56994629-1.28997803,2.10998535-2.91998291,1.85998535-9.72998047-1.5300293-16.46002197-9.72003174-16.54998779-20.83001709-.09002686-11.21002197,41.32995605-241.45001221,46.03997803-268.38000488v-.01000977c6.63000488-3.30999756,13.64001465-5.27996826,20.97003174-6.20996094.0199585-.07000732.04998779-.15002441.07995605-.22003174,21-3.2699585,41.5300293-1.13000488,61.69000244,5.33001709.01000977.03997803.02001953.08996582.0300293.13000488,3.70996094,21.32000732,40.89001465,234.11999512,45.9699707,262.26000977,2.10003662,11.65997314-2.38995361,23.2699585-11.08996582,27.26000977Z"/>
  <path class="cls-3" d="M174.99819757,318.57272608v.01000977c-.01000977.0300293-52.11999512,172.47003174-67.94000244,224.97003174-.47998047,1.56994629-1.28997803,2.10998535-2.91998291,1.85998535-9.72998047-1.5300293-16.46002197-9.72003174-16.54998779-20.83001709-.09002686-11.21002197,41.32995605-241.45001221,46.03997803-268.38000488v-.01000977c6.63000488-3.30999756,13.64001465-5.27996826,20.97003174-6.20996094,3.09997559,10.44995117,16.69995117,56.16998291,20.39996338,68.58996582Z"/>
</svg>