<?xml version="1.0" encoding="UTF-8"?>
<svg id="Layer_1" data-name="Layer 1" xmlns="http://www.w3.org/2000/svg" viewBox="0 0 492.81189459 519.74871404">
  <defs>
    <style>
      .cls-1 {
        fill: #ff1733;
      }

      .cls-2 {
        fill: #a89a9f;
      }

      .cls-3 {
        fill: #ada7a9;
      }

      .cls-4 {
        fill: #756a6e;
      }
    </style>
  </defs>
  <g>
    <g>
      <path class="cls-3" d="M492.81189459,134.508652c0,.25-.02001953.51000977-.07000732.76000977-6.51000977,36.37994385-14.97998047,72.75-23.79998779,108.63995361-.57000732,2.29998779-2.04998779,4.27001953-4.10003662,5.46002197-1.25.7199707-2.65997314,1.10998535-4.09997559,1.15997314l-50.72998047,1.44000244-60.0300293,246.40002441c-.98999023,4.07000732-3.97998047,7.39001465-7.9699707,8.67999268-12.22003174,3.96002197-35.16003418-.38000488-42.15002441-4.2199707-3.58001709,4.94995117-9.19000244,10.19995117-14.86999512,12.62994385-13.09002686,5.60003662-60.9699707,5.52001953-74.55999756.91003418-7.15002441-2.44000244-12.75-7.82000732-17.41998291-13.53997803-6.79003906,3.69995117-28.13000488,7.79998779-40.54003906,4.66998291-4.73999023-1.20001221-8.36999512-5.04998779-9.5199585-9.80999756l-59.9800415-245.96002197-51.14996338-1.20001221c-1.21002197-.02996826-2.42999268-.19995117-3.55999756-.63000488-2.4800415-.94995117-4.09002686-2.70996094-4.67999268-5.75L.53186529,140.14860562c-.05999756-.28997803-.11999512-.58996582-.15997314-.88995361-.47998047-3.59002686-.85998535-5.86999512,1.29998779-8.2800293.70001221-.77996826,1.57000732-1.39996338,2.48999023-1.91998291l42.79003906-23.72003174-10.90002441-46.33996582c-.13000488-.54003906-.19000244-1.10003662-.19000244-1.66003418,0-.13995361,0-.27996826.01000977-.41998291.08001709-1.27996826.48999023-2.52001953,1.21002197-3.58001709,8.00994873-11.78997803,38.02996826-18.2699585,48.50994873-12.75,4.70001221-23.19995117,36.01000977-30.23999023,55.82000732-34.4699707C164.1818897,1.24864224,187.88190191-1.491348,211.16187017.84861782l-17.77996826,10.59002686c-42.79998779,26.34997559-31.65002441,74.95001221-22.63000488,116.07000732,7.22998047,32.9699707,15.65997314,69.4699707,24.88000488,101.83996582,9.70001221,34.04998779,16.20996094,38.2800293,51.52996826,38.17999268,33.36999512-.08996582,40.23999023-3.90997314,49.73999023-36.2199707,8.08001709-27.51000977,14.67004395-58.41003418,21.20001221-86.52001953,10.67999268-45.9699707,29.91003418-105.89996338-21.07995605-135.20001221l-15.01000977-8.73999023c29.19000244-2.38000488,61.26000977,1.52001953,89.20996094,10.29003906,14.9800415,4.69995117,32.76000977,11.9699707,36.35003662,29.15997314,6.32995605-3.02996826,22.42999268-.79998779,29.20996094,1.17999268,4.30004883,1.25,13.04003906,5.09002686,17.63000488,9.85003662,2.26000977,2.33996582,3.04003906,5.73999023,2.2800293,8.88995361l-10.77001953,44.69000244,44.66003418,25.72003174c.78997803.45001221,1.41998291,1.14001465,1.80999756,1.9699707.2699585.60003662.41998291,1.25.41998291,1.91003418Z"/>
      <path class="cls-3" d="M492.81189459,134.508652c0,.25-.02001953.51000977-.07000732.76000977-6.51000977,36.37994385-14.97998047,72.75-23.79998779,108.63995361-.57000732,2.29998779-2.04998779,4.27001953-4.10003662,5.46002197-1.25.7199707-2.65997314,1.10998535-4.09997559,1.15997314l-50.72998047,1.44000244-60.0300293,246.40002441c-.98999023,4.07000732-3.97998047,7.39001465-7.9699707,8.67999268-12.22003174,3.96002197-35.16003418-.38000488-42.15002441-4.2199707-3.58001709,4.94995117-9.19000244,10.19995117-14.86999512,12.62994385-13.09002686,5.60003662-60.9699707,5.52001953-74.55999756.91003418-7.15002441-2.44000244-12.75-7.82000732-17.41998291-13.53997803-6.79003906,3.69995117-28.13000488,7.79998779-40.54003906,4.66998291-4.73999023-1.20001221-8.36999512-5.04998779-9.5199585-9.80999756l-59.9800415-245.96002197-51.14996338-1.20001221c-1.21002197-.02996826-2.42999268-.19995117-3.55999756-.63000488-2.4800415-.94995117-4.09002686-2.70996094-4.67999268-5.75L.53186529,140.14860562c-.05999756-.28997803-.11999512-.58996582-.15997314-.88995361-.47998047-3.59002686-.85998535-5.86999512,1.29998779-8.2800293.70001221-.77996826,1.57000732-1.39996338,2.48999023-1.91998291l42.79003906-23.72003174-10.90002441-46.33996582c-.13000488-.54003906-.19000244-1.10003662-.19000244-1.66003418,0-.13995361,0-.27996826.01000977-.41998291.08001709-1.27996826.48999023-2.52001953,1.21002197-3.58001709,8.00994873-11.78997803,38.02996826-18.2699585,48.50994873-12.75,4.70001221-23.19995117,36.01000977-30.23999023,55.82000732-34.4699707C164.1818897,1.24864224,187.88190191-1.491348,211.16187017.84861782l-17.77996826,10.59002686c-42.79998779,26.34997559-31.65002441,74.95001221-22.63000488,116.07000732,7.22998047,32.9699707,15.65997314,69.4699707,24.88000488,101.83996582,9.70001221,34.04998779,16.20996094,38.2800293,51.52996826,38.17999268,33.36999512-.08996582,40.23999023-3.90997314,49.73999023-36.2199707,8.08001709-27.51000977,14.67004395-58.41003418,21.20001221-86.52001953,10.67999268-45.9699707,29.91003418-105.89996338-21.07995605-135.20001221l-15.01000977-8.73999023c29.19000244-2.38000488,61.26000977,1.52001953,89.20996094,10.29003906,14.9800415,4.69995117,32.76000977,11.9699707,36.35003662,29.15997314,6.32995605-3.02996826,22.42999268-.79998779,29.20996094,1.17999268,4.30004883,1.25,13.04003906,5.09002686,17.63000488,9.85003662,2.26000977,2.33996582,3.04003906,5.73999023,2.2800293,8.88995361l-10.77001953,44.69000244,44.66003418,25.72003174c.78997803.45001221,1.41998291,1.14001465,1.80999756,1.9699707.2699585.60003662.41998291,1.25.41998291,1.91003418Z"/>
    </g>
    <g>
      <path class="cls-3" d="M407.57190435,40.29863003c-.15002441.07000732-.42004395.28997803-.75.59002686-2.54003906,2.2699585-4.2800293,5.29998779-5.08001709,8.61999512l-106.4699707,444.09997559c-.26000977,1.08001709-.38000488,2.19000244-.27001953,3.28997803.29998779,2.96002197,1.78997803,4.24005127,4.85998535,5.93005371-3.58001709,4.94995117-9.19000244,10.19995117-14.86999512,12.62994385-13.09002686,5.60003662-60.9699707,5.52001953-74.55999756.91003418-7.15002441-2.44000244-12.75-7.82000732-17.41998291-13.53997803,2.86999512-1.55999756,5.11999512-3.16003418,5.20996094-6.77001953.10003662-4.16998291-3.7699585-17.34002686-4.91998291-22.32000732C160.61188238,331.78862026,124.60187261,190.41862515,90.94189947,48.74864224c-.63000488-2.66003418-1.91003418-5.15002441-3.86999512-7.04998779-.45001221-.44000244-.92999268-.82000732-1.4800415-1.11004639,4.70001221-23.19995117,36.01000977-30.23999023,55.82000732-34.4699707C164.1818897,1.24864224,187.88190191-1.491348,211.16187017.84861782l-17.77996826,10.59002686c-42.79998779,26.34997559-31.65002441,74.95001221-22.63000488,116.07000732,7.22998047,32.9699707,15.65997314,69.4699707,24.88000488,101.83996582,9.70001221,34.04998779,16.20996094,38.2800293,51.52996826,38.17999268,33.36999512-.08996582,40.23999023-3.90997314,49.73999023-36.2199707,8.08001709-27.51000977,14.67004395-58.41003418,21.20001221-86.52001953,10.67999268-45.9699707,29.91003418-105.89996338-21.07995605-135.20001221l-15.01000977-8.73999023c29.19000244-2.38000488,61.26000977,1.52001953,89.20996094,10.29003906,14.9800415,4.69995117,32.76000977,11.9699707,36.35003662,29.15997314Z"/>
      <path class="cls-3" d="M407.57190435,40.29863003c-.15002441.07000732-.42004395.28997803-.75.59002686-2.54003906,2.2699585-4.2800293,5.29998779-5.08001709,8.61999512l-106.4699707,444.09997559c-.26000977,1.08001709-.38000488,2.19000244-.27001953,3.28997803.29998779,2.96002197,1.78997803,4.24005127,4.85998535,5.93005371-3.58001709,4.94995117-9.19000244,10.19995117-14.86999512,12.62994385-13.09002686,5.60003662-60.9699707,5.52001953-74.55999756.91003418-7.15002441-2.44000244-12.75-7.82000732-17.41998291-13.53997803,2.86999512-1.55999756,5.11999512-3.16003418,5.20996094-6.77001953.10003662-4.16998291-3.7699585-17.34002686-4.91998291-22.32000732C160.61188238,331.78862026,124.60187261,190.41862515,90.94189947,48.74864224c-.63000488-2.66003418-1.91003418-5.15002441-3.86999512-7.04998779-.45001221-.44000244-.92999268-.82000732-1.4800415-1.11004639,4.70001221-23.19995117,36.01000977-30.23999023,55.82000732-34.4699707C164.1818897,1.24864224,187.88190191-1.491348,211.16187017.84861782l-17.77996826,10.59002686c-42.79998779,26.34997559-31.65002441,74.95001221-22.63000488,116.07000732,7.22998047,32.9699707,15.65997314,69.4699707,24.88000488,101.83996582,9.70001221,34.04998779,16.20996094,38.2800293,51.52996826,38.17999268,33.36999512-.08996582,40.23999023-3.90997314,49.73999023-36.2199707,8.08001709-27.51000977,14.67004395-58.41003418,21.20001221-86.52001953,10.67999268-45.9699707,29.91003418-105.89996338-21.07995605-135.20001221l-15.01000977-8.73999023c29.19000244-2.38000488,61.26000977,1.52001953,89.20996094,10.29003906,14.9800415,4.69995117,32.76000977,11.9699707,36.35003662,29.15997314Z"/>
    </g>
    <g>
      <path class="cls-3" d="M407.5758897,40.29863247c-.15551145.07453635-.42343647.28662112-.75641403.5855204-2.53739753,2.27771002-4.27925405,5.30817989-5.07423086,8.62395447l-106.4762598,444.1026059c-.25751391,1.07406662-.3809328,2.18406464-.27027063,3.2830125.29835242,2.96283514,1.79494774,4.24339404,4.86517532,5.93290673-3.57809224,4.95132489-9.1900482,10.20054404-14.87334031,12.63065969-13.09041155,5.59732163-60.9725509,5.52625905-74.55420416.90888479-7.1591732-2.43391444-12.75686724-7.82161877-17.42045552-13.53954448,2.86563682-1.56245899,5.11741232-3.15398804,5.20696025-6.76595516.10343446-4.17208827-3.77296696-17.34542047-4.91896025-22.32204484l53.856-206.208c33.37424455-.09332997,40.24129151-3.91162819,49.74124909-36.22675091,8.08504162-27.5021346,14.66890577-58.40743383,21.19818262-86.51381738,10.67966751-45.97244657,29.91015292-105.90628178-21.07680323-135.2020602l-15.01276841-8.74348199c29.18824997-2.37756652,61.26602817,1.52623983,89.20975287,10.29049753,14.98378689,4.69950842,32.75962957,11.96955087,36.35638705,29.16361295ZM245.37649261,437.25349102c-37.67630412,1.45980734-30.91160856,61.00495404,7.2047768,52.70652116,30.80707302-6.70710051,25.31941946-53.96670475-7.2047768-52.70652116Z"/>
      <path class="cls-3" d="M407.5758897,40.29863247c-.15551145.07453635-.42343647.28662112-.75641403.5855204-2.53739753,2.27771002-4.27925405,5.30817989-5.07423086,8.62395447l-106.4762598,444.1026059c-.25751391,1.07406662-.3809328,2.18406464-.27027063,3.2830125.29835242,2.96283514,1.79494774,4.24339404,4.86517532,5.93290673-3.57809224,4.95132489-9.1900482,10.20054404-14.87334031,12.63065969-13.09041155,5.59732163-60.9725509,5.52625905-74.55420416.90888479-7.1591732-2.43391444-12.75686724-7.82161877-17.42045552-13.53954448,2.86563682-1.56245899,5.11741232-3.15398804,5.20696025-6.76595516.10343446-4.17208827-3.77296696-17.34542047-4.91896025-22.32204484l53.856-206.208c33.37424455-.09332997,40.24129151-3.91162819,49.74124909-36.22675091,8.08504162-27.5021346,14.66890577-58.40743383,21.19818262-86.51381738,10.67966751-45.97244657,29.91015292-105.90628178-21.07680323-135.2020602l-15.01276841-8.74348199c29.18824997-2.37756652,61.26602817,1.52623983,89.20975287,10.29049753,14.98378689,4.69950842,32.75962957,11.96955087,36.35638705,29.16361295ZM245.37649261,437.25349102c-37.67630412,1.45980734-30.91160856,61.00495404,7.2047768,52.70652116,30.80707302-6.70710051,25.31941946-53.96670475-7.2047768-52.70652116Z"/>
    </g>
  </g>
  <g>
    <path class="cls-1" d="M492.81189459,134.508652c0,.25-.02001953.51000977-.07000732.76000977-6.51000977,36.37994385-14.97998047,72.75-23.79998779,108.63995361-.57000732,2.29998779-2.04998779,4.27001953-4.10003662,5.46002197-1.25.7199707-2.65997314,1.10998535-4.09997559,1.15997314l-50.72998047,1.44000244-60.0300293,246.40002441c-.98999023,4.07000732-3.97998047,7.39001465-7.9699707,8.67999268-12.22003174,3.96002197-35.16003418-.38000488-42.15002441-4.2199707-3.58001709,4.94995117-9.19000244,10.19995117-14.86999512,12.62994385-13.09002686,5.60003662-60.9699707,5.52001953-74.55999756.91003418-7.15002441-2.44000244-12.75-7.82000732-17.41998291-13.53997803-6.79003906,3.69995117-28.13000488,7.79998779-40.54003906,4.66998291-4.73999023-1.20001221-8.36999512-5.04998779-9.5199585-9.80999756l-59.9800415-245.96002197-51.14996338-1.20001221c-1.21002197-.02996826-2.42999268-.19995117-3.55999756-.63000488-2.4800415-.94995117-4.09002686-2.70996094-4.67999268-5.75L.53186529,140.14860562c-.05999756-.28997803-.11999512-.58996582-.15997314-.88995361-.47998047-3.59002686-.85998535-5.86999512,1.29998779-8.2800293.70001221-.77996826,1.57000732-1.39996338,2.48999023-1.91998291l42.79003906-23.72003174-10.90002441-46.33996582c-.13000488-.54003906-.19000244-1.10003662-.19000244-1.66003418,0-.13995361,0-.27996826.01000977-.41998291.08001709-1.27996826.48999023-2.52001953,1.21002197-3.58001709,8.00994873-11.78997803,38.02996826-18.2699585,48.50994873-12.75,4.70001221-23.19995117,36.01000977-30.23999023,55.82000732-34.4699707C164.1818897,1.24864224,187.88190191-1.491348,211.16187017.84861782l-17.77996826,10.59002686c-42.79998779,26.34997559-31.65002441,74.95001221-22.63000488,116.07000732,7.22998047,32.9699707,15.65997314,69.4699707,24.88000488,101.83996582,9.70001221,34.04998779,16.20996094,38.2800293,51.52996826,38.17999268,33.36999512-.08996582,40.23999023-3.90997314,49.73999023-36.2199707,8.08001709-27.51000977,14.67004395-58.41003418,21.20001221-86.52001953,10.67999268-45.9699707,29.91003418-105.89996338-21.07995605-135.20001221l-15.01000977-8.73999023c29.19000244-2.38000488,61.26000977,1.52001953,89.20996094,10.29003906,14.9800415,4.69995117,32.76000977,11.9699707,36.35003662,29.15997314,6.32995605-3.02996826,22.42999268-.79998779,29.20996094,1.17999268,4.30004883,1.25,13.04003906,5.09002686,17.63000488,9.85003662,2.26000977,2.33996582,3.04003906,5.73999023,2.2800293,8.88995361l-10.77001953,44.69000244,44.66003418,25.72003174c.78997803.45001221,1.41998291,1.14001465,1.80999756,1.9699707.2699585.60003662.41998291,1.25.41998291,1.91003418Z"/>
    <path class="cls-4" d="M407.57190435,40.29863003c-.15002441.07000732-.42004395.28997803-.75.59002686-2.54003906,2.2699585-4.2800293,5.29998779-5.08001709,8.61999512l-106.4699707,444.09997559c-.26000977,1.08001709-.38000488,2.19000244-.27001953,3.28997803.29998779,2.96002197,1.78997803,4.24005127,4.85998535,5.93005371-3.58001709,4.94995117-9.19000244,10.19995117-14.86999512,12.62994385-13.09002686,5.60003662-60.9699707,5.52001953-74.55999756.91003418-7.15002441-2.44000244-12.75-7.82000732-17.41998291-13.53997803,2.86999512-1.55999756,5.11999512-3.16003418,5.20996094-6.77001953.10003662-4.16998291-3.7699585-17.34002686-4.91998291-22.32000732C160.61188238,331.78862026,124.60187261,190.41862515,90.94189947,48.74864224c-.63000488-2.66003418-1.91003418-5.15002441-3.86999512-7.04998779-.45001221-.44000244-.92999268-.82000732-1.4800415-1.11004639,4.70001221-23.19995117,36.01000977-30.23999023,55.82000732-34.4699707C164.1818897,1.24864224,187.88190191-1.491348,211.16187017.84861782l-17.77996826,10.59002686c-42.79998779,26.34997559-31.65002441,74.95001221-22.63000488,116.07000732,7.22998047,32.9699707,15.65997314,69.4699707,24.88000488,101.83996582,9.70001221,34.04998779,16.20996094,38.2800293,51.52996826,38.17999268,33.36999512-.08996582,40.23999023-3.90997314,49.73999023-36.2199707,8.08001709-27.51000977,14.67004395-58.41003418,21.20001221-86.52001953,10.67999268-45.9699707,29.91003418-105.89996338-21.07995605-135.20001221l-15.01000977-8.73999023c29.19000244-2.38000488,61.26000977,1.52001953,89.20996094,10.29003906,14.9800415,4.69995117,32.76000977,11.9699707,36.35003662,29.15997314Z"/>
    <path class="cls-2" d="M407.5758897,40.29863247c-.15551145.07453635-.42343647.28662112-.75641403.5855204-2.53739753,2.27771002-4.27925405,5.30817989-5.07423086,8.62395447l-106.4762598,444.1026059c-.25751391,1.07406662-.3809328,2.18406464-.27027063,3.2830125.29835242,2.96283514,1.79494774,4.24339404,4.86517532,5.93290673-3.57809224,4.95132489-9.1900482,10.20054404-14.87334031,12.63065969-13.09041155,5.59732163-60.9725509,5.52625905-74.55420416.90888479-7.1591732-2.43391444-12.75686724-7.82161877-17.42045552-13.53954448,2.86563682-1.56245899,5.11741232-3.15398804,5.20696025-6.76595516.10343446-4.17208827-3.77296696-17.34542047-4.91896025-22.32204484l53.856-206.208c33.37424455-.09332997,40.24129151-3.91162819,49.74124909-36.22675091,8.08504162-27.5021346,14.66890577-58.40743383,21.19818262-86.51381738,10.67966751-45.97244657,29.91015292-105.90628178-21.07680323-135.2020602l-15.01276841-8.74348199c29.18824997-2.37756652,61.26602817,1.52623983,89.20975287,10.29049753,14.98378689,4.69950842,32.75962957,11.96955087,36.35638705,29.16361295ZM245.37649261,437.25349102c-37.67630412,1.45980734-30.91160856,61.00495404,7.2047768,52.70652116,30.80707302-6.70710051,25.31941946-53.96670475-7.2047768-52.70652116Z"/>
  </g>
</svg>