<?xml version="1.0" encoding="UTF-8"?>
<svg id="Layer_1" data-name="Layer 1" xmlns="http://www.w3.org/2000/svg" viewBox="0 0 562.40002441 266.9173838">
  <defs>
    <style>
      .cls-1 {
        fill: #025589;
      }

      .cls-2 {
        fill: #43e4ff;
      }

      .cls-3 {
        fill: #a89a9f;
      }

      .cls-4 {
        fill: #756a6e;
      }
    </style>
  </defs>
  <path class="cls-3" d="M562.40002441,266.9173838H0v-37.40997314c.4800415-.0300293,48.54003906-.09997559,49.60998535-.10998535.02001953-10.79003906.04003906-21.59002686.07000732-32.38000488h-.01000977c-8.39996338.51000977-15.98999023-1.46002197-22.43994141-7.16998291-5.81005859-5.14001465-7.15002441-11.9800415-7.31005859-19.20001221-.17999268-8.17999268-.34997559-16.38000488.02001953-24.54998779.33001709-7.57000732,4.19000244-11.57000732,12.22003174-13.95001221,47.54998779-14.0300293,202.70996094-59.97003174,232.72998047-68.92004395-.01000977,0-.02001953-.00994873-.0300293-.00994873-3.22998047-1.18005371-3.16998291-5.7800293.10003662-6.86004639.08996582-.02996826.17999268-.05999756.27001953-.07995605,7.11999512-2.30004883,124.72998047-37.29003906,176.37994385-52.49005127,12.24005127-3.58996582,24.80004883-4.93994141,37.4800415-2.67999268,18.20001221,3.25,30.14001465,13.60003662,35.84997559,31.36999512,5.5300293,17.16003418,11.55999756,34.15002441,17.32000732,51.22003174,1.5,4.45001221,2.59997559,8.9699707,1.64001465,13.71002197-.86999512,4.28997803-3.55999756,6.83996582-7.80999756,7.70996094-15.94000244,3.2300415-31.88000488,6.45001221-47.80999756,9.67999268v63H214.5c-.09997559,17.32000732-.20001221,34.64001465-.29998779,51.97003174h.01000977c15.35998535.03997803,131.95001221.45996094,172.60998535.55999756l.02001953-12.0300293h93.7699585v12.11004639c7.76000977.04998779,45.34002686.15997314,56.5.15997314,8.38000488,12.03997803,16.71002197,24.02001953,25.29003906,36.34997559Z"/>
  <path class="cls-4" d="M398.92999268,130.45742287c-6.86999512,1.26000977-13.40997314,3.03997803-21.16998291-1-38.95001221,8.04998779-147.80999756,30.59997559-163.29998779,33.82995605.02001953,4.84002686.02996826,9.67004395.03997803,14.51000977h263.7800293v-63c-.16003418,0-53,10.83001709-79.35003662,15.66003418ZM450.91003418,158.10738624c-6.17004395-.0199585-10.86004639-4.78997803-10.86004639-11.02996826,0-6.13000488,4.69000244-10.80999756,10.86004639-10.80999756,6.07000732,0,10.67999268,4.73999023,10.67999268,10.97998047,0,6.07000732-4.73999023,10.89001465-10.67999268,10.85998535Z"/>
  <path class="cls-1" d="M537.10998535,230.56740822c-11.15997314,0-48.73999023-.10998535-56.5-.15997314-27.19995117-.02001953-66.58996582-.05999756-93.78997803-.08001709-40.65997314-.10003662-157.25-.52001953-172.60998535-.55999756h-.01000977c-37.63000488-.09002686-147.35998535-.33001709-164.59002686-.36999512-1.06994629.01000977-49.12994385.07995605-49.60998535.10998535v37.40997314h562.40002441c-8.58001709-12.32995605-16.91003418-24.30999756-25.29003906-36.34997559ZM532.26000977,83.6974131c-5.76000977-17.07000732-11.78997803-34.05999756-17.32000732-51.22003174-5.70996094-17.7699585-17.64996338-28.11999512-35.84997559-31.36999512-12.67999268-2.25994873-25.23999023-.90997314-37.4800415,2.67999268-51.64996338,15.20001221-169.25994873,50.19000244-176.37994385,52.49005127-.09002686.0199585-.18005371.04998779-.27001953.07995605-3.27001953,1.08001709-3.33001709,5.67999268-.10003662,6.86004639.01000977,0,.02001953.00994873.0300293.00994873-30.02001953,8.95001221-185.17999268,54.89001465-232.72998047,68.92004395-8.0300293,2.38000488-11.89001465,6.38000488-12.22003174,13.95001221-.36999512,8.16998291-.20001221,16.36999512-.02001953,24.54998779.16003418,7.2199707,1.5,14.05999756,7.31005859,19.20001221,6.44995117,5.70996094,14.03997803,7.67999268,22.43994141,7.16998291h.01000977c54.46002197-11.17999268,164.30999756-33.66003418,164.7800293-33.7300415,15.48999023-3.22998047,124.34997559-25.77996826,163.29998779-33.82995605,7.76000977,4.03997803,14.29998779,2.26000977,21.16998291,1,26.35003662-4.83001709,79.19000244-15.66003418,79.35003662-15.66003418,15.92999268-3.22998047,31.86999512-6.44995117,47.80999756-9.67999268,4.25-.86999512,6.94000244-3.41998291,7.80999756-7.70996094.95996094-4.74005127-.14001465-9.26000977-1.64001465-13.71002197Z"/>
  <path class="cls-2" d="M532.26000977,83.6974131c-5.76000977-17.07000732-11.78997803-34.05999756-17.32000732-51.22003174-5.70996094-17.7699585-17.64996338-28.11999512-35.84997559-31.36999512-12.67999268-2.25994873-25.23999023-.90997314-37.4800415,2.67999268-51.64996338,15.20001221-169.25994873,50.19000244-176.37994385,52.49005127-.09002686.0199585-.18005371.04998779-.27001953.07995605-3.27001953,1.08001709-3.33001709,5.67999268-.10003662,6.86004639.01000977,0,.02001953.00994873.0300293.00994873,1.30999756.30999756,2.64001465.5,3.90002441.92004395,24.94000244,8.60998535,47.86999512,21.17999268,69.89996338,35.5199585,13.75,8.96002197,27.08001709,18.5,39.07000732,29.79003906,7.76000977,4.03997803,14.29998779,2.26000977,21.16998291,1,26.35003662-4.83001709,79.19000244-15.66003418,79.35003662-15.66003418,15.92999268-3.22998047,31.86999512-6.44995117,47.80999756-9.67999268,4.25-.86999512,6.94000244-3.41998291,7.80999756-7.70996094.95996094-4.74005127-.14001465-9.26000977-1.64001465-13.71002197ZM42.7300415,160.71743263c-6.05004883-.01000977-10.7800293,4.82995605-10.7800293,11.00994873,0,6.20001221,4.64001465,10.82000732,10.88000488,10.82000732,6.07000732,0,10.67999268-4.67999268,10.67999268-10.82000732,0-6.16998291-4.72998047-11.00994873-10.77996826-11.00994873Z"/>
</svg>