<?xml version="1.0" encoding="UTF-8"?>
<svg id="Layer_1" data-name="Layer 1" xmlns="http://www.w3.org/2000/svg" viewBox="0 0 566.37599528 266.08602716">
  <defs>
    <style>
      .cls-1 {
        fill: #f94e03;
      }

      .cls-2 {
        fill: #ff9605;
      }
    </style>
  </defs>
  <path class="cls-1" d="M403.35117619,151.71141908h19.75835912c9.27955026,18.91577447,18.63120654,37.97849397,28.24762593,57.58096033v-53.07253721h22.52882506v103.61110573h-21.70226397c-8.26823154-16.07110598-16.33366023-31.74806234-24.8133803-48.23024001.63105869,16.80556904,1.22819834,32.70722962,1.83817931,48.95122531h-23.11750368c-.90907493-36.11246062-1.82159418-72.36344267-2.73984147-108.84051415ZM41.03709549,266.08186858c15.08673855-.21575376,32.31487186-5.12809862,38.85751483-20.12822716,6.20841985-14.23383797.95092619-31.84456108-10.87581842-41.42483441-6.50456514-5.2690531-14.51327791-8.84019674-22.575774-10.91432817-8.02598109-2.06472849-20.30330894-3.06668624-21.91295939-13.31015978-1.30703633-8.31768445,6.63794655-13.15677054,13.91333318-13.77624012,10.26637492-.87414686,14.05496427,7.57972439,14.37610346,16.53310063,7.61175892-.40797258,15.0702785-.80773188,22.51046096-1.20650836,1.48372215-18.74283379-12.52104234-36.09567203-31.29491866-37.44323734-14.13669347-1.01470097-33.21248051,2.07965373-39.88880231,16.34807436-7.4865006,15.99990104-5.39052026,38.00616754,10.864401,47.76042518,7.04470553,4.22737003,15.56069462,5.87715609,23.53226858,7.38714528,7.67726344,1.45422889,17.73072037,4.25640792,18.44143326,13.6673388.62154838,8.23017666-7.45760707,12.94740676-14.75833681,13.11983084-8.88299594.20980254-12.23530061-6.91028113-13.23863285-14.76322158-8.59084207.04800012-17.05214112.09528069-25.85402999.14450709,2.06133408,21.65890294,14.87601037,38.31266738,37.90375718,38.00633473ZM172.17063326,219.15303528c-.13952892,7.82756939-.09778563,15.62401935,3.49168237,22.77270052,9.52866898,18.6508639,37.16915867,24.98263933,54.37031941,13.48153126,13.4051906-9.25625757,13.65517266-24.97219031,14.82655233-39.67081153,1.65437025-20.75913659,3.26777483-41.48906459,4.42936618-62.28178612-7.89961451-.44131423-16.13334959-.90129421-24.49251306-1.36828127-.92660369,16.58639444-1.89213137,33.17082062-2.8480212,49.75556023-.59077527,10.25013834,2.29668144,33.42734656-14.27863346,31.41006083-5.42805478-.66061992-9.50424938-4.73687608-10.57852184-10.03606535-1.51334473-7.46503642,1.3705236-56.58900741,2.28026996-72.8736523l-23.48177822-1.31181628c-1.30360114,23.33472554-3.30211468,46.75380592-3.71872247,70.12256001ZM259.95501376,260.90048309c40.38867868,2.45668696,74.36327452-33.50388211,63.82777118-73.87886706-7.79928036-29.73294999-39.22046958-35.42814607-65.78161588-37.46076079.65374625,37.25335303,1.30341173,74.27507578,1.9538447,111.33962785ZM283.08174596,174.09625673c8.13914455,1.27638134,18.91517546,13.74783961,20.49566748,24.02822589,2.07988048,13.5285265-7.32770851,31.31774741-20.49566748,37.96602704v-61.99425293ZM389.88959001,150.54084816c-18.64039242.45089036-36.83805759.89107163-55.1615907,1.33429752,1.63998507,36.30258187,3.26915054,72.36687422,4.91512003,108.80229335,17.71249541-.42844556,35.34916316-.85505693,52.4996506-1.26990815-.18275869-7.55548147-.36863713-15.23993733-.56166672-23.22003123-10.1747919.2461169-19.80142392.47897442-29.38179583.71071296-.17968874-7.42856558-.35199003-14.55172459-.52565202-21.7311368,7.01995946-.58369328,13.87442632-1.15364669,20.87095237-1.73538753-.53317112-6.86191019-1.05241712-13.54447608-1.5655227-20.1481353-6.72762757.16273383-13.20393099.3193884-19.9858281.48343495-.18172391-7.51270209-.36365875-15.03412474-.54894964-22.6942903,10.02891409.24720947,20.12235309.49596644,29.95978839.73848272-.17680528-7.30935971-.34669932-14.3329996-.51450567-21.27033219ZM109.96014926,176.50435811c.4870432,28.32078022.97929032,56.94454798,1.47321279,85.66572999,9.34761295.51672235,18.49003636,1.02213836,27.1236088,1.49936339v-89.51587684h21.83129481c.65664771-7.53144732,1.29813294-14.8891064,1.955024-22.42349262-25.06127749.97771791-49.89894584,1.94673144-74.96102826,2.92450551v21.84977057h22.57788785ZM512.64404913,175.75911255c-1.04547856,28.31022243-2.10181344,56.91320652-3.16140501,85.60558639,9.26386975,1.01221988,18.32073969,2.00175533,26.95394655,2.94505406,1.63946676-29.87121583,3.26656593-59.51709319,4.90254482-89.32475968,7.06373298.38768946,14.3899621.78978588,21.80755274,1.19689664,1.08477554-7.48841919,2.14791028-14.8271105,3.22930705-22.29222478-25.09444837-.40631818-49.95221791-.80877628-75.02122956-1.21469198-.40956253,7.46226208-.81174923,14.79013601-1.19921915,21.84986912l22.48850256,1.23427023ZM422.72187328,70.94488965c9.33039137,16.05388439,18.56243252,31.93849186,27.85388814,47.92538056h-33.09538911c-6.53072362-14.4040755-12.99956185-28.67172612-19.46843752-42.93935802-.28340735.12700917-.5668147.25403706-.85022204.38106495v40.2835092c-8.48608456.46239949-16.92829153.92240294-25.27907436,1.3774271V7.82385852c21.65849869-4.25313188,55.17959783-8.48606584,68.27402814,14.68433804,4.73776968,8.38341024,5.74336035,19.8203381,2.75470445,28.95079064-3.19011098,9.74591821-11.19256858,15.47827172-20.1894977,19.48590245ZM397.0850767,53.48750244c8.92313838-.64187833,23.52936157-2.1657076,23.20230125-14.10172441-.3409499-12.44418453-14.04629713-11.84346952-23.20230125-11.36942674v25.47115116ZM159.76844429.20715758c-16.89834601-1.26427622-33.61966101,2.99830091-40.56738767,20.00739789-5.23423672,12.8142224-2.07339223,27.85181261,7.32212009,37.89255147,5.66422058,6.05321146,12.79760245,9.12713423,20.52525193,11.71320687,8.05406728,2.69528593,20.24003806,4.60072243,22.00138008,14.65344707,1.49457783,8.53012896-6.27810896,13.76641116-13.95110956,14.05546717-9.69764922.36534661-13.40721103-7.5410546-13.51421794-16.10101945-8.57791583-.76770851-17.048077-1.52579326-25.78217244-2.30750031-.18400259,22.24999923,11.87207669,40.34462989,35.30708103,41.58364038,15.01577838.91231601,31.9995455-2.75631515,39.73067415-17.04134457,7.38318996-13.64213979,3.33831954-31.45680197-7.53229918-41.97758257-6.52645446-6.31638853-14.79824393-10.59111687-23.31708403-13.51348077-7.5325829-2.58402889-18.72884527-5.4602678-18.32409706-15.56727162.33626631-8.39678782,9.10665062-11.77014086,16.37345837-11.2105631,9.65052102.74309627,12.02126623,9.2762825,11.4890501,17.71840973,7.56148509.32034501,14.99893628.63543528,22.73266988.96307766,1.5099168-21.73682576-9.46241391-39.60841886-32.49331773-40.86843586ZM297.08591257,120.41076638c-8.38832541-1.82688255-16.54452461-3.6032141-24.85656915-5.4134687,9.82983184-36.1691158,19.61177935-72.16198496,29.41489808-108.23291136,9.30808542-.33897096,18.5848558-.67680152,28.08666791-1.02282739,11.65294328,35.34375494,23.32778651,70.75393978,35.06289353,106.34684757-8.59816612,2.17510595-17.04046156,4.31076266-25.64282202,6.48693919-2.91826532-9.63834969-5.81208378-19.19588277-8.79571583-29.05009295-8.70303554.31693696-17.40356439.63378263-26.28199406.95710689-2.27730928,9.75424088-4.60556346,19.72670479-6.98735847,29.92840676ZM316.9043936,44.04743528c-2.72502203,8.88827184-5.30347931,17.29844142-7.93380311,25.87786595l15.40235783-.56090504c-2.46279362-8.34843175-4.89605314-16.5967139-7.46855472-25.31696091ZM253.25824368,30.01665681h21.80420825c.67353235-7.5822697,1.33074164-14.98079261,2.00008091-22.51575912-25.12372445.98060066-50.00439996,1.95171072-75.06335628,2.9297843v21.92017315h22.58676071c.50092342,28.35907952,1.00517885,56.90641715,1.51250421,85.62756173,9.28250788.51535586,18.43939181,1.02374821,27.15980221,1.50789931V30.01665681Z"/>
  <path class="cls-2" d="M520.26115807,24.80308568l11.75910607,33.61267859,34.35573114,9.36866997-28.33378577,21.57045827,1.70636548,35.56932527-29.27035047-20.28139711-33.30113887,12.61437865,10.2437206-34.10505566-22.28760658-27.77320578,35.60131911-.79668293,19.52663928-29.77916928ZM65.64147649,54.58225496l35.60131911.79668293-22.28760658,27.77320578,10.24372059,34.10505566-33.30113886-12.61437865-29.27035047,20.2813971,1.70636548-35.56932527L0,67.78443424l34.35573114-9.36866997,11.75910607-33.61267859,19.52663928,29.77916928Z"/>
</svg>