<?xml version="1.0" encoding="UTF-8"?>
<svg id="Layer_1" data-name="Layer 1" xmlns="http://www.w3.org/2000/svg" viewBox="0 0 559.67464263 335.27830117">
  <defs>
    <style>
      .cls-1 {
        fill: #ba5cff;
      }

      .cls-2 {
        fill: #ddced1;
      }

      .cls-3 {
        fill: #595256;
      }

      .cls-4 {
        fill: #a89a9f;
      }

      .cls-5 {
        fill: #7526a8;
      }
    </style>
  </defs>
  <path class="cls-2" d="M553.92321537,79.7682914c-.88000488-.13000488-58.66998291.28997803-58.66998291.28997803,0,0-1.32000732,9.29003906-1.36004639,9.5-65.85998535,14.04003906-138.98999023,9.73999023-197.85998535-24.77996826C261.84319828,11.19828408,195.93322513-12.32173545,134.90319584,6.3182792c-43.92999268,13.41003418-78.9699707,49.73999023-92.47998047,93.39001465-12.95001221-5.15002441-20.34997559-8.34002686-20.34997559-8.34002686C-1.87677242,149.78831093-6.62677242,217.46830361,9.24322269,278.59830849c5.08996582,19.59997559,11.94000244,38.78997803,21.38000488,56.67999268h443.92999268c19.44000244-13.98999023,33.36999512-36.91003418,44.79998779-57.70001221,31.97003174-58.15997314,50.35003662-131.98999023,34.57000732-197.80999756ZM316.51324222,173.95829384c4.02996826-22.76000977,3.23999023-47.63000488-2.83001709-69.80999756,53.86999512,20.77996826,113.86999512,24.82000732,170.70996094,14.94000244-24.15997314,51.86999512-91.66998291,62.45001221-167.87994385,54.86999512Z"/>
  <path class="cls-1" d="M519.35320804,277.57828896c-11.42999268,20.78997803-25.35998535,43.71002197-44.79998779,57.70001221H30.62322758c-9.44000244-17.89001465-16.29003906-37.08001709-21.38000488-56.67999268C-6.62677242,217.46830361-1.87677242,149.78831093,22.07323978,91.36826699c0,0,7.39996338,3.19000244,20.34997559,8.34002686,6.23999023,2.47998047,13.7800293,5.41998291,22.40002441,8.66998291,6.09997559,2.29998779,12.73999023,4.76000977,19.84997559,7.33001709,6.5300293,2.34997559,13.46002197,4.80999756,20.72998047,7.30999756,6.80004883,2.33996582,13.89001465,4.72998047,21.23999023,7.14001465,30.76000977,10.07995605,65.89001465,20.42999268,101.96002197,28.76000977,7.34002686,1.68994141,14.72003174,3.29998779,22.11999512,4.80999756,7.14001465,1.45996094,14.29003906,2.81994629,21.41998291,4.05999756,7.04003906,1.22998047,14.07000732,2.34997559,21.05004883,3.33996582,7.83996582,1.11999512,15.63000488,2.07000732,23.32000732,2.83001709,76.20996094,7.58001709,143.7199707-3,167.87994385-54.86999512,4.69000244-10.08001709,7.47003174-18.58001709,9.5-29.5300293.04003906-.20996094,1.36004639-9.5,1.36004639-9.5,0,0,57.78997803-.41998291,58.66998291-.28997803,15.7800293,65.82000732-2.59997559,139.65002441-34.57000732,197.80999756Z"/>
  <path class="cls-5" d="M519.35003764,277.58071554c-11.42465486,20.78653228-25.35723594,43.70562585-44.79953588,57.69637197H30.62782803c-9.44550409-17.88920888-16.29093035-37.07840408-21.38159667-56.6782007l510.10380628-1.01817127Z"/>
  <path class="cls-3" d="M228.60320804,158.91831582c-36.07000732-8.33001709-71.20001221-18.68005371-101.96002197-28.76000977,5.55004883-19.4800415,22.61004639-35.35003662,43.02001953-37.83001709,39.2800293-4.7800293,67.14001465,29.30999756,58.94000244,66.59002686Z"/>
  <path class="cls-4" d="M316.51324222,173.95829384c-7.69000244-.76000977-15.4800415-1.71002197-23.32000732-2.83001709.39996338-1.69000244.84997559-3.67999268,1.03997803-4.79998779C309.65319584,74.55826943,218.14318607-6.11171348,130.18322513,33.83829873c-30.72003174,13.95001221-55.57000732,42.16998291-65.35998535,74.53997803-8.61999512-3.25-16.16003418-6.19000244-22.40002441-8.66998291C55.93322513,56.05826943,90.97320316,19.72831338,134.90319584,6.3182792c61.0300293-18.64001465,126.94000244,4.88000488,161.13000488,58.46002197,7.09002686,11.10998535,14.17004395,26.65997314,17.65002441,39.36999512,6.07000732,22.17999268,6.85998535,47.04998779,2.83001709,69.80999756ZM166.56323002,47.47831338c-38.16003418,3.50994873-71.05999756,31.94000244-81.89001465,68.22998047,6.5300293,2.34997559,13.46002197,4.80999756,20.72998047,7.30999756,14.51000977-49.67999268,72.91003418-73.79998779,116.26000977-40.38000488,24.60003662,18.96002197,35.67999268,50.77001953,29.05999756,81.09002686,7.14001465,1.45996094,14.29003906,2.81994629,21.41998291,4.05999756,13.62005615-66.43005371-36.31994629-126.68005371-105.57995605-120.30999756Z"/>
</svg>