<?xml version="1.0" encoding="UTF-8"?>
<svg id="Layer_1" data-name="Layer 1" xmlns="http://www.w3.org/2000/svg" viewBox="0 0 534.39159251 545.77126243">
  <defs>
    <style>
      .cls-1 {
        fill: #43e4ff;
      }
    </style>
  </defs>
  <path class="cls-1" d="M8.61176761,315.10545364c-23.22585641-47.05166586,2.65648434-106.37910823,52.11700708-122.95646629C.2858884,108.77460382,96.16138868,9.3524917,180.46882065,61.81701622,208.55125178,15.63484401,248.79185781-7.53192942,302.71727248,2.18729598c53.91751104,9.71779849,83.78129201,45.31433273,93.83034126,98.32670168,46.83903458-30.34177472,106.56332454-8.40993545,127.99092561,35.19800957,27.29564129,52.39557066-4.890298,117.2673261-62.46732999,128.87798637,38.92375604,34.9481453,36.99646775,93.35267031,5.97509881,126.75694518-32.64344263,37.30779915-93.83183117,39.00400992-128.73951705,4.28435749-27.96327016,44.25236513-67.43855406,66.36634011-119.72394525,57.56955701-52.27607898-8.79525715-82.42800999-42.54690191-94.36797418-93.59697867-42.91989586,19.28257888-97.56362188-1.10132446-116.6031041-44.49842096ZM133.26202256,457.841499c.01510298-20.02455949-16.11523461-36.21350918-36.10747528-36.2387069-48.00963957,1.82053129-48.05115289,70.42574102-.0293551,72.27479649,19.9288259-.0078854,36.12184478-16.15559533,36.13683039-36.03608959ZM64.63496941,519.51061588c-.04472204-14.45324136-11.67855739-25.91574002-26.22394259-25.83779924-34.53940566,1.65611218-34.14738843,50.82443955.35596086,52.09844579,14.41013917-.07363974,25.91286028-11.75086682,25.86798173-26.26064655Z"/>
</svg>