<?xml version="1.0" encoding="UTF-8"?>
<svg id="Layer_1" data-name="Layer 1" xmlns="http://www.w3.org/2000/svg" viewBox="0 0 442.38660697 560.4610074">
  <defs>
    <style>
      .cls-1 {
        fill: #66c602;
      }

      .cls-2 {
        fill: #ddced1;
      }

      .cls-3 {
        fill: #086d08;
      }

      .cls-4 {
        fill: #1aa419;
      }
    </style>
  </defs>
  <path class="cls-3" d="M442.38660697,454.7199707c-23.15997314,17.97003174-135.25,106.88000488-136.36999512,105.72998047-.23999023.58001709-204.38000488-31.92999268-305.97998047-50.86999512-.02001953-.5-.05004883-308.39996338-.0300293-308.83996582,0,0,102.83001709-43.72003174,154.32000732-63.21002197-1.20001221-9.70001221-4.59997559-46.03997803,3.30999756-54.02996826C201.10657768,39.55999756,303.22663383,56.19995117,360.60657768,0c.30004883.77996826-3.31994629,49.65997314-10.57995605,76.44000244-3.65002441,11.94995117-10.5,34.55999756-27.7800293,68.14996338l115.25,18.09002686c.15002441,3.45001221,4.89001465,288.38000488,4.89001465,292.03997803Z"/>
  <path class="cls-4" d="M306.02028468,560.44979134c-.25288674.57565956-204.38205372-31.92677067-305.97906692-50.8726705-.02712138-.49882089-.05058185-308.39663893-.03415952-308.83857832,22.52585024,2.54421351,303.60593922,33.30095072,303.60593922,33.30095072,0,0,2.36153706,241.30537282,2.40728723,326.4102981Z"/>
  <path class="cls-1" d="M309.83606459,165.58762804c2.77447733-4.77946931,11.04996171-18.77808318,12.41313651-20.99844316,0,0,115.24574639,18.09291142,115.24625072,18.09280335-44.22960244,24.48905467-89.16332515,47.77570854-133.88213014,71.35777519-.00032421-.00027018-281.08041319-30.75700739-303.60626793-33.3012209,0,0,102.82356342-43.72002846,154.31721135-63.21046333.74896983,5.55641158,1.49792164,11.11316538,2.24730574,16.66955894-10.9069634,1.24302308-47.61914193,5.50480886-43.24408199,21.90906907,3.65983782,13.73439248,40.0136535,19.3456057,52.7107998,21.95901701,34.58804336,5.5791966,69.35388194,7.15305631,104.32175974,4.95393234,17.60532045-1.75273978,35.88848501-2.39777719,51.97495697-10.61167975,9.25155225-4.90540733,9.90898573-13.34153962,1.61617392-19.69657977-4.26647307-3.26949772-9.30997846-4.94883498-14.11511469-7.123769Z"/>
  <path class="cls-2" d="M350.02662162,76.44000244c-3.65002441,11.94995117-10.5,34.55999756-27.7800293,68.14996338-1.35998535,2.22003174-9.64001465,16.22003174-12.40997314,21-5.26000977,7.46002197-11.2300415,14.34002686-17.17999268,21.25-4.36999512,5.07000732-9.25,9.71002197-12.95001221,15.34002686-3.10998535.27996826-6.22998047.55999756-9.35003662.83996582-34.95996094,2.20001221-69.72998047.61999512-104.31994629-4.94995117-4.76000977-14.2800293-7.14001465-29.07000732-9.47003174-43.87005615-.73999023-5.55999756-1.48999023-11.11999512-2.23999023-16.66998291-1.20001221-9.70001221-4.59997559-46.03997803,3.30999756-54.02996826C201.10657768,39.55999756,303.22663383,56.19995117,360.60657768,0c.30004883.77996826-3.31994629,49.65997314-10.57995605,76.44000244Z"/>
</svg>