<?xml version="1.0" encoding="UTF-8"?>
<svg id="Layer_1" data-name="Layer 1" xmlns="http://www.w3.org/2000/svg" viewBox="0 0 207.54361719 559.92703537">
  <defs>
    <style>
      .cls-1 {
        fill: #ff1833;
      }

      .cls-2 {
        fill: #f94e03;
      }

      .cls-3 {
        fill: #025589;
      }

      .cls-4 {
        fill: #ddced1;
      }

      .cls-5 {
        fill: #756a6e;
      }

      .cls-6 {
        fill: #7526a8;
      }

      .cls-7 {
        fill: #1aa419;
      }

      .cls-8 {
        fill: #0995cc;
      }
    </style>
  </defs>
  <path class="cls-5" d="M206.62805543,25.82589451c.31671564,116.8821222.83791497,452.89467355.91552166,504.01857347.02680824,17.65691299-13.3933652,30.23412869-31.26552275,30.01639984-45.49274079-.57580912-91.01976853.55777469-136.50357302-.21256804-15.20464418-.3766199-27.11285905-13.76045575-27.1041269-28.94934244.00511692-8.94853737.00092698-17.89707475.00092698-27.01528638-2.77785981,0-5.34247734.00296633-7.90709486-.00074158-3.0323712-.00437534-4.76836208-1.3108968-4.74194318-4.55569453.04989002-6.12410613-.02447225-12.24980667.08316857-18.37257796.32272521-6.82024309,8.34833736-2.82173971,12.8649871-4.69648412V106.29997438c-2.44980189-.11295241-5.15630285-.40359744-7.85082723-.31800019-3.04442192.09668392-4.8964706-1.24471976-4.98462631-4.16657651-.19375718-6.42255633-.14714867-12.85542068-.05658281-19.28207426.03845109-2.72874845,1.97754311-3.7170936,4.41153074-3.78376194,2.87797355-.0788303,5.75974772-.01851177,8.8071916-.01851177.24306554-17.52603043-.12791995-35.04774427.22230657-52.57175182C13.75770094,11.59315898,22.65108305.138661,39.1046659.37749254c35.36598604.493103,134.71900727-1.27808637,148.61386818.27620965,11.72176228,1.31120734,18.8102975,13.67414023,18.8975077,24.5902719-.38414015.20190996-.37646476.39583399.01201365.58192042Z"/>
  <path class="cls-4" d="M186.81147459,518.28463259c-1.42999268,11.80004883-12.70001221,22.47003174-26.83996582,22.29003906-33.55004883-.42999268-67.11999512-.29003906-100.68005371-.09002686-15.18994141.09002686-27.33996582-11.39996338-27.30999756-26.75.08001709-43.42999268.22003174-471,2.69000244-480.4699707,2.67004395-10.17999268,9.59002686-15.39001465,20.0300293-15.36999512,18.77996826.03997803,92.22998047.22998047,110.15002441-.39001465,14.66998291-.51000977,22.07995605,10.69000244,22.18994141,21.28997803.60003662,79.61999512,1.5300293,399.36999512-.22998047,479.48999023Z"/>
  <path class="cls-6" d="M109.19450313,530.72265093c-18.4655725-.52385444-39.41524513-5.76666298-49.42571125-22.90980707-9.37012748-16.04652778-.49767655-33.04869687,14.23891848-41.79174151,17.40434826-10.3257688,41.34439993-11.40595904,60.22761361-4.83831193,16.53797503,5.75194256,33.043135,20.02879302,27.95528029,39.42334693-5.85168551,22.30630658-32.77594254,29.76652334-52.99610113,30.11651358Z"/>
  <path class="cls-3" d="M104.46878208,445.00633725c-17.89746408-.3285214-40.53333027-9.46026693-47.03145394-27.54021612-6.76524198-18.82312689,8.21818906-34.38020969,24.56431649-40.9893113,19.43493312-7.85796497,45.1629792-6.76483411,63.27670751,4.11293222,14.09212207,8.46265199,22.7333844,25.07089204,14.53647878,40.71359063-10.22064937,19.50475318-35.50203983,23.79232827-55.34604883,23.70300456Z"/>
  <path class="cls-8" d="M110.98846729,286.16883483c18.31477154.60073809,40.17408878,6.55211094,49.16322784,24.27813949,8.59035264,16.93957947-2.67407522,33.71122739-17.76117961,41.75570057-17.22368003,9.18373052-40.45279433,10.11812548-58.64103321,3.22870537-17.42813455-6.60153746-33.79096614-22.63312234-26.11904588-42.66792218,7.83857257-20.47003509,33.95023969-26.3658448,53.35803086-26.59462325Z"/>
  <path class="cls-7" d="M108.08948839,274.14124359c-18.48642953-.49204052-40.02401086-6.63366656-49.23319622-24.29669762-8.83366612-16.94274974,2.10387182-33.63475162,17.3508801-41.75692418,17.74345576-9.45205389,41.84628497-10.15609454,60.41949829-2.75492634,16.64528213,6.6328879,31.71421772,22.13483398,24.9234282,41.38717074-7.36099292,20.86884005-33.9331462,27.23188432-53.46061037,27.42137739Z"/>
  <path class="cls-2" d="M106.6872656,188.67983063c-11.66460475-.24349888-25.37579402-3.0142951-37.2005993-11.90015015-18.28186378-13.73810874-18.3022017-35.83193316-.13153834-49.67885071,20.73005273-15.79730017,59.10378119-15.88944189,79.9581789-.192033,19.83423864,14.92953647,18.12184864,39.251485-3.6972377,52.51409052-9.96973466,6.06003334-22.47772356,9.26222711-38.92880356,9.25694333Z"/>
  <path class="cls-1" d="M107.12763631,103.09405415c-18.26923832-.59693748-40.39669355-7.38820903-48.92977742-25.23354907-9.09663156-19.02385495,6.41679052-36.0160822,23.04805673-42.99492798,18.27761822-7.66969551,42.41342933-7.28435956,60.20267787,1.64751537,14.75665486,7.40921438,26.51282661,23.07329837,19.67902526,39.95646189-8.34247842,20.6104168-34.1241039,26.56506189-53.99998244,26.62449979Z"/>
</svg>