<?xml version="1.0" encoding="UTF-8"?>
<svg id="Layer_1" data-name="Layer 1" xmlns="http://www.w3.org/2000/svg" viewBox="0 0 155.00985319 565.03535766">
  <defs>
    <style>
      .cls-1 {
        fill: #ff1733;
      }

      .cls-2 {
        fill: #f94e03;
      }

      .cls-3 {
        fill: #ffc70e;
      }

      .cls-4 {
        fill: #ff5ab5;
      }
    </style>
  </defs>
  <path class="cls-4" d="M154.99497819,233.72757604c0-6.08001709-.39996338-12.17004395-1.35998535-18.17999268-1.33001709-8.24005127-3.60998535-16.18005371-8.30999756-22.97003174,1.36999512-1.35998535,2.63000488-2.79998779,2.33996582-4.95001221l-.00994873-14.35998535.0199585-32.21002197c-.07000732-4.32995605-3.40997314-6.69000244-7.70001221-6.55999756l-.20996094-48.19000244c-.10003662-4.95996094-2.33001709-8.59997559-6.58001709-10.38000488-.92999268-.38995361-1.90997314-.62994385-2.90997314-.77996826-13.69000244-2.05999756-28.17004395.77996826-41.44000244,3.77001953-3.11004639.73999023-6.20001221,1.56994629-9.27001953,2.5-4.14001465-8.05999756-5.71002197-19.14001465-4.90997314-28.0300293.67999268-7.19000244,3.08996582-13.59997559,4.90997314-20.58001709,2.17999268-6.79998779,3.96002197-13.75,2.73999023-20.69000244.19000244-5.04998779-3.5-9.2199707-8.35998535-11.04998779-4.25-1.52996826-8.72998047-1.22998047-13.25-.26000977-12.73999023,3.05004883-23.32000732,10.71002197-31.27001953,21.20001221-10.60998535,14.71002197-16.08996582,33.07000732-15.36999512,51.29998779.7300415,12.20001221,3.69000244,23.71002197,7.89001465,34.88000488-8.84997559,7.69000244-14.01000977,18.34002686-14.54998779,30.32000732l.0199585,34.73999023-.03997803,14.38000488c-.20001221,2.10998535.98999023,3.5300293,2.25,4.92004395-2.86999512,4.53997803-5.02001953,9.40997314-6.40997314,14.7699585C.75498796,216.08756139.11497331,225.26755406.00498796,234.34757115v297.83996582c-.17999268,7.86004639,4.5300293,14.61004639,11.09997559,18.86999512,27.14001465,18.67004395,106.57000732,18.74005127,133.4800415-.40997314,6.28997803-4.21002197,10.58996582-10.91998291,10.41998291-18.57000732l-.01000977-298.34997559ZM62.87498308,47.13754918c-2.67999268,13.27001953-5.80999756,28.5300293-3.5,41.80999756-1.95001221.85998535-12.28997803,6.0300293-14.13000488,7.11999512-3.47998047-2.69000244-6.14996338-6.39996338-8.02996826-9.66998291-2.52001953-4.39001465-4.15002441-9.25-4.90002441-14.26000977-1.52001953-10.27001953-.2199707-20.83001709,3.5300293-30.60998535,2.44995117-6.38000488,5.67999268-12.42999268,9.50994873-18.07000732.64001465-.94000244,1.38000488-1.82000732,2.24005127-2.55999756,2.85998535-2.48999023,6.25-3.86999512,9.88995361-2.51000977,2.71002197.80999756,4.86004639,2.79998779,6.21002197,5.42999268.88000488,1.72003174,1.30999756,3.65002441,1.40002441,5.58001709.25994873,5.91998291-1.14001465,11.71002197-2.22003174,17.73999023Z"/>
  <path class="cls-2" d="M145.32499528,192.57755162c-10.28997803,5.26000977-20.90002441,8.34002686-32.26000977,10.42999268-23.45001221,3.61999512-47.75,3.61999512-71.20001221-.02996826-11.42999268-2.08001709-22.11999512-5.30004883-32.23999023-10.42999268-1.26000977-1.39001465-2.45001221-2.81005859-2.25-4.92004395l.03997803-14.38000488-.0199585-34.73999023c.53997803-11.97998047,5.70001221-22.63000488,14.54998779-30.32000732,5.15997314-3.44000244,10.48999023-6.26000977,16.36999512-7.57995605,2.23999023-1.62005615,4.54998779-3.13000488,6.92999268-4.54003906,1.84002686-1.08996582,12.17999268-6.26000977,14.13000488-7.11999512,6.55999756-2.94000244,13.30999756-5.46002197,20.19000244-7.52996826,3.07000732-.93005371,6.15997314-1.76000977,9.27001953-2.5,13.2699585-2.99005127,27.75-5.83001709,41.44000244-3.77001953,1,.15002441,1.97998047.39001465,2.90997314.77996826,4.25,1.7800293,6.47998047,5.42004395,6.58001709,10.38000488l.20996094,48.19000244c4.29003906-.13000488,7.63000488,2.2300415,7.70001221,6.55999756l-.0199585,32.21002197.00994873,14.35998535c.29003906,2.15002441-.9699707,3.59002686-2.33996582,4.95001221Z"/>
  <path class="cls-3" d="M139.97970558,134.49437364c4.28048698-.12256705,7.6237388,2.22981679,7.69892021,6.56638028l-.02196189,32.20907393c-10.31405579,5.80836602-21.64037939,9.55915555-33.57826889,10.89193096-24.37618436,4.29519076-48.76924058,4.28374364-73.15282896-.00961255-11.91065749-1.34427014-23.23010856-5.08882194-33.50831656-10.90385346l-.02174437-34.73637325c.54094082-11.98834124,5.69766715-22.62976366,14.55033569-30.32882216,5.15723806-3.4308837,10.48926457-6.25118839,16.37071432-7.57618718,12.69382322-2.86966352,25.57550256-.71674506,37.04000507,5.14293877,4.98971217,2.39548423,20.22175913,12.99702427,23.32160137,15.28808711,12.04176552,8.89995016,26.33436476,12.99849865,41.30154401,13.45643755Z"/>
  <path class="cls-1" d="M74.65528236,53.38649453c-.80004883,8.88995361.7699585,19.9699707,4.90997314,28.02996826-6.88000488,2.07000732-13.63000488,4.59002686-20.19000244,7.5300293-2.30999756-13.2800293.82000732-28.54003906,3.5-41.80999756,1.08001709-6.0300293,2.47998047-11.82000732,2.22003174-17.74005127-.09002686-1.92999268-.52001953-3.85998535-1.40002441-5.57995605-1.34997559-2.63000488-3.5-4.61999512-6.21002197-5.42999268-3.63995361-1.36004639-7.02996826.0199585-9.88995361,2.50994873-.86004639.74005127-1.60003662,1.62005615-2.24005127,2.55999756-3.82995605,5.64001465-7.05999756,11.69000244-9.50994873,18.07000732-3.75,9.7800293-5.05004883,20.34002686-3.5300293,30.61004639.75,5.00994873,2.38000488,9.86999512,4.90002441,14.25994873,1.88000488,3.27001953,4.54998779,6.9800415,8.02996826,9.67004395-2.38000488,1.40997314-4.69000244,2.91998291-6.92999268,4.53997803-3.22998047-4.44000244-5.72998047-9.51000977-7.57000732-14.86999512-2.84997559-8.28997803-3.91998291-17.13000488-3.11999512-25.85998535,1.21002197-13.33001709,6.16003418-26.16003418,13.86999512-37.32000732,5.10003662-7.40002441,11.54003906-14.05999756,19.41003418-18.19000244,1.63000488-.84997559,3.34997559-1.53997803,5.13000488-1.98999023,3.28997803-.83001709,6.47998047-.88000488,9.68994141,1.04998779,3.41003418,1.89001465,5.62005615,4.7199707,6.58001709,8.69000244,1.22003174,6.94000244-.55999756,13.89001465-2.73999023,20.69000244-1.82000732,6.97998047-4.22998047,13.39001465-4.90997314,20.58001709Z"/>
</svg>