<?xml version="1.0" encoding="UTF-8"?>
<svg id="Layer_1" data-name="Layer 1" xmlns="http://www.w3.org/2000/svg" viewBox="0 0 549.84729687 243.14602885">
  <defs>
    <style>
      .cls-1 {
        fill: #ff1833;
      }

      .cls-2 {
        fill: #f94e03;
      }

      .cls-3 {
        fill: #025589;
      }

      .cls-4 {
        fill: #086d08;
      }

      .cls-5 {
        fill: #7526a8;
      }

      .cls-6 {
        fill: #ff9605;
      }

      .cls-7 {
        fill: #0995cc;
      }
    </style>
  </defs>
  <path class="cls-5" d="M454.12860238,166.12836698c.03245581-7.54443388-2.52541812-16.06911322-11.52787682-16.15402837-6.5258332-.0615535-14.52245208,3.39085205-14.68146379,10.84405387-.19676791,9.22093642,9.78840491,11.79952182,16.80898961,13.95189775,8.12284804,2.49029396,15.9010255,5.3386184,22.34296006,11.07507464,10.84122215,9.6540255,15.60935882,25.15966367,9.77079745,38.83187507-6.70190781,15.69398354-27.52525324,20.60991397-42.94564952,17.65512793-18.95397767-3.63189274-26.97720741-18.89810575-28.24487198-36.83869236,8.15272627.38627501,16.10563508.76311098,24.08297652,1.14110867.60221146,7.81059697,4.0167882,14.99894264,12.9448236,14.4597187,7.29438978-.44054956,14.80108561-5.97452001,12.59626849-14.03122208-2.53663607-9.26907558-14.1822106-10.33935506-21.92332163-12.62719953-7.44980739-2.20173128-14.97570806-5.01042985-20.51606802-10.69068744-9.59889781-9.84122729-9.53231619-26.11596661-4.18128182-38.09292443,5.96076078-13.34162679,19.69501579-16.55426229,33.13669652-16.28935169,22.67403589-.01333879,33.85066696,15.05671226,33.59111422,36.76524929h-21.2540929ZM498.31773797,4.91852266c.70832818,33.83631173,1.41371573,67.53078356,2.12603735,101.55798194h49.02254693v-21.67108114h-27.38726158v-20.25645781c6.55600186-.39876361,12.98363262-.78972184,19.44981828-1.18302169-.34528775-6.44585539-.67874038-12.67040134-1.00961543-18.84740715h-18.62644259v-21.0998098c9.46116027.46677015,18.86434299.93068136,27.95447594,1.3791452V4.91852266h-51.5295589Z"/>
  <path class="cls-3" d="M404.73669812,5.74311453h19.74703948c6.12151508,7.16778851,12.20919479,14.29594209,18.39979646,21.54457062,5.66749672-7.37601943,11.23824316-14.62610013,16.93151575-22.03563726,6.75099087.57773346,13.54707137,1.1593333,20.38228762,1.74428219,1.43557076,32.154055,2.86061335,64.07309577,4.29585738,96.220253-7.27307931.34888185-14.33977014.68787085-21.55294778,1.03388468-.84798983-19.49659604-1.6900258-38.8568341-2.55976175-58.85348203-5.54631382,9.08713787-10.78066701,17.66318743-16.18459638,26.51701737-5.42142792-7.44376277-10.69734923-14.68772624-16.41262207-22.53493583v56.83804494c-7.11181675.69514981-13.91846173,1.3604577-21.03812015,2.05636989-.67006372-34.20674003-1.33787658-68.29692592-2.00844856-102.53036758ZM349.52325909,242.9154834c14.44563273,1.26966129,32.39878055-2.51467213,39.40498884-16.61966402,6.87827285-13.84745102,2.5835772-30.02819917-8.65764289-40.12430979-6.65104584-5.973529-14.82707931-9.0994886-23.22529351-11.76551228-6.84977417-2.17446694-16.70519635-4.58313127-16.31028097-13.76598475.31675277-7.36436583,8.52502423-10.82446784,14.96717661-10.44476385,8.82017609.51983759,10.973623,8.50964946,10.95489011,16.06475673h21.64138443c-.25282639-21.06518046-9.46129662-36.16283505-31.96708918-37.0455165-15.7447729-.49384389-31.94919128,4.04784631-37.35315695,20.44266124-3.98959647,12.10374969-.36881277,26.1387474,8.53587913,35.15316827,5.32184593,5.38744733,11.92569652,8.01959934,19.1392372,9.90530393,7.54997025,1.97366928,18.26028002,3.46598326,21.15010854,12.04120878,4.60944214,14.40649602-24.89657309,23.04571472-25.10873766-.2424675-8.06719394-.38736414-16.08196485-.77222329-24.51376029-1.17708598.69945675,19.474003,10.74599065,35.59549363,31.3422966,37.57820571Z"/>
  <path class="cls-7" d="M392.46349931,49.59901531c.46107493,30.87970498-8.92824815,64.57239752-44.70407909,61.5821645-17.80374973-1.37751862-28.39392942-10.39210286-33.04600207-27.49669813-8.75415117-30.02882851-5.92383609-81.49025447,35.07369118-82.30384839,31.24437352-1.39719807,42.31272384,20.47623693,42.67638998,48.21838201ZM367.98419155,51.40906228c-.90665716-10.53211138-3.02292873-30.33237259-18.67196786-26.55197816-6.61993328,1.59919308-8.83927202,7.6952318-10.00804437,13.71414257-1.53370059,7.8979445-2.18259905,15.96907743-1.72349812,24.00675618.3968758,6.94901127,1.01458908,15.60180758,4.4649253,21.80791107,2.83828636,5.1051471,9.36745954,7.44906316,14.6374996,4.48284135,5.20516473-2.92969994,7.50433606-10.13026193,8.90970186-15.51649308,1.86421259-7.14496235,2.20950034-14.59540506,2.3913836-21.94317994Z"/>
  <path class="cls-4" d="M303.36343115,235.49054428c-8.24319594,1.76332366-16.24682151,3.47542231-24.44941138,5.23006931-2.41579807-9.17210748-4.78877552-18.18153655-7.21375851-27.38845961h-24.2565643c-2.45121266,8.99835633-4.95288794,18.18193589-7.53980511,27.67852891-7.74448731-1.97896967-15.41021299-3.93782691-23.30819379-5.95600495,10.41047468-33.44673304,20.77382672-66.74204193,31.15006669-100.07873742h26.48815565c9.68582784,33.42202814,19.37802704,66.86602023,29.12951074,100.51460375ZM252.77781366,194.10349992h13.96827087c-1.95244957-7.63542996-3.87738068-15.16325474-5.92318609-23.16377631-2.75544054,7.93357691-5.35593542,15.4210316-8.04508478,23.16377631ZM266.25879352,85.78801053c-4.61673066.28142894-7.91181264-2.38488517-9.54389718-6.32253056-6.36740236-15.36238242-7.56338459-31.10281698-1.1993222-46.70131182,3.61475723-8.85991087,12.93705454-10.58556001,18.69643679-4.02931309,3.32004101,3.77946867,3.62898842,8.57113944,3.65667025,13.34424976h21.13372685c.00940524-24.96640187-12.57997583-47.60837466-40.00446043-40.87825621-34.95154275,8.54776996-33.90249151,56.33106018-25.29863446,83.75930268,5.17920734,17.53692197,16.03522339,25.04412605,34.14471457,25.04399899,21.50353798-.00014522,38.91597339-25.22967601,31.53888299-45.53156833h-21.04603443c1.27865854,9.07741199-1.30110762,20.8640839-12.07808274,21.31542858Z"/>
  <path class="cls-6" d="M214.58628745,106.62357228h-50.0806101c-.628187-34.35417074-1.24379466-68.0209789-1.86355912-101.91444226,8.14884173.53096478,16.14909102,1.05225453,24.26446043,1.58105014v80.20347206h27.67970879v20.12992007Z"/>
  <path class="cls-2" d="M97.86910774,4.73967079h51.80355459v20.20483346c-9.0824365-.44766515-18.52352063-.91301037-27.94600802-1.37743891v20.82435287h18.61870076c.338989,6.27689638.68046482,12.59966292,1.03205133,19.10966755-6.50023885.39288235-12.9374085.78197093-19.48850932,1.17793912v19.97054532h27.41455314v21.96572475h-49.3040031c-.71390992-34.14015841-1.42099469-67.95378011-2.13033938-101.87562416ZM178.59001224,217.32545346v-80.20563215c-8.13893073-.52802415-16.1735781-1.04927759-24.30225294-1.57664827.62116217,33.96005406,1.23687874,67.62305028,1.86510204,101.96856251h50.1618767v-20.18628209h-27.72472581Z"/>
  <path class="cls-1" d="M42.66136391,33.52642598c7.0049558,12.38582303,14.03878694,24.75412028,21.09867076,37.10871276V5.40921717c7.64607612.35776727,14.74336218.6898585,21.95968013,1.02751332-.5183945,33.4703216-1.03386653,66.75219798-1.55082702,100.12998965h-21.57842414c-6.60032002-10.08858489-13.24001631-20.23736188-20.01131476-30.58729958-6.09579366,10.22100389-12.09275864,20.27629797-18.35767923,30.78087273H1.99199375C1.33469998,74.69654461.6690767,42.22633586,0,9.58779434c7.27347639-.91047816,14.42757374-1.80600814,21.79165821-2.72783131.52651299,20.67089568,1.05011713,41.22760608,1.59458701,62.6035535,6.6419063-12.38336343,12.89902152-24.04930452,19.27511869-35.93709054ZM105.69560588,216.80554326c-10.84957208-.62076283-12.86545389-17.24242357-13.57117725-25.33597425-.87058002-9.98419261-1.27484369-28.23122166,8.74126926-34.35863614,3.83569456-2.3465118,9.32943105-1.80794133,12.74595913,1.07227621,4.16874785,3.5143221,4.83417372,9.5372717,4.84398489,14.63265301h20.93642345c-.4540741-22.08917912-10.09791536-44.61716311-35.93102773-41.54472235-32.45242152,4.82241676-38.1243862,44.91716534-32.35150364,71.57332086,1.87089254,9.32973964,4.21190428,19.75934655,10.43714,27.26030634,9.92894694,11.96367054,29.33805024,14.06342377,42.24401036,5.91058859,12.79364449-8.08186078,21.74527752-25.67646987,15.86945006-40.52976069h-20.55950581c0,8.93471535-1.21234628,22.01756692-13.40502272,21.31994844Z"/>
</svg>