<?xml version="1.0" encoding="UTF-8"?>
<svg id="Layer_1" data-name="Layer 1" xmlns="http://www.w3.org/2000/svg" viewBox="0 0 554.1 382.18346286">
  <defs>
    <style>
      .cls-1 {
        fill: #ff1833;
      }

      .cls-2 {
        fill: #fff;
      }

      .cls-3 {
        fill: #a89a9f;
      }

      .cls-4 {
        fill: #3d363c;
      }

      .cls-5 {
        fill: #756a6e;
      }

      .cls-6 {
        fill: #ffc70e;
      }

      .cls-7 {
        fill: #0995cc;
      }
    </style>
  </defs>
  <path class="cls-3" d="M554.1,42.07206523v274.51346804c0,23.14115871-18.93090652,42.07206523-42.07206523,42.07206523h-49.41161207v23.52586436H94.60243902v-23.52586436h-52.5303738c-23.14115871,0-42.07206523-18.93090652-42.07206523-42.07206523V42.07206523C0,18.93090652,18.93090652,0,42.07206523,0h469.95586954c23.14115871,0,42.07206523,18.93090652,42.07206523,42.07206523Z"/>
  <path class="cls-4" d="M59.72429974,336.82626642c-21.40512923,0-38.91174285-16.70617459-38.91174285-37.13402583v-19.00368524H0v35.89697792c0,23.14115871,18.93090652,42.07206523,42.07206523,42.07206523h52.5303738v-21.83133208h-34.87813928ZM533.28744311,280.68855535v19.00368524c0,20.42785123-17.50661362,37.13402583-38.91174285,37.13402583h-31.75937755v21.83133208h49.41161207c23.14115871,0,42.07206523-18.93090652,42.07206523-42.07206523v-35.89697792h-20.81255689ZM42.07206523,0C18.93090652,0,0,18.93090652,0,42.07206523v35.89697792h20.81255689v-20.5630661c0-20.42785123,17.50661362-37.13402583,38.91174285-37.13402583h34.87813928V0h-52.5303738ZM512.02793477,0h-49.41161207v20.27195122h31.75937755c21.40512923,0,38.91174285,16.70617459,38.91174285,37.13402583v20.5630661h20.81255689v-35.89697792c0-23.14115871-18.93090652-42.07206523-42.07206523-42.07206523Z"/>
  <rect class="cls-5" x="94.60243902" y="358.6575985" width="368.01388368" height="23.52586436"/>
  <path class="cls-2" d="M533.28744311,57.40597705v242.28626354c0,20.42785123-17.50661362,37.13402583-38.91174285,37.13402583l-66.37765809.10394603H102.26070633l-42.53640658-.10394603c-21.40512923,0-38.91174285-16.70617459-38.91174285-37.13402583V57.40597705c0-20.42785123,17.50661362-37.13402583,38.91174285-37.13402583h434.65140051c21.40512923,0,38.91174285,16.70617459,38.91174285,37.13402583Z"/>
  <path class="cls-7" d="M67.46921201,144.39864254c0,7.34724102-5.959521,13.30670401-13.30670401,13.30670401-7.34724102,0-13.30670401-5.95946299-13.30670401-13.30670401,0-7.34718301,5.95946299-13.30670401,13.30670401-13.30670401,7.34718301,0,13.30670401,5.959521,13.30670401,13.30670401ZM168.79428982,321.12847368h-66.53358349c-2.1727018,0-4.14794294.89409325-5.58257841,2.3183227-1.42422945,1.43463547-2.31825925,3.40981316-2.31825925,5.58257841,0,4.34546706,3.5553706,7.90083766,7.90083766,7.90083766h66.53358349c2.17276525,0,4.14800639-.8940298,5.58257841-2.31825925,1.4242929-1.43463547,2.3183227-3.40987661,2.3183227-5.58257841,0-4.34546706-3.5553706-7.90090111-7.90090111-7.90090111Z"/>
  <path class="cls-6" d="M67.46921201,104.47849244c0,7.34724102-5.959521,13.30670401-13.30670401,13.30670401-7.34724102,0-13.30670401-5.95946299-13.30670401-13.30670401,0-7.34718301,5.95946299-13.30670401,13.30670401-13.30670401,7.34718301,0,13.30670401,5.959521,13.30670401,13.30670401ZM332.91046242,342.89049995h-66.53358349c-2.1727018,0-4.14794294.89409325-5.58257841,2.3183227-1.42422945,1.43463547-2.31825925,3.40981316-2.31825925,5.58257841,0,4.34546706,3.5553706,7.90083766,7.90083766,7.90083766h66.53358349c2.17276525,0,4.14800639-.8940298,5.58257841-2.31825925,1.4242929-1.43463547,2.3183227-3.40987661,2.3183227-5.58257841,0-4.34546706-3.5553706-7.90090111-7.90090111-7.90090111Z"/>
  <path class="cls-1" d="M67.46921201,64.55834235c0,7.34724102-5.959521,13.30670401-13.30670401,13.30670401-7.34724102,0-13.30670401-5.95946299-13.30670401-13.30670401,0-7.34718301,5.95946299-13.30670401,13.30670401-13.30670401,7.34718301,0,13.30670401,5.959521,13.30670401,13.30670401ZM427.99804216,321.12847368h-66.53358349c-2.1727018,0-4.14794294.89409325-5.58257841,2.3183227-1.42422945,1.43463547-2.31825925,3.40981316-2.31825925,5.58257841,0,4.34546706,3.5553706,7.90083766,7.90083766,7.90083766h66.53358349c2.17276525,0,4.14800639-.8940298,5.58257841-2.31825925,1.4242929-1.43463547,2.3183227-3.40987661,2.3183227-5.58257841,0-4.34546706-3.5553706-7.90090111-7.90090111-7.90090111Z"/>
</svg>