<?xml version="1.0" encoding="UTF-8"?>
<svg id="Layer_1" data-name="Layer 1" xmlns="http://www.w3.org/2000/svg" viewBox="0 0 556.43765083 475.34821448">
  <defs>
    <style>
      .cls-1 {
        fill: #ff1833;
      }
    </style>
  </defs>
  <path class="cls-1" d="M247.36240166,351.65213434c-36.80665337-.6405393-73.33737622-1.2762025-110.15232376-1.91688522-11.3599758,41.79510597-22.7208838,83.5936061-34.14181099,125.61296536-34.36204866-8.80056737-68.60770408-17.57135222-103.06826691-26.39716064C46.6120342,299.21620721,93.17730316,149.63156391,139.75717655,0h117.30115639c43.53963023,150.23321384,87.07761119,300.46090621,130.6742967,450.89093327-36.14899987,7.74211669-72.06989814,15.43537665-108.17479789,23.16802795-10.74745023-40.86171319-21.45173254-81.55931178-32.19543008-122.40682687ZM225.34864954,266.21182078c-9.11708433-35.63526335-18.28481807-71.46846333-27.58585607-107.822714-12.53535754,36.1120466-24.8934063,71.71327278-37.42785554,107.822714h65.01371161ZM372.95084305,234.47211584h60.43250988c.64876177,19.80513684,1.29087864,39.40662435,1.935816,59.09373062h70.20313647c-1.27763665-20.17538663-2.54791133-40.23436806-3.83008945-60.48081684h54.74543488c-.86020332-22.17731696-1.71347491-44.1769427-2.57305676-66.3374801h-56.68612699c-1.29867085-19.19316103-2.58658558-38.22727479-3.87899397-57.32774191-21.14558927-2.15277903-42.02021975-4.27795067-63.13000307-6.42709652.64321639,21.31118582,1.28174788,42.46734,1.92410377,63.74924525h-59.14273075v67.7301595Z"/>
</svg>