<?xml version="1.0" encoding="UTF-8"?>
<svg id="Layer_1" data-name="Layer 1" xmlns="http://www.w3.org/2000/svg" viewBox="0 0 550.48872638 252.91319049">
  <defs>
    <style>
      .cls-1 {
        fill: #ff1833;
      }

      .cls-2 {
        fill: #025589;
      }

      .cls-3 {
        fill: #ff9605;
      }
    </style>
  </defs>
  <path class="cls-3" d="M549.32848961,99.58940756c-16.08999409-.44262199-31.94431454-.8787608-47.93314524-1.31859988,1.24670232-17.67359325-4.64730322-38.51903817-25.24942258-40.02230119-19.61660533-1.4313566-28.60622056,19.6196956-32.31999234,35.5943089-6.71120403,24.23197321-7.01866754,106.82690067,30.6740965,103.27451854,23.51766381-2.20366352,28.24208788-28.51144481,26.71081782-47.73863204,15.98853129.43983084,31.81766381.87527675,47.84249865,1.31610627,7.10587675,39.29739233-12.38690475,88.12850163-53.68976955,99.01400489-41.82997509,10.30295721-81.41588648-8.00839448-95.21464211-49.88573594-7.58059436-21.39791745-9.5095-44.19715743-10.58883293-66.71142432-2.24501819-40.32087748,5.42954994-85.70058146,37.71698222-113.14762257,14.39903685-12.10658755,32.66504001-17.71483316,51.32066716-17.8776894,53.29579468-.94917368,72.57738146,52.02439184,70.7307424,97.50306673Z"/>
  <path class="cls-2" d="M211.29089866,2.14721522c30.30788081-3.55267897,62.05138637-4.29881142,89.67982557,10.62938371,11.44988352,6.18661008,21.95885071,14.82674157,27.31839289,26.97505656,12.73460311,29.78870773-6.39463796,57.91627354-32.53249366,72.00558655,84.94778617,15.96714282,76.30353994,106.81474334.86865428,131.00957075-21.20022225,7.19091487-44.03061175,9.16296718-66.28576974,7.9159575-6.34413817-82.77483139-12.68134254-165.45898433-19.04860936-248.53555506ZM270.436122,196.15016153c6.28517552.7335438,22.94122915-4.33477182,29.10408583-8.81869107,8.93704373-6.50240387,8.9252183-17.8747919-.2683061-24.0912046-9.26255714-6.26309259-19.80528507-5.92539902-30.41472736-5.47599221.53551817,13.01901343,1.05752526,25.70955834,1.57894763,38.38588788ZM263.89957212,84.72768705c34.85003309-2.96343499,26.70384427-41.52502365-1.71646883-41.72917399.57058956,13.87163621,1.14098986,27.73867112,1.71646883,41.72917399Z"/>
  <path class="cls-1" d="M0,239.53338001C23.6632709,163.51678059,47.25470987,87.73094568,70.85073997,11.93035921h59.48414941c22.05473593,76.09745216,44.11817679,152.22496904,66.24906669,228.58515988-18.27869344,3.91522753-36.47361378,7.81255851-54.84152793,11.74691814-5.46146385-20.75577537-10.89759921-41.41529123-16.45436784-62.53326596h-55.85853348c-5.6157655,20.6567827-11.3692933,41.82032251-17.1772315,63.18401921-17.42349636-4.46152181-34.75429005-8.8992689-52.25229533-13.37981048ZM100.266605,92.22118435c-6.42928195,18.51973536-12.65120907,36.44214504-18.9731304,54.65260318h32.95563927c-4.59827322-17.9729918-9.20931365-35.99589177-13.98250887-54.65260318Z"/>
</svg>