<?xml version="1.0" encoding="UTF-8"?>
<svg id="Layer_1" data-name="Layer 1" xmlns="http://www.w3.org/2000/svg" viewBox="0 0 543.98017873 543.31884897">
  <defs>
    <style>
      .cls-1 {
        fill: #ddced1;
      }

      .cls-2 {
        fill: #3d363c;
      }
    </style>
  </defs>
  <path class="cls-2" d="M528.80284704,421.03826744c-2.08342609,2.11391359-107.07000732,107.27996826-107.07000732,107.27996826-22.76002197,20.69002686-27.16002197,21.09002686-54.79003906-5.95001221l-113.17999268-112.92999268s-113.70996094,114.42999268-115.63000488,116.55999756c-23.17999268,25.66003418-48.5897664,22.25622089-54.05643306-6.54377911L.87637003,30.52111594C-2.95341101,8.63396932,5.57992232-2.96603068,30.20970337.65444927c0,0,462.40314123,79.43380596,479.67309973,82.41378643,38.80999756,6.66003418,37.46002197,31.44000244,17.5300293,51.91003418-1.97003174,2.0199585-116.89001465,123.89996338-116.89001465,123.89996338l124.70001221,126.32000732c13.54998779,14.31002197,11.34998779,17.81002197-6.41998291,35.84002686Z"/>
  <path class="cls-1" d="M503.7919249,399.51663078l-104.37107034,104.37107034c-47.62012282-47.6336032-95.10560616-95.13256693-143.95129338-143.97817196-47.24300078,47.26996156-94.13592251,94.16288328-140.98848527,141.02884423C86.65780481,344.7722881,57.85768909,188.30350814,29.87281774,31.20826256c156.23332282,27.67515124,471.02361877,83.26091087,471.3064603,84.31131245.26936114.99656223-93.83968279,94.82284684-140.2343234,141.19052667,47.59324424,47.57968166,95.13256693,95.09212577,142.84697026,142.8065291Z"/>
</svg>