<?xml version="1.0" encoding="UTF-8"?>
<svg id="Layer_1" data-name="Layer 1" xmlns="http://www.w3.org/2000/svg" viewBox="0 0 546.80748063 249.40636316">
  <defs>
    <style>
      .cls-1 {
        fill: #ff1833;
      }

      .cls-2 {
        fill: #7526a8;
      }

      .cls-3 {
        fill: #ff5ab5;
      }
    </style>
  </defs>
  <path class="cls-2" d="M436.91499735,61.10181652c-16.23240279,1.28033626-32.28238267,2.54628229-48.18467717,3.80059418-.61766625-15.77676445-1.23448174-31.53179815-1.8599746-47.50847394,53.46138969-4.1732594,106.60440628-8.3216615,159.93713505-12.48487308-.78996487,15.9905715-1.57526127,31.88642624-2.37081316,47.99026329-15.93825553.62398869-31.79852483,1.24492419-47.94927567,1.87723215,3.36251327,63.78656841,6.71342029,127.35386614,10.07856027,191.1899415-19.70049045-.31978944-39.37954754-.63923227-59.17128145-.9604602-3.49520707-61.33641802-6.97973217-122.4849895-10.47967327-183.90422391Z"/>
  <path class="cls-3" d="M219.97276762,5.15618236c37.76624335-6.70687708,81.69578613-9.82759316,116.43550277,9.59622614,15.11851048,8.45311904,26.9180395,22.04154888,32.03587227,38.71140194,5.32903001,17.3577226,5.08542593,38.38875033-2.57015909,55.01729338-4.15736746,9.0300697-10.62838509,16.85705815-18.48588103,22.91405367-3.71392391,2.86292243-7.71862063,5.33175821-11.89039488,7.46850491-3.9644964,2.03058001-9.50721149,3.13026445-12.99341015,5.77348645,18.35305397,35.00834536,36.69893549,70.00308358,54.92502424,104.76921431-23.45752324-1.02343948-47.01405769-2.05119877-70.55760957-3.07839163-12.48696428-31.13166089-24.83170077-61.90882726-37.18665187-92.71142092-.87858079-.17502329-1.68026321-.33475544-2.44386709-.48689646-1.2558811,28.78515104-2.50505008,57.41645859-3.7690177,86.38695495-17.91384544.18812141-36.0876516.37901761-53.74906114.56453327,3.41787051-78.33856176,6.83175273-156.58571094,10.24965323-234.92496002ZM269.13679249,104.97283177c18.6699966-.34304795,50.1122396-2.21688221,51.28093151-26.9903735.4693813-9.94989233-3.36782652-18.56978606-12.52067491-23.12582764-11.30064789-5.62514233-24.15403043-4.44962825-36.37077344-4.65143079-.80000482,18.33633744-1.58961495,36.43442558-2.38948316,54.76763193Z"/>
  <path class="cls-1" d="M65.71770342,5.49638759c20.11450421-.50001074,40.08296576-.99639111,60.25128673-1.49773963,24.13756694,76.16423372,48.28086066,152.34660005,72.50851573,228.79512533-18.56987511,4.46352809-36.92287468,8.87490709-55.37673932,13.31054752-6.03005603-20.81318424-11.9786457-41.34516967-18.10603786-62.49428901-18.42233311.45794638-36.98385044.91935263-55.88751587,1.38926407-5.11624989,20.85456022-10.38029699,42.31158665-15.7021448,64.0041837-17.77333563-4.08353725-35.44327309-8.1432646-53.40506802-12.27009846C21.93292733,159.55931623,43.8242646,82.5315292,65.71770342,5.49638759ZM97.51793508,86.65535995c-5.90176959,18.47058329-11.59427866,36.28622814-17.38511678,54.40963938,11.01297712-.27376299,21.70556592-.53956169,32.53225721-.80869395-4.98424613-17.63767671-9.97106002-35.28444619-15.14714043-53.60094543Z"/>
</svg>