<?xml version="1.0" encoding="UTF-8"?>
<svg id="Layer_1" data-name="Layer 1" xmlns="http://www.w3.org/2000/svg" viewBox="0 0 524.26012911 560.34246839">
  <defs>
    <style>
      .cls-1 {
        fill: #ff1733;
      }

      .cls-2 {
        fill: #fc86b7;
      }

      .cls-3 {
        fill: #ff9605;
      }

      .cls-4 {
        fill: #0995cc;
      }
    </style>
  </defs>
  <path class="cls-1" d="M508.9607066,266.11079132c-10.86004639-50.84997559-24.58001709-104.82000732-43.35003662-153.23999023-20.47998047-52.83001709-47.7699585-106.61999512-112.7699585-107.88000488-33.30999756-.65002441-55.80004883,22.33001709-70.44000244,49.71002197-9.14001465-.0300293-18.38000488.28997803-27.54003906.31994629-5.5199585-42.9699707-44.32000732-65.59997559-85.14996338-50.16998291-25.29998779,9.54998779-37.86999512,30.82000732-40.21002197,57.13000488-40.57000732,11.92999268-61.83996582,41.91998291-75.34997559,80.25-9.54003906,27.04998779-16.69000244,72.89001465-.95001221,98.60998535-5.88000488,33.61004639-16.51000977,65.98999023-26.59002686,98.45001221-16.19995117,52.19000244-42.85998535,122.44000244-13.34997559,174.64001465,26.17999268,46.28997803,117.27996826,45.88000488,163.54998779,46.33996582,34.22003174.34002686,68.59002686-.54998779,102.73999023-2.22998047,20.17004395-1,40.42004395-2.01000977,60.46002197-4.42999268,58.02996826-7.03997803,122.83001709-23.11999512,124.40997314-93.71002197,25.35003662-5.59997559,44.34002686-20.64996338,53.42004395-45.19000244,15.04998779-40.70996094.09997559-106.54998779-8.88000488-148.59997559ZM173.33070172,55.90076935c2.59997559-29.85998535,44.20001221-27.32995605,52.39996338-.52996826-16.22998047.16998291-36.19000244.20996094-52.39996338.52996826ZM460.62067975,420.96076691c-6.13000488-33.27996826-17.32000732-66.34997559-23.73999023-100.02996826-9.2199707-48.36999512-9.64001465-94.65002441-15.55999756-142.88000488-4.76000977-38.7800293-16.05999756-80.22998047-52.5-100.55999756,4.08001709-14.10003662-19.95001221-18.78997803-30.41998291-20.52001953,34.7199707-50.13000488,83.84997559,35.7300415,95.72998047,67.20001221,23.92999268,63.39001465,50.35998535,165.36999512,53.40997314,232.67999268,1.11004639,24.47003174.21002197,54.36999512-26.91998291,64.10998535Z"/>
  <path class="cls-4" d="M155.75068463,231.56080353l-32.57000732-3.35998535c-6.75-.69000244-12.83001709,4.25994873-13.52996826,11l-2.63000488,25.54998779-.30999756,3.04998779-3.2800293,31.76000977c-.70001221,6.73999023,4.25,12.82995605,11,13.52996826l32.57000732,3.35003662c6.75.69995117,12.83001709-4.25,13.5300293-10.98999023l2.7699585-26.92004395,3.45001221-33.44000244c.70001221-6.75-4.25-12.82995605-11-13.52996826ZM262.93067731,421.60078156c-8.54998779-39.51000977-35.83996582-55.55999756-72.40997314-66.55999756-51.79003906-15.58996582-110.11999512-15.85998535-163.91003418-15.75-16.19995117,52.19000244-42.85998535,122.44000244-13.34997559,174.64001465,26.17999268,46.28997803,117.27996826,45.88000488,163.54998779,46.33996582,34.22003174.34002686,68.59002686-.54998779,102.73999023-2.22998047-14.03997803-43.82000732-7.0199585-92.05999756-16.61999512-136.44000244Z"/>
  <path class="cls-2" d="M384.26464293,131.2101906c-.16176295,1.90263671-2.88264062,7.25363402-7.02508828,15.19603715-23.34836567,47.20498769-32.01269759,102.98201382-25.28729962,148.5318304.29980268,1.97587059-.29175685,3.89490207-1.63124549,5.28494414-1.23011007,1.34837396-3.24877671,2.12844056-5.28852975,2.15873765-6.53495549-.26629107-9.16667218-4.73050344-9.84438303-30.4968863-.3058665-22.63819418,2.03966801-45.17551498,6.96636157-66.9811311,5.88409314-26.18403912,14.84760123-50.8923865,25.4850502-71.2262711,1.67756903-3.53536037,3.98587492-8.38017447,7.35377452-9.22026409,4.83810131-1.37374636,9.75554596,1.64638839,9.27135988,6.75300324Z"/>
  <path class="cls-3" d="M460.62067975,420.96076691c-6.13000488-33.27996826-17.32000732-66.34997559-23.73999023-100.02996826,0,0-47.01000977,1.03997803-70.45001221,2.52001953-47.60998535,3.00994873-61.7699585,15.12994385-63.78997803,63.77996826-1.61999512,39.15997314,3.86999512,90.5300293,12.83996582,128.71002197,3.57000732,15.22998047,7.52001953,32.63000488,24.5300293,37.66998291,58.02996826-7.03997803,122.83001709-23.11999512,124.40997314-93.71002197.29003906-12.83996582-1.47998047-26.33996582-3.79998779-38.94000244ZM338.39735618,56.97078888c-19.39001465-3.19000244-36.09668376-2.20997314-55.99664714-2.2699707-9.14001465-.0300293-18.38000488.28997803-27.54003906.31994629-8.83996582.02001953-20.28000488.26005859-29.12998047.35002441-16.22998047.17004395-36.18997803.21332601-52.4.53333333-17.35998535.35003662-27.08000488,1.14667155-43.83000488,6.07666423-40.57000732,11.92999268-61.83996582,41.91998291-75.34997559,80.25-9.54003906,27.04998779-16.69000244,72.89001465-.95001221,98.60998535,11.38000488,18.58001709,34.05999756,21.26000977,53.5,25.64001465.05999756-.60998535.16998291-1.19000244.32000732-1.72998047l2.63000488-25.54998779c.69995117-6.74005127,6.77996826-11.69000244,13.52996826-11l32.57000732,3.35998535c6.75.70001221,11.70001221,6.77996826,11,13.52996826l-3.45001221,33.44000244c27.52001953.86999512,56.63000488,4.97003174,84.11004639,2.82000732,78.75994873-6.13000488,62.91998291-121.36999512,93.73999023-171.53997803,6.33996582-10.32000732,25.07995605-23.40002441,27.66998291-32.32000732,4.08001709-14.10003662-19.95336507-18.79002686-30.42333577-20.52000732Z"/>
</svg>