<?xml version="1.0" encoding="UTF-8"?>
<svg id="Layer_1" data-name="Layer 1" xmlns="http://www.w3.org/2000/svg" viewBox="0 0 493.67121629 564.97972358">
  <defs>
    <style>
      .cls-1 {
        fill: #66c602;
      }

      .cls-2 {
        fill: #086d08;
      }

      .cls-3 {
        fill: #ff9605;
      }

      .cls-4 {
        fill: #fc298d;
      }
    </style>
  </defs>
  <path class="cls-2" d="M488.89219207,370.90466612c-10.05004883-41.92999268-20.27001953-83.60003662-29.82000732-125.54003906v-.02996826c.00994873,0,5.10998535-3.69000244,8.07000732-15.08001709,9.5199585-36.57000732-15.74005127-86.16998291-30.72003174-119.97998047-9.05999756-19.04003906-24.19000244-47.66998291-42.10998535-58.96002197-7.40002441-4.60998535-15.52001953-7.22998047-24.16003418-7.66998291-5.25-.26000977-33.78997803-2.22003174-70.11999512.70001221-1.63995361-3.01000977-3.35998535-5.98999023-5.17999268-8.94000244-5.30999756-8.54998779-11.9699707-16.2300415-19.70996094-22.71002197-2.15002441-1.78997803-4.40002441-3.5-6.99005127-4.90997314-6.13000488-3.36999512-12.83996582-5.55999756-19.69995117-6.73999023-48.68005371-8.55004883-74.92004395,36.93994141-76.08001709,79.53997803-7.21002197,4.5-14.01000977,9.53997803-20.27001953,15.16998291-34.02996826-23.83996582-84.34997559-25.28997803-115.77001953,3.7800293-21.83996582,19.77996826-29.73999023,47.52996826-29.5199585,76.19995117,1.45001221,31.16003418,13.30999756,70.04003906,14.75,90.11004639,4.0199585,55.82000732-41.13000488,112.82995605-11.32000732,166.67999268,17.82000732,30.72998047,54.96002197,40.65997314,86.82000732,26.27001953,26.57000732,123.37994385,191.07000732,120.44995117,285.5199585,84.68994141,47.65002441-16.60998535,93.52001953-49.73999023,107.07000732-100.60998535,4.60003662-17.70001221,6.35003662-42.30999756-.75994873-71.9699707ZM117.60215301,149.34466856c-14.26000977,31.16998291-13.10998535,66.25-13.44000244,99.75-.30999756,13.36999512-1.76000977,50.27996826-1.76000977,50.27996826-1.73999023,42.35003662-13.19000244,84.46002197-9.66998291,127.01000977-23.97998047,15.7800293-54.38000488,6.04998779-60.20001221-23.13000488-5.35998535-30.85998535,11.05999756-64,16.42004395-94.34997559,3.25994873-16.46002197,5.09997559-33.19000244,3.98999023-49.97003174-1.11004639-16.63995361-4.61999512-32.92999268-8.5300293-49.09997559-6.57000732-27.09002686-11.20996094-57.91998291,8.0300293-81.14001465,19.83996582-23.98999023,53.69000244-23.7199707,78.83996582-8.80999756-5.7199707,8.79998779-10.36999512,18.58001709-13.67999268,29.46002197ZM206.29215545,63.93463439c4.83001709-19.55999756,18.35003662-38.35998535,41.07000732-30.7199707,8.54998779,2.5199585,13.71002197,8.5,18.19000244,15.2699585-19.61999512,3.21002197-40,8.09002686-59.26000977,15.45001221Z"/>
  <path class="cls-4" d="M469.01218719,446.86462706c-2.49005127,10.43005371-9.02001953,17.9800415-17.57000732,24.04003906-27.67004395,19.61999512-121.70001221,40.91998291-136.79003906,39.07995605-8.95996094-1.10998535-15.75994873-6.19995117-17.5199585-16.67999268-1.89001465-11.22998047-4.45001221-22.35998535-6.73999023-33.52996826l3.36999512-38.70001221.36999512-4.26000977c.19995117-2.38000488-.59002686-4.61999512-2.01000977-6.30999756-.60003662-.7199707-1.33001709-1.34997559-2.14001465-1.83996582-1.09997559-.68005371-2.36999512-1.11004639-3.73999023-1.2300415-2.20001221-.20001221-4.29998779.47003174-5.95001221,1.72003174-1.2199707-6.70001221-2.73999023-13.35998535-3.52996826-20.11999512-1.05999756-8.95001221,2.55999756-14.66003418,11-18.17004395,13.98999023-5.81994629,106.29998779-30.44995117,137.80999756-39.02996826,13.41998291-3.65002441,22.92999268,2.04998779,26.27996826,15.92999268.39001465,1.59997559,1.69000244,7.9699707,3.38000488,16.42999268.72003174,3.63000488,1.52001953,7.64001465,2.34997559,11.83001709,3.45001221,17.39001465,7.45001221,37.80999756,9.06005859,46.20001221,1.56994629,8.13000488,4.38995361,16.19000244,2.36999512,24.63995361ZM436.42216034,110.27466124c-9.05999756-19.04003906-24.19000244-47.66998291-42.10998535-58.96002197-7.40002441-4.60998535-15.52001953-7.22998047-24.16003418-7.66998291-5.25-.26000977-33.78997803-2.22003174-70.11999512.70001221-10.91998291.88000488-22.55999756,2.20001221-34.47998047,4.13995361-19.61999512,3.21002197-40,8.09002686-59.26000977,15.45001221-11.88000488,4.54998779-23.33996582,10.0300293-33.91998291,16.65002441-7.21002197,4.5-14.01000977,9.53997803-20.27001953,15.16998291-7.89996338,7.07000732-14.92999268,15.07000732-20.82000732,24.13000488-5.7199707,8.79998779-10.36999512,18.58001709-13.67999268,29.46002197,18.54998779,8.38995361,27.88000488,30.36999512,34.36999512,48.32995605,6.72003174,18.58001709,11.85003662,37.69000244,17.85998535,56.5,15.37005615,54.10003662,60.18005371,67.82000732,111.57000732,65.2300415l1.79003906,11.14996338c1.40997314,8.86004639,9.80999756,14.94000244,18.66998291,13.52001953,8.84997559-1.40997314,14.92999268-9.80999756,13.52001953-18.65997314l-1.55004883-9.69000244c30.58001709-4.74005127,60.15002441-12.83001709,88.10003662-26.30004883l1.27001953,7.94000244c1.41998291,8.85003662,9.81994629,14.93005371,18.66998291,13.52001953,8.85998535-1.40997314,14.94000244-9.80999756,13.52001953-18.66998291l-3.19000244-19.9800415c10.58996582-8.58996582,26.86999512-26.87994385,26.86999512-26.87994385v-.02001953c.00994873,0,5.10998535-3.69000244,8.07000732-15.08001709,9.5199585-36.57000732-15.74005127-86.16998291-30.72003174-119.97998047Z"/>
  <path class="cls-3" d="M315.38218231,325.41467589l-1.55004883-9.69000244-2.65997314-16.65002441c-1.27001953-7.84997559-8.02996826-13.52996826-15.71002197-13.71002197-.97998047-.02996826-1.9699707.04003906-2.95996094.20001221-8.85998535,1.41003418-14.92999268,9.80999756-13.52001953,18.66003418l2.41998291,15.17999268,1.79003906,11.14996338c1.40997314,8.86004639,9.80999756,14.94000244,18.66998291,13.52001953,8.84997559-1.40997314,14.92999268-9.80999756,13.52001953-18.65997314ZM435.39219207,292.21466368l-3.19000244-19.9800415-1.02001953-6.34997559c-1.27001953-7.84997559-8.02001953-13.52996826-15.71002197-13.7199707-.97998047-.02001953-1.95996094.04998779-2.95996094.20996094-8.85003662,1.41003418-14.93005371,9.80999756-13.52001953,18.65002441l2.94000244,18.39996338,1.27001953,7.94000244c1.41998291,8.85003662,9.81994629,14.93005371,18.66998291,13.52001953,8.85998535-1.40997314,14.94000244-9.80999756,13.52001953-18.66998291ZM455.2321579,364.19464415c-52.67999268,13.72003174-113.52001953,30.16003418-165.25,44.47003174-1.09997559-.68005371-2.36999512-1.11004639-3.73999023-1.2300415-2.20001221-.20001221-4.29998779.47003174-5.95001221,1.72003174-1.89996338,1.41998291-3.21002197,3.61999512-3.42999268,6.14996338l-3.76000977,43.30999756c-.41998291,4.75,3.13000488,8.9800415,7.86999512,9.39001465,4.76000977.41003418,8.9800415-3.14001465,9.39001465-7.89001465l.0300293-.33996582,3.36999512-38.70001221c47.63000488-12.97998047,111.95996094-31.07000732,163.81994629-45.04998779-.82995605-4.19000244-1.62994385-8.20001221-2.34997559-11.83001709ZM287.84214325,458.29468077c-.28997803,3.28997803-3.19000244,5.73999023-6.5,5.44995117-3.28997803-.27996826-5.73999023-3.19000244-5.44995117-6.48999023.27996826-3.29998779,3.19995117-5.75,6.48999023-5.45996094,3.30999756.28997803,5.75,3.19995117,5.45996094,6.5Z"/>
  <path class="cls-1" d="M212.58213348,459.53467101c-.53997803,18.94000244-2.7199707,34.66998291-5.44995117,50.33996582-.89001465,5.10998535-5.05999756,8.04998779-9.82000732,7.11999512-4.36999512-.84997559-7.15002441-5.23999023-6.30999756-10.05999756,9.72998047-49.38995361,4.42999268-100.36999512-8.38000488-148.70001221-3.0300293-11.23999023-6.5300293-22.31994629-11.35998535-32.95996094-4.60003662-10.23999023,10.25-17.08001709,14.97998047-6.59002686,18.69000244,43.7300415,25.85998535,93.86004639,26.33996582,140.85003662Z"/>
</svg>