<?xml version="1.0" encoding="UTF-8"?>
<svg id="Layer_1" data-name="Layer 1" xmlns="http://www.w3.org/2000/svg" viewBox="0 0 567 97.2800293">
  <defs>
    <style>
      .cls-1 {
        fill: #ff1733;
      }

      .cls-2 {
        fill: #f94e03;
      }

      .cls-3 {
        fill: #086d08;
      }

      .cls-4 {
        fill: #7a2a1a;
      }

      .cls-5 {
        fill: #7526a8;
      }

      .cls-6 {
        fill: #ff9605;
      }

      .cls-7 {
        fill: #0995cc;
      }
    </style>
  </defs>
  <path class="cls-4" d="M567,5.20001221c0,1.42999268-.58001709,2.72998047-1.5300293,3.66998291-.93994141.95001221-2.23999023,1.5300293-3.66998291,1.5300293h-5.88000488c-7.86999512,16.94995117-36.65997314,78.60998535-40.52996826,86.88000488-10.70001221-22.85003662-33.69000244-72.07000732-40.55999756-86.88000488h-11.66003418c-7.86999512,16.94995117-36.65997314,78.60998535-40.52996826,86.88000488-10.70001221-22.85003662-33.69000244-72.07000732-40.57000732-86.88000488h-11.65002441c-7.86999512,16.94995117-36.65997314,78.60998535-40.52996826,86.88000488-10.70001221-22.85003662-33.69000244-72.07000732-40.55999756-86.88000488h-11.66003418c-7.86999512,16.94995117-36.65997314,78.60998535-40.52996826,86.88000488-10.70001221-22.85003662-33.69000244-72.07000732-40.57000732-86.88000488h-11.65002441c-7.86999512,16.94995117-36.65997314,78.60998535-40.52996826,86.88000488-10.70001221-22.85003662-33.69000244-72.07000732-40.55999756-86.88000488h-11.66003418c-7.86999512,16.94995117-36.65997314,78.60998535-40.52996826,86.88000488C40.94000244,74.42999268,17.95001221,25.21002197,11.07000732,10.40002441h-5.86999512c-2.85998535,0-5.20001221-2.34002686-5.20001221-5.20001221,0-1.42999268.58001709-2.7300415,1.5300293-3.66998291.93994141-.95001221,2.23999023-1.5300293,3.66998291-1.5300293h556.59997559c2.85998535,0,5.20001221,2.34002686,5.20001221,5.20001221Z"/>
  <path class="cls-5" d="M474.83001709,10.40002441c6.86999512,14.80999756,29.85998535,64.02996826,40.55999756,86.88000488,3.86999512-8.27001953,32.65997314-69.92999268,40.52996826-86.88000488h-81.08996582Z"/>
  <path class="cls-7" d="M382.07000732,10.40002441c6.88000488,14.80999756,29.86999512,64.02996826,40.57000732,86.88000488,3.86999512-8.27001953,32.65997314-69.92999268,40.52996826-86.88000488h-81.09997559Z"/>
  <path class="cls-3" d="M289.33001709,10.40002441c6.86999512,14.80999756,29.85998535,64.02996826,40.55999756,86.88000488,3.86999512-8.27001953,32.65997314-69.92999268,40.52996826-86.88000488h-81.08996582Z"/>
  <path class="cls-6" d="M196.57000732,10.40002441c6.88000488,14.80999756,29.86999512,64.02996826,40.57000732,86.88000488,3.86999512-8.27001953,32.65997314-69.92999268,40.52996826-86.88000488h-81.09997559Z"/>
  <path class="cls-2" d="M103.83001709,10.40002441c6.86999512,14.80999756,29.85998535,64.02996826,40.55999756,86.88000488,3.86999512-8.27001953,32.65997314-69.92999268,40.52996826-86.88000488h-81.08996582Z"/>
  <path class="cls-1" d="M11.07000732,10.40002441c6.88000488,14.80999756,29.86999512,64.02996826,40.57000732,86.88000488,3.86999512-8.27001953,32.65997314-69.92999268,40.52996826-86.88000488H11.07000732Z"/>
</svg>