<?xml version="1.0" encoding="UTF-8"?>
<svg id="Layer_1" data-name="Layer 1" xmlns="http://www.w3.org/2000/svg" viewBox="0 0 568.02516681 364.72010463">
  <defs>
    <style>
      .cls-1 {
        fill: #ff1833;
      }

      .cls-2 {
        fill: #ddced1;
      }

      .cls-3 {
        fill: #0995cc;
      }
    </style>
  </defs>
  <path class="cls-1" d="M567.84754969,16.69003026c-.52001953-10.42004395-6.47003174-16.61999512-15.67004395-16.61999512C468.75752283.07003514,385.33753992.1300327,301.90754725.00002782c-8.32000732-.01000977-14.34002686,2.67999268-17.66003418,10.5-.05999756.13000488-.10998535.26000977-.23999023.57000732-.10998535-.30004883-.15997314-.44000244-.2199707-.58001709C280.52754236,2.79000584,274.66755701-.00998195,266.43751551.00002782,182.91755701.1300327,99.39753748.07003514,15.87751795.07003514,8.41755701.07003514,2.95753504,4.12002293,1.17750574,11.32003514.46754481,14.19003026.06752039,17.20998875.06752039,20.16000096c.01000977,108.69000244-.16998291,217.38000488.02001953,326.05999756.13000488,11.71002197,6.14001465,18.46002197,15.91998291,18.46002197,83.67999268-.02001953,167.35998535-.04998779,251.04003906.02001953,8.10998535.00994873,13.83996582-3.04003906,16.90997314-10.66003418.03997803-.13000488.07000732-.27001953.19000244-.70001221.14001465.41003418-.19000244.55004883-.14001465.70001221,3.22003174,7.89001465,9.60003662,10.70001221,17.92999268,10.67999268,82.90002441-.11999512,165.79003906-.07995605,248.69000244-.05999756,11.2800293.02001953,17.61999512-6.15997314,17.36999512-20.15997314-.13995361-109.26000977.2300415-218.54998779-.14996338-327.80999756Z"/>
  <path class="cls-2" d="M24.0125834,29.56006452h248v305.59997559H24.0125834V29.56006452ZM296.0125834,29.56006452v305.59997559h248V29.56006452h-248Z"/>
  <path class="cls-3" d="M521.16260782,272.43005964h-207.11999512c-.02001953,0-.0300293.01000977-.0300293.02996826v7.76000977c0,.02001953.01000977.0300293.0300293.0300293h207.29998779v-7.80999756c-.05999756-.01000977-.11999512-.01000977-.17999268-.01000977ZM253.98255411,272.43005964H46.89258829c-.07000732,0-.14001465,0-.21002197.01000977v7.80999756h207.29998779c.02001953,0,.0300293-.01000977.0300293-.0300293v-7.76000977c0-.0199585-.01000977-.02996826-.0300293-.02996826ZM521.16260782,245.58002302h-207.11999512c-.02001953,0-.0300293.01000977-.0300293.0300293v7.76000977c0,.02001953.01000977.02996826.0300293.02996826h207.29998779v-7.80999756c-.05999756-.01000977-.11999512-.01000977-.17999268-.01000977ZM253.98255411,245.58002302H46.68256631v7.82000732h207.29998779c.02001953,0,.0300293-.00994873.0300293-.02996826v-7.76000977c0-.02001953-.01000977-.0300293-.0300293-.0300293ZM521.16260782,218.73004743h-207.11999512c-.02001953,0-.0300293.01000977-.0300293.0300293v7.75994873c0,.02001953.01000977.0300293.0300293.0300293h207.29998779v-7.80999756c-.05999756-.01000977-.11999512-.01000977-.17999268-.01000977ZM253.98255411,218.73004743H46.89258829c-.07000732,0-.14001465,0-.21002197.01000977v7.80999756h207.29998779c.02001953,0,.0300293-.01000977.0300293-.0300293v-7.75994873c0-.02001953-.01000977-.0300293-.0300293-.0300293ZM314.0426127,165.02002546c-.02001953,0-.0300293.01000977-.0300293.0300293v7.76000977c0,.0199585.01000977.02996826.0300293.02996826h207.29998779v-7.82000732h-207.29998779ZM253.98255411,165.02002546H46.90259805c-.07000732,0-.15002441,0-.22003174.01000977v7.80999756h207.29998779c.02001953,0,.0300293-.01000977.0300293-.02996826v-7.76000977c0-.02001953-.01000977-.0300293-.0300293-.0300293ZM521.16260782,138.17004988h-207.11999512c-.02001953,0-.0300293.01000977-.0300293.0300293v7.75994873c0,.02001953.01000977.0300293.0300293.0300293h207.29998779v-7.80999756c-.05999756-.01000977-.11999512-.01000977-.17999268-.01000977ZM253.98255411,138.17004988H46.89258829c-.07000732,0-.14001465,0-.21002197.01000977v7.80999756h207.29998779c.02001953,0,.0300293-.01000977.0300293-.0300293v-7.75994873c0-.02001953-.01000977-.0300293-.0300293-.0300293ZM521.16260782,111.32007429h-207.11999512c-.02001953,0-.0300293.00994873-.0300293.02996826v7.76000977c0,.02001953.01000977.0300293.0300293.0300293h207.29998779v-7.81005859c-.05999756-.00994873-.11999512-.00994873-.17999268-.00994873ZM253.98255411,111.32007429H46.68256631v7.82000732h207.29998779c.02001953,0,.0300293-.01000977.0300293-.0300293v-7.76000977c0-.02001953-.01000977-.02996826-.0300293-.02996826ZM521.34260049,307.10004255h-204.01000977c.23999023.98999023.45001221,2.01000977.61999512,3.05999756,4.79998779.94000244,8.27996826,3.7300415,8.27996826,7.02001953,0,4.07000732-5.30999756,7.35998535-11.85998535,7.35998535-6.55999756,0-11.86999512-3.28997803-11.86999512-7.35998535,0-2.76000977,2.45001221-5.16998291,6.08001709-6.41998291-5.44000244-29.84002686-43.79998779-29.80999756-49.23999023-.04003906,3.67999268,1.23999023,6.17999268,3.67004395,6.17999268,6.46002197,0,4.07000732-5.30999756,7.35998535-11.86999512,7.35998535-6.54998779,0-11.85998535-3.28997803-11.85998535-7.35998535,0-3.26000977,3.41998291-6.0300293,8.15997314-7,.16998291-1.05999756.38000488-2.08001709.61999512-3.08001709H46.68256631v-7.82000732h206.58001709c12.2199707-26.17999268,49.16998291-26.11999512,61.36999512,0h206.5300293c.05999756,0,.11999512,0,.17999268.01000977v7.80999756ZM521.34260049,191.89008161v7.80999756h-195.67999268c-1.55004883,2.95996094-6.02001953,5.08996582-11.29003906,5.08996582-6.55999756,0-11.86999512-3.28997803-11.86999512-7.35998535,0-2.76000977,2.45001221-5.16998291,6.08001709-6.41998291-5.44000244-29.84002686-43.79998779-29.80999756-49.23999023-.04003906,3.67999268,1.23999023,6.17999268,3.67004395,6.17999268,6.46002197,0,4.07000732-5.30999756,7.35998535-11.86999512,7.35998535-5.27001953,0-9.73999023-2.13000488-11.29003906-5.08996582H46.68256631v-7.82000732h199.19000244c1.17999268-.64001465,2.55999756-1.14001465,4.08001709-1.45001221,6.69000244-40.72998047,61.33001709-40.63000488,68-.02001953,1.57000732.30999756,3,.80999756,4.21002197,1.47003174h199c.05999756,0,.11999512,0,.17999268.01000977ZM521.34260049,65.44006941h-204.58001709c.48999023,1.66998291.89001465,3.40997314,1.19000244,5.23999023,4.79998779.94000244,8.27996826,3.72998047,8.27996826,7.02001953,0,3.04998779-2.98999023,5.65997314-7.23999023,6.7699585h202.17004395c.05999756,0,.11999512,0,.17999268.01000977v7.80999756h-207.29998779c-.02001953,0-.0300293-.01000977-.0300293-.02996826v-7.22003174c-6.40002441-.10998535-11.51000977-3.34997559-11.51000977-7.33996582,0-2.76000977,2.45001221-5.17004395,6.08001709-6.42004395-5.44000244-29.83996582-43.79998779-29.80999756-49.23999023-.03997803,3.67999268,1.23999023,6.17999268,3.66998291,6.17999268,6.46002197,0,3.98999023-5.10998535,7.22998047-11.51000977,7.33996582v7.22003174c0,.0199585-.01000977.02996826-.0300293.02996826H46.68256631v-7.80999756c.07000732-.01000977.14001465-.01000977.21002197-.01000977h202.14001465c-4.25-1.10998535-7.23999023-3.7199707-7.23999023-6.7699585,0-3.26000977,3.41998291-6.0300293,8.15997314-7,.29998779-1.84002686.70001221-3.59002686,1.20001221-5.26000977H46.68256631v-7.82000732h207.29998779c.02001953,0,.0300293.01000977.0300293.02996826v.65002441c12.69000244-24.25,47.46002197-24.11999512,60,.22998047v-.88000488c0-.0199585.01000977-.02996826.0300293-.02996826h207.29998779v7.82000732Z"/>
</svg>