<?xml version="1.0" encoding="UTF-8"?>
<svg id="Layer_1" data-name="Layer 1" xmlns="http://www.w3.org/2000/svg" viewBox="0 0 423.19995117 549.59997559">
  <defs>
    <style>
      .cls-1 {
        fill: #f94e03;
      }

      .cls-2 {
        fill: #025589;
      }

      .cls-3 {
        fill: #43e4ff;
      }

      .cls-4 {
        fill: #ffc70e;
      }
    </style>
  </defs>
  <rect class="cls-2" x="0" width="423.19995117" height="549.59997559" rx="33.19995117" ry="33.19995117"/>
  <path class="cls-1" d="M385.22998047,238.25994873h-50.47998047c-4.7800293,0-8.68005371,3.91003418-8.68005371,8.68005371v35.58996582c0,4.77001953,3.90002441,8.67999268,8.68005371,8.67999268h50.47998047c4.77996826,0,8.69000244-3.90997314,8.69000244-8.67999268v-35.58996582c0-4.77001953-3.91003418-8.68005371-8.69000244-8.68005371ZM385.22998047,310.38995361h-50.47998047c-4.7800293,0-8.68005371,3.90002441-8.68005371,8.67999268v35.58001709c0,4.7800293,3.90002441,8.69000244,8.68005371,8.69000244h50.47998047c4.77996826,0,8.69000244-3.90997314,8.69000244-8.69000244v-35.58001709c0-4.77996826-3.91003418-8.67999268-8.69000244-8.67999268ZM286.29998779,238.2699585h-50.47003174c-4.77996826,0-8.69000244,3.91003418-8.69000244,8.67999268v35.58001709c0,4.7800293,3.91003418,8.69000244,8.69000244,8.69000244h50.47003174c4.77996826,0,8.69000244-3.90997314,8.69000244-8.69000244v-35.58001709c0-4.7699585-3.91003418-8.67999268-8.69000244-8.67999268ZM286.29998779,310.39996338h-50.47003174c-4.77996826,0-8.69000244,3.91003418-8.69000244,8.69000244v35.58001709c0,4.77996826,3.91003418,8.69000244,8.69000244,8.69000244h50.47003174c4.77996826,0,8.69000244-3.91003418,8.69000244-8.69000244v-35.58001709c0-4.77996826-3.91003418-8.69000244-8.69000244-8.69000244ZM284.82995605,454.67999268h-50.4699707c-4.7800293,0-8.69000244,3.90997314-8.69000244,8.69000244v35.57995605c0,4.7800293,3.90997314,8.69000244,8.69000244,8.69000244h50.4699707c4.7800293,0,8.69000244-3.90997314,8.69000244-8.69000244v-35.57995605c0-4.7800293-3.90997314-8.69000244-8.69000244-8.69000244ZM284.82995605,382.53997803h-50.4699707c-4.7800293,0-8.69000244,3.90997314-8.69000244,8.69000244v35.58001709c0,4.77996826,3.90997314,8.69000244,8.69000244,8.69000244h50.4699707c4.7800293,0,8.69000244-3.91003418,8.69000244-8.69000244v-35.58001709c0-4.7800293-3.90997314-8.69000244-8.69000244-8.69000244ZM187.36999512,238.2699585h-50.47003174c-4.77996826,0-8.69000244,3.91003418-8.69000244,8.67999268v35.58001709c0,4.7800293,3.91003418,8.69000244,8.69000244,8.69000244h50.47003174c4.77996826,0,8.69000244-3.90997314,8.69000244-8.69000244v-35.58001709c0-4.7699585-3.91003418-8.67999268-8.69000244-8.67999268ZM187.36999512,310.39996338h-50.47003174c-4.77996826,0-8.69000244,3.91003418-8.69000244,8.69000244v35.58001709c0,4.77996826,3.91003418,8.69000244,8.69000244,8.69000244h50.47003174c4.77996826,0,8.69000244-3.91003418,8.69000244-8.69000244v-35.58001709c0-4.77996826-3.91003418-8.69000244-8.69000244-8.69000244ZM186.63995361,454.67999268h-50.47998047c-4.77996826,0-8.67999268,3.90997314-8.67999268,8.69000244v35.57995605c0,4.7800293,3.90002441,8.69000244,8.67999268,8.69000244h50.47998047c4.7800293,0,8.69000244-3.90997314,8.69000244-8.69000244v-35.57995605c0-4.7800293-3.90997314-8.69000244-8.69000244-8.69000244ZM186.63995361,382.53997803h-50.47998047c-4.77996826,0-8.67999268,3.90997314-8.67999268,8.69000244v35.58001709c0,4.77996826,3.90002441,8.69000244,8.67999268,8.69000244h50.47998047c4.7800293,0,8.69000244-3.91003418,8.69000244-8.69000244v-35.58001709c0-4.7800293-3.90997314-8.69000244-8.69000244-8.69000244ZM88.44995117,238.2699585h-50.47998047c-4.77996826,0-8.69000244,3.91003418-8.69000244,8.67999268v35.58001709c0,4.7800293,3.91003418,8.69000244,8.69000244,8.69000244h50.47998047c4.7800293,0,8.68005371-3.90997314,8.68005371-8.69000244v-35.58001709c0-4.7699585-3.90002441-8.67999268-8.68005371-8.67999268ZM88.44995117,310.39996338h-50.47998047c-4.77996826,0-8.69000244,3.91003418-8.69000244,8.69000244v35.58001709c0,4.77996826,3.91003418,8.69000244,8.69000244,8.69000244h50.47998047c4.7800293,0,8.68005371-3.91003418,8.68005371-8.69000244v-35.58001709c0-4.77996826-3.90002441-8.69000244-8.68005371-8.69000244ZM88.44995117,454.67999268h-50.47998047c-4.77996826,0-8.69000244,3.90997314-8.69000244,8.69000244v35.57995605c0,4.7800293,3.91003418,8.69000244,8.69000244,8.69000244h50.47998047c4.7800293,0,8.68005371-3.90997314,8.68005371-8.69000244v-35.57995605c0-4.7800293-3.90002441-8.69000244-8.68005371-8.69000244ZM88.44995117,382.53997803h-50.47998047c-4.77996826,0-8.69000244,3.90997314-8.69000244,8.69000244v35.58001709c0,4.77996826,3.91003418,8.69000244,8.69000244,8.69000244h50.47998047c4.7800293,0,8.68005371-3.91003418,8.68005371-8.69000244v-35.58001709c0-4.7800293-3.90002441-8.69000244-8.68005371-8.69000244Z"/>
  <path class="cls-4" d="M393.91998291,174.81994629v35.58001709c0,4.7800293-3.91003418,8.69000244-8.69000244,8.69000244h-50.47998047c-4.7800293,0-8.68005371-3.90997314-8.68005371-8.69000244v-35.58001709c0-4.77996826,3.90002441-8.69000244,8.68005371-8.69000244h50.47998047c4.77996826,0,8.69000244,3.91003418,8.69000244,8.69000244ZM286.29998779,166.12994385h-50.47003174c-4.77996826,0-8.69000244,3.91003418-8.69000244,8.69000244v35.58001709c0,4.7800293,3.91003418,8.69000244,8.69000244,8.69000244h50.47003174c4.77996826,0,8.69000244-3.90997314,8.69000244-8.69000244v-35.58001709c0-4.77996826-3.91003418-8.69000244-8.69000244-8.69000244ZM187.36999512,166.12994385h-50.47003174c-4.77996826,0-8.69000244,3.91003418-8.69000244,8.69000244v35.58001709c0,4.7800293,3.91003418,8.69000244,8.69000244,8.69000244h50.47003174c4.77996826,0,8.69000244-3.90997314,8.69000244-8.69000244v-35.58001709c0-4.77996826-3.91003418-8.69000244-8.69000244-8.69000244ZM88.44995117,166.12994385h-50.47998047c-4.77996826,0-8.69000244,3.91003418-8.69000244,8.69000244v35.58001709c0,4.7800293,3.91003418,8.69000244,8.69000244,8.69000244h50.47998047c4.7800293,0,8.68005371-3.90997314,8.68005371-8.69000244v-35.58001709c0-4.77996826-3.90002441-8.69000244-8.68005371-8.69000244ZM385.2199707,382.53997803h-50.4699707c-4.7800293,0-8.69000244,3.90997314-8.69000244,8.69000244v107.7199707c0,4.77001953,3.90997314,8.67999268,8.69000244,8.67999268h50.4699707c4.7800293,0,8.69000244-3.90997314,8.69000244-8.67999268v-107.7199707c0-4.7800293-3.90997314-8.69000244-8.69000244-8.69000244Z"/>
  <path class="cls-3" d="M393.89996338,54.92999268v59.80999756c0,7.13000488-5.83001709,12.9699707-12.95996094,12.9699707H42.25994873c-7.12994385,0-12.95996094-5.83996582-12.95996094-12.9699707v-59.80999756c0-7.13000488,5.83001709-12.97003174,12.95996094-12.97003174h338.68005371c7.12994385,0,12.95996094,5.84002686,12.95996094,12.97003174Z"/>
</svg>