<?xml version="1.0" encoding="UTF-8"?>
<svg id="Layer_1" data-name="Layer 1" xmlns="http://www.w3.org/2000/svg" viewBox="0 0 432.06327441 547.65789979">
  <defs>
    <style>
      .cls-1 {
        fill: #025589;
      }

      .cls-2 {
        fill: #ddced1;
      }

      .cls-3 {
        fill: #ff9605;
      }
    </style>
  </defs>
  <path class="cls-1" d="M432.06005859,541.58001709c0,4.2800293-2.49005127,6.4699707-6.66003418,6.02001953-47.41998291-.05004883-94.90997314.19000244-142.33001709-.07000732-10.90997314-.01000977-21.82000732-.02001953-32.72998047-.0300293h-.01000977c-8.39996338.04998779-17.4699707.10003662-25.85998535.14001465l-17.5300293-.13000488h-25.2199707c-10.90997314,0-21.83001709.01000977-32.73999023.01000977h-.01000977c-46.47003174.27996826-92.97998047,0-139.47003174.09002686-8.95996094,0-9.44995117-.49005127-9.44995117-9.63000488.07000732-46.42004395-.13000488-92.86004639.07000732-139.30004883.00994873-10.90997314.00994873-21.82995605.00994873-32.73999023,0-8.60998535-.00994873-17.2199707-.00994873-25.83996582-.21002197-90.38000488.0199585-180.7800293-.12005615-271.15002441,0-5.73999023,3.95001221-6,7.7800293-6.02996826,6.82000732-.05004883,13.64001465-.09002686,20.4699707-.10003662l-.00994873-43.70001221C28.24005127,8.55999756,36.79003906,0,47.35003662,0h39.16998291c10.55999756,0,19.11999512,8.57000732,19.10998535,19.13000488l-.07995605,102.29003906c7.08996582,6.03997803,15.19000244,11,23.90997314,15.06994629-.02001953-33.33996582-.02996826-88.44000244-.03997803-117.37994385,0-10.56005859,8.55999756-19.11004639,19.10998535-19.11004639h39.17999268c10.55999756,0,19.10998535,8.55999756,19.10998535,19.11999512-.02996826,32.0300293-.07995605,96.69000244-.09997559,133.95001221,7.34997559.58001709,14.86999512.82000732,22.45001221.70001221h.01000977c0-7.75-.0300293-95.20001221-.05004883-134.65997314,0-10.55004883,8.55999756-19.11004639,19.11004639-19.11004639h39.16998291c10.55999756,0,19.11999512,8.55999756,19.10998535,19.11999512-.02001953,29.41003418-.07000732,85.61999512-.08001709,117.14001465,19.49005127-12.03997803,26.83001709-20.65997314,26.83001709-20.65997314-.02001953-25.95001221-.02996826-70.96002197-.02996826-96.4800415,0-10.55999756,8.54998779-19.11999512,19.10998535-19.11999512h39.16998291c10.55999756,0,19.11999512,8.57000732,19.10998535,19.13000488l-.03997803,43.63000488c16.97998047-.08996582,21.40997314-.4699707,21.39001465,6.91003418-.13000488,90.15997314.15997314,180.28997803-.10003662,270.44000244v25.88995361c.01000977,10.91003418.01000977,21.80999756.01000977,32.72003174.21002197,47.61999512.10998535,95.25.17004395,142.85998535Z"/>
  <path class="cls-3" d="M431.8944165,398.71877884c-49.64511782,49.55501904-99.34652162,99.07622526-148.82271281,148.81137315,47.41567115.25902542,94.91010143.02254188,142.32570385.06755691,4.1774635.4504252,6.66586687-1.73400644,6.66586687-6.01277094-.06755691-47.61834187.03381282-95.24788596-.16885791-142.86615911ZM224.47498636,547.64279265c8.38867109-.04508376,17.45291126-.09009879,25.8528533-.14638475h.01120221c60.40962035-60.60102013,120.9880986-121.04438457,181.5441037-181.49901994v-25.88659739c-69.19236195,68.83203553-207.4081592,207.53200208-207.4081592,207.53200208ZM.12062706,340.09951963c0,8.62508591.01127094,17.22769866.01127094,25.84158236,60.70232113,60.34199471,121.0556555,121.0556555,181.58911873,181.56657685h25.22223053C138.03238387,476.5024826,69.93227211,410.31650613.12062706,340.09951963ZM.12062706,398.68496602c-.20267072,46.43606163,0,92.87205454-.06755691,139.2967765,0,9.14306802.48416929,9.62723731,9.44710846,9.62723731,46.49227887-.09003006,92.99582869.19146851,139.46563441-.09003006h.01127094C99.37704989,497.89637383,49.92333185,448.10487125.12062706,398.68496602Z"/>
  <path class="cls-2" d="M410.62973315,19.13090376l-.03917781,43.62496874s-31.02112853-.01127094-45.54641344,0c-9.1318658,0-9.49219222.54045526-11.03479888,9.50339443-2.84872978,16.51831677-9.61596637,31.05494135-20.7407953,43.33950865-.01551898-25.95340655-.02566335-70.95924992-.03047798-96.48319624-.00199106-10.55528832,8.55422038-19.1113458,19.10950889-19.1113458h39.17265348c10.56059285,0,19.11898508,8.56608162,19.10950104,19.12667022ZM287.41195291.00423354h-39.16965724c-10.5567826,0-19.11360201,8.55346418-19.10950985,19.11024599.01529396,39.45472481.04884836,126.90060089.04884836,134.65552946,50.35449972-3.42306658,77.25445072-17.50926596,77.25445072-17.50926596.0161364-31.51586811.06111533-87.73273971.08537471-117.13700312.00871234-10.56003919-8.54946391-19.11950637-19.10950669-19.11950637ZM187.7065178.00423354h-39.17537409c-10.55525441,0-19.11143642,8.54865006-19.109511,19.10390429.00527894,28.93942875.01791275,84.04127144.04195121,117.3778178,23.08288264,10.71948749,50.83866901,15.24600647,77.25445072,16.58587368.02473506-37.2640724.07355923-101.9204449.09799215-133.95128111C206.82408158,8.56096881,198.26610027.00423354,187.7065178.00423354ZM86.52331848.00423354h-39.1737097C36.79437954.00423354,28.23820653,8.56194183,28.24010034,19.1171709l.00784172,43.70625851c14.2888701-.03381282,28.5777402-.02254188,42.87788124,0,4.30130638.01127094,5.81010022,2.75869972,6.3843683,6.6771378,3.24286901,22.77884219,13.53447318,39.55618438,28.03728494,51.91957953l.08534405-102.2904608C105.6416312,8.56957243,97.08343566.00423354,86.52331848.00423354ZM74.96046532,256.07534134s1.63612621-17.54955601-12.34444576-17.99533716c-13.53410711-.44714858-15.46764866,22.30956883-15.17023332,30.48883245.29741534,9.36960868,1.93354155,35.09911203,16.65731,32.86883886,14.57540265-2.2316406,11.45219975-21.86378768,11.45219975-21.86378768l21.56568863-.44578115s.89224601,3.86708309.89224601,8.47804638c0,12.6418611-6.39545531,38.52041397-34.20754973,38.81851302-33.1662542.29673162-37.9255833-30.78761521-39.4133437-55.32745721-.14836581-1.93354155-.29741534-4.46191377-.29741534-6.54450484,0-26.32365031,12.34444576-51.31064088,39.85980856-51.90547156,33.61271906-.7438802,32.72047305,43.28042679,32.72047305,43.28042679l-21.71473816.1476821ZM128.50343052,259.34759375h17.69860554v-39.85912484l22.45861836.14904953,2.23027317,103.96067635-24.539842-2.23027317v-41.64498429l-17.69860554-1.4877604.29673162,42.53654659-27.06821422,1.04197925,4.31286424-102.47428338,22.01283721-1.33871087.29673162,41.34688524ZM210.00617223,216.66336507h27.06889793l30.19278454,104.10835845-24.98699058,5.35484349-7.43606713-28.25787557-25.43345544-.44714858-7.88321571,29.00312319-23.7959618-6.09872369,32.27400819-103.6625773ZM214.76618504,278.08749483l15.02186751.1476821-6.39613903-24.98493944-8.62572848,24.83725734ZM299.54186289,219.04268776l-.1476821,83.73369859,28.40692509-1.04197925.8915623,21.86378768-52.20288689-1.33871087-1.93354155-104.85360608,24.98562315,1.63680992ZM357.69442394,252.65540682l22.75534998-38.22368235,21.71473816,8.92382753-29.29985482,43.5764747,35.10047946,49.97398115-23.94501133,6.84123646-23.20249855-37.034021-1.04061182,1.33871087,2.52837222,35.5462606h-23.49923018l-2.08259107-108.1258585,22.30956883.59483067-1.33871087,36.58823985Z"/>
</svg>