<?xml version="1.0" encoding="UTF-8"?>
<svg id="Layer_1" data-name="Layer 1" xmlns="http://www.w3.org/2000/svg" viewBox="0 0 379.59997559 550.11593915">
  <defs>
    <style>
      .cls-1 {
        fill: #ddced1;
      }

      .cls-2 {
        fill: #7526a8;
      }

      .cls-3 {
        fill: #0995cc;
      }
    </style>
  </defs>
  <path class="cls-3" d="M350.52996826,40.51596357h-85.53997803c-2.67999268-2.40002441-5.72998047-4.54003906-9.15002441-6.41003418-10.57995605-5.54998779-22.13000488-6.82000732-33.75994873-7.58001709-4.92004395-35.75994873-60.62005615-35-64.46002197.08001709-11.79998779.30999756-23.09002686,2.27001953-33.64001465,7.51000977-3.40997314,1.73999023-6.52996826,3.90002441-9.29998779,6.40002441H29.07000732c-15.98999023,0-29.07000732,13.07995605-29.07000732,29.06994629v451.46002197c0,15.98999023,13.08001709,29.07000732,29.07000732,29.07000732h321.45996094c15.98999023,0,29.07000732-13.08001709,29.07000732-29.07000732V69.58590986c0-15.98999023-13.08001709-29.06994629-29.07000732-29.06994629ZM189.90997314,11.17593671c14.70001221.01000977,14.07000732,22.95001221-.58996582,22.22003174-14-.70001221-13.42999268-22.2300415.58996582-22.22003174Z"/>
  <path class="cls-2" d="M379.59997559,69.58590986v451.46002197c0,15.98999023-13.08001709,29.07000732-29.07000732,29.07000732H29.07000732c-15.98999023,0-29.07000732-13.08001709-29.07000732-29.07000732V69.58590986c0-15.98999023,13.08001709-29.06994629,29.07000732-29.06994629h85.60998535c-6.96002197,6.28997803-11.72998047,14.77996826-13.36999512,24.2699585-25.25.17999268-50.70001221.08001709-75.85003662.10003662v460.33996582c110.13000488.40002441,220.01000977.38000488,330.04003906,0V64.88595869c-25.84002686-.02001953-51.42999268.08996582-77.17999268-.11004639-1.88000488-10-6.36004639-18.02996826-13.33001709-24.25994873h85.53997803c15.98999023,0,29.07000732,13.07995605,29.07000732,29.06994629Z"/>
  <path class="cls-1" d="M278.32000732,64.7759123c.10998535,2.54003906.94000244,5.05004883.41998291,7.66003418H100.77996826c.19000244-2.72003174.36004639-5.17999268.5300293-7.65002441-25.25.17999268-50.70001221.08001709-75.85003662.10003662v460.33996582c110.13000488.40002441,220.01000977.38000488,330.04003906,0V64.88595869c-25.84002686-.02001953-51.42999268.08996582-77.17999268-.11004639ZM46.5199585,117.85592939c1.34002686-2.07000732,3.49005127-2.4699707,5.77001953-2.4699707h276.04998779c4.84002686,0,7.35003662,1.88995361,7.35003662,5.53997803,0,3.69000244-2.46002197,5.57000732-7.29998779,5.57000732-92.02001953.01000977-184.04003906,0-276.05999756.01000977-2.40002441,0-4.60003662-.4800415-5.94000244-2.71002197-1.17004395-1.96002197-1.11004639-4.02996826.12994385-5.94000244ZM52.42999268,337.7759123c46.13000488,0,230.96002197,0,277.23999023.02001953,2.97998047,0,5.32000732,1.38000488,5.94000244,4.38000488,1.0300293,4.09002686-2.61999512,6.96002197-6.51000977,6.71002197-92.2199707.01000977-184.44000244.01000977-276.65997314.01000977-4.35003662,0-7.01000977-2.11004639-7.0300293-5.54003906-.0199585-3.39001465,2.72003174-5.58001709,7.02001953-5.58001709ZM52.19000244,306.7559538c46.17999268.01000977,230.51000977,0,276.48999023,0,4.52001953.01000977,7.01000977,2,7.01000977,5.58996582-.01000977,3.52001953-2.5,5.5300293-6.91003418,5.5300293H52.27996826c-8.72998047.4699707-9.07995605-11.46002197-.08996582-11.11999512ZM335.89996338,375.87594892c.43005371,3.01000977-1.19995117,5.05999756-4.07995605,5.89996338-46.91003418.61004639-233.04003906.22003174-279.05999756.22003174-4.76000977,0-7.10003662-1.78997803-7.11004639-5.41003418-.00994873-3.67999268,2.55999756-5.70996094,7.26000977-5.70996094,92.01000977,0,184.02001953,0,276.0300293.01000977,3.4699707,0,6.40997314,1.09997559,6.95996094,4.98999023ZM328.95996094,478.22592451c-92.16998291.01000977-184.33996582.01000977-276.50994873.01000977-4.43005371,0-6.80999756-1.98999023-6.80004883-5.64001465.02001953-3.54998779,2.39001465-5.4699707,6.79003906-5.47998047,46.13000488,0,230.95001221,0,277.22998047.02001953,2.97998047,0,5.32000732,1.38000488,5.94000244,4.38000488,1.03997803,4.16998291-2.72998047,7.00994873-6.65002441,6.70996094ZM52.30999756,436.08590986c46.13000488.02001953,230.08001709.01000977,275.92999268.01000977,4.96002197,0,7.45001221,1.86999512,7.45001221,5.58001709-.01000977,3.70001221-2.48999023,5.53997803-7.48999023,5.53997803H52.2699585c-2.55999756,0-4.88995361-.53997803-6.16998291-3.04998779-2.22998047-4.39996338,1.63000488-8.45001221,6.21002197-8.08001709ZM328.78997803,413.01596357H52.76000977c-4.76000977-.01000977-7.10003662-1.79003906-7.11004639-5.40002441-.00994873-3.69000244,2.55999756-5.7199707,7.26000977-5.7199707h275.7300415c4.63995361,0,7.34997559,2.12994385,7.32995605,5.7199707-.0199585,3.44000244-2.60998535,5.40002441-7.17999268,5.40002441ZM328.83001709,283.66592695c-46.0300293.01000977-230.15002441.01000977-276.18005371,0-4.53997803,0-7.23999023-2.09997559-7.20996094-5.58996582.02996826-3.24005127,3.03997803-5.52001953,7.29998779-5.52001953h276.02996826c4.54003906,0,7.21002197,2.11999512,7.20001221,5.70001221-.01000977,3.57000732-2.42999268,5.40997314-7.13995361,5.40997314ZM331.83996582,252.43594648c-46.94000244.63000488-232.98999023.2199707-278.97998047.2199707-4.88000488,0-7.21002197-1.7699585-7.21002197-5.44995117,0-3.66003418,2.59002686-5.67004395,7.32000732-5.67004395,91.9800415,0,183.96002197,0,275.94000244.01000977,3.46002197,0,6.41003418,1.07000732,6.98999023,4.96002197.46002197,3.02996826-1.22998047,5.04998779-4.05999756,5.92999268ZM45.64996338,217.0259123c.01000977-3.58996582,2.61004639-5.62994385,7.21002197-5.62994385h275.78997803c4.63000488,0,7.35003662,2.13995361,7.32000732,5.72998047-.02996826,3.38000488-2.70996094,5.39001465-7.20996094,5.39001465H52.82000732c-4.86999512,0-7.17999268-1.7800293-7.17004395-5.49005127ZM331.83996582,191.2759123c-46.98999023.63000488-233.03997803.22003174-278.97998047.22003174-4.88000488,0-7.21002197-1.77001953-7.21002197-5.45001221,0-3.65997314,2.59002686-5.66998291,7.32000732-5.66998291,91.9800415,0,183.96002197,0,275.94000244.01000977,3.47003174,0,6.41003418,1.07995605,6.98999023,4.9699707.46002197,3.02001953-1.22998047,5.04003906-4.05999756,5.91998291ZM329.36999512,157.48593427c-92.40002441.0300293-184.79998779.0300293-277.20001221.0300293-4.08001709,0-6.75-2.22003174-6.76000977-5.55004883,0-3.30999756,2.69000244-5.55999756,6.73999023-5.55999756h277.4800415c3.13995361,0,5.44000244,1.2800293,6.19000244,4.45001221,1.09997559,4.01000977-2.7800293,6.77001953-6.45001221,6.63000488Z"/>
</svg>