<?xml version="1.0" encoding="UTF-8"?>
<svg id="Layer_1" data-name="Layer 1" xmlns="http://www.w3.org/2000/svg" viewBox="0 0 36.25 560.77154049">
  <defs>
    <style>
      .cls-1 {
        fill: #ffb176;
      }

      .cls-2 {
        fill: #7526a8;
      }
    </style>
  </defs>
  <path class="cls-2" d="M36.25,53.75152096v496.90002441c0,6.00994873-1.44000244,7.86999512-7.41998291,9.07995605-3.52996826.7300415-7.08996582,1.0300293-10.65002441,1.04003906h-.10998535c-3.55999756-.01000977-7.11999512-.30999756-10.64996338-1.04003906-5.9800415-1.20996094-7.42004395-3.07000732-7.42004395-9.07995605V53.75152096L13.25,11.4415234l3.14001465-10.03997803c.2800293-.83001709.94490342-1.34992064,1.67999268-1.40002441.02743269-.00186982.08257558-.00218016.10998535,0,.73453543.0584245,1.40002441.57000732,1.68005371,1.40002441l3.13995361,10.03997803,13.25,42.30999756Z"/>
  <path class="cls-1" d="M36.25,53.75152096c-5.88000488.01000977-30.36999512.01000977-36.25,0L13.25,11.4415234h9.75l13.25,42.30999756Z"/>
</svg>