<?xml version="1.0" encoding="UTF-8"?>
<svg id="Layer_1" data-name="Layer 1" xmlns="http://www.w3.org/2000/svg" viewBox="0 0 451.9575257 543.12130811">
  <defs>
    <style>
      .cls-1 {
        fill: #ddced1;
      }

      .cls-2 {
        fill: #3d363c;
      }

      .cls-3 {
        fill: #756a6e;
      }
    </style>
  </defs>
  <path class="cls-1" d="M451.9575257,243.44447624v203.70001221c0,6.40002441-.48999023,12.79998779-1.69995117,19.08001709-9.60003662,49.96002197-53.11004639,72.34997559-103.29003906,76.10998535-62.08996582,4.66003418-133.14001465-10.11999512-144.54998779-78.40997314-.94000244-5.57000732-1.32000732-11.22003174-1.32000732-16.86004639l-.01000977-204.75c0-6.30999756.45001221-12.60998535,1.59002686-18.80999756,10.25-55.88995361,61.48999023-76.07995605,116.2199707-77.44995117,0,0-.01000977-.01000977-.0199585-.02001953l.0199585-.0300293c.02001953-2.03997803.48999023-64.62994385-10.45001221-93.90997314-22.11999512-59.20001221-86.15997314-38.08001709-119.86999512-6.52001953-35.59997559,33.7800293-95.04998779,97.48999023-149.88995361,75.02001953C12.27753302,109.71449577,1.9375672,78.24452507.01752325,52.85451042c-.2199707-2.94000244,1.65002441-6.83001709,4.54003906-7.46002197,1.66998291-.2699585,3.35998535-.10998535,4.79998779.65002441.17999268.09997559.34997559.20996094.52001953.32000732,1.66998291,1.13000488,2.64996338,3.0199585,2.88995361,5.02996826,4.05004883,32.40002441,24.32000732,92.13000488,102.99005127,39.7300415C159.54755255,61.95448601,185.62756964,12.09450066,242.22754523,1.85451042c89.28997803-16.64001465,91.42999268,82.52996826,91.64001465,144.20001221h.01000977c38.5.7699585,82.47998047,11.32995605,104.36999512,45.82000732,6.72998047,10.62994385,10.22998047,21.79998779,12.2699585,33.75,1.01000977,5.88995361,1.44000244,11.84997559,1.44000244,17.81994629Z"/>
  <path class="cls-3" d="M437.17755743,340.52449333c-5-3.52996826-7.20001221-8.13000488-22.79998779-18.52996826-41.94000244-27.96002197-128.13000488-30.40002441-172.67004395-2.13000488-13.32995605,8.45996094-20.79998779,17.05999756-25.05999756,21.32995605-3.32995605,3.33001709-8.29998779-.58996582-8.02996826-5.73999023.28997803-5.72998047,14.5-17.32000732,18.10998535-19.91998291,27.25-19.66998291,60.17999268-25.66998291,92.16998291-26.63000488v-23.70001221c-6.20996094-1.98999023-10.73999023-7.82995605-10.73999023-14.67999268v-51.59997559c0-6.85003662,4.5300293-12.69000244,10.73999023-14.67999268v-38.24005127c4.67004395-.09997559,10.29003906-.0199585,14.97003174.34002686.10998535,12.47998047.4699707,24.97998047.32000732,37.47998047,7.02996826,1.42004395,12.36999512,7.66003418,12.36999512,15.10003662v51.59997559c0,7.45001221-5.36004639,13.70001221-12.40002441,15.10998535v23.27001953c30.61999512.55999756,66.04998779,7.44000244,92.01000977,26.5,6.60998535,4.85998535,17.25,13.19000244,18.09997559,19.04998779.7800293,5.41003418-3.75994873,8.42999268-7.08996582,6.07000732Z"/>
  <path class="cls-2" d="M334.1875672,183.82448113c-.9800415-.19995117-1.99005127-.29998779-3.0300293-.29998779h-7.59997559c-1.61999512,0-3.19000244.25-4.66003418.72003174-6.20996094,1.98999023-10.73999023,7.82995605-10.73999023,14.67999268v51.59997559c0,6.85003662,4.5300293,12.69000244,10.73999023,14.67999268,1.47003174.47003174,3.04003906.72003174,4.66003418.72003174h7.59997559c1.0300293,0,2.0300293-.10003662,3-.29003906,7.03997803-1.40997314,12.40002441-7.65997314,12.40002441-15.10998535v-51.59997559c0-7.44000244-5.34002686-13.67999268-12.36999512-15.10003662ZM333.86755988,146.05452263v.28997803c-4.67999268-.35998535-10.29998779-.44000244-14.97003174-.34002686.02001953-2.03997803.48999023-64.62994385-10.45001221-93.90997314-22.11999512-59.20001221-86.15997314-38.08001709-119.86999512-6.52001953-35.59997559,33.7800293-95.04998779,97.48999023-149.88995361,75.02001953C12.27753302,109.71449577,1.9375672,78.24452507.01752325,52.85451042c-.2199707-2.94000244,1.65002441-6.83001709,4.54003906-7.46002197,1.66998291-.2699585,3.35998535-.10998535,4.79998779.65002441.17999268.09997559.34997559.20996094.52001953.32000732,1.66998291,1.13000488,2.64996338,3.0199585,2.88995361,5.02996826,4.05004883,32.40002441,24.32000732,92.13000488,102.99005127,39.7300415C159.54755255,61.95448601,185.62756964,12.09450066,242.22754523,1.85451042c89.28997803-16.64001465,91.42999268,82.52996826,91.64001465,144.20001221Z"/>
</svg>