<?xml version="1.0" encoding="UTF-8"?>
<svg id="Layer_1" data-name="Layer 1" xmlns="http://www.w3.org/2000/svg" viewBox="0 0 479.81151645 561.95302598">
  <defs>
    <style>
      .cls-1 {
        fill: #fff;
      }

      .cls-2 {
        fill: #7526a8;
      }

      .cls-3 {
        fill: #1aa419;
      }
    </style>
  </defs>
  <path class="cls-3" d="M479.80999756,545.12128407c0,11.09002686-5.7199707,16.80999756-16.85998535,16.80999756-138.79003906-.07000732-277.59002686.13000488-416.38000488-.07000732H0V.1612621h46.57000732C184.01000977-.07872813,321.44000244.00128896,458.86999512.07129628c15.52001953.01000977,20.90997314,5.39001465,20.91998291,21.01000977.04003906,174.67999268.01000977,349.35998535.02001953,524.03997803Z"/>
  <path class="cls-2" d="M46.57347633.16581593c-.00019102,187.23072113-.00038205,374.46141838-.00072589,561.69219204H.00104737V.16581593h46.57242896Z"/>
  <path class="cls-1" d="M404.10184371,129.72179821c-47.52963379-.0106668-237.78749177-.0106668-285.38138813,0-10.55025248,0-18.26994144,7.7304212-18.26994144,18.33426946-.0106668,57.60806024-.0106668,115.20545368,0,172.81351393,0,10.58238377,7.74115344,18.33420402,18.28067368,18.33420402,95.13426239.01073224,190.25779254.01073224,285.38138813,0,10.65744403,0,18.37713299-7.70895672,18.37713299-18.43072876.02139904-57.54373223.02139904-115.0981967,0-172.64192893,0-10.73250429-7.69828991-18.40932971-18.38786523-18.40932971ZM408.0903115,320.88031384c.06439346,2.85196257-1.09357625,3.80621599-3.88127624,3.80621599-47.64755757-.04286353-237.45505401-.06432801-284.7166435.04286353-3.52743944,0-4.80333293-1.12577298-4.69614139-4.57815216.15012051-4.63181338-.02139904-117.15682405.01073224-168.77145037,0-7.1085401.03219673-7.07634337,7.26939286-7.07634337,92.1643106.02146449,184.33941887,0,276.50372947.01073224,9.26362675,0,9.56386778,0,9.57460002,9.30649028.10719154,50.83189246-.16085276,162.3383217-.06439346,167.25964386ZM402.26839714,150.27548234v168.34255331H120.63962922v-168.34255331h281.62876792Z"/>
</svg>