<?xml version="1.0" encoding="UTF-8"?>
<svg id="Layer_1" data-name="Layer 1" xmlns="http://www.w3.org/2000/svg" viewBox="0 0 95.82995605 551.63779896">
  <defs>
    <style>
      .cls-1 {
        fill: #66c602;
      }

      .cls-2 {
        fill: #086d08;
      }

      .cls-3 {
        fill: #3d363c;
      }
    </style>
  </defs>
  <path class="cls-1" d="M95.82995605,85.76000977v15.85998535c0,6.35998535-.00994873,12.71002197-.0199585,19.07000732,0,7.11999512-.01000977,14.23999023-.01000977,21.35998535-.02001953,2.83001709-.0300293,5.66998291-.04998779,8.51000977v11.5c.0199585,14.63000488-.13000488,297.97998047-.17004395,298.9699707.01000977,6.30004883.01000977,12.61004639.01000977,18.91003418-.01000977,2.83996582-.02996826,5.66998291-.04998779,8.5-.01000977,4.63000488-.02001953,9.26000977-.02001953,13.89001465-.0199585,5.38995361-.03997803,10.77996826-.04998779,16.16998291v27.88000488c-31.58996582,7.2199707-63.27996826,6.90997314-95.07000732-.35003662v-27.25c-.02996826-5.44995117-.05999756-10.89996338-.08996582-16.35998535-.01000977-5.88000488-.02001953-11.75-.0300293-17.63000488.02001953-2.86999512.04003906-5.73999023.04998779-8.61999512-.00994873-4.77996826-.02996826-9.57000732-.04998779-14.35998535C.2199707,441.39996338.0199585,162.78997803.04998779,162.16998291c-.01000977-5.14001465-.01000977-10.28997803-.02001953-15.44000244l.0300293-8.2199707c-.02001953-5.67999268-.04003906-11.36999512-.05999756-17.05999756.01000977-6.46002197.02996826-12.91003418.03997803-19.36999512v-16.94000244h6.86999512C18.51000977,56.65997314,30.03997803,28.36999512,41.59997559,0h12.58001709c11.53997803,28.41998291,23.04998779,56.78997803,34.63000488,85.33001709,2.32000732.13995361,4.64001465.28997803,7.0199585.42999268Z"/>
  <path class="cls-3" d="M95.5465596,488.44041661c-.00940967,4.62923966-.01877388,9.25843386-.02791081,13.88735531-31.7353182.03132011-63.47079549.06291297-95.20627279.09446036-.00997789-5.87699832-.0199785-11.75395119-.03036551-17.62944942,1.07852097.60535547,2.14367748,1.23553064,3.23849491,1.80911142,12.39644531,6.49508185,24.65095006,4.02415694,36.86779339-.60121885,9.61156924-3.63899685,19.05153701-7.89607722,29.78565266-6.73123275,9.23093216,1.00174351,17.30779325,5.03067347,25.37260814,9.17097393ZM.33605928,476.17511575c11.83811547,9.06451282,24.43932339,7.77452428,37.360301,2.83503824,9.12635754-3.48885124,18.11641123-7.46359604,28.18073563-7.57960319,10.779573-.12428038,20.26988477,4.08043313,29.71837579,8.51229699-.00331839-6.30411554-.00609128-12.61032212-.0086369-18.91589229-31.7681384.26115245-63.5364359.52166849-95.30475613.78223.01797838,4.78865857.03597949,9.57727168.0539806,14.36593024ZM68.19551143,247.90032917c-1.93971037-13.81987389-3.87869343-27.70377444-10.60056197-40.25850222-2.06360437-3.85419192-4.89000572-7.30467716-9.82462782-7.21353519-5.11590599.09446036-7.88148542,3.6748627-10.07487051,7.76334178-3.56219667,6.64004532-5.53661372,13.83848867-6.80489638,21.17912259-8.9472556,51.7864395-8.42672354,103.58276596.19937592,155.35095434,1.65353366,9.92347482,3.91819586,19.69353109,10.28281513,27.87648962,4.33269867,5.57057036,11.03695249,5.53015878,15.303738-.07855029,4.77106657-6.27147717,6.78823627-13.68557016,8.44065622-21.22767104,5.52834049-25.233145,6.69782161-50.86285989,6.9858848-71.66305005.1373721-27.26699754-.79759458-49.57075758-3.90751339-71.72859954ZM95.75316323,150.56122047c-7.68120035-4.15791517-15.32839861-8.33619524-23.8876985-10.57342394-12.91770468-3.3764125-24.39079767,1.41392799-35.98783011,5.90202259-11.82020527,4.57444083-23.7521447,6.74098335-35.84400307.84030175.00572763,5.14829435.01138706,10.29674781.01686468,15.44461032,31.90128296-.03738867,63.80274776-.07420912,95.70421255-.11102957-.00054549-3.83416796-.00104552-7.6683132-.00154555-11.50248116ZM.06115598,138.51566041c10.05723306,5.55263744,20.75341455,5.69710088,30.6824579,1.00451641,22.3494674-10.56278692,43.86974737-11.21394066,65.05932515,2.52749658.00386387-7.11896118.00822778-14.23864968.01263714-21.35822453-31.93646695.25267465-63.87297935.50523566-95.80949176.75779667.01836477,5.68946405.03670681,11.37895082.05507157,17.06841487Z"/>
  <path class="cls-2" d="M.39996338,518.77996826v27.25c31.79003906,7.26000977,63.4800415,7.57000732,95.07000732.35003662v-27.88000488c-30.33001709.10998535-93.70996094.28997803-95.07000732.27996826ZM88.80999756,85.33001709C77.22998047,56.78997803,65.7199707,28.41998291,54.17999268,0h-12.58001709C30.03997803,28.36999512,18.51000977,56.65997314,6.90997314,85.14001465H.03997803v16.94000244c14.29998779-.02001953,78.14001465-.33001709,95.78997803-.46002197v-15.85998535c-2.37994385-.14001465-4.69995117-.29003906-7.0199585-.42999268Z"/>
</svg>