<?xml version="1.0" encoding="UTF-8"?>
<svg id="Layer_1" data-name="Layer 1" xmlns="http://www.w3.org/2000/svg" viewBox="0 0 545.72160672 303.63067607">
  <defs>
    <style>
      .cls-1 {
        fill: #fc86b7;
      }

      .cls-2 {
        fill: #fc298d;
      }

      .cls-3 {
        fill: #ff5ab5;
      }
    </style>
  </defs>
  <path class="cls-1" d="M527.93662994,252.12567024c-22.21993497,11.99075113-107.54053486,53.81630552-130.62982623,51.40486298-9.48466091-.5098134-362.42416691-90.53612162-372.3824041-94.17495442-15.73398329-5.72014335-23.9044632-17.41307672-24.45118643-34.97383839-1.1668025-37.58670064.19142418-111.0126481.19142418-111.0126481-.17200861-4.36246392.49208296-10.69315432,3.69475577-13.77205369,5.27215421-5.04547927,17.06506601-9.32982536,23.59749017-11.88715158C60.17467979,25.07839015,79.15359916,17.27791376,111.15911089,4.08787626c13.75695123-5.6659603,25.32961708-4.70179793,38.9480339-1.56843017,0,0,314.7364457,67.01861226,355.28288599,75.62770409,6.89091325,1.45797909,13.56950994,3.96154979,19.60516459,7.6619117,6.17809052,3.80383208,11.63792585,8.61969163,15.9031749,15.0957667,4.05484226,5.74030679,5.00371092,12.32025252,4.7966905,19.14417029-.91233797,32.28723843-1.91595361,64.57080334-2.86496927,96.86122253-.38067872,12.8704244-3.30752708,28.95184832-14.89346156,35.21544885Z"/>
  <path class="cls-2" d="M527.93662994,252.12567024c-22.21993497,11.99075113-107.54053486,53.81630552-130.62982623,51.40486298,2.31950097-53.87562484,4.995058-107.74206064,8.04450879-161.58924716,43.90731389-12.9311116,134.55172094-39.20520332,135.54705777-41.03645748,4.05484226,5.74030679,5.00371092,12.32025252,4.7966905,19.14417029-.91233797,32.28723843-1.91595361,64.57080334-2.86496927,96.86122253-.38067872,12.8704244-3.30752708,28.95184832-14.89346156,35.21544885Z"/>
  <path class="cls-3" d="M397.30680371,303.53053322c-9.48466091-.5098134-362.42416691-90.53612162-372.3824041-94.17495442-15.73398329-5.72014335-23.9044632-17.41307672-24.45118643-34.97383839-1.1668025-37.58670064.19142418-111.0126481.19142418-111.0126481-.17200861-4.36246392.49208296-10.69315432,3.69475577-13.77205369,0,0,265.21935986,65.31745193,400.99191937,92.34424744-3.04945079,53.84718652-5.72500782,107.71362232-8.04450879,161.58924716Z"/>
</svg>