<?xml version="1.0" encoding="UTF-8"?>
<svg id="Layer_1" data-name="Layer 1" xmlns="http://www.w3.org/2000/svg" viewBox="0 0 300.17286385 557.88062604">
  <defs>
    <style>
      .cls-1 {
        fill: #f94e03;
      }

      .cls-2 {
        fill: #ddced1;
      }

      .cls-3 {
        fill: #0995cc;
      }
    </style>
  </defs>
  <path class="cls-2" d="M299.91641806,479.84308942c-.55999756,11.85003662-1.69000244,22.69000244-2.91998291,34.49005127-.53997803,5.25-5.73999023,7.63995361-9.34997559,9.93994141-40.67999268,25.26000977-89.19000244,33.39001465-136.54003906,33.60003662-.33996582.01000977-1.69995117.01000977-2.03997803,0-47.34997559-.21002197-95.85998535-8.34002686-136.53997803-33.60003662-3.61004639-2.29998779-8.80999756-4.68994141-9.35003662-9.93994141-1.22998047-11.80004883-2.35998535-22.64001465-2.91998291-34.49005127-2.40002441-95.70996094,12.21002197-191.55999756,36.94000244-283.85998535,1.08996582-3.9699707.66998291-9.25,5.45001221-11.14996338,14.91998291-5.92004395,30.60998535-8.81005859,46.39996338-11.24005127v-.00994873c1.76000977-21.87005615,3.5300293-43.74005127,5.29003906-65.63000488.57995605-7.15002441,5.65997314-13.11999512,12.60998535-14.85003662,2.66998291-.65997314,5.34997559-1.23999023,8.03997803-1.79998779-.11999512-2.66998291-.54998779-5.36999512-.29998779-8,2.94000244-30.41998291,14.61999512-57.35998535,32.84002686-81.65002441.85998535-1.14996338,1.70996094-1.69995117,2.55999756-1.64996338.84997559-.04998779,1.69995117.5,2.55999756,1.64996338,18.2199707,24.29003906,29.89996338,51.2300415,32.83996582,81.65002441.25,2.63000488-.17999268,5.33001709-.29998779,8,2.69000244.55999756,5.36999512,1.14001465,8.03997803,1.79998779,6.95001221,1.7300415,12.0300293,7.70001221,12.61004639,14.85003662,1.76000977,21.88995361,3.52996826,43.75994873,5.28997803,65.63000488v.00994873c15.78997803,2.42999268,31.47998047,5.32000732,46.40002441,11.24005127,4.77996826,1.89996338,4.35998535,7.17999268,5.44995117,11.14996338,24.7300415,92.29998779,39.34002686,188.15002441,36.94000244,283.85998535Z"/>
  <path class="cls-1" d="M185.18643759,91.30311139c-11.35998535-1.97998047-22.7199707-2.98999023-34.08001709-3.03997803h-2.03997803c-11.35998535.04998779-22.7199707,1.05999756-34.08001709,3.03997803-.11999512-2.66998291-.54998779-5.36999512-.29998779-8,2.94000244-30.41998291,14.61999512-57.35998535,32.84002686-81.65002441.85998535-1.14996338,1.70996094-1.69995117,2.55999756-1.64996338.84997559-.04998779,1.69995117.5,2.55999756,1.64996338,18.2199707,24.29003906,29.89996338,51.2300415,32.83996582,81.65002441.25,2.63000488-.17999268,5.33001709-.29998779,8ZM266.81644247,368.08314069c-4.85998535-49.25-13.86999512-97.71002197-26.84997559-145.47003174-1.17004395-4.28997803-3.22003174-6.65997314-7.43005371-7.84997559-26.80853271-7.52697754-53.91070557-11.78692627-81.42999268-11.7164917h-2.03997803c-27.51928711-.07043457-54.62139893,4.1895752-81.42999268,11.7164917-4.21002197,1.19000244-6.26000977,3.55999756-7.42999268,7.84997559-12.9800415,47.76000977-21.98999023,96.22003174-26.85003662,145.47003174-3.59997559,36.85998535-5.02996826,74-1,110.89996338.19000244,2.04998779,1.42999268,3.35003662,3.05999756,4.5,29.61029053,20.40478516,71.6583252,30.12756348,113.65002441,30.03851318h2.03997803c41.99176025.08905029,84.03979492-9.63372803,113.65002441-30.03851318,1.63000488-1.14996338,2.86999512-2.45001221,3.05999756-4.5,4.0300293-36.89996338,2.59997559-74.03997803-1-110.89996338Z"/>
  <path class="cls-3" d="M211.12644003,173.58314069v.0199585c-17.04998779-2.53997803-36.17999268-5-60.02001953-4.98999023h-2.03997803c-23.84002686-.01000977-42.9699707,2.45001221-60.02001953,4.98999023v-.0199585c1.76000977-21.87005615,3.5300293-43.74005127,5.29003906-65.63000488.57995605-7.15002441,5.65997314-13.11999512,12.60998535-14.85003662,2.66998291-.65997314,5.34997559-1.23999023,8.03997803-1.79998779,11.36004639-1.97998047,22.72003174-2.98999023,34.08001709-3.03997803h2.03997803c11.36004639.04998779,22.72003174,1.05999756,34.08001709,3.03997803,2.69000244.55999756,5.36999512,1.14001465,8.03997803,1.79998779,6.95001221,1.7300415,12.0300293,7.70001221,12.61004639,14.85003662,1.76000977,21.88995361,3.52996826,43.75994873,5.28997803,65.63000488Z"/>
</svg>