<?xml version="1.0" encoding="UTF-8"?>
<svg id="Layer_1" data-name="Layer 1" xmlns="http://www.w3.org/2000/svg" viewBox="0 0 126.16039354 564.41826351">
  <defs>
    <style>
      .cls-1 {
        fill: #66c602;
      }

      .cls-2 {
        fill: #3d363c;
      }
    </style>
  </defs>
  <path class="cls-1" d="M126.08019677,553.16010521c-.26000977,5.89996338-4.01000977,11.23999023-11.54998779,11.23999023-17.16003418.0199585-85.73999023.0199585-102.90002441,0-7.53997803,0-11.28997803-5.34002686-11.54998779-11.23999023-.16998291-4.18005371-.02001953-8.38000488,0-12.58001709V144.7300515c.85998535-4.64996338,3.40002441-7.06994629,8.05999756-7.35998535v-13.10998535c0-1.59997559,1.26000977-2.91998291,2.85998535-3.01000977l3.44000244-.19000244v-7.39996338c0-1.66003418,1.35003662-3,3.01000977-3h3.47003174c15.02996826-19.69000244,19.02996826-42.52001953,19.44000244-66.33001709.04998779-2.98999023,2.47998047-5.39001465,5.4699707-5.39001465h.10998535v-11.40997314c0-1.2300415.04998779-2.46002197.22003174-3.67999268.7699585-5.57000732,3.16998291-9.27001953,8.47998047-12.22003174,5.76000977-3.20001221,11.39001465-6.70001221,18.14001465-10.88000488,3.27996826-2.03997803,7.54998779.32000732,7.54998779,4.20001221v33.98999023c1.48999023,0,2.84997559.59997559,3.84002686,1.57000732.98999023.97998047,1.60998535,2.32000732,1.62994385,3.82000732.41003418,23.80999756,4.41003418,46.64001465,19.44000244,66.33001709h3.47003174c1.65997314,0,3.01000977,1.33996582,3.01000977,3v7.39996338l3.44000244.19000244c1.59997559.09002686,2.85998535,1.41003418,2.85998535,3.01000977v13.10998535c4.65997314.29003906,7.20001221,2.71002197,8.05999756,7.35998535v395.85003662c.02001953,4.20001221.16998291,8.39996338,0,12.58001709Z"/>
  <path class="cls-2" d="M126.07957248,540.57762111H.08082106c-.02134041,4.19996272-.17059319,8.39992544,0,12.5786128.25582472,5.90550425,4.00802911,11.24607308,11.54451358,11.24607308,17.16231261.02127535,85.74741167.02127535,102.90972427,0,7.53648446,0,11.28868885-5.34056883,11.54451358-11.24607308.17059319-4.17868737.02134041-8.37865008,0-12.5786128ZM118.02076836,124.25925259v13.1115376H8.13962517v-13.1115376c0-1.59896959,1.25784827-2.92077404,2.85681786-3.00607063l3.44309369-.19186854v-7.39790189c0-1.66020697,1.34586366-3.00607063,3.00607063-3.00607063h3.47510431c15.02793536-19.68701219,19.03076939-42.51751059,19.44074602-66.32258887.05153659-2.99244501,2.47830444-5.39649318,5.47119321-5.39649318h34.49509176c2.99288877,0,5.41965662,2.40404817,5.47119321,5.39649318.40997663,23.80507828,4.41281066,46.63557668,19.44074602,66.32258887h3.47510431c1.66020697,0,3.00607063,1.34586366,3.00607063,3.00607063v7.39790189l3.44309369.19186854c1.59896959.0852966,2.85681786,1.40710104,2.85681786,3.00607063Z"/>
</svg>