<?xml version="1.0" encoding="UTF-8"?>
<svg id="Layer_1" data-name="Layer 1" xmlns="http://www.w3.org/2000/svg" viewBox="0 0 363.19631146 561.91372629">
  <defs>
    <style>
      .cls-1 {
        fill: #a89a9f;
      }

      .cls-2 {
        fill: #3d363c;
      }
    </style>
  </defs>
  <path class="cls-1" d="M298.57124164,240.11398032c-3.86051872-2.95400305-7.07052279-5.4068742-10.2912017-7.8703551,0-51.95707534.01067485-103.92482552,0-155.88196595,0-8.73417138-.10661827-16.50851796-3.99916153-24.51751587C265.57549031,13.65481952,221.26479359-.28359927,181.49708969.00436118c-13.20257047-.06398398-23.70700871.83179175-26.42642554,1.36501329-15.10087038,2.95406814-29.94573975,7.80637112-43.00966741,16.04995525-14.42894095,9.04348153-27.96210617,22.54462221-34.13685322,38.75456996-3.17797953,8.36094234-1.77026686,18.4814767-1.8022914,27.26895722-.14925256,49.50426929-.08526858,98.99792882-.08526858,148.50219811C33.49615368,264.34360082,8.01881301,306.28682516,1.11895756,359.93957363c-10.86705753,97.89946121,58.65436909,186.12627592,154.81552288,200.2673215,185.85966515,23.81362699,278.29900812-207.55114593,142.6367612-320.09291481ZM109.21361196,66.00653868c14.99418702-37.33618245,77.48772514-35.16066201,77.64771764-34.94736038,25.17870536,1.81296624,54.66588241,8.80883021,67.74048491,32.9210925,3.50857428,6.47331727,2.04755248,14.85554422,2.04755248,22.02207552.03195945,42.61502359.03195945,85.23011228.03195945,127.84513587-47.58468477-20.87023369-101.45073487-20.94489251-149.03541964.01067485,0-41.94315925.21330163-83.87570874-.10661827-125.81893308-.05330914-7.33713356-1.10907736-15.09019554,1.67432344-22.03268528Z"/>
  <path class="cls-2" d="M292.56716192,380.24462633c-.06398398-5.85476206,9.8325739-4.99094578,14.38630666-4.99094578h22.0860595c-.43727811-9.6512968-1.57838001-18.96138911-3.75390045-28.28209116-5.36417482,1.52500579-10.73908957,3.06068642-16.11393923,4.57508245-2.85805963.81044206-6.46264243,1.78094171-7.58239464-1.9622839-1.24778526-4.19111347,3.19932922-5.17222287,6.23866595-6.02542941,5.15093827-1.42899727,10.28052686-2.92204361,15.43146513-4.38306541-3.16736978-10.79239871-7.40111754-20.92360791-12.84001627-30.50024589-6.19603166,3.00737728-11.6135807,7.12383193-17.57496104,9.74724023-1.83431593.81050715-4.12712949.27728561-5.14026343-1.4610218-1.21576073-2.06890217.19195194-4.63900134,3.03933673-6.36663391,5.09762914-3.08203611,10.33383599-5.95077058,15.49544911-8.92612333-5.05492976-7.89170479-10.67510559-15.12215498-17.13774802-21.88343271-5.16161312,5.18289772-10.34451084,10.34451084-15.49544911,15.52740856-3.23128867,3.2420286-9.58731282,11.11231861-13.5971492,6.45196758-3.43391546-3.99916153,3.72194101-10.05655038,6.8466114-13.18122078,5.18289772-5.17222287,10.35512059-10.35512059,15.5380834-15.5380834-6.83593656-6.44129274-14.02375246-12.1147777-21.88343271-17.09504863-2.7621162,4.79899383-5.545517,9.58731282-8.29695836,14.38630666-1.3436636,2.34618778-2.52746488,4.36171572-5.07621436,4.55373276-1.05583332.07459374-2.13288615-.25600101-2.90075901-.98117449-2.43145636-2.28213871.01067485-5.87611175,1.55703032-8.48884521,2.66610769-4.51109847,5.22553201-9.08611582,7.83833056-13.61849889-9.76858992-5.47085818-19.87851453-9.75798017-30.62821385-12.87197572-1.41838751,5.00162062-2.84744987,10.00324124-4.25509745,15.01553671-.77854771,2.77272596-1.36507838,6.97451427-5.08695429,6.85722116-5.05492976-.17060225-3.71120107-5.35356506-2.82610018-8.46756061,1.47169665-5.15093827,2.91143385-10.30181146,4.36178081-15.45274973-9.35272659-2.13288615-18.62011951-3.33797203-28.26074147-3.73255076v23.47242248c0,4.54305791.95975971,12.9359597-4.94831149,12.99994368-5.55619185.06398398-4.59636705-8.76619592-4.59636705-13.15993618,0-7.75306198.01067485-15.49538402.01067485-23.248446-9.60866251.40525358-18.90801488,1.4823715-28.21810718,3.67924162,1.51433094,5.32154053,3.01805213,10.6537559,4.53238307,15.97529642.83185684,2.92204361,1.85560053,6.5479761-1.93025936,7.72103744-4.23374776,1.31170415-5.23620686-3.33797203-6.0680637-6.35595907-1.40771267-5.11897883-2.86873447-10.21654288-4.29773174-15.32484686-10.82442324,3.17804462-20.97698214,7.41179238-30.64956354,12.9146751,3.09264586,5.36417482,6.98518912,10.79239871,9.44867002,16.47649343.88510089,2.04761757.81050715,3.56194851,0,4.68170072-1.4823715,2.07957701-4.70305041,1.75965711-6.0680637-.40525358l-10.40849482-16.55115225c-7.76373682,4.9482464-14.97283733,10.58977192-21.84073333,17.12707317,5.22553201,5.18289772,10.44045427,10.36579544,15.66605137,15.54869316,2.94332821,2.93271845,10.50443825,9.4913694,6.79323718,13.25594469-3.86051872,3.9245027-10.83509809-3.89254326-13.98111817-7.03856335-5.04425491-5.04425491-10.07783498-10.09918467-15.11148014-15.14350467-6.47331727,6.867896-12.14680224,14.05571191-17.12707317,21.91545725,5.42822389,3.11399555,11.30433564,5.92942089,16.46588367,9.45934486,2.99670244,2.04755248,3.1246704,4.89493726,1.24772017,6.5692607-1.41832242,1.25839502-3.52992397,1.322379-5.16154803.38390389-5.42822389-3.09264586-11.01637518-6.28130024-16.700535-9.52332884-5.44950849,9.72595563-9.74724023,19.83588024-12.79731689,30.40430246,4.86297782,1.56764008,14.58893345,4.68170072,14.58893345,4.68170072,3.7645753,1.18373619,8.08365673,1.823576,7.04923819,5.83341237-1.25839502,4.85230297-7.31584896,2.13288615-10.40849482,1.24778526-4.50042362-1.27974471-9.00078215-2.54881457-13.51181553-3.82855928-1.64236399,9.4913694-3.54059882,18.69471325-3.54059882,28.3354003,7.74238713,0,15.49538402.01067485,23.248446,0,4.52170822,0,13.72511716-.86381629,13.18122078,5.21492226-.45856271,5.23620686-10.4937634,4.31908143-14.84486937,4.31908143h-21.54216312c-.1599925,9.70460594,1.68499828,18.86538059,3.63660733,28.20743234,4.18043863-1.17312644,8.36087725-2.36753747,12.55199072-3.54059882,2.79407565-.78915746,8.95814786-3.28466289,10.24850232-.78915746,1.64236399,3.18865438.25600101,5.66281012-3.20993898,6.62256983l-17.46834277,5.68415981c3.1246704,10.64308105,7.35841816,20.74233081,12.85062603,30.4576116,4.28712199-2.47415574,8.57417889-4.93763664,12.85062603-7.41179238,2.73009167-1.58898977,6.83593656-4.91628695,9.47001971-1.49298125,3.14602009,4.07375526-2.06890217,6.50527672-4.98027093,8.17960016-4.41508995,2.52746488-8.80883021,5.07627945-13.21324531,7.61441917,5.03358007,7.88096485,10.6537559,15.0794556,17.0417395,21.7874242,5.4068742-4.4044151,10.14188405-9.9712818,15.06884585-14.90891844,3.2633132-3.27392296,10.02459094-11.14427805,14.01307762-7.01714856,3.70052622,3.81781934-3.88186841,10.36579544-7.15585646,13.62910864-5.0656046,5.04432-10.19519319,9.9712818-15.45274973,14.81290992,7.18781591,6.78256233,14.35434721,12.43469761,22.20335262,17.40435878,2.67678253-4.62839158,5.35356506-9.24604323,8.0089979-13.88510966,1.55703032-2.73009167,3.6045828-6.81458687,7.33713356-4.62832649,4.02044613,2.36747238.79983231,6.63324468-.83185684,9.43799517-2.55942432,4.4044151-5.0868892,8.80883021-7.62502893,13.22392016,9.76858992,5.49214278,19.87844944,9.76858992,30.66023839,12.88258547,1.42899727-5.11891374,2.92204361-10.22715263,4.30840659-15.35674122.81050715-3.00737728,1.71695773-7.13450677,5.74814379-6.30271502,4.79899383.99178425,2.70874198,6.07873854,1.8022914,9.26739292-1.38636298,4.80966868-2.73009167,9.6300122-4.0844952,14.45029064,9.39536088,2.15423584,18.64140411,3.55127366,28.20743234,3.68991647v-23.25912085c0-4.47907393-.38390389-12.90393516,4.73500985-13.15993618,5.545517-.28789537,4.79899383,8.57424398,4.79899383,13.06392766v23.36580421c9.68332134-.14931765,18.97199886-1.6422989,28.28202607-3.68991647-1.40764758-4.96959609-2.79407565-9.94986702-4.22307292-14.9195282-.88516598-3.10332071-2.70880707-7.76367173,1.81296624-8.78748052,4.27638205-.9811094,5.0868892,3.51924913,5.94009574,6.63324468,1.36501329,5.01229547,2.83670994,9.99263149,4.2657723,14.99418702,10.77104901-3.1246704,20.89158338-7.40105245,30.60686416-12.87191063-2.4847655-4.31914652-4.9482464-8.65951256-7.46510152-12.96798423-1.59966461-2.75144136-4.9269618-6.79323718-1.41832242-9.39536088,4.11645465-3.03933673,6.48392703,2.06890217,8.16892531,5.02297031,2.52746488,4.4044151,5.07627945,8.79815536,7.61441917,13.20257047,7.8916397-5.05492976,15.12215498-10.67510559,21.87275787-17.12707317-5.09762914-5.08695429-10.19519319-10.18458343-15.29282233-15.27147264-3.31662234-3.31662234-11.37892938-10.01391609-6.5692607-13.8957845,4.12712949-3.32729718,11.00570034,4.82034353,14.26901354,8.09433157,4.77764414,4.78831899,9.54461344,9.57663798,14.31164783,14.37563181,6.48399212-6.85722116,12.12545255-14.03436222,17.11639833-21.89404247-4.44704939-2.57016426-8.91544848-5.10830398-13.34121327-7.69975284-2.73009167-1.58898977-7.46510152-3.54059882-5.31086568-7.48645121,2.23950442-4.1057798,6.867896-.62916496,9.68332134.88516598,4.41502486,2.37814723,8.77680567,4.86297782,13.18122078,7.28382442,5.44950849-9.60866251,9.64062196-19.76122141,12.79731689-30.54294527-5.35356506-1.5036561-10.70713012-2.99670244-16.04995525-4.50035853-2.93271845-.83185684-6.7292532-1.90897476-5.59882614-5.81212777,1.21569564-4.21246316,5.57747645-2.59144886,8.60620342-1.71695773,5.03358007,1.47169665,10.08850983,2.86873447,15.13276474,4.29773174,2.01559303-9.45934486,3.33797203-18.70538809,3.61525764-28.23939178h-22.43793885c-4.37245566,0-13.88510966.74652317-13.93841879-4.54305791ZM182.12631975,441.93833215c-33.92355159-.0212846-61.875048-27.9941307-61.875048-61.92835714-.01067485-33.92355159,28.11148891-62.06693486,61.97105652-62.03497541,33.84889277.02134969,61.99227603,28.18608264,61.99227603,62.04565026.01067485,33.85956761-28.14338326,61.93903198-62.08828455,61.91768229Z"/>
</svg>