<?xml version="1.0" encoding="UTF-8"?>
<svg id="Layer_1" data-name="Layer 1" xmlns="http://www.w3.org/2000/svg" viewBox="0 0 504.43562203 553.00014756">
  <defs>
    <style>
      .cls-1 {
        fill: #a53d1e;
      }

      .cls-2 {
        fill: #f48431;
      }
    </style>
  </defs>
  <path class="cls-2" d="M495.34728744,174.69247408c-16.20001221,1.78997803-32.40997314,3.28997803-48.58996582,5.21002197,10.7199707,111.25994873,21.63000488,222.4699707,32.34997559,333.72998047.36999512,3.85998535-2.40997314,7.15997314-6.63000488,7.73999023-74.51000977,10.51000977-149.17999268,19.84002686-223.60998535,30.84002686-15.26000977,2.30999756-29.53997803-.95001221-44.07000732-3.49005127-66.09002686-11.54998779-132.13000488-23.31994629-198.20001221-35-5.30999756-.93994141-7.32000732-3.58996582-6.36999512-8.87994385,13.41003418-74.29003906,26.79003906-148.59002686,40.30999756-222.86004639C77.35729721,189.26248141,121.46728256,98.92245455,160.71728256,6.99246187,162.79729965,2.28250094,166.25732162-.08755522,171.47729233.00247164c30.40002441.55999756,209.48999023,3.72998047,268.64001465,4.59002686,4.25.03997803,6.72998047,1.75,8.17999268,5.75994873,18.22998047,50.57000732,36.54998779,101.11004639,54.84002686,151.67004395,3.0199585,8.34997559.90997314,11.75-7.79003906,12.66998291Z"/>
  <path class="cls-1" d="M503.13732651,162.02249117c-18.29003906-50.55999756-36.61004639-101.10003662-54.84002686-151.67004395-1.45001221-4.00994873-3.92999268-5.7199707-8.17999268-5.75994873C380.96728256,3.73245211,201.87731674.5624692,171.47729233.00247164c-5.2199707-.09002686-8.67999268,2.2800293-10.76000977,6.98999023-39.25,91.92999268-83.35998535,182.27001953-120.17999268,274.98999023C27.01733139,356.25247164,13.63732651,430.55245943.22729233,504.84249849c-.95001221,5.28997803,1.05999756,7.94000244,6.36999512,8.87994385,66.07000732,11.68005371,132.10998535,23.45001221,198.20001221,35,14.5300293,2.54003906,28.80999756,5.80004883,44.07000732,3.49005127,74.42999268-11,149.09997559-20.33001709,223.60998535-30.84002686,4.22003174-.58001709,7-3.88000488,6.63000488-7.73999023-10.7199707-111.26000977-21.63000488-222.47003174-32.34997559-333.72998047,16.17999268-1.92004395,32.38995361-3.42004395,48.58996582-5.21002197,8.70001221-.91998291,10.80999756-4.32000732,7.79003906-12.66998291ZM53.05730942,283.35244723C89.66729477,194.47244234,130.907285,106.97244234,169.36730698,18.69247408c7.33001709,12.41998291,14.45001221,24.46002197,21.59997559,36.58001709-17.22998047,30.48999023-34.94995117,60.61999512-52.02996826,91.17999268-14.60998535,38.26000977-23.32000732,78.90997314-35.88000488,118-3.11999512,57.25-3.10003662,114.69000244-5.60998535,172.13000488-27.19000244,18.45001221-54.47003174,36.95996094-82.24005127,55.79998779,12.69000244-69.79998779,24.83001709-139.34002686,37.85003662-209.0300293ZM198.407285,67.87246676c24.7800293,41.88000488,49.26000977,83.52001953,74.13000488,125.28997803,2.35003662,3.95001221,6.60998535,4.36004639,10.85003662,3.91003418,50.32995605-5.2800293,100.55999756-10.72998047,150.90997314-15.90002441,2.90997314,30.02001953,5.78997803,59.66003418,8.70001221,89.70001221-94.41003418,11.84997559-188.80999756,23.69000244-284.09002686,35.65002441-.45001221-52.19000244-2.72998047-104.21002197-4.51000977-156.35003662-.19000244-3.97998047.85003662-7.32995605,2.82000732-10.73999023,13.90002441-23.76000977,27.15002441-47.90997314,41.19000244-71.55999756ZM21.00732162,503.57247896c27.77996826-18.85998535,55.11999512-37.40002441,82.63995361-56.08001709,37.19000244,30.01000977,74.36004639,60,112.22003174,90.54998779-65.2800293-11.54998779-129.77001953-22.95996094-194.85998535-34.4699707ZM109.99731186,435.15249605c2.41998291-55.5300293,2.52001953-111.26000977,5.27001953-166.75,8.72998047-30.74005127,17.16998291-63.63000488,28.02996826-93.02001953-.45001221,41.04998779,3.26000977,82.15002441,2.97998047,123.16998291-.4699707,18.83001709,7.52001953,34.91998291,13.54003906,51.71002197,21.64996338,60.03997803,44.23999023,119.69000244,66,179.70996094-38.19000244-32.18994141-79.61004639-61.48999023-115.82000732-94.81994629ZM466.14727524,509.64248629c-74.34997559,10.15997314-148.70996094,20.32995605-223.19995117,30.5199585-27.13000488-73.75-54.22003174-147.37994385-81.42999268-221.33996582,94.34997559-11.84002686,188.42999268-23.65002441,282.68994141-35.47003174,7.33001709,75.58001709,14.61004639,150.72003174,21.94000244,226.29003906ZM281.9373143,184.59249849c-33.89001465-57.35003662-67.63000488-114.47003174-101.54998779-171.87005615,85.86999512,1.4800415,171.34997559,2.94000244,257.02996826,4.41003418,17.53997803,48.46002197,35.04998779,96.86999512,52.67999268,145.58996582-69.64996338,7.32000732-138.85998535,14.59002686-208.15997314,21.87005615Z"/>
</svg>