<?xml version="1.0" encoding="UTF-8"?>
<svg id="Layer_1" data-name="Layer 1" xmlns="http://www.w3.org/2000/svg" viewBox="0 0 556 184.7795878">
  <defs>
    <style>
      .cls-1 {
        fill: #ff1833;
      }

      .cls-2 {
        fill: #f94e03;
      }

      .cls-3 {
        fill: #ff9605;
      }
    </style>
  </defs>
  <path class="cls-2" d="M341.10120811,42.7632815h-36.70767238V6.8359005c40.81918839-1.58717191,81.32868004-3.16226871,122.34656979-4.75714-1.08365168,12.30836538-2.15936486,24.52632284-3.24225139,36.82591284h-36.53976854c.66300736,48.51753886,1.32443659,96.92140428,1.99074369,145.680278-15.12325343-.83569343-30.14631929-1.6658873-45.36158268-2.50664988-.83277627-46.66755989-1.66378312-93.23483657-2.4860385-139.31501996Z"/>
  <path class="cls-3" d="M217.92647689,0h45.76570441c16.89269976,58.26315888,33.80103739,116.58021341,50.80920391,175.24158798-14.11755198,3.02365598-28.0690891,6.01173223-42.23879122,9.04657861-4.19620918-15.93417494-8.35234334-31.71613173-12.60687172-47.87172358h-42.64922549c-4.30670244,15.83336568-8.70921671,32.0189899-13.15484272,48.36314479-13.42836195-3.43899203-26.67160405-6.83059223-40.23453775-10.30406409C181.74111889,116.2499292,199.82760491,58.1448706,217.92647689,0ZM226.22320298,103.28845566h24.89022608c-3.46558119-13.52742569-6.89242637-26.90368532-10.57107949-41.2628352-4.95082002,14.26651822-9.56121752,27.552083-14.31914658,41.2628352Z"/>
  <path class="cls-1" d="M447.19152026,4.50829704c12.46275944-.75324791,24.62744294-1.48851466,37.22281341-2.2497967v69.40604875h30.06473457V4.97499416h37.8043317c1.23998254,58.35882725,2.47604366,116.53473447,3.71660006,174.92074866-13.86002929-1.25729419-27.47458708-2.49230321-41.22481653-3.73960255v-70.05382473c-9.9213428-.83464134-19.71179616-1.65828356-29.5764218-2.48816659v72.25419716h-45.20185644c2.37150427-56.48469806,4.77940125-113.83485888,7.19461503-171.36004906ZM131.11435677,5.26300352c-11.84582879-1.01316171-23.41151498-2.00236449-35.03332055-2.99634949-9.92496533,12.9267546-19.79516226,25.78218235-29.76906169,38.77266008C55.42548354,28.28524557,44.71678363,15.73946674,33.96380034,3.14182471H0c1.16546355,59.49462906,2.32805777,118.84194175,3.49226599,178.27227383,12.11094327-1.18967356,23.89756814-2.34749751,36.19773201-3.55572609v-99.90716114c9.99492925,13.72899638,19.36843257,26.60443773,28.87052986,39.65651049,9.51597769-15.60458415,18.82054526-30.86252888,28.51518679-46.7600959,1.52459653,34.9992233,3.01411545,69.19412455,4.51083162,103.55358209,12.42552984-.58558318,24.65025414-1.16164973,37.01010014-1.74412446-2.50019388-55.93452724-4.99034509-111.64438566-7.48228964-167.39407999Z"/>
</svg>