<?xml version="1.0" encoding="UTF-8"?>
<svg id="Layer_1" data-name="Layer 1" xmlns="http://www.w3.org/2000/svg" viewBox="0 0 476.16751742 561.16003418">
  <defs>
    <style>
      .cls-1 {
        fill: #fff;
      }

      .cls-2 {
        fill: #7526a8;
      }

      .cls-3 {
        fill: #ff9605;
      }
    </style>
  </defs>
  <path class="cls-3" d="M17.95749545,0v13.4800415c-7.14001465.35998535-14.80999756,3.30999756-17.05999756,10.7199707-2.72998047,9.02001953,2.77001953,16.7800293,8.65002441,23.01000977-12.86004639,7.77001953-12.76000977,22.27001953.48999023,33.05999756-14.90002441,7.07000732-10.16003418,22.92999268-.44000244,32.40997314-13.10998535,9.10003662-11.71002197,22.90002441.36999512,33.08001709-14.95001221,7.22003174-9.96002197,23.02001953-.27001953,32.51000977-14.82995605,7.84002686-9.45001221,23.41998291.58001709,32.88000488-15.22998047,7.10998535-10.40002441,23-.59002686,32.64996338-14.85998535,7.86004639-9.38000488,23.40002441.58001709,32.89001465-15.32000732,6.94000244-10.22998047,22.84002686-.70001221,32.5300293-12.83996582,9.35998535-12.79998779,17.70996094.52001953,33.04998779-5.88000488,2.61999512-9.90997314,7.52996826-9.92999268,14.10998535-.02001953,7.42999268,4.57000732,13.41003418,9.52001953,18.4800415-14.90002441,7.61999512-9.44000244,23.43994141.5199585,32.75994873-15.20996094,7.11999512-10.2199707,22.95001221-.57000732,32.67004395-14.95996094,7.80999756-9.20996094,23.34997559.55004883,32.88000488-15.29003906,7.09997559-10.12005615,22.95996094-.55999756,32.61999512-8.2300415,4.34997559-10.74005127,12.83996582-7.66003418,21.65997314,2.28997803,6.55999756,6.86999512,10.78997803,12.40002441,14.27001953,1.16998291.73999023,2.36999512,1.42999268,3.59997559,2.04998779v17.39001465h458.21002197V0H17.95749545ZM7.15750766,29.58001709c-.97003174-5.25,3.52001953-8.67999268,10.79998779-9.13000488v25.01000977c-5.11999512-3.03997803-9.35998535-8.09997559-10.79998779-15.88000488ZM7.35751986,63.33001709c-1.10003662-5.57000732,2.9699707-11.90002441,10.59997559-9.96002197v24.41003418c-5.03997803-2.91003418-9.22998047-7.54998779-10.59997559-14.45001221ZM7.15750766,95.10003662c-.35998535-3.86999512,1.67999268-6.79003906,5.63000488-8.21002197,1.65997314-.59002686,3.41998291-.79998779,5.16998291-.67999268v24.60998535c-5.45001221-3.10998535-10.08996582-8.10998535-10.79998779-15.7199707ZM6.78751254,130.38000488c-1.21002197-6.08001709,5.25-12.88000488,11.16998291-11.70001221v24.72003174c-5.03997803-2.91998291-9.75-5.89001465-11.16998291-13.02001953ZM13.60751986,152.08001709c1.42999268-.36999512,2.89996338-.4699707,4.34997559-.33001709v24.86004639c-9.44000244-5.5-16.40997314-21.35003662-4.34997559-24.5300293ZM6.68747592,191.67999268c-.2199707-4.89996338,6.49005127-8.67999268,11.27001953-7.52996826v24.63000488c-5.42999268-3.16998291-10.86999512-8.10003662-11.27001953-17.10003662ZM13.49747348,217.64001465c1.46002197-.40002441,2.96002197-.52996826,4.46002197-.42999268v23.85998535c-11.36999512-7.39996338-13.04998779-21.07000732-4.46002197-23.42999268ZM7.08750033,257.36999512c-.14001465-5,5.91998291-8.86999512,10.86999512-7.69000244v23.71002197c-4.89001465-3.25-10.57000732-5.40997314-10.86999512-16.02001953ZM8.41751742,296.2300415c-2.55999756-6.46002197-.83001709-11.29003906,4.85998535-13.05004883,1.52001953-.4699707,3.10998535-.60998535,4.67999268-.4699707v24.25c-4.14001465-2.52001953-7.70001221-6.09002686-9.53997803-10.72998047ZM6.18747592,323.08001709c.01000977-4.79998779,7.30004883-9.52001953,11.77001953-8.01000977l.13000488,24.30999756c-4.97998047-3.17999268-11.91998291-8.89001465-11.90002441-16.29998779ZM7.38748812,360.4800415c-1.54998779-6.90002441.29003906-10.29003906,6.39001465-11.91003418,1.35998535-.36999512,2.77996826-.4699707,4.17999268-.34997559v24.5199585c-4.84997559-2.66998291-9.52996826-7.63995361-10.57000732-12.25994873ZM7.07749057,388.5c-.79998779-5.02996826,6.46002197-9.42999268,10.88000488-7.90997314v24.19000244c-5.28997803-3.15002441-9.60998535-8.35998535-10.88000488-16.2800293ZM6.8174808,423.17999268c-.65997314-5.59997559,2.89001465-8.02996826,6.5300293-9.05999756,1.5-.41998291,3.07000732-.55999756,4.60998535-.44995117v24.63995361c-5.2199707-3.2699585-10.11999512-6.58996582-11.14001465-15.13000488ZM7.38748812,452.27001953c-.45001221-4.30999756,6.72003174-7.45001221,10.57000732-6.15997314v24.10998535c-5.23999023-3.46002197-9.65002441-9.10998535-10.57000732-17.95001221ZM6.78751254,487.38000488c-.10003662-4.39996338,3.20996094-6.98999023,7.33001709-7.91998291,1.25994873-.2800293,2.55999756-.35998535,3.83996582-.26000977v24.07000732c-4.89001465-3.29998779-10.97998047-7.73999023-11.16998291-15.89001465ZM9.8174808,526.67004395c-2.44000244-4.13000488-2.15997314-9.42004395.96002197-13.07000732,1.71002197-2,4.08001709-3.33001709,7.17999268-2v23.30999756c-3.21002197-2.02001953-6.07000732-4.73999023-8.14001465-8.23999023ZM75.44748568,523.82000732c-8.28997803,0-15-6.72998047-15-15,0-8.29998779,6.71002197-15,15-15,8.2800293,0,15,6.70001221,15,15,0,8.27001953-6.7199707,15-15,15ZM75.44748568,295.58001709c-8.28997803,0-15-6.71002197-15-15,0-8.2800293,6.71002197-15,15-15,8.2800293,0,15,6.7199707,15,15,0,8.28997803-6.7199707,15-15,15ZM75.44748568,67.34002686c-8.28997803,0-15-6.71002197-15-15,0-8.27001953,6.71002197-15,15-15,8.2800293,0,15,6.72998047,15,15,0,8.28997803-6.7199707,15-15,15Z"/>
  <path class="cls-2" d="M17.95749545,0v45.46002197c9.54998779,5.65997314,22.22003174,4.29998779,25.7800293.36999512,1.7199707-2.2199707,1.04998779-7,5.38000488-5.82000732,7.98999023,2.16998291-2.08001709,12.54998779-5.2300415,14.22003174-8.02996826,4.2699585-16.91998291,2.02996826-25.10998535-.61999512-.2800293-.09002686-.54998779-.17004395-.82000732-.24005127v24.41003418c7.94000244,4.59997559,17.98999023,4.88000488,22.38000488,2.91998291,3.25-1.45001221,3.39001465-2.89001465,4.64001465-5.77996826,1-2.30004883,3.73999023-3.89001465,5.88000488-1.47003174,4.57000732,5.11999512-4.09002686,11.96002197-7.97003174,13.70001221-7.08996582,3.20001221-14.4699707,2.51000977-21.5.22998047-1.17999268-.38000488-3.42999268-1.16998291-3.42999268-1.16998291v24.60998535c6.83001709,3.90002441,14.92999268,4.84002686,18.16998291,4.23999023,2.7300415-.51000977,6.36004639-1.67999268,7.97003174-4.15997314,1.45996094-2.25.83996582-6.48999023,5.01000977-5.35998535,7.98999023,2.15997314-2.05004883,12.57000732-5.22003174,14.23999023-7.84997559,4.13000488-17.29998779,2.60998535-25.07000732-.89001465-.28997803-.09002686-.57995605-.15997314-.85998535-.21002197v24.72003174c7.53997803,4.35998535,16.88000488,4.7199707,21.32000732,3.2199707,2.88000488-.97998047,5.39001465-2.50994873,5.70001221-6.19000244.14996338-1.77996826,1.7199707-2.77996826,3.53997803-2.60998535,2.10003662.19000244,3.25,1.64001465,3.19000244,3.66003418-.19000244,5.98999023-4.15002441,9.17999268-9.08001709,11.30999756-7.11999512,3.05999756-14.16998291,2.58996582-21.03997803.19000244-1.20001221-.42004395-3.63000488-1.2300415-3.63000488-1.2300415v24.86004639c.22003174.12994385.44000244.25.66003418.36999512.08996582.02996826,15.4699707,8.92999268,25.63995361-.99005127,1.82000732-1.77996826,1.25-6.80999756,5.41003418-4.86999512,6.86999512,3.20001221-2.34002686,12.33001709-5.60003662,14.05999756-7.92999268,4.20001221-17.38000488,2.65002441-25.26000977-.77996826-.2699585-.10003662-.55999756-.19000244-.84997559-.25v24.63000488c9.10998535,5.32000732,21.09002686,4.27996826,24.73999023,1.45001221,2.35998535-1.99005127,1.64001465-6.41003418,5.04003906-6.89001465,4.2199707-.60003662,4.34997559,4.14001465,3.38995361,6.97998047-1.07000732,3.11999512-3.52996826,5.2800293-6.33996582,6.85003662-7.73999023,4.31994629-15.76000977,3.48999023-23.60003662,1.10998535-1.16998291-.35998535-3.22998047-1.07000732-3.22998047-1.07000732v23.85998535c4.7800293,3.10998535,9.46002197,5.83001709,17.63000488,5.41003418,3.11999512-.16003418,7.96002197-2.97003174,9.11999512-6.04003906.86999512-2.30999756,1.91998291-5.79998779,5.40002441-3.54998779,6.11999512,3.94000244-3.14001465,12.34997559-6.60003662,14.07000732-7.85998535,3.90002441-16.95001221,2.27996826-24.70001221-1.0300293-.2699585-.10998535-.55999756-.19000244-.84997559-.25v23.71002197c10.94000244,7.29998779,25.65002441,4.98999023,26.88000488-1.25.25-4.83001709,6.97998047-4.33001709,6.90002441.40002441.25994873,5.59997559-6.07000732,11.34997559-13.74005127,12.73999023-5.83996582,1.04998779-11.32995605,0-16.7199707-1.85003662-1.08001709-.36999512-2.20001221-.61999512-3.32000732-.7199707v24.25c7.41003418,4.52001953,16.67999268,5.69000244,21.26000977,3.69000244,3.21002197-1.40002441,4.57000732-3.11999512,5.72998047-6.09002686,1-2.57000732,4.15002441-4.16998291,6.17004395-1.26000977,3.89996338,5.60003662-5.16003418,12.26000977-9.26000977,13.89001465-7.67004395,3.04003906-15.70001221,1.32000732-23.05999756-1.75-.26000977-.14996338-.54003906-.27996826-.84002686-.36999512l.13000488,24.30999756c9.79998779,6.29003906,21.29998779,6.13000488,24.5,2.20001221,1.60998535-2.26000977,3-7.41998291,7.20001221-6.5,7.95001221,1.76000977-2.26000977,11.54998779-5.32000732,13.29998779-7.28997803,4.16998291-15.86999512,3.45001221-23.47998047,1-1.08001709-.34997559-3.0300293-1.15997314-3.0300293-1.15997314v24.5199585c6.03997803,3.32000732,13.84002686,4.80999756,20.46002197,3.69000244,3.57995605-.60998535,5.02996826-2.53997803,6.39996338-5.66998291,1.05004883-2.40997314,3.2800293-5.34997559,6.0300293-2.25,4.47998047,5.03997803-4.22003174,12.10998535-8.05999756,13.82000732-7.71002197,3.45001221-16.4800415,1.78997803-23.98999023-1.35998535-.27001953-.15002441-.55004883-.2800293-.84002686-.38000488v24.19000244c9.75,5.84997559,22.7800293,4.72998047,25.86999512.88000488,1.60003662-2.25,1.79998779-6.0300293,5.98999023-5.15002441,7,1.47003174-.78997803,12.22998047-4.02996826,13.77001953-7.57000732,3.59997559-17.22003174,2.04998779-24.64001465-.04998779-1.03997803-.30004883-2.10998535-.49005127-3.19000244-.55999756v24.63995361c10.80999756,6.80004883,25.67999268,3.94000244,26.88000488-2.19000244.2199707-4.69995117,7.11999512-4.29998779,6.86999512.33001709-.08996582,5.7800293-3.90002441,8.92999268-8.58996582,11.10998535-8.24005127,3.82000732-16.34002686,2.11004639-24.33001709-1.07995605-.25-.15002441-.5300293-.2800293-.83001709-.36999512v24.10998535c7.15002441,4.70996094,15.85998535,5.34997559,19.36999512,4.4699707,2.79003906-.70001221,6.10003662-2.10998535,7.2800293-4.94000244.94995117-2.30999756,1.61999512-6.2199707,5.35998535-4.0199585,6.59997559,3.88000488-3.39001465,12.73999023-6.91003418,14.38000488-7.39996338,3.43994141-14.36999512,2.23999023-21.66998291.16998291-1.03997803-.29998779-3.42999268-1.08001709-3.42999268-1.08001709v24.07000732c10.92999268,7.39001465,25.63000488,4.64001465,26.88000488-1.63000488.2199707-4.69000244,7.11999512-4.29998779,6.86999512.33001709-.09997559,5.78997803-3.92999268,8.92999268-8.59997559,11.10998535-8.2300415,3.84002686-16.82000732,3.11999512-24.32000732-1.07000732-.2800293-.15997314-.55999756-.28997803-.83001709-.40997314v23.30999756c9.88000488,6.25,23.0300293,5.85998535,26.30999756,1.02996826,1.22998047-2.25,1.15002441-6.66998291,5.36999512-4.89001465,5.65002441,2.40002441-.66998291,10.81005859-3.88000488,12.60003662-5.94000244,3.30999756-14.28997803,4.59997559-20.7199707,2.88000488-2.46002197-.65002441-4.82000732-1.60003662-7.08001709-2.76000977v17.39001465h458.21002197V0H17.95749545ZM75.44748568,523.82000732c-8.28997803,0-15-6.72998047-15-15,0-8.29998779,6.71002197-15,15-15,8.2800293,0,15,6.70001221,15,15,0,8.27001953-6.7199707,15-15,15ZM75.44748568,295.58001709c-8.28997803,0-15-6.71002197-15-15,0-8.2800293,6.71002197-15,15-15,8.2800293,0,15,6.7199707,15,15,0,8.28997803-6.7199707,15-15,15ZM75.44748568,67.34002686c-8.28997803,0-15-6.71002197-15-15,0-8.27001953,6.71002197-15,15-15,8.2800293,0,15,6.72998047,15,15,0,8.28997803-6.7199707,15-15,15Z"/>
  <path class="cls-1" d="M122.08178092,87.80913712v156.30654573h261.51212004V87.80913712H122.08178092ZM122.08178092,87.80913712v156.30654573h261.51212004V87.80913712H122.08178092ZM122.08178092,87.80913712v156.30654573h261.51212004V87.80913712H122.08178092ZM122.08178092,87.80913712v156.30654573h261.51212004V87.80913712H122.08178092ZM402.2892026,83.7728847c-.63234685-8.50455384-7.50345055-15.08054947-15.71289633-15.08054947-87.80654835-.05267949-175.60254794-.06322825-263.39854752-.01054876-12.60403451.01054876-19.79121515,6.07016961-19.80176391,16.38730959-.04219505,53.94643578-.04219505,107.89287156.0210332,161.83930734.01054876,4.87931723,1.9602045,9.10525441,5.71189761,12.38270346,4.33129616,3.7833394,9.37920062,4.08893191,14.9435442,4.04680118,43.77678551-.20023352,216.44967194-.11597207,259.01450755-.11597207,13.05718104,0,19.44349192-6.37576211,19.44349192-19.44342759-.20023352-53.32470201.41101581-106.70201919-.22126673-160.00562367ZM389.11611381,245.62274081c0,3.07721553-.98013441,4.12051387-4.12057819,4.12051387-86.45759318-.09487454-172.92573513-.07377702-259.38339263-.10535898-8.77856438,0-8.9998311,0-9.01037987-8.84179263-.07377702-52.28133935-.05267949-104.57322746-.02109753-156.8335336,0-.56905428.27401054-1.11707536.44266209-1.74935789,89.27134694,0,178.21606817.03158197,267.16072508-.07377702,3.68846486,0,4.98474054.9273906,4.97419177,4.75286073-.1054233,52.92417064-.09487454,105.82730808-.04213073,158.73044552ZM122.08178092,244.11568285h261.51212004V87.80913712H122.08178092v156.30654573ZM122.08178092,87.80913712v156.30654573h261.51212004V87.80913712H122.08178092ZM122.08178092,87.80913712v156.30654573h261.51212004V87.80913712H122.08178092Z"/>
</svg>