<?xml version="1.0" encoding="UTF-8"?>
<svg id="Layer_1" data-name="Layer 1" xmlns="http://www.w3.org/2000/svg" viewBox="0 0 308.35998535 561.2800293">
  <defs>
    <style>
      .cls-1 {
        fill: #ff1833;
      }

      .cls-2 {
        fill: #f94e03;
      }

      .cls-3 {
        fill: #025589;
      }

      .cls-4 {
        fill: #ddced1;
      }

      .cls-5 {
        fill: #a53d1e;
      }

      .cls-6 {
        fill: #a89a9f;
      }

      .cls-7 {
        fill: #ffb176;
      }

      .cls-8 {
        fill: #7526a8;
      }

      .cls-9 {
        fill: #1aa419;
      }

      .cls-10 {
        fill: #ff9605;
      }

      .cls-11 {
        fill: #0995cc;
      }

      .cls-12 {
        fill: #ff5ab5;
      }
    </style>
  </defs>
  <path class="cls-3" d="M308.35998535,245.29998779v.64001465c0,7.91003418-6.47998047,14.39001465-14.39001465,14.39001465h-.77996826c-1.98999023,12.91998291-5.60003662,36.55999756-9.85003662,64.30999756-1.70996094,11.21002197-3.52996826,23.09002686-5.38995361,35.20001221-1.46002197,9.5199585-2.94000244,19.19000244-4.42004395,28.79998779-1.83996582,11.97998047-3.66998291,23.84997559-5.41998291,35.20001221-5.33996582,34.58001709-10,64.33996582-12.21002197,77.61999512-2.48999023,15-4.50994873,33.55999756-14.80999756,42.08001709-12.36999512,11.22998047-48.81994629,17.44995117-86.50994873,17.73999023h-.80004883c-37.69000244-.29003906-74.13995361-6.51000977-86.50994873-17.73999023-10.30004883-8.52001953-12.32000732-27.08001709-14.80999756-42.08001709-2.21002197-13.2800293-6.87005615-43.03997803-12.21002197-77.61999512-1.75-11.35003662-3.58001709-23.22003174-5.41998291-35.20001221-1.4800415-9.60998535-2.96002197-19.2800293-4.42004395-28.79998779-1.85998535-12.10998535-3.67999268-23.98999023-5.38995361-35.20001221-4.25-27.75-7.86004639-51.39001465-9.85003662-64.30999756h-.77996826c-7.91003418,0-14.39001465-6.47998047-14.39001465-14.39001465v-.64001465c0-7.91998291,6.47998047-14.38995361,14.39001465-14.38995361h10.45996094l-15.75-99.46002197c-.60998535-3.85998535.14001465-5.20001221,3.85003662-6.59002686,2.19000244-.81994629,4.44995117-1.37994385,6.72998047-1.75l.08001709-.00994873c2.28997803-.36004639,4.59997559-.5300293,6.94000244-.42004395,3.95996094.17004395,5.07995605,1.22003174,5.69000244,5.09002686l16.33996582,103.14001465h21.20001221l-14.44000244-162.51000977c-.34997559-3.90002441.47998047-5.17999268,4.2800293-6.30999756,2.25-.66998291,4.53997803-1.08001709,6.83996582-1.2800293l.07000732-.0199585c2.32000732-.19000244,4.63000488-.20001221,6.96002197.05999756,3.94995117.44995117,4.98999023,1.55999756,5.33996582,5.45996094l14.63000488,164.60003662h23.30999756c-.45001221-11.80999756-.72998047-19.15002441-.72998047-19.33001709-.16998291-3.34997559-.30999756-6.67999268-.47003174-10.0300293-.20996094-4.75-.41998291-9.50994873-.61999512-14.2699585v-.01000977c-1.45001221-33.70001221-2.63000488-67.41998291-4.05999756-101.13000488,0-.01000977-.01000977-.01000977-.01000977-.02001953-1.75994873-5.69995117,12.52001953-8.83996582,23.0300293-9.26000977h.20001221c10.48999023-.43994141,24.98999023,1.56005859,23.69000244,7.37005615,0,.0199585-.02001953.0199585-.02001953.02996826,1.28997803,33.72003174,2.80999756,67.41003418,4.07000732,101.11999512v.01000977c.17999268,4.77001953.35998535,9.5300293.52001953,14.28997803.11999512,3.34002686.23999023,6.67999268.33996582,10.0300293.02001953.10998535.35003662,8.22998047.89001465,21.20001221h29.79998779l2.5-59.63000488,2.45001221-58.83001709c-2.53997803-1.21002197-4.91003418-2.79998779-7-4.75-4.64001465-4.33001709-7.54998779-9.61999512-9.07000732-15.53997803-7.38000488-28.55004883,17.29998779-71.66003418,31.44000244-92.16003418,13.4699707,23.86999512,36.85998535,65.26000977,26.66998291,93.60003662-1.75,4.88000488-4.5,9.38000488-8.4699707,13.32995605-2.35003662,2.35003662-5.05999756,4.2800293-8.01000977,5.70001221l-.44000244,59.33001709-.42999268,58.95001221h35.79998779l20.09997559-147.63000488,12.25-26.10003662,2.90002441-6.19995117c.25-.5.72998047-.7800293,1.21002197-.75.0199585,0,.04998779.00994873.07995605.00994873.46002197.11004639.85003662.49005127.96002197,1.05004883l1.13000488,6.73999023,4.83001709,28.42999268-19.66003418,144.45001221h11.17999268c7.91003418,0,14.39001465,6.4699707,14.39001465,14.38995361Z"/>
  <path class="cls-11" d="M273.52996826,388.64001465c-1.83996582,11.97998047-3.66998291,23.84997559-5.41998291,35.20001221H40.25c-1.75-11.35003662-3.58001709-23.22003174-5.41998291-35.20001221h238.69995117ZM25.02001953,324.64001465c1.70996094,11.21002197,3.52996826,23.09002686,5.38995361,35.20001221h247.54003906c1.85998535-12.10998535,3.67999268-23.98999023,5.38995361-35.20001221H25.02001953Z"/>
  <path class="cls-9" d="M293.9699707,230.91003418H14.39001465c-7.91003418,0-14.39001465,6.4699707-14.39001465,14.38995361v.64001465c0,7.91003418,6.47998047,14.39001465,14.39001465,14.39001465h279.57995605c7.91003418,0,14.39001465-6.47998047,14.39001465-14.39001465v-.64001465c0-7.91998291-6.47998047-14.38995361-14.39001465-14.38995361Z"/>
  <path class="cls-8" d="M302.44713159,86.45320306l-19.66093859,144.45250697h-23.79955177l20.10484779-147.63140353,12.24766218-26.09070314,2.90294509-6.20176963c.25186338-.50379997.73172169-.77975145,1.21158-.75573657.01200744,0,.04795654.01200744.07197142.01200744.46777765.10792053.85164966.49179253.9596434,1.05562971l1.13960857,6.74159192,4.8222319,28.41787683Z"/>
  <path class="cls-7" d="M302.4498346,86.45852253c-3.78969655-.50937571-19.5699771-2.65776903-23.35791744-3.18004446l12.24938158-26.10035484,6.28247435.8553223,4.82606151,28.42507699Z"/>
  <path class="cls-1" d="M240.53997803,93.60003662c-1.75,4.88000488-4.5,9.38000488-8.4699707,13.32995605-2.35003662,2.35003662-5.05999756,4.2800293-8.01000977,5.70001221l-.44000244,59.33001709-.42999268,58.95001221h-29.64001465l2.5-59.64001465,2.45001221-58.82000732c-2.53997803-1.21002197-4.91003418-2.79998779-7-4.75-4.64001465-4.33001709-7.54998779-9.61999512-9.07000732-15.53997803-7.38000488-28.55004883,17.29998779-71.66003418,31.44000244-92.16003418,13.4699707,23.86999512,36.85998535,65.26000977,26.66998291,93.60003662Z"/>
  <path class="cls-6" d="M223.62183846,171.95760263l-27.57529624-.68089124,2.45749797-58.82379619c3.36365958,1.60579953,7.03244018,2.57193914,10.80891568,2.87839459.45577509.04169218.9119716.06819893,1.36812168.09470452,4.66192704.21409471,9.24737793-.79192186,13.37787777-2.7989463l-.43711686,59.33053461Z"/>
  <path class="cls-5" d="M240.53997803,93.60003662c-1.75,4.88000488-4.5,9.38000488-8.4699707,13.32995605-2.35003662,2.35003662-5.05999756,4.2800293-8.01000977,5.70001221-4.13000488,2-8.72003174,3.01000977-13.38000488,2.79998779-.46002197-.02996826-.90997314-.05999756-1.36999512-.09997559-3.77001953-.30999756-7.44000244-1.27001953-10.80999756-2.88000488-2.53997803-1.21002197-4.91003418-2.79998779-7-4.75-4.64001465-4.33001709-7.54998779-9.61999512-9.07000732-15.53997803-7.38000488-28.55004883,17.29998779-71.66003418,31.44000244-92.16003418,13.4699707,23.86999512,36.85998535,65.26000977,26.66998291,93.60003662Z"/>
  <path class="cls-2" d="M163.75255826,230.90571003h-46.83128632c-.45584343-11.80375297-.73172169-19.14520439-.73172169-19.32509634-.16795773-3.3468543-.31190058-6.68162794-.46785087-10.02840902-.21591427-4.75033369-.41982111-9.51267482-.62380116-14.27494273v-.01200744c-1.45143594-33.69595216-2.62706683-67.41599242-4.0545611-101.12395202,0-.01200744-.01193422-.01200744-.01193422-.02401488-1.76340973-5.69796965,12.52346722-8.8408439,23.03173455-9.26066501h.19197261c10.49625988-.43182855,24.99905111,1.55942968,23.69155803,7.3773273,0,.01200744-.01200744.01200744-.01200744.02401488,1.28355142,33.71996704,2.80695879,67.41599242,4.06656854,101.12395202v.01200744c.17989195,4.76234113.35985712,9.52460904.51580741,14.28695017.11992797,3.33477364.23992915,6.68155472.34784968,10.02840902.01200744.10792053.3479229,8.22905018.88767198,21.1964266Z"/>
  <path class="cls-4" d="M162.86488628,209.70928342c-7.67722044,2.91495253-15.40247065,4.54635364-23.17575061,4.85825422h-.01200744c-7.77320675.31190058-15.60637748-.69577258-23.48757798-2.98692396,0,.17989195.27587826,7.52134337.73172169,19.32509634h46.83128632c-.53974908-12.96737643-.87566454-21.08850607-.88767198-21.1964266ZM162.00122918,185.39392424v-.01200744c-7.38940796,3.07090282-15.30655756,4.71431137-23.28374436,5.02621195h-.01200744c-7.97711358.33591546-16.00225693-.68376514-23.60757916-3.14287425v.01200744c.20398005,4.76226791.40788688,9.52460904.62380116,14.27494273,7.78521419,1.96724335,15.69042956,2.90294509,23.53560774,2.60305195h.01200744c7.84517817-.33591546,15.6423998-1.89534514,23.24772204-4.47438221-.15595029-4.76234113-.33591546-9.52460904-.51580741-14.28695017Z"/>
  <path class="cls-10" d="M93.61358592,230.90571003h-23.67955059l-14.44290046-162.50605932c-.34784968-3.89861081.47985831-5.18216224,4.28248282-6.30976337,2.24319483-.6717577,4.53441941-1.07964459,6.83757823-1.28355142l.07197142-.01200744c2.31516625-.19189939,4.6303325-.20390683,6.95750619.05996398,3.94664057.44383599,4.99026284,1.55942968,5.33811253,5.4580405l14.63479985,164.59337708Z"/>
  <path class="cls-12" d="M48.72560129,230.90571003h-23.8715232l-15.75039355-99.45652859c-.61179372-3.86266171.13193541-5.19416968,3.85065427-6.58571485,2.18323084-.82763478,4.45036733-1.37946451,6.72958448-1.75132908l.07197142-.01200744c2.29115137-.35985712,4.60639084-.52781485,6.94549875-.41982111,3.95864802.16788451,5.07424171,1.22351422,5.68596221,5.08617593l16.3382456,103.13922513Z"/>
</svg>