<?xml version="1.0" encoding="UTF-8"?>
<svg id="Layer_1" data-name="Layer 1" xmlns="http://www.w3.org/2000/svg" viewBox="0 0 366.45094863 552.16716996">
  <defs>
    <style>
      .cls-1 {
        fill: #a89a9f;
      }

      .cls-2 {
        fill: #756a6e;
      }

      .cls-3 {
        fill: #7526a8;
      }
    </style>
  </defs>
  <path class="cls-3" d="M366.4504819,405.48964845c-.39001465,41.98999023-.7300415,83.98999023-1.11004639,125.97998047-.09997559,11.15997314-9.03997803,19.78997803-21.14996338,19.90997314-26.33001709.25-52.67004395.25-79,.35003662-12.94000244.02996826-25.88000488.05999756-38.82000732.09997559-41.44000244.82000732-124.75-.11999512-124.96002197-.14996338-25.13000488-.08001709-50.26000977-.16003418-75.39001465-.25-12.88995361-.04003906-20.02996826-4.04003906-23.5-13.13000488-.90997314-2.36999512-1.37994385-4.84002686-1.39996338-7.36999512C.74045993,489.09963381.39048434,447.26961672.00046969,405.43966066c-.02001953-1.83001709.59997559-3.21002197,1.84997559-4.54003906,34.32000732-36.65997314,51.30999756-80.08001709,49.70001221-130.30999756-1.45001221-45.5-18.51000977-84.95001221-48.33001709-119.08001709-.84997559-.9699707-1.23999023-1.97998047-1.22998047-3.25994873.32000732-43.42004395.60998535-86.84002686.96002197-130.26000977C3.04044772,7.33962404,11.74045993.02962648,24.6704526.02962648c63.34997559-.02001953,274.69000244-.05999756,317.02001953.01000977,14.64001465.02001953,21.7699585,7.22998047,21.89001465,21.77001953.33996582,42.15997314.57995605,84.31994629.87994385,126.47998047,0,1.27996826-.37994385,2.28997803-1.2199707,3.26000977-34.23999023,39.39001465-51.32000732,84.95996094-48.03997803,137.29998779,2.69995117,43.19000244,19.63995361,80.5,49.35998535,111.9699707,1.28997803,1.37005615,1.90997314,2.7800293,1.89001465,4.67004395Z"/>
  <path class="cls-2" d="M265.18549629,551.73222535c-12.88000488.0300293-25.75.05999756-38.63000488.10003662h-.19000244c-41.44000244.82000732-124.75-.11999512-124.96002197-.15002441-.09997559-52.28997803-1.32000732-380.10998535-.77001953-406.2199707.33001709-16.20001221,7.45001221-30.32000732,17.92004395-42.47003174,18.52996826-21.5,41.89996338-32.44000244,70.54998779-30.76000977,14.40997314.84002686,27.58001709,5.59002686,39.54998779,13.65002441,20.35998535,13.66998291,34.77001953,31.97998047,36.75,56.7199707,1.80999756,22.68005371-.25,408.41003418-.2199707,409.13000488Z"/>
  <path class="cls-1" d="M162.24052233,269.25615337c16.91476252.00156416,30.62016259,13.82664278,30.60853163,30.87586319-.01127,16.55482446-14.16043124,30.61288321-30.75646539,30.55845835-16.87874666-.05534732-30.69323709-14.07217632-30.678177-31.12753307.01477934-16.71100016,13.84513199-30.30837269,30.82611076-30.30678847ZM265.40546699,142.60222047c-1.97998047-24.73999023-16.39001465-43.04998779-36.75-56.7199707-.76000977,155.30999756-1.52001953,310.63000488-2.27996826,465.94000244.04998779,0,.10998535,0,.16998291.01000977h.01000977c12.88000488-.04003906,25.75-.07000732,38.63000488-.10003662-.0300293-.7199707,2.02996826-386.44995117.2199707-409.13000488Z"/>
</svg>