<?xml version="1.0" encoding="UTF-8"?>
<svg id="Layer_1" data-name="Layer 1" xmlns="http://www.w3.org/2000/svg" viewBox="0 0 565.00504378 121.21111736">
  <defs>
    <style>
      .cls-1 {
        fill: #025589;
      }

      .cls-2 {
        fill: #7526a8;
      }

      .cls-3 {
        fill: #0995cc;
      }
    </style>
  </defs>
  <path class="cls-2" d="M468.11877479,9.48298574v106.65908158h-22.44383348c-8.50777832-16.54573004-16.72661417-32.52952813-25.55538404-49.6995177.69588707,17.57650493,1.34023092,33.85089088,2.00006278,50.51741303h-23.78914361c-.93568285-37.1017977-1.87769683-74.45489094-2.82325194-111.94937927h20.4009909c9.45819803,19.27864721,18.97566539,38.67806865,28.96553472,59.04037532V9.48298574h23.24502466ZM161.8725233,111.25918563c8.42876229,2.63336072,16.68000651,5.21128118,24.9902533,7.80762494,3.37245326-10.21992232,6.67852591-20.23872862,9.9200512-30.06194532,9.19473771.48752847,18.08622208.95897767,27.00779962,1.43202249,2.14523738,10.3466768,4.23879169,20.44399731,6.34920404,30.62262603,9.01302931-1.43919123,17.88309131-2.85551654,26.87498645-4.29131512-8.76129303-37.57066019-17.47914655-74.95503124-26.1992645-112.3490503-9.63331205-.5107828-19.12910639-1.01427406-28.80387021-1.52725473-13.38350113,36.13260584-26.7362162,72.18213139-40.13915989,108.36729202ZM219.49612256,69.20681889c-5.31709547-.28192598-10.32515115-.54746587-15.78790824-.8371152,3.47556978-8.53125193,6.812123-16.7213172,10.48121422-25.7276239,1.87767096,9.39948639,3.57642377,17.903209,5.30669402,26.5647391Z"/>
  <path class="cls-3" d="M95.32172519,4.28287974h56.86673423v22.03951791c-10.08918214-.49414957-20.48965346-1.00353676-30.8046725-1.50875685v23.31048205h20.54159908c.36632883,6.83249861.73779052,13.76044696,1.11501104,20.79602441-7.20429117.42849546-14.2553745.84785192-21.50145287,1.27883333v22.32838884h30.22098403v23.97503542h-54.08264047c-.78860942-37.56960336-1.56964474-74.77818959-2.35556253-112.2195251ZM357.37435987,118.09704105c9.09484639-1.32386349,18.00470685-2.62076714,26.79364229-3.9001125-2.22229987-35.05398648-4.43459688-69.95019046-6.64974765-104.89140887-8.45235811.53584988-16.6294536,1.05424907-25.05532425,1.58841973,1.6387958,35.77061106,3.27084868,71.39359096,4.9114296,107.20310163Z"/>
  <path class="cls-1" d="M0,7.96716612C21.54359134,1.21670421,55.87440517-4.63055418,71.01801064,17.44769428c5.45032963,7.94618313,7.56063904,18.93126729,5.70596305,28.36495329-2.10007236,10.68192172-9.89765105,18.49365281-19.40332408,23.20751996,10.73027957,15.64036781,21.44291976,31.25505006,32.2563753,47.01669001-11.6011109.87099779-22.99095626,1.72613402-34.39158693,2.58207999-7.78281412-14.2139481-15.47950499-28.27065279-23.17619184-42.32730397-.2074183.10001007-.41484107.20002047-.62225937.30003054,1.02708281,13.68005948,2.05416429,27.36010113,3.09688238,41.24841216-8.69527262,1.12821241-17.40826982,2.25868817-25.98164617,3.37104111C5.66398219,83.4076391,2.83393998,45.71336049,0,7.96716612ZM29.51898839,52.76648321c8.56688361-1.07389736,22.76044062-3.76991984,22.53893884-14.99565251-.26450782-13.40519488-15.00925679-12.06075468-24.47404495-10.77867294.65212527,8.68587463,1.29000379,17.18199192,1.93510611,25.77432545ZM543.36013873,6.36364026c-8.45684968-5.62119174-19.05223974-7.56108013-28.9890308-5.64936808-36.26446025,8.14615511-38.53601633,45.89627787-30.78380751,76.02425776,2.6773958,11.52460282,6.89032289,23.62916972,15.38798068,32.22956889,12.31433601,12.46324055,34.9620342,15.67164182,49.50297622,5.24750232,19.09647476-13.6899847,17.84592159-44.34982895,14.67872747-64.80719805-12.85603289,1.06202866-25.53503918,2.10942286-38.61746384,3.19015277,1.01955947,6.11024012,2.00598657,12.02191723,2.98484879,17.88825791,4.71573018-.78687045,9.55116971-1.59371569,14.53013346-2.4245095,1.65632804,11.71936626-.41778662,27.20129783-14.87008992,28.42794391-13.80978022,1.17212518-17.46826664-16.63770801-18.94171027-26.96569505-1.78528822-12.51396-4.42925149-30.56386385,5.57170634-40.48901742,4.05179581-4.02105771,10.89318849-6.09082078,16.30729149-3.6750882,5.8844627,2.62557981,7.75488814,9.46177658,9.70341667,14.98851758,6.90034657-1.15139726,13.75595649-2.29532972,20.87984521-3.4840274-2.71656524-11.75869404-6.81769104-23.5040133-17.344824-30.50129745ZM273.35228845,117.70313642c-.69066479-38.5983573-1.37324577-76.74613175-2.05949307-115.09768254,15.11410916.71835004,31.50638993,2.71857378,45.10879129,9.81436844,36.26354816,19.07985249,30.36998355,75.17869546-2.98129979,94.39327201-12.45709167,7.8962075-25.62479164,10.00289785-40.06799842,10.89004208ZM297.39090338,91.53080762c11.9787364-7.92384841,24.15860224-23.30524188,20.60691338-40.0554994-2.53742138-11.9669505-13.45682129-21.0965024-20.60691338-23.15465413v63.21015354Z"/>
</svg>