<?xml version="1.0" encoding="UTF-8"?>
<svg id="Layer_1" data-name="Layer 1" xmlns="http://www.w3.org/2000/svg" viewBox="0 0 370.76000977 543.02001953">
  <defs>
    <style>
      .cls-1 {
        fill: #43e4ff;
      }

      .cls-2 {
        fill: #3d363c;
      }
    </style>
  </defs>
  <path class="cls-1" d="M0,0v543.02001953h370.76000977L0,0ZM89,286.36999512c8.91998291,13.46002197,97.86999512,147.60003662,106.7800293,161.04998779.00994873,0,.00994873.01000977.00994873.01000977h-106.78997803v-161.05999756Z"/>
  <path class="cls-2" d="M49.75,165.91003418H0v9.38995361h49.75c2.58001709,0,4.70001221-2.10998535,4.70001221-4.69995117,0-2.58001709-2.11999512-4.69000244-4.70001221-4.69000244ZM47.61999512,292.04003906H0v9.38995361h47.61999512c2.58001709,0,4.69000244-2.10998535,4.69000244-4.69000244,0-2.57995605-2.10998535-4.69995117-4.69000244-4.69995117ZM46.28997803,419.7800293H0v9.38995361h46.28997803c2.58001709,0,4.69000244-2.11999512,4.69000244-4.69995117,0-2.58001709-2.10998535-4.69000244-4.69000244-4.69000244ZM33.47003174,76.40002441c.60998535-.60998535.97998047-1.44000244.97998047-2.35998535,0-1.83001709-1.5-3.33001709-3.34002686-3.33001709H0v6.66998291h31.10998535c.92004395,0,1.75-.36999512,2.36004639-.97998047ZM34.45001221,106.58001709c0-1.84002686-1.5-3.34002686-3.34002686-3.34002686H0v6.67004395h31.10998535c1.84002686,0,3.34002686-1.5,3.34002686-3.33001709ZM34.45001221,138.04003906c0-1.83001709-1.5-3.33001709-3.34002686-3.33001709H0v6.66998291h31.10998535c1.84002686,0,3.34002686-1.5,3.34002686-3.33996582ZM32.30999756,200.17999268c0-1.83996582-1.5-3.33996582-3.33001709-3.33996582H0v6.66998291h28.97998047c1.83001709,0,3.33001709-1.5,3.33001709-3.33001709ZM32.30999756,232.71002197c0-1.83001709-1.5-3.33001709-3.33001709-3.33001709H0v6.66003418h28.97998047c1.83001709,0,3.33001709-1.5,3.33001709-3.33001709ZM32.30999756,264.17999268c0-1.83996582-1.5-3.33996582-3.33001709-3.33996582H0v6.66998291h28.97998047c1.83001709,0,3.33001709-1.5,3.33001709-3.33001709ZM30.97998047,327.91003418c0-1.83001709-1.5-3.33001709-3.32995605-3.33001709H0v6.65997314h27.65002441c1.82995605,0,3.32995605-1.5,3.32995605-3.32995605ZM30.97998047,360.44000244c0-1.83001709-1.5-3.33001709-3.32995605-3.33001709H0v6.67004395h27.65002441c1.82995605,0,3.32995605-1.5,3.32995605-3.34002686ZM30.97998047,391.91003418c0-1.83001709-1.5-3.33001709-3.32995605-3.33001709H0v6.65997314h27.65002441c1.82995605,0,3.32995605-1.5,3.32995605-3.32995605ZM25.51000977,450.71002197H0v6.66998291h25.51000977c1.83996582,0,3.33996582-1.5,3.33996582-3.33996582,0-1.83001709-1.5-3.33001709-3.33996582-3.33001709ZM25.51000977,483.23999023H0v6.67004395h25.51000977c1.83996582,0,3.33996582-1.5,3.33996582-3.33001709,0-1.84002686-1.5-3.34002686-3.33996582-3.34002686ZM25.51000977,514.71002197H0v6.66998291h25.51000977c1.83996582,0,3.33996582-1.5,3.33996582-3.33996582,0-1.83001709-1.5-3.33001709-3.33996582-3.33001709Z"/>
</svg>