<?xml version="1.0" encoding="UTF-8"?>
<svg id="Layer_1" data-name="Layer 1" xmlns="http://www.w3.org/2000/svg" viewBox="0 0 556.30268314 318.32452307">
  <defs>
    <style>
      .cls-1 {
        fill: #66c602;
      }

      .cls-2 {
        fill: #3d363c;
      }
    </style>
  </defs>
  <path class="cls-1" d="M538.61694148,186.82452307C484.7669659,34.53454504,308.27697566-43.84545984,164.2669659,25.41454992,54.52697566,76.98455725-12.42303655,197.85455236,1.92700008,318.32452307h21.12994385l28.43005371-.00994873h6.90997314l30.44000244-.01000977h6.77001953l30.25994873-.01000977h9.61004639l28.78997803-.01000977h44.51000977l28.29998779-.01000977h6.66998291l28.7800293-.01000977h9.90002441l31.75-.00994873h7.20996094l28.80999756-.01000977h37.29998779l7.11999512-.01000977h37.29003906l29.67999268-.01000977h6.9699707l30.57000732-.01000977h7.0300293l31.27001953-.01000977h17.17999268c4.70996094-44.63995361-.32000732-89.25994873-15.99005127-131.38000488ZM115.38696101,220.72454748c36.7800293-161.64001465,289.13000488-161.64001465,325.59002686,0H115.38696101Z"/>
  <path class="cls-2" d="M543.75695613,280.35455236c-.07000732-2.58001709-.45996094-5.07000732-3.58996582-5.15002441-3.30999756-.07995605-3.98999023,2.42004395-3.91003418,5.17999268.38000488,12.60003662.7800293,25.22003174,1.17004395,37.82000732h7.4699707c-.39001465-12.60998535-.78997803-25.22998047-1.14001465-37.84997559ZM501.61694148,275.70452795c-2.83996582.11999512-3.32995605,2.32000732-3.27996826,4.69000244.26000977,12.61004639.52996826,25.21002197.78997803,37.82000732h7.0300293c-.25-12.61999512-.47998047-25.25-.76000977-37.86999512-.04998779-2.47998047-.75-4.76000977-3.7800293-4.64001465ZM465.04699519,276.57452307c-2.76000977.19000244-3.45001221,2.2300415-3.45001221,4.64001465,0,12.34002686-.01000977,24.66003418-.01000977,37.01000977h6.9699707c.08001709-12.55999756.18005371-25.13000488.20001221-37.70001221,0-2.29998779-1.07995605-4.13000488-3.70996094-3.95001221ZM427.07696345,252.01452551c-4.29998779-.10998535-5.64001465,2.80999756-5.64996338,6.70001221-.08001709,19.85003662-.20001221,39.67999268-.31005859,59.52001953h10.79003906c.10998535-19.78997803.2199707-39.57000732.33001709-59.35998535.0199585-3.59002686-.93005371-6.75-5.16003418-6.86004639ZM391.64697078,278.48455725c-2.91998291-.04998779-3.80999756,2.01000977-3.83001709,4.60998535-.09997559,11.71002197-.20996094,23.42999268-.32000732,35.15002441l7.11999512-.01000977c.18005371-11.72003174.38000488-23.45001221.51000977-35.16998291.0300293-2.35003662-.65997314-4.54003906-3.47998047-4.58001709ZM353.37695125,278.21453772c-3.20996094-.03997803-3.64996338,2.55999756-3.61999512,5.10003662.11999512,11.63995361.29003906,23.28997803.44000244,34.92999268h7.16003418c-.13000488-11.65002441-.29003906-23.29998779-.36004639-34.95001221-.00994873-2.70001221-.54998779-5.03997803-3.61999512-5.08001709ZM316.57696345,277.77453527c-3.14996338.04998779-3.66998291,2.44000244-3.58001709,5.08001709.40002441,11.79998779.7800293,23.59997559,1.18005371,35.40002441h7.20996094c-.39001465-11.82000732-.78997803-23.64001465-1.15997314-35.47003174-.07000732-2.57000732-.40002441-5.07000732-3.65002441-5.01000977ZM277.73699763,254.72454748c-4.26000977.02001953-4.97003174,3.29998779-4.99005127,6.61999512-.11999512,18.97998047-.15997314,37.94000244-.2199707,56.91998291h9.90002441c.08996582-19.19995117.18994141-38.38000488.25-57.57995605.00994873-3.30004883-1.19000244-5.9800415-4.94000244-5.96002197ZM241.29699519,280.26452551c-2.55999756-.06994629-3.60003662,1.68005371-3.65002441,4.05999756-.20001221,11.32000732-.36999512,22.63000488-.57000732,33.95001221h6.66998291c.27001953-11.20001221.55004883-22.40997314.7800293-33.60998535.03997803-2.21002197-.5300293-4.33001709-3.22998047-4.40002441ZM205.04699519,281.1245719c-3.14001465.04998779-3.75,2.38000488-3.74005127,5.0199585.01000977,10.72003174.01000977,21.42004395.01000977,32.14001465h7.46002197c.01000977-10.7199707.02996826-21.44000244.01000977-32.15997314,0-2.55004883-.48999023-5.04003906-3.73999023-5ZM167.28698543,279.75457678c-3.01000977.05999756-3.79998779,2.29998779-3.73999023,5.02996826.2699585,11.16003418.48999023,22.34002686.7199707,33.5h7.22998047c-.10998535-11.20001221-.19995117-22.40002441-.31994629-33.58996582-.0300293-2.61004639-.81005859-5.01000977-3.89001465-4.94000244ZM129.07696345,254.5945426c-4.01000977.20001221-4.7199707,3.17999268-4.64001465,6.51000977.47003174,19.05999756.95001221,38.11999512,1.42999268,57.19000244h9.61004639c-.44000244-19.17999268-.89001465-38.38000488-1.39001465-57.55999756-.08001709-3.21002197-.84002686-6.35998535-5.01000977-6.14001465ZM91.16699031,279.32452307c-3.08001709.07000732-3.35003662,2.62005615-3.29003906,4.99005127.29003906,11.32995605.64001465,22.66998291.96002197,33.98999023h6.77001953c-.27001953-11.30999756-.5300293-22.61999512-.80004883-33.92999268-.05999756-2.52001953-.36999512-5.11999512-3.63995361-5.05004883ZM55.33697322,279.86456213c-3.04998779.0199585-3.44000244,2.44000244-3.47003174,4.85998535-.13995361,11.20001221-.25994873,22.40002441-.37994385,33.59002686h6.90997314c.13000488-11.20001221.26000977-22.41003418.36999512-33.61004639.02001953-2.40997314-.32000732-4.85998535-3.42999268-4.83996582ZM19.40698054,278.13452063c-4.08001709-.04998779-3.39001465,3.44000244-3.39001465,6.07000732.02001953,11.36999512.08001709,22.74005127.13000488,34.11999512h6.90997314c-.05999756-11.34997559-.08996582-22.69995117-.20996094-34.04998779-.0300293-2.58996582.52996826-6.09997559-3.44000244-6.14001465Z"/>
</svg>