<?xml version="1.0" encoding="UTF-8"?>
<svg id="Layer_1" data-name="Layer 1" xmlns="http://www.w3.org/2000/svg" viewBox="0 0 454.23999023 548.59543949">
  <defs>
    <style>
      .cls-1 {
        fill: #ff1833;
      }

      .cls-2 {
        fill: #43e4ff;
      }

      .cls-3 {
        fill: #ffc70e;
      }

      .cls-4 {
        fill: #0995cc;
      }
    </style>
  </defs>
  <path class="cls-3" d="M314.96002197,210.19000244c.31994629-42.30999756-.66003418-84.73999023.36999512-126.9800415v-.00994873c2.58996582,1.72998047,5.19995117,3.4699707,7.5199585,5.02996826,4.36004639-4.35998535,8.54003906-8.52001953,12.73999023-12.70001221C299.89001465,50.76000977,226.7199707,0,226.7199707,0c-35.69000244,24.80999756-72.80999756,50.73999023-108.44000244,75.45996094,4.25,4.24005127,8.4800415,8.44000244,12.80999756,12.75,2.54003906-1.72998047,5.31005859-3.61999512,8.07000732-5.50994873v.00994873c.05999756,42.49005127.05004883,84.9800415.05999756,127.47003174-.13000488.09997559-.25994873.20001221-.39996338.29998779C92.51000977,244.55999756,46.27001953,278.60998535,0,312.77996826c6.90997314,9.42004395,13.77001953,18.76000977,20.77996826,28.33001709l18.87005615-13.35998535v220.80999756c37.64996338,0,75.25.02996826,112.88995361-.07000732,22.67004395,0,45.30999756,0,67.97003174.01000977,4.19000244.01000977,8.39001465.01000977,12.58996582.01000977,22.80999756-.01000977,45.60003662-.01000977,68.40002441-.02001953,37.58996582.10998535,75.19000244.17999268,112.77996826-.0300293.91003418-73.36999512-.63995361-146.88995361.57000732-220.20996094,6.05004883,4.40997314,12.11004639,8.82000732,18.20001221,13.25,7.22998047-9.82000732,14.14001465-19.22003174,21.19000244-28.82000732-44.78997803-32.21002197-139.27996826-102.48999023-139.27996826-102.48999023ZM255.63000488,58.45001221c3.2199707,5.30999756,5.01000977,11.08996582,4.95996094,17.39996338-.07995605,8.5-.05999756,42.08001709-.05999756,50.38000488,0,7.22998047-1.42999268,8.90002441-8.62994385,8.95001221-16.58001709.11999512-33.18005371.13000488-49.75-.01000977-7.19000244-.04998779-8.64001465-1.79998779-8.65002441-8.97998047-.02001953-16.73999023-.02001953-33.4800415-.03997803-50.22003174.05999756-33.76000977,44.86999512-45.32000732,62.16998291-17.5199585ZM255.40002441,100.5199585c-.04003906,3.16003418-1.77001953,5.01000977-5.38000488,4.89001465-5.91003418-.11999512-16.86004639-.0199585-16.86004639-.0199585.44000244.98999023.64001465,1.97998047.64001465,2.92999268,0,5.22998047-5.98999023,9.38000488-10.91998291,6.01000977-3.2800293-2.17004395-4-5.27001953-2.72998047-8.91003418v-.01000977c-5.19000244-.0199585-10.38000488-.07995605-15.57000732-.03997803-3.20001221.02996826-5.69000244-1.10003662-5.9800415-4.16998291-.0199585-.21002197-.02996826-.44000244-.02996826-.67004395.01000977-3.4699707,2.45996094-4.92999268,5.89001465-4.67999268.64996338.04003906,1.31994629-.05999756,2.25-.09997559,0-3.95001221-.66003418-22.60998535.86999512-28.02001953,2.5-8.94000244,8.41998291-14.58996582,20.32000732-14.70001221,11.95996094-.10998535,19.32995605,9.33001709,19.38995361,20.09002686.04998779,7.5.01000977,15,.01000977,22.73999023,3.97998047-.07000732,8.05999756-.41998291,8.10003662,4.65997314Z"/>
  <path class="cls-4" d="M152.53997803,389.20996094v159.2800293c22.67004395,0,45.30999756,0,67.97003174.01000977,4.19000244.01000977,8.39001465.01000977,12.58996582.01000977,22.80999756-.01000977,45.60003662-.01000977,68.40002441-.02001953v-159.2800293h-148.96002197ZM324.63000488,389.08996582v65.08001709h65.14001465v-65.08001709h-65.14001465ZM64.33996582,389.10998535v65.07000732h65.10003662v-65.07000732h-65.10003662Z"/>
  <path class="cls-2" d="M220.50683744,548.50073108c.00745914-53.09768359.01489905-106.19536718.02266578-159.29308922,4.17855928.00169176,8.35679174.00342198,12.53456281.00507529.01161165,53.10064417.02366546,106.2012499.03568083,159.30189408-4.19768774-.00465235-8.39529858-.00926625-12.59290942-.01388015Z"/>
  <path class="cls-1" d="M371.75,347.01000977h-15.59997559v-45.95001221c-4.5-.29003906-8.95001221-.58001709-13.54003906-.88000488.36999512,19.28997803.73999023,38.44000244,1.10998535,57.9699707h28.54003906c-.16003418-3.55999756-.34002686-7.44995117-.51000977-11.13995361ZM183.02001953,334.45996094h-11.69000244c0,3.07000732.27996826,6.2300415-1.4800415,8.94000244-1.32995605,2.05004883-3.69000244,3.35003662-6.15997314,3.22003174-6.41998291-.30999756-7.53997803-9.78997803-7.92999268-14.57000732-.29003906-3.59002686-.39001465-7.27001953.27996826-10.82000732.57000732-3.01000977,1.69000244-6.85998535,4.2800293-8.77001953,2.16998291-1.58996582,5.4699707-1.44995117,7.59997559.14001465,2.63000488,1.95001221,3.10998535,5.57000732,3.07000732,8.60998535h11.72998047c-.20996094-11.35998535-5.33996582-24.29998779-18.63995361-23.78997803-10.07000732.39001465-16.82000732,8.11999512-19.52001953,17.22998047-3.40997314,11.47003174-2.09002686,25.26000977,3.13000488,36.04003906,4.02996826,8.29998779,14.17999268,11.10998535,22.66998291,8.60998535,10.13000488-2.9699707,14.59002686-15.17999268,12.66003418-24.84002686ZM224.27996826,300.03997803c-4.04998779.34002686-8.03997803.66998291-12.14996338,1.01000977l1.80999756,21.75-10,.83001709c-.63000488-7.58001709-1.25-15.08001709-1.88000488-22.66003418-4.07000732.59002686-7.97998047,1.16003418-11.89001465,1.7300415.77001953,18.83996582,1.54003906,37.55999756,2.29998779,56.34997559,4.91003418-.63000488,9.70001221-1.23999023,14.5-1.84997559l-1.94000244-23.34002686c3.34002686,0,6.60003662,0,9.9800415-.01000977.64001465,7.70001221,1.2699585,15.2800293,1.90997314,22.92999268,4.47003174.04003906,8.88000488.07000732,13.30999756.10003662-1.98999023-18.98999023-3.9699707-37.89001465-5.95001221-56.84002686ZM135.57000732,319.23999023c.51000977-5.47998047-.04003906-11.15997314-3.40002441-15.72003174-2.70996094-3.68994141-7.19000244-5.63995361-11.55999756-6.57995605-8.11999512-1.76000977-18.02996826-.33001709-22.13000488,7.77996826-3.51000977,6.95001221-3.94000244,16.35003662,1.72003174,22.27001953,3.40997314,3.55999756,8.07000732,5.32000732,12.59997559,7.01000977,4.13000488,1.53997803,9.97003174,3.72998047,9.36999512,9.23999023-.4699707,4.35998535-5.13000488,6.21002197-9.0199585,5.66998291-4.86004639-.67999268-5.7800293-4.63000488-5.88000488-8.88000488-4.42004395-.63995361-8.83001709-1.27996826-13.24005127-1.91998291-1.12994385,4.35998535.54003906,9.59997559,2.58001709,13.44000244,2.45001221,4.61999512,6.71002197,7.71002197,11.7800293,8.9699707,8.25,2.04003906,19.33996582.79003906,24.25-6.95996094,4.67999268-7.39001465,3.04998779-16.72003174-2.67999268-23.02001953-3.63000488-3.9699707-8.41003418-6.2199707-13.2800293-8.29998779-3.89001465-1.65002441-8.94000244-3.88000488-7.79998779-9.10998535.91998291-4.22003174,5.77996826-5.45001221,9.52001953-4.79003906,4.93994141.86999512,5.75,5.41003418,5.31994629,9.74005127,3.99005127.38995361,7.88000488.7699585,11.85003662,1.15997314ZM264.92999268,298.79998779c-10.80999756-2.47998047-22.15002441,1.76000977-26.34997559,12.51000977-2.65002441,6.77001953-3.64001465,14.2199707-3.11004639,21.45001221.4800415,6.50994873,1.89001465,13.80999756,5.44000244,19.38995361,5.7800293,9.07000732,18.35003662,10.9800415,27.69000244,6.42004395,11.47003174-5.60003662,13.15002441-20.47003174,13.29003906-31.76000977.11999512-12.23999023-3.70001221-24.97998047-16.96002197-28.01000977ZM267.22998047,337.76000977c-1.26000977,4.94000244-3.66998291,13.2199707-10.52996826,11.0199585-6.63000488-2.11999512-6.14001465-13.39996338-6.11999512-18.78997803.0199585-5.35998535-.55004883-14.40002441,4.69995117-17.82000732,1.9800415-1.28997803,4.86004639-1.40002441,7.0300293-.51000977,2.40002441.98999023,3.58001709,3.17004395,4.33001709,5.5300293,2.13000488,6.65997314,2.32000732,13.79998779.58996582,20.57000732ZM319.47998047,299.20001221c-10.09997559-2.70001221-20.89996338.16998291-26.19000244,9.63000488-3.42999268,6.13995361-4.95001221,13.68994141-5.2699585,20.65997314-.30999756,6.77001953.28997803,14.4699707,3.38995361,20.61999512,4.89001465,9.66998291,17.29003906,13.04998779,27.13000488,9.27001953,12.29998779-4.7300415,15.04003906-19.7800293,16.22003174-31.32000732,1.33996582-12.09002686-2.2800293-25.39001465-15.2800293-28.85998535ZM319.01000977,339.02996826c-1.48999023,4.59002686-5.4800415,12.66003418-11.64001465,9.36999512-6.23999023-3.32995605-4.57000732-13.92999268-4.09002686-19.61999512.60003662-5.26000977.80004883-13.73999023,6.11004639-16.75,2.13995361-1.20996094,5.08996582-1.11999512,7.20996094.09002686,2.48999023,1.40997314,3.55999756,4.25,4.17004395,6.89001465,1.45996094,6.36999512.22998047,13.88000488-1.76000977,20.0199585ZM226.7199707,0c-35.69000244,24.80999756-72.80999756,50.73999023-108.44000244,75.45996094,4.25,4.24005127,8.4800415,8.44000244,12.80999756,12.75,2.54003906-1.72998047,5.31005859-3.61999512,8.07000732-5.50994873h.01000977c29.11999512-20.68005371,58.60998535-40.7300415,87.86999512-61.26000977,29.4800415,20.59997559,59.09002686,40.77996826,88.2800293,61.76000977h.01000977c2.58996582,1.72998047,5.19995117,3.4699707,7.5199585,5.02996826,4.36004639-4.35998535,8.54003906-8.52001953,12.73999023-12.70001221C299.89001465,50.76000977,226.7199707,0,226.7199707,0ZM314.96002197,210.19000244c-29.24005127-21.70001221-58.55999756-43.29998779-88.0300293-64.69000244-29.20001221,21.61999512-58.46002197,43.13000488-87.70001221,64.67999268h-.01000977c-.13000488.09997559-.25994873.20001221-.39996338.29998779C92.51000977,244.55999756,46.27001953,278.60998535,0,312.77996826c6.90997314,9.42004395,13.77001953,18.76000977,20.77996826,28.33001709l18.87005615-13.35998535s124.81994629-91.48999023,187.29998779-137.19000244c62.65997314,45.83001709,125.95001221,90.90997314,187.89996338,137.69000244,6.05004883,4.40997314,12.11004639,8.82000732,18.20001221,13.25,7.22998047-9.82000732,14.14001465-19.22003174,21.19000244-28.82000732-44.78997803-32.21002197-139.27996826-102.48999023-139.27996826-102.48999023ZM255.40002441,100.5199585c-.04003906,3.16003418-1.77001953,5.01000977-5.38000488,4.89001465-5.91003418-.11999512-16.86004639-.0199585-16.86004639-.0199585-4.32995605.03997803-8.66998291.06994629-13,.02996826h-.00994873v-.01000977c-5.19000244-.0199585-10.38000488-.07995605-15.57000732-.03997803-3.20001221.02996826-5.69000244-1.10003662-5.9800415-4.16998291-.0199585-.21002197-.02996826-.44000244-.02996826-.67004395.01000977-3.4699707,2.45996094-4.92999268,5.89001465-4.67999268.64996338.04003906,1.31994629-.05999756,2.25-.09997559,0-3.95001221-.66003418-22.60998535.86999512-28.02001953,2.5-8.94000244,8.41998291-14.58996582,20.32000732-14.70001221,11.95996094-.10998535,19.32995605,9.33001709,19.38995361,20.09002686.04998779,7.5.01000977,15,.01000977,22.73999023,3.97998047-.07000732,8.05999756-.41998291,8.10003662,4.65997314Z"/>
</svg>