<?xml version="1.0" encoding="UTF-8"?>
<svg id="Layer_1" data-name="Layer 1" xmlns="http://www.w3.org/2000/svg" viewBox="0 0 550.72480527 227.31051416">
  <defs>
    <style>
      .cls-1 {
        fill: #ff1733;
      }

      .cls-2 {
        fill: #025589;
      }

      .cls-3 {
        fill: #a89a9f;
      }

      .cls-4 {
        fill: #3d363c;
      }

      .cls-5 {
        fill: #ff9605;
      }
    </style>
  </defs>
  <path class="cls-5" d="M540.13483945,107.06051416c-.67004395.72003174-1.36999512,1.47003174-2.07000732,2.21002197,6.2699585,8.14001465,6.29998779,17.67999268,6.14996338,27.27001953-.03997803,2.60998535-.07995605,9.73999023-.13995361,17.69995117-.04003906,6.85003662-.08001709,14.30999756-.11999512,20-.0300293,4.55999756-.05004883,7.9800415-.05999756,9.0300293-.02001953,2.11999512-1.36004639,2.69000244-3.26000977,2.67999268-9.7300415-.0300293-19.47003174-.02001953-29.21002197-.02001953-1.10998535,19.52001953-11.45001221,32.92004395-30.36999512,39.36004639-2.77001953,1.31994629-15.15002441,2.17999268-20.92999268.7199707-17.66003418-3.4699707-31.54998779-20.71002197-33.09002686-37.90002441-1.78997803,2.86999512-3.63995361,5.72003174-5.34997559,8.64001465-.78997803,1.35003662-1.80999756,1.96002197-3.35003662,1.96002197-25.2699585.01000977-50.52996826.0199585-75.78997803.10998535-2.2199707,0-3.08996582-1.29998779-3.94000244-2.89001465-.19000244-.27996826-5.14001465-8-6.51000977-10.13995361l-154.82995605-.34002686h-.01000977c-.10998535,20.72998047-14.51000977,41.38000488-42.13000488,41.85998535-21.85998535-.10998535-40.91998291-17.02996826-41.85998535-41.4699707h-.05999756c-26.15002441-.0300293-54.80999756-.10003662-80.77001953-.2300415h-.16998291c-4.29003906-.05999756-8-2.35998535-10.15002441-5.7699585-1.23999023-1.95001221-1.95001221-4.27001953-1.96002197-6.73999023-.00994873-3.11004639-.0199585-7.65002441-.03997803-13.26000977C.04481259,128.5005166-.07518252,63.7805459.06483213,29.01052637c.03997803-7.7199707,3.80999756-13.46002197,9.23999023-18.58001709C18.01484433,2.23049707,28.44483701-.03946143,40.02479306.0005166c91.11004639.27001953,326.49005127.65002441,353.07000732.70001221,22.55004883-.35998535,36.83001709,14.84997559,39.84002686,36.54998779v.01000977c2.78997803,13.73999023,1.27001953,29.45001221,10.2199707,41.20001221,1.27001953.88000488,4.0300293,2.92999268,4.0300293,2.92999268,1.58001709-1.04998779,2.9699707-2.0300293,2.95001221-4.35998535-.14001465-10.94000244-.11999512-21.86999512-.13000488-32.80999756,0-3.80999756,1.35998535-4.59002686,4.83996582-2.92004395,2.10003662,1.01000977,4.23999023,1.92004395,6.34002686,2.92004395,1.23999023.59997559,1.72998047,1.69995117,1.72998047,3.02996826.02001953,9.69000244.04003906,19.36999512.04003906,29.05999756.00994873,2.91003418-2.41003418,3.44000244-4.35003662,3.73999023-3.11999512.49005127-5.08996582,2.35003662-7.01000977,4.4800415,4.20001221,2.36999512,8.98999023,2.58996582,13.52001953,3.69000244,17.59002686,4.25,35.52001953,6.91998291,53.02001953,11.52996826,5.59997559,1.47003174,10.92999268,3.59002686,15.94000244,6.51000977,1.25994873-.9699707,2.53997803-1.94000244,3.53997803-2.70001221-.82000732-1.82000732-1.28997803-4.03997803-1.28997803-6.41998291.07995605-7.13000488,4.17999268-13.22998047,9.61999512-10.59997559.0199585.00994873.03997803.0199585.05999756.02996826,2.82000732,1.35998535,4.34997559,5.28997803,4.55999756,8.22998047q.01000977.01000977,0,.02001953c.10998535.75.15997314,1.5300293.15997314,2.32000732,0,7.58001709-5,14.14001465-10.58996582,9.91998291Z"/>
  <path class="cls-2" d="M29.20484677,37.31051416v41.14001465c14.61999512,0,29.25.01000977,43.86999512.01000977,0-13.64001465.00994873-27.2800293.0199585-40.92999268-.07000732-.07000732-29.29998779-.22003174-43.88995361-.22003174ZM93.47480527,37.34054346v41.2699585h43.79998779v-41.2699585h-43.79998779ZM201.01484433,37.31051416h-43.68005371v41.14001465c14.62005615,0,29.25.01000977,43.87005615.01000977.00994873-13.64001465-.12005615-41.07000732-.19000244-41.15002441ZM222.80482236,37.34054346v41.32995605h43.7199707v-41.32995605h-43.7199707ZM285.85481015,37.37051172v41.2300415h43.79998779v-41.2300415h-43.79998779ZM349.67481748,36.45052881c0,26.42999268-.02001953,138.5-.01000977,146.16998291.10003662.01000977,59.72003174.01000977,59.72003174.01000977V36.45052881h-59.71002197ZM432.93482724,37.26052637v-.01000977h-5.5300293v41.20001221c5.25,0,10.5.01000977,15.75.01000977-8.94995117-11.75-7.42999268-27.46002197-10.2199707-41.20001221Z"/>
  <path class="cls-4" d="M138.90479795,143.48049707h-7.10998535c-20.95001221,2.11004639-38.08996582,17.94000244-38.52996826,42.25-.02001953.04003906-.04003906.07000732-.05999756.11004639h.05999756c.94000244,24.44000244,20,41.35998535,41.85998535,41.4699707,27.61999512-.47998047,42.02001953-21.13000488,42.13000488-41.85998535h.01000977c.09997559-19.45001221-12.39001465-38.96002197-38.36004639-41.97003174ZM472.88483945,142.89053125c-22.5-1.33001709-41.08001709,13.35998535-44.69000244,34.15997314-.63000488,3.64001465-.79003906,7.36999512-1.16003418,11.05999756,1.54003906,17.19000244,15.42999268,34.43005371,33.09002686,37.90002441,5.77996826,1.46002197,18.15997314.59997559,20.92999268-.7199707,18.91998291-6.44000244,29.26000977-19.84002686,30.36999512-39.36004639,1.25-21.75-17.40002441-41.88000488-38.53997803-43.03997803ZM235.82484189,119.04055566H29.42481748c-.98999023,0-1.89001465.39996338-2.53997803,1.05999756-.66003418.64996338-1.05999756,1.54998779-1.05999756,2.53997803,0,1.97998047,1.61999512,3.59997559,3.59997559,3.59997559h206.40002441c.98999023,0,1.88995361-.39996338,2.53997803-1.05999756.65997314-.64996338,1.05999756-1.54998779,1.05999756-2.53997803,0-1.97998047-1.61999512-3.59997559-3.59997559-3.59997559ZM235.02479306,97.44051904H28.62482968c-.98999023,0-1.89001465.40002441-2.54003906,1.05999756-.65997314.65002441-1.05999756,1.54998779-1.05999756,2.54003906,0,1.97998047,1.62005615,3.59997559,3.60003662,3.59997559h206.39996338c.99005127,0,1.89001465-.40002441,2.54003906-1.05999756.65997314-.65002441,1.05999756-1.54998779,1.05999756-2.53997803,0-1.9800415-1.61999512-3.60003662-3.60003662-3.60003662ZM462.91480771,47.2505166c0-1.33001709-.48999023-2.42999268-1.72998047-3.02996826-2.10003662-1-4.23999023-1.91003418-6.34002686-2.92004395-3.47998047-1.66998291-4.83996582-.88995361-4.83996582,2.92004395.01000977,10.94000244-.01000977,21.86999512.13000488,32.80999756.0199585,2.32995605-1.36999512,3.30999756-2.95001221,4.35998535,0,0,2.85998535,2.21002197,4.40997314,3.14001465,1.92004395-2.13000488,3.89001465-3.98999023,7.01000977-4.4800415,1.94000244-.29998779,4.35998535-.82995605,4.35003662-3.73999023,0-9.69000244-.02001953-19.36999512-.04003906-29.05999756ZM550.56483213,94.82052393q.01000977-.01000977,0-.02001953c-.21002197-2.94000244-1.73999023-6.86999512-4.55999756-8.22998047-.02001953-.01000977-.04003906-.02001953-.05999756-.02996826-5.44000244-2.63000488-9.54003906,3.4699707-9.61999512,10.59997559,0,2.38000488.4699707,4.59997559,1.28997803,6.41998291-1,.76000977-2.2800293,1.7300415-3.53997803,2.70001221,1.32995605,1,2.65997314,2.01000977,3.98999023,3.01000977.70001221-.73999023,1.39996338-1.48999023,2.07000732-2.21002197,5.58996582,4.22003174,10.58996582-2.33996582,10.58996582-9.91998291,0-.78997803-.04998779-1.57000732-.15997314-2.32000732Z"/>
  <path class="cls-1" d="M29.02727138,169.83582739c0,2.75-1.11999512,5.25-2.94000244,7.05999756-1.80999756,1.81994629-4.30999756,2.94000244-7.05999756,2.94000244H2.1172372c-1.23999023-1.95001221-1.95001221-4.27001953-1.95996094-6.74005127-.01000977-3.10998535-.02001953-7.64996338-.04003906-13.25994873h18.91003418c5.5,0,10,4.5,10,10ZM528.62724697,154.23579077c-2.75,0-5.25,1.11999512-7.05999756,2.94000244-1.82000732,1.80999756-2.94000244,4.30999756-2.94000244,7.05999756,0,5.5,4.5,10,10,10h15.33001709c.03997803-5.69000244.07995605-13.14996338.11999512-20h-15.45001221ZM334.56011254,110.361546c-.0035859-.11606339-.05025373-.22495499-.13161934-.30751103-6.22334077-6.35257194-12.56034946-12.59266638-18.86505583-18.86506314-.11128706-.11127976-.22017135-.15315665-.37572347-.15315665-3.71773134.0035859-18.42831364.0035859-22.51458934.00119043-.12563797-.00119043-.24529456.04547009-.33862291.1304289-6.5344523,5.93616201-12.68001336,12.56274493-18.9871079,18.82557442-.10410796.10170519-.16393626.23931319-.16991763.384093-.31469743,7.5347797.0071791,15.26220476-.10529839,22.85680545,0,.09931702.02991415.17230579.10051475.2429064,6.2245385,6.35615784,12.56394266,12.59983818,18.87223494,18.87343267.09213792.09213792.21657815.14597754.34700705.15196621,7.54434697.29554829,15.26579066-.00718641,22.86518229.09811198.09692155,0,.17229849-.01794411.24529456-.09093288,6.40880703-6.2771877,12.70393883-12.66805062,19.02898479-19.02779436.07538424-.07538424.10769386-.15076848.10769386-.2572646-.08376108-7.605373.14957075-15.29689524-.07897744-22.86278682Z"/>
  <path class="cls-3" d="M493.25725185,185.40577368c0,13.43005371-11.0300293,24.58001709-24.32000732,24.59002686-13.41998291.01000977-24.4699707-11.13000488-24.61999512-24.83001709-.15002441-12.94000244,11.27001953-24.08996582,24.64001465-24.08996582,13.39996338.01000977,24.29998779,10.91998291,24.29998779,24.32995605ZM134.94725429,161.40577368c-13.04998779-.03997803-24.64001465,11.39001465-24.61999512,24.2800293.01000977,13.46002197,11.2699585,24.91998291,24.4699707,24.91998291,13.32000732-.01000977,24.46002197-11.2199707,24.46002197-24.63000488,0-13.42999268-10.97998047-24.53997803-24.30999756-24.57000732Z"/>
</svg>