<?xml version="1.0" encoding="UTF-8"?>
<svg id="Layer_1" data-name="Layer 1" xmlns="http://www.w3.org/2000/svg" viewBox="0 0 528.70996094 540.69361963">
  <defs>
    <style>
      .cls-1 {
        fill: #66c602;
      }

      .cls-2 {
        fill: #ddced1;
      }

      .cls-3 {
        fill: #19a419;
      }
    </style>
  </defs>
  <path class="cls-1" d="M528.70996094,35.5300293c-2.66998291,99.52996826-5.35998535,199.55999756-8.04998779,299.67999268-.73999023.47998047-1.42999268.92999268-2.11999512,1.38000488-72.14001465,68.20996094-144.45996094,137.04998779-217.73999023,203.69000244-100.16998291.88995361-200.55999756.0199585-300.79998779.32000732V35.5300293h93.09997559V0h333.60003662v35.5300293h102.00994873Z"/>
  <path class="cls-3" d="M300.79820543,540.27685853c-18.53393475-50.08785175-15.24088087-128.05376223-2.86644628-179.85922523,65.21836826,15.00622082,135.17635116,9.65053621,197.70194229-14.01335194,7.77762654-2.89953154,15.11222517-6.99712263,22.90549902-9.81727361-72.13668502,68.20809334-144.46345467,137.04865326-217.74099502,203.68985078ZM93.09997559,35.5300293v37.2699585h333.60003662v-37.2699585H93.09997559Z"/>
  <rect class="cls-2" x="93.09997559" width="333.60003662" height="35.5300293"/>
</svg>