<?xml version="1.0" encoding="UTF-8"?>
<svg id="Layer_1" data-name="Layer 1" xmlns="http://www.w3.org/2000/svg" viewBox="0 0 555.91865628 418.28059733">
  <defs>
    <style>
      .cls-1 {
        fill: #025589;
      }

      .cls-2 {
        fill: #ddced1;
      }

      .cls-3 {
        fill: #0995cc;
      }
    </style>
  </defs>
  <path class="cls-1" d="M554.80141868,149.81795158c-.0908381-2.17642604-1.87675196-3.88935954-4.05507283-3.88913871-8.95206002.00090751-18.65354066.01561599-27.32095543.19002126-2.26000977.04003906-3.71002197,2.04998779-3.98999023,4.2800293-2.08001709,48.61999512-23.63000488,99.95996094-72.39001465,117.5-12.79998779,4.80999756-40.27667643,7.7633138-65.5300293,6.82995605,25.69000244-69.56994629,9.33001709-148.05999756-45.05999756-199.13000488,0,.01000977,0,.02001953-.01000977.0300293l-.00994873-.01000977c0-.01000977,0-.02001953.00994873-.02996826l.01000977.00994873c4.17004395-7.48999023,8.34002686-14.9699707,12.61999512-22.67999268-85.04998779-75.11999512-203.25-65.55999756-277.94000244-.90997314C32.63535136,85.3288561,5.69534892,133.27886831.81540507,191.81884633c-10.60003662,117.11999512,83.53997803,223.59997559,201.2699585,226.38000488,13.23999023.41998291,152.42999268-.92999268,208.85003662-.63000488,41.42999268.22998047,87.72998047-62.23999023,89.57995605-64.89001465,28.05999756-38.52996826,53.19000244-101.82000732,55.36004639-162.53997803.25457204-7.13719573-.68101905-30.9057007-1.07398395-40.32090208ZM265.40626522,206.70373717c1.02896093,32.26330589-25.33259029,58.62489228-57.59595011,57.59598712-29.21737787-.93176629-53.01405344-24.72844186-53.94581973-53.94581973-1.02890517-32.26335982,25.33268123-58.62491104,57.59598712-57.59595011,29.2173357.931817,53.01396572,24.72844702,53.94578272,53.94578272Z"/>
  <path class="cls-3" d="M303.02536601,201.40887319c-3.64001465-44.63000488,13.66998291-86.93005371,33.41003418-125.79003906-27.0300293-28.78997803-93.41003418-56.35998535-146.46002197-49.64996338C27.02536601,46.75884877-31.98458272,248.53881704,95.63535136,352.69885122c94.40002441,78.03997803,243.70001221,36.80999756,285.88000488-77.97003174-42.69000244-2.77996826-75.57000732-29.40997314-78.48999023-73.31994629ZM210.23538798,291.92883168c-45.7300415,0-82.79998779-37.07000732-82.79998779-82.79998779s37.06994629-82.79998779,82.79998779-82.79998779c45.72998047,0,82.79998779,37.07000732,82.79998779,82.79998779s-37.07000732,82.79998779-82.79998779,82.79998779Z"/>
  <path class="cls-2" d="M381.51535624,274.72881948c-42.69000244-2.77996826-75.57000732-29.40997314-78.48999023-73.31994629-3.64001465-44.63000488,13.66998291-86.93005371,33.41003418-125.79003906,0-.01000977,0-.02001953.00994873-.02996826l.01000977.00994873c54.39001465,51.07000732,70.75,129.56005859,45.05999756,199.13000488Z"/>
</svg>