<?xml version="1.0" encoding="UTF-8"?>
<svg id="Layer_1" data-name="Layer 1" xmlns="http://www.w3.org/2000/svg" viewBox="0 0 387.5983291 560.31546009">
  <defs>
    <style>
      .cls-1 {
        fill: #ff1833;
      }

      .cls-2 {
        fill: #a89a9f;
      }
    </style>
  </defs>
  <path class="cls-1" d="M387.52996826,100.69052399c-2.5199585,26.73999023-28.53997803,34.52996826-51.52996826,28.34997559-21.72003174,37.61999512-43.5,75.33996582-65.35998535,113.19000244,45.10998535,44.4699707,42.69995117,121.44000244,14.5199585,174.40997314-27.07000732-15.57995605-107.82995605-62.07000732-107.82995605-62.07000732-44.15002441,58.75-149.16003418,194.01000977-156.68005371,203.51000977-.00994873.02001953-.02996826.0300293-.03997803.04998779-1.79998779,2.24005127-5.01000977,2.82000732-7.53997803,1.45001221-3.55004883-1.91998291-4.80999756-3.72998047-1.72003174-11.38000488,30.86999512-78.32000732,64.67999268-155.66998291,95.75-233.79998779-26.69000244-15.89001465-98.82000732-56.45996094-107.09997559-62.29998779,32.5199585-51.17999268,96.64001465-91.02001953,158.5-74.58001709,21.72998047-37.75,43.5-75.55999756,65.33001709-113.48999023-15.52001953-14.7199707-22.79003906-41.89001465-3.67004395-57.20001221,19.40002441-15.52996826,42.92004395-1.13000488,60.63000488,9.16003418,23.60003662,13.7199707,47.22998047,27.39996338,70.92999268,40.9699707,16.83001709,9.64001465,37.21002197,21.23999023,35.80999756,43.7300415Z"/>
  <path class="cls-2" d="M177.33001709,354.57046784c-44.15002441,58.75-149.16003418,194.01000977-156.68005371,203.51000977-.00994873.02001953-.02996826.0300293-.03997803.04998779-1.79998779,2.24005127-5.01000977,2.82000732-7.53997803,1.45001221-3.55004883-1.91998291-4.80999756-3.72998047-1.72003174-11.38000488,30.86999512-78.32000732,64.67999268-155.66998291,95.75-233.79998779l70.2300415,40.16998291Z"/>
</svg>