<?xml version="1.0" encoding="UTF-8"?>
<svg id="Layer_1" data-name="Layer 1" xmlns="http://www.w3.org/2000/svg" viewBox="0 0 210.11512846 555.84779112">
  <defs>
    <style>
      .cls-1 {
        fill: #f94e03;
      }

      .cls-2 {
        fill: #a89a9f;
      }

      .cls-3 {
        fill: #756a6e;
      }
    </style>
  </defs>
  <path class="cls-1" d="M185.40922773,100.14348735V18.12352885C185.40922773,8.11351909,177.29924238.00353374,167.28923261.00353374L43.50926435.0135435C33.49925459.0135435,25.38926923,8.12352885,25.38926923,18.12352885v82.0199585c-13.05999756-.0199585-26.29998779-.75-25.34002686,13.55004883,0,0,12.7800293,312.38995361,16.39001465,374.01000977,1.51000977,25.80999756-.01000977,41.35998535,25.44000244,54.7199707,26.2199707,13.7800293,64.75,16.04998779,93.52001953,10.88000488,20.94995117-3.75,49.69995117-12.7800293,56.45996094-35.2800293.77001953-2.55999756,1.15002441-5.20996094,1.2800293-7.88000488,5.63000488-110.44995117,16.95996094-396.91998291,16.95996094-396.91998291.55999756-13.23999023-13.78997803-12.78997803-24.69000244-13.08001709ZM162.1692375,503.49352397c-9.85998535,33.39001465-104.72998047,32.88000488-113.2199707-.61999512-6.41003418-25.2800293,35.35998535-32.63000488,52.36999512-33.11999512,17.79998779-.51000977,69.30999756,5.10998535,60.84997559,33.73999023Z"/>
  <path class="cls-2" d="M185.41168373,18.12835608v82.01239062H25.3913501V18.12835608C25.3913501,8.12257362,33.50356635.01029421,43.50941197.01029421l123.78427305-.01029421c10.00578246,0,18.11799871,8.11221625,18.11799871,18.12835608Z"/>
  <path class="cls-3" d="M84.09341634,40.84267577v25.92609395h-37.25013498v-25.92609395h37.25013498ZM127.30357292,40.84267577v25.92609395h36.80313336l.44700162-.44700162v-25.47909233h-37.25013498Z"/>
</svg>