<?xml version="1.0" encoding="UTF-8"?>
<svg id="Layer_1" data-name="Layer 1" xmlns="http://www.w3.org/2000/svg" viewBox="0 0 155.00985319 565.03535766">
  <defs>
    <style>
      .cls-1 {
        fill: #66c602;
      }

      .cls-2 {
        fill: #025589;
      }

      .cls-3 {
        fill: #7526a8;
      }

      .cls-4 {
        fill: #0995cc;
      }
    </style>
  </defs>
  <path class="cls-4" d="M.00486523,532.07755162c-.16998291,7.65002441,4.13000488,14.35998535,10.41998291,18.57000732,26.91003418,19.15002442,106.34002685,19.08001709,133.4800415.40997315,6.56994629-4.25994873,11.27996826-11.00994873,11.09997559-18.86999512V234.34757116c-.10998534-9.08001709-.74999999-18.26000977-3.21002196-27.0300293-1.38995361-5.35998535-3.53997803-10.22998047-6.40997314-14.7699585,1.26000977-1.39001465,2.45001221-2.81005859,2.25-4.92004395l-.03997803-14.38000488.0199585-34.73999023c-.53997803-11.97998047-5.70001221-22.63000488-14.54998779-30.32000732,4.20001221-11.16998291,7.15997315-22.67999268,7.89001465-34.88000488.7199707-18.22998047-4.76000976-36.58996582-15.36999511-51.29998779-7.95001221-10.48999023-18.5300293-18.14996338-31.27001953-21.20001221-4.52001953-.9699707-9-1.2699585-13.25.26000977-4.85998535,1.83001709-8.54998779,6-8.35998535,11.04998779-1.22003174,6.94000244.55999756,13.89001465,2.73999023,20.69000244,1.82000732,6.9800415,4.22998047,13.39001465,4.90997314,20.58001709.80004883,8.89001465-.7699585,19.97003174-4.90997315,28.0300293-3.07000732-.93005371-6.15997314-1.76000977-9.27001953-2.5-13.2699585-2.99005127-27.75-5.83001709-41.44000244-3.77001953-1,.15002441-1.97998047.39001465-2.90997314.77996826-4.25,1.7800293-6.47998047,5.42004395-6.58001709,10.38000488l-.20996094,48.19000244c-4.29003906-.13000488-7.63000488,2.2300415-7.70001221,6.55999756l.01995849,32.21002197-.00994873,14.35998535c-.29003906,2.15002441.9699707,3.59002686,2.33996582,4.95001221-4.70001221,6.78997803-6.97998047,14.72998047-8.30999756,22.97003174C.41483839,221.55753209.01487501,227.64755894.01487501,233.72757603l-.01000978,298.34997559ZM89.9148384,29.39755895c.09002686-1.92999268.52001953-3.85998535,1.40002441-5.58001709,1.34997559-2.63000488,3.5-4.61999512,6.21002197-5.42999268,3.63995361-1.35998535,7.02996826.02001953,9.88995361,2.51000977.86004639.73999023,1.60003662,1.61999512,2.24005127,2.55999756,3.82995605,5.64001465,7.05999756,11.69000244,9.50994873,18.07000732,3.75,9.77996826,5.05004883,20.33996582,3.5300293,30.60998535-.75,5.01000977-2.38000488,9.86999512-4.90002441,14.26000977-1.88000488,3.27001953-4.54998779,6.97998047-8.02996826,9.66998291-1.84002686-1.08996582-12.17999268-6.26000977-14.13000488-7.11999512,2.30999756-13.27996826-.82000732-28.53997803-3.5-41.80999756-1.08001709-6.02996826-2.47998047-11.82000732-2.22003174-17.73999023Z"/>
  <path class="cls-3" d="M9.68485793,192.57755162c10.28997803,5.26000977,20.90002441,8.34002686,32.26000977,10.42999268,23.45001221,3.61999512,47.75,3.61999512,71.20001221-.02996826,11.42999268-2.08001709,22.11999512-5.30004883,32.23999023-10.42999267,1.26000977-1.39001465,2.45001221-2.81005859,2.25-4.92004395l-.03997803-14.38000488.0199585-34.73999023c-.53997803-11.97998047-5.70001221-22.63000488-14.54998779-30.32000732-5.15997314-3.44000244-10.48999023-6.26000977-16.36999512-7.57995606-2.23999023-1.62005615-4.54998779-3.13000488-6.92999268-4.54003906-1.84002686-1.08996582-12.17999268-6.26000977-14.13000488-7.11999512-6.55999756-2.94000244-13.30999756-5.46002197-20.19000244-7.52996826-3.07000732-.93005371-6.15997314-1.76000977-9.27001953-2.5-13.2699585-2.99005127-27.75-5.83001709-41.44000244-3.77001953-1,.15002441-1.97998047.39001465-2.90997314.77996826-4.25,1.7800293-6.47998047,5.42004395-6.58001709,10.38000488l-.20996094,48.19000244c-4.29003906-.13000488-7.63000488,2.2300415-7.70001221,6.55999756l.01995849,32.21002197-.00994873,14.35998535c-.29003906,2.15002441.9699707,3.59002686,2.33996582,4.95001221Z"/>
  <path class="cls-1" d="M15.03014763,134.49437363c-4.28048698-.12256705-7.6237388,2.22981678-7.69892021,6.56638028l.02196188,32.20907393c10.31405579,5.80836602,21.64037939,9.55915555,33.57826889,10.89193096,24.37618436,4.29519076,48.76924058,4.28374365,73.15282896-.00961254,11.91065749-1.34427013,23.23010856-5.08882194,33.50831656-10.90385346l.02174437-34.73637325c-.54094082-11.98834124-5.69766714-22.62976366-14.55033569-30.32882216-5.15723806-3.4308837-10.48926457-6.25118839-16.37071432-7.57618718-12.69382322-2.86966352-25.57550256-.71674506-37.04000507,5.14293877-4.98971217,2.39548423-20.22175913,12.99702427-23.32160137,15.2880871-12.04176552,8.89995016-26.33436476,12.99849865-41.30154401,13.45643755Z"/>
  <path class="cls-2" d="M80.35457085,53.38649453c.80004883,8.88995361-.7699585,19.9699707-4.90997315,28.02996826,6.88000488,2.07000732,13.63000488,4.59002686,20.19000244,7.5300293,2.30999756-13.2800293-.82000732-28.54003906-3.5-41.80999756-1.08001709-6.0300293-2.47998047-11.82000732-2.22003174-17.74005127.09002686-1.92999268.52001953-3.85998535,1.40002441-5.57995605,1.34997559-2.63000488,3.5-4.61999512,6.21002197-5.42999268,3.63995361-1.36004639,7.02996826.0199585,9.88995361,2.50994873.86004639.74005127,1.60003662,1.62005615,2.24005127,2.55999756,3.82995605,5.64001465,7.05999756,11.69000244,9.50994873,18.07000732,3.75,9.7800293,5.05004883,20.34002686,3.5300293,30.61004639-.75,5.00994873-2.38000488,9.86999512-4.90002441,14.25994873-1.88000488,3.27001953-4.54998779,6.9800415-8.02996826,9.67004394,2.38000488,1.40997314,4.69000244,2.91998291,6.92999268,4.53997803,3.22998047-4.44000244,5.72998047-9.51000977,7.57000732-14.86999512,2.84997559-8.28997803,3.91998291-17.13000488,3.11999512-25.85998535-1.21002197-13.33001709-6.16003418-26.16003418-13.86999512-37.32000732-5.10003662-7.40002441-11.54003906-14.05999756-19.41003418-18.19000244-1.63000488-.84997559-3.34997559-1.53997803-5.13000488-1.98999023-3.28997803-.83001709-6.47998047-.88000488-9.68994141,1.04998779-3.41003418,1.89001465-5.62005615,4.7199707-6.58001709,8.69000244-1.22003174,6.94000244.55999756,13.89001465,2.73999023,20.69000244,1.82000732,6.97998047,4.22998047,13.39001465,4.90997314,20.58001709Z"/>
</svg>