<?xml version="1.0" encoding="UTF-8"?>
<svg id="Layer_1" data-name="Layer 1" xmlns="http://www.w3.org/2000/svg" viewBox="0 0 552.00821739 385.69798773">
  <defs>
    <style>
      .cls-1 {
        fill: #025589;
      }

      .cls-2 {
        fill: #3d363c;
      }

      .cls-3 {
        fill: #0995cc;
      }
    </style>
  </defs>
  <path class="cls-3" d="M551.94368226,124.78832408l.01000977,67.71002197-.04003906,27.06994629c-.52996826,7.2800293-5.44995117,12.33001709-12.03997803,15.19000244L101.01368958,383.21831676c-5.42999268,1.47003174-10.84002686,2.86999512-16.34002686,2.38000488-7.79998779-.33001709-14.45996094-4.45001221-18.10998535-11.29998779L2.01368958,262.47832652c-1.36999512-2.70001221-1.57000732-5.36999512-1.69000244-8.34002686l-.20001221-24.7699585.05999756-68c-.88000488-6.61999512,1.42999268-12.80004883,6.5300293-17.05004883,3.41998291-3.06994629,7.67999268-4.83996582,12.08996582-6.44995117L444.62367493,2.04833385c6.46002197-1.95001221,13.2800293-2.69000244,19.80999756-1.41003418,6.01000977,1.20001221,11.14001465,4.30004883,14.60998535,9.35003662l68.08001709,97.36999512c3.23999023,5.45996094,5.2800293,11.27996826,4.82000732,17.42999268Z"/>
  <path class="cls-2" d="M.12827448,229.36413883c.91363478,1.32515318.88176543,2.95032011,1.727238,4.59109222l64.70029416,112.07977316c3.69476104,6.96040655,10.49787431,11.07884334,18.41619002,11.33502113,5.41147087.48076674,10.68961933-.99450924,16.04940997-2.38985962l438.79967463-148.44432107c6.41258576-2.7165067,10.81584926-7.42539163,12.13333385-14.03570582l-.04447287,27.07128391c-.53044374,7.27979753-5.44143404,12.32694986-12.03145711,15.18921402L101.01118803,383.22253297c-5.43071403,1.46674048-10.83484855,2.86624782-16.33735658,2.3733621-7.80073608-.32379134-14.45638124-4.44448814-18.1054757-11.30168554L2.01092817,262.47884812c-1.36582603-2.69946075-1.57074111-5.36579627-1.68925017-8.34307205l-.19340352-24.77163724Z"/>
  <path class="cls-1" d="M551.94158307,124.78536929c-.97571016,6.70674364-5.51155692,11.62245296-11.97796601,14.4140753L100.92528545,287.72632685c-5.70391909,1.53588549-11.38058248,2.97985428-17.17696258,2.26765489-7.55543473-.55716333-13.82422946-4.80967408-17.32001295-11.46029879L2.06989502,167.06371045c-1.01394855-1.96065788-1.31261812-3.82863655-1.88719538-5.69100326-.87834977-6.62843972,1.42832366-12.80502296,6.53230631-17.04988442,3.42294319-3.07032857,7.67550765-4.84190356,12.08738646-6.45943293L444.6244067,2.05056381c6.45975576-1.95702678,13.28161618-2.69366488,19.80659545-1.41148057,6.01506196,1.19810699,11.13961968,4.3014025,14.60838218,9.35062372l68.08750253,97.36886112c3.23998192,5.45971792,5.27947399,11.27663799,4.8146962,17.42680122ZM111.31112617,248.49217817c5.29652524.8259116,10.30591646-.37013777,15.40841526-1.74367669l352.21958954-118.9993635c3.86055598-2.04290933,7.15659519-4.75077567,8.47568138-8.1525975,1.90018563-4.52021947.69107572-8.67579347-1.39248689-12.74524783l-46.02672938-64.14852771c-2.46272721-2.7338022-5.6356812-4.09911452-9.24665111-4.64560564-5.01293428-.69940867-10.00935523.01195581-14.99006205,1.30985715-65.33079314,21.23588073-341.82112638,107.63674003-341.82112638,107.63674003-4.29833408,1.47305343-8.31154605,3.28335188-11.50439945,6.35814198-4.10554964,3.9253515-5.55835024,9.50285631-3.24555973,14.7359792l43.35948428,75.14806996c2.11977336,2.95317182,5.08589697,4.63116367,8.76384451,5.24623056ZM210.54770256,204.976238l-23.47297271-25.74224022,9.33674002,28.87421447-16.92608795,6.70608711-24.92938826-77.28061303c9.02236106-5.35431272,19.00774157-9.98787714,29.44989442-10.64796577,12.17090413-1.08764833,22.42954344,5.15270665,26.1646382,16.60379286,4.19526929,9.62263719,1.37863951,20.09235165-7.17184056,26.92286854l29.70033489,27.35989558-22.15131806,7.20396047ZM181.80234818,163.97140001c3.71672547-1.41739768,6.69846065-2.85302462,9.32723935-5.07847617,2.97880927-2.41745409,4.56367652-5.89628603,3.20684678-9.51569974-1.03860132-3.37825293-3.67147989-6.07352044-7.60171297-6.07291792-3.75352945.07177511-7.17334951,1.43477472-10.78069516,2.8974289l5.848322,17.76966492ZM419.99284984,134.71406024l-22.3891178-25.05609767,9.14114442,27.89061866-15.82146633,6.27096857-24.45408704-74.55253512c8.47538195-5.14346439,17.88154522-9.51852014,27.77739741-10.02127878,11.38912086-.82361743,20.81180723,5.31480334,24.44149939,15.90015608,4.08594556,9.24293277,1.97119947,19.50033345-6.27664533,26.17680713l28.22719439,26.58959424-20.6459191,6.80176688ZM392.36850279,94.91110552c3.23158015-1.10888737,6.10513124-2.58849845,8.66014281-4.66003587,2.80483459-2.33174941,4.28353744-5.67999231,3.01439662-9.11916625-.96077237-3.21431427-3.37571119-5.90961843-7.1091446-6.02375467-3.55867493-.05121471-6.84656526,1.30539562-10.24985526,2.68796251l5.68446043,17.11499428ZM335.2832582,163.70139925c7.41145818-5.28212394,10.85859467-13.96727828,8.75775917-22.82730147-2.03193283-9.94434442-9.08530126-17.61529853-18.82492234-20.58577284-6.77039244-2.2391812-13.7308588-2.29483187-20.72480335-1.87246029-5.74504397-.42909317-10.37579576-4.5121956-9.51264222-10.36093447,1.46599776-5.53783043,7.91878795-8.86240573,13.35922015-7.33026212,3.59457548,1.86486666,5.2869604,5.26852154,6.34159746,9.15928684l14.65673846-4.73591131c-1.68216769-5.52438077-4.25635212-10.31296223-8.0364961-14.3308627-4.99955932-5.24079633-11.88861421-7.52496937-19.05812719-6.30357284-5.35489499,1.02155805-10.42925956,2.7599695-14.9367463,5.69781077-6.33760228,3.95249891-9.85826134,10.43123207-9.31834699,17.93083043.46924289,6.18828843,2.0562898,12.1802155,5.33220867,17.4365294,4.24840171,6.60639186,11.3820792,9.52027841,19.18946634,9.70585741l15.22129162-.142551c5.80194666.56708724,10.14039071,5.19224099,8.93330724,11.00312578-1.49952026,4.92282937-6.94307254,8.17129628-11.9842526,7.25754356-3.62059841-1.33619075-5.64629088-4.44159416-6.88841025-8.17861814l-17.10226691,4.68618209c1.92882263,5.1656066,4.62827326,9.84208713,8.42819243,13.69522605,5.55295948,5.73825609,13.03736587,8.18916363,21.05517976,6.63210243,5.59457329-1.15909154,10.62824842-3.34185847,15.11205293-6.53624759ZM251.95691874,168.73114241l1.38923746,22.57142995-17.70411922,1.07530205-2.41861512-81.48694344,18.44357687-6.03799436,44.994021,67.47770667-15.62334327,9.42982445-11.77568686-18.43915365-17.30507087,5.40982834ZM261.23085647,150.32864577l-10.17128743-16.0277316-.02603114,19.40723457,10.19731857-3.37950297ZM158.07078407,184.34326322l-5.42252628-14.0130981-13.38973808,4.62461677-5.59461485-15.96647204,21.22568966-5.74400124-5.41446437-14.91489076-37.42709691,12.20369203,26.70312731,76.15539694,36.20920573-11.65221343-6.01376924-16.2246383-19.84941443,6.3774336-4.88171142-15.33138189,13.85531287-5.5144436ZM370.55270169,114.30928315l-5.24230909-13.51619921-12.51698567,4.26193131-5.49631346-15.39263615,19.84148479-5.31362665-5.30361109-14.42128776-34.96113065,11.40960555,26.06852749,73.48751595,33.88579609-10.8429256-5.80531883-15.58266715-18.66878922,5.84330726-4.73838779-14.72797511,12.93703743-5.20504244Z"/>
</svg>